<?xml version="1.0" encoding="UTF-8" standalone="no"?>
<!DOCTYPE svg PUBLIC "-//W3C//DTD SVG 1.1//EN" "http://www.w3.org/Graphics/SVG/1.1/DTD/svg11.dtd">
<!-- Generated by Microsoft Visio, SVG Export example_of_a_tap_network.vsdx_Page-1_43bdb.svg Page-1 -->
<svg xmlns="http://www.w3.org/2000/svg" xmlns:xlink="http://www.w3.org/1999/xlink" xmlns:ev="http://www.w3.org/2001/xml-events"
		xmlns:v="http://schemas.microsoft.com/visio/2003/SVGExtensions/" width="22.3638in" height="7.51562in"
		viewBox="0 0 1610.19 541.125" xml:space="preserve" color-interpolation-filters="sRGB" class="st21">
	<v:documentProperties v:langID="1033" v:viewMarkup="false">
		<v:userDefs>
			<v:ud v:nameU="msvConvertTheme"/>
		</v:userDefs>
	</v:documentProperties>

	<style type="text/css">
	<![CDATA[
		.st1 {fill:#d8d8d8;stroke:#000000;stroke-linecap:round;stroke-linejoin:round;stroke-width:2.25}
		.st2 {fill:#000000;font-family:Calibri;font-size:4.99999em}
		.st3 {fill:#ebf1df;stroke:#000000;stroke-linecap:round;stroke-linejoin:round;stroke-width:2.25}
		.st4 {fill:#000000;font-family:Calibri;font-size:2.50001em}
		.st5 {font-size:1em}
		.st6 {marker-end:url(#mrkr13-16);marker-start:url(#mrkr13-14);stroke:#00b0f0;stroke-linecap:round;stroke-linejoin:round;stroke-width:4.5}
		.st7 {fill:#00b0f0;fill-opacity:1;stroke:#00b0f0;stroke-opacity:1;stroke-width:0.33333333333333}
		.st8 {marker-end:url(#mrkr13-50);stroke:#92d050;stroke-linecap:round;stroke-linejoin:round;stroke-width:2.25}
		.st9 {fill:#92d050;fill-opacity:1;stroke:#92d050;stroke-opacity:1;stroke-width:0.40983606557377}
		.st10 {marker-end:url(#mrkr13-73);marker-start:url(#mrkr13-71);stroke:#00b0f0;stroke-linecap:round;stroke-linejoin:round;stroke-width:4.5}
		.st11 {fill:#00b0f0;fill-opacity:1;stroke:#00b0f0;stroke-opacity:1;stroke-width:0.58139534883721}
		.st12 {fill:#92cddc;stroke:#000000;stroke-linecap:round;stroke-linejoin:round;stroke-width:2.25}
		.st13 {fill:#000000;font-family:Calibri;font-size:1.5em}
		.st14 {marker-end:url(#mrkr13-102);marker-start:url(#mrkr13-100);stroke:#92d050;stroke-linecap:round;stroke-linejoin:round;stroke-width:4.5}
		.st15 {fill:#92d050;fill-opacity:1;stroke:#92d050;stroke-opacity:1;stroke-width:0.33333333333333}
		.st16 {fill:none;stroke:none;stroke-linecap:round;stroke-linejoin:round;stroke-width:0.75}
		.st17 {stroke:#00b0f0;stroke-linecap:round;stroke-linejoin:round;stroke-width:4.5}
		.st18 {stroke:#92d050;stroke-linecap:round;stroke-linejoin:round;stroke-width:4.5}
		.st19 {fill:#000000;font-family:Calibri;font-size:1.99999em}
		.st20 {fill:#548bd4;stroke:#000000;stroke-linecap:round;stroke-linejoin:round;stroke-width:2.25}
		.st21 {fill:none;fill-rule:evenodd;font-size:12px;overflow:visible;stroke-linecap:square;stroke-miterlimit:3}
	]]>
	</style>

	<defs id="Markers">
		<g id="lend13">
			<path d="M 3 1 L 0 0 L 3 -1 L 3 1 " style="stroke:none"/>
		</g>
		<marker id="mrkr13-14" class="st7" v:arrowType="13" v:arrowSize="5" v:setback="8.91" refX="8.91" orient="auto"
				markerUnits="strokeWidth" overflow="visible">
			<use xlink:href="#lend13" transform="scale(3) "/>
		</marker>
		<marker id="mrkr13-16" class="st7" v:arrowType="13" v:arrowSize="5" v:setback="9" refX="-9" orient="auto"
				markerUnits="strokeWidth" overflow="visible">
			<use xlink:href="#lend13" transform="scale(-3,-3) "/>
		</marker>
		<marker id="mrkr13-50" class="st9" v:arrowType="13" v:arrowSize="3" v:setback="7.32" refX="-7.32" orient="auto"
				markerUnits="strokeWidth" overflow="visible">
			<use xlink:href="#lend13" transform="scale(-2.44,-2.44) "/>
		</marker>
		<marker id="mrkr13-71" class="st11" v:arrowType="13" v:arrowSize="3" v:setback="5.08" refX="5.08" orient="auto"
				markerUnits="strokeWidth" overflow="visible">
			<use xlink:href="#lend13" transform="scale(1.72) "/>
		</marker>
		<marker id="mrkr13-73" class="st11" v:arrowType="13" v:arrowSize="3" v:setback="5.16" refX="-5.16" orient="auto"
				markerUnits="strokeWidth" overflow="visible">
			<use xlink:href="#lend13" transform="scale(-1.72,-1.72) "/>
		</marker>
		<marker id="mrkr13-100" class="st15" v:arrowType="13" v:arrowSize="5" v:setback="8.91" refX="8.91" orient="auto"
				markerUnits="strokeWidth" overflow="visible">
			<use xlink:href="#lend13" transform="scale(3) "/>
		</marker>
		<marker id="mrkr13-102" class="st15" v:arrowType="13" v:arrowSize="5" v:setback="9" refX="-9" orient="auto"
				markerUnits="strokeWidth" overflow="visible">
			<use xlink:href="#lend13" transform="scale(-3,-3) "/>
		</marker>
	</defs>
	<g v:mID="0" v:index="1" v:groupContext="foregroundPage">
		<title>Page-1</title>
		<v:pageProperties v:drawingScale="1" v:pageScale="1" v:drawingUnits="19" v:shadowOffsetX="9" v:shadowOffsetY="-9"/>
		<g id="shape1000-1" v:mID="1000" v:groupContext="shape" transform="translate(324.375,-181.125)">
			<title>Sheet.1000</title>
			<desc>CLTAP</desc>
			<v:textBlock v:margins="rect(4,4,4,4)"/>
			<v:textRect cx="144" cy="361.688" width="288" height="358.875"/>
			<rect x="0" y="182.25" width="288" height="358.875" rx="22.5" ry="22.5" class="st1"/>
			<text x="67.92" y="379.69" class="st2" v:langID="1033"><v:paragraph v:horizAlign="1"/><v:tabList/>CLTAP</text>		</g>
		<g id="shape1001-4" v:mID="1001" v:groupContext="shape" transform="translate(1260.37,-361.125)">
			<title>Sheet.1001</title>
			<desc>NW IP</desc>
			<v:textBlock v:margins="rect(0,0,0,0)"/>
			<v:textRect cx="36" cy="505.125" width="72" height="72"/>
			<rect x="0" y="469.125" width="72" height="72" rx="13.5" ry="13.5" class="st3"/>
			<text x="12.97" y="497.62" class="st4" v:langID="1033"><v:paragraph v:spLine="-1" v:horizAlign="1"/><v:tabList/>NW <tspan
						x="24.47" dy="1em" class="st5">IP</tspan></text>		</g>
		<g id="shape1002-8" v:mID="1002" v:groupContext="shape" transform="translate(612.375,-253.125)">
			<title>Sheet.1002</title>
			<path d="M40.09 541.12 L40.5 541.12 L175.5 541.12" class="st6"/>
		</g>
		<g id="shape1003-17" v:mID="1003" v:groupContext="shape" transform="translate(658.377,-195.997) rotate(-26.5651)">
			<title>Sheet.1003</title>
			<path d="M40.09 541.12 L40.5 541.12 L120.5 541.12" class="st6"/>
		</g>
		<g id="shape1004-24" v:mID="1004" v:groupContext="shape" transform="translate(1142.37,-195.997) rotate(26.5651)">
			<title>Sheet.1004</title>
			<path d="M40.09 541.12 L40.5 541.12 L120.5 541.12" class="st6"/>
		</g>
		<g id="shape1005-31" v:mID="1005" v:groupContext="shape" transform="translate(874.377,-267.997) rotate(-26.5651)">
			<title>Sheet.1005</title>
			<path d="M40.09 541.12 L40.5 541.12 L120.5 541.12" class="st6"/>
		</g>
		<g id="shape1006-38" v:mID="1006" v:groupContext="shape" transform="translate(1358.37,-267.997) rotate(26.5651)">
			<title>Sheet.1006</title>
			<path d="M40.09 541.12 L40.5 541.12 L120.5 541.12" class="st6"/>
		</g>
		<g id="shape1007-45" v:mID="1007" v:groupContext="shape" transform="translate(612,-288)">
			<title>Sheet.1007</title>
			<path d="M0 343.12 L252 343.13 L252 524.65" class="st8"/>
		</g>
		<g id="shape1011-51" v:mID="1011" v:groupContext="shape" transform="translate(1090.38,-339.997) rotate(-26.5651)">
			<title>Sheet.1011</title>
			<path d="M40.09 541.12 L40.5 541.12 L120.5 541.12" class="st6"/>
		</g>
		<g id="shape1012-58" v:mID="1012" v:groupContext="shape" transform="translate(1574.37,-339.997) rotate(26.5651)">
			<title>Sheet.1012</title>
			<path d="M40.09 541.12 L40.5 541.12 L120.5 541.12" class="st6"/>
		</g>
		<g id="shape1013-65" v:mID="1013" v:groupContext="shape" transform="translate(1621.5,396) rotate(90)">
			<title>Sheet.1013</title>
			<path d="M22.86 541.12 L23.22 541.12 L48.78 541.12" class="st10"/>
		</g>
		<g id="shape1014-74" v:mID="1014" v:groupContext="shape" transform="translate(1260.37,-217.125)">
			<title>Sheet.1014</title>
			<desc>NW IP</desc>
			<v:textBlock v:margins="rect(0,0,0,0)"/>
			<v:textRect cx="36" cy="505.125" width="72" height="72"/>
			<rect x="0" y="469.125" width="72" height="72" rx="13.5" ry="13.5" class="st3"/>
			<text x="12.97" y="497.62" class="st4" v:langID="1033"><v:paragraph v:spLine="-1" v:horizAlign="1"/><v:tabList/>NW <tspan
						x="24.47" dy="1em" class="st5">IP</tspan></text>		</g>
		<g id="shape1015-78" v:mID="1015" v:groupContext="shape" transform="translate(1044.37,-289.125)">
			<title>Sheet.1015</title>
			<desc>NW IP</desc>
			<v:textBlock v:margins="rect(0,0,0,0)"/>
			<v:textRect cx="36" cy="505.125" width="72" height="72"/>
			<rect x="0" y="469.125" width="72" height="72" rx="13.5" ry="13.5" class="st3"/>
			<text x="12.97" y="497.62" class="st4" v:langID="1033"><v:paragraph v:spLine="-1" v:horizAlign="1"/><v:tabList/>NW <tspan
						x="24.47" dy="1em" class="st5">IP</tspan></text>		</g>
		<g id="shape1016-82" v:mID="1016" v:groupContext="shape" transform="translate(1044.37,-145.125)">
			<title>Sheet.1016</title>
			<desc>NW IP</desc>
			<v:textBlock v:margins="rect(0,0,0,0)"/>
			<v:textRect cx="36" cy="505.125" width="72" height="72"/>
			<rect x="0" y="469.125" width="72" height="72" rx="13.5" ry="13.5" class="st3"/>
			<text x="12.97" y="497.62" class="st4" v:langID="1033"><v:paragraph v:spLine="-1" v:horizAlign="1"/><v:tabList/>NW <tspan
						x="24.47" dy="1em" class="st5">IP</tspan></text>		</g>
		<g id="shape1017-86" v:mID="1017" v:groupContext="shape" transform="translate(828.375,-217.125)">
			<title>Sheet.1017</title>
			<desc>NW IP</desc>
			<v:textBlock v:margins="rect(0,0,0,0)"/>
			<v:textRect cx="36" cy="505.125" width="72" height="72"/>
			<rect x="0" y="469.125" width="72" height="72" rx="13.5" ry="13.5" class="st3"/>
			<text x="12.97" y="497.62" class="st4" v:langID="1033"><v:paragraph v:spLine="-1" v:horizAlign="1"/><v:tabList/>NW <tspan
						x="24.47" dy="1em" class="st5">IP</tspan></text>		</g>
		<g id="shape1019-90" v:mID="1019" v:groupContext="shape" transform="translate(1044.37,-1.125)">
			<title>Sheet.1019</title>
			<desc>IP with iJTAG</desc>
			<v:textBlock v:margins="rect(4,4,4,4)"/>
			<v:textRect cx="36" cy="505.125" width="72" height="72"/>
			<rect x="0" y="469.125" width="72" height="72" rx="13.5" ry="13.5" class="st12"/>
			<text x="10.81" y="499.72" class="st13" v:langID="1033"><v:paragraph v:horizAlign="1"/><v:tabList/>IP with <tspan
						x="15.79" dy="1.2em" class="st5">iJTAG </tspan> </text>		</g>
		<g id="shape1023-94" v:mID="1023" v:groupContext="shape" transform="translate(1543.88,-190.794) rotate(23.0513)">
			<title>Sheet.1023</title>
			<path d="M40.09 541.12 L40.5 541.12 L189.35 541.12" class="st14"/>
		</g>
		<g id="shape1024-103" v:mID="1024" v:groupContext="shape" transform="translate(1646.36,-103.322) rotate(37.8433)">
			<title>Sheet.1024</title>
			<path d="M40.09 541.12 L40.5 541.12 L78.69 541.12" class="st14"/>
		</g>
		<g id="shape1025-110" v:mID="1025" v:groupContext="shape" transform="translate(1819.5,324) rotate(90)">
			<title>Sheet.1025</title>
			<path d="M22.86 541.12 L23.22 541.12 L48.78 541.12" class="st10"/>
		</g>
		<g id="shape1026-117" v:mID="1026" v:groupContext="shape" transform="translate(630,-494)">
			<title>Sheet.1026</title>
			<desc>JTAG Control+TDI</desc>
			<v:textBlock v:margins="rect(4,4,4,4)"/>
			<v:textRect cx="117" cy="531.125" width="234.01" height="20"/>
			<rect x="0" y="521.125" width="234" height="20" class="st16"/>
			<text x="10.19" y="540.13" class="st4" v:langID="1033"><v:paragraph v:horizAlign="1"/><v:tabList/>JTAG Control+TDI</text>		</g>
		<g id="shape1027-120" v:mID="1027" v:groupContext="shape" transform="translate(324.375,-109.125)">
			<title>Sheet.1027</title>
			<path d="M0 541.12 L72 541.12" class="st17"/>
		</g>
		<g id="shape1029-123" v:mID="1029" v:groupContext="shape" transform="translate(324.375,-72.125)">
			<title>Sheet.1029</title>
			<path d="M0 541.12 L72 541.12" class="st18"/>
		</g>
		<g id="shape1030-126" v:mID="1030" v:groupContext="shape" transform="translate(400.25,-100.125)">
			<title>Sheet.1030</title>
			<desc>iJTAG</desc>
			<v:textBlock v:margins="rect(4,4,4,4)"/>
			<v:textRect cx="76" cy="531.125" width="152.01" height="20"/>
			<rect x="0" y="521.125" width="152" height="20" class="st16"/>
			<text x="4" y="538.33" class="st19" v:langID="1033"><v:paragraph/><v:tabList/>iJTAG</text>		</g>
		<g id="shape1032-129" v:mID="1032" v:groupContext="shape" transform="translate(400.25,-63.1251)">
			<title>Sheet.1032</title>
			<desc>JTAG</desc>
			<v:textBlock v:margins="rect(4,4,4,4)"/>
			<v:textRect cx="76" cy="531.125" width="152.01" height="20"/>
			<rect x="0" y="521.125" width="152" height="20" class="st16"/>
			<text x="4" y="538.33" class="st19" v:langID="1033"><v:paragraph/><v:tabList/>JTAG</text>		</g>
		<g id="shape1040-132" v:mID="1040" v:groupContext="shape" transform="translate(1006.5,788.376) rotate(-152.021)">
			<title>Sheet.1040</title>
			<path d="M0 541.12 L146.59 541.12" class="st8"/>
		</g>
		<g id="shape1041-137" v:mID="1041" v:groupContext="shape" transform="translate(1502.37,608.872) rotate(153.435)">
			<title>Sheet.1041</title>
			<path d="M0 541.12 L144.53 541.12" class="st8"/>
		</g>
		<g id="shape1042-142" v:mID="1042" v:groupContext="shape" transform="translate(790.503,861.501) rotate(-152.021)">
			<title>Sheet.1042</title>
			<path d="M0 541.12 L146.59 541.12" class="st8"/>
		</g>
		<g id="shape1043-147" v:mID="1043" v:groupContext="shape" transform="translate(1286.37,681.997) rotate(153.435)">
			<title>Sheet.1043</title>
			<path d="M0 541.12 L144.53 541.12" class="st8"/>
		</g>
		<g id="shape1044-152" v:mID="1044" v:groupContext="shape" transform="translate(460.031,666.408) rotate(-137.102)">
			<title>Sheet.1044</title>
			<path d="M0 541.12 L272.75 541.12" class="st8"/>
		</g>
		<g id="shape1045-157" v:mID="1045" v:groupContext="shape" transform="translate(1029.81,-285.575) rotate(42.8)">
			<title>Sheet.1045</title>
			<desc>Return TDO</desc>
			<v:textBlock v:margins="rect(4,4,4,4)"/>
			<v:textRect cx="97.625" cy="531.125" width="195.25" height="20"/>
			<rect x="0" y="521.125" width="195.25" height="20" class="st16"/>
			<text x="26.14" y="540.13" class="st4" v:langID="1033"><v:paragraph v:horizAlign="1"/><v:tabList/>Return TDO</text>		</g>
		<g id="shape1046-160" v:mID="1046" v:groupContext="shape" transform="translate(900.375,-1.12507)">
			<title>Sheet.1046</title>
			<desc>IP with TAP</desc>
			<v:textBlock v:margins="rect(4,4,4,4)"/>
			<v:textRect cx="36" cy="505.125" width="72" height="72"/>
			<rect x="0" y="469.125" width="72" height="72" rx="13.5" ry="13.5" class="st20"/>
			<text x="10.81" y="499.72" class="st13" v:langID="1033"><v:paragraph v:horizAlign="1"/><v:tabList/>IP with <tspan
						x="21.76" dy="1.2em" class="st5">TAP</tspan></text>		</g>
		<g id="shape1047-164" v:mID="1047" v:groupContext="shape" transform="translate(1344.54,846.243) rotate(146.31)">
			<title>Sheet.1047</title>
			<path d="M40.1 541.12 L40.5 541.12 L89.3 541.12" class="st14"/>
		</g>
		<g id="shape1048-171" v:mID="1048" v:groupContext="shape" transform="translate(198.375,-397.125)">
			<title>Sheet.1048</title>
			<path d="M40.09 541.12 L40.5 541.12 L85.5 541.12" class="st14"/>
		</g>
		<g id="shape1049-178" v:mID="1049" v:groupContext="shape" transform="translate(0.375,-395.125)">
			<title>Sheet.1049</title>
			<desc>Chip-level JTAG port</desc>
			<v:textBlock v:margins="rect(4,4,4,4)"/>
			<v:textRect cx="94.5" cy="531.125" width="189.01" height="20"/>
			<rect x="0" y="521.125" width="189" height="20" class="st16"/>
			<text x="64.24" y="522.13" class="st4" v:langID="1033"><v:paragraph v:horizAlign="2"/><v:tabList/>Chip-level <tspan
						x="65.66" dy="1.2em" class="st5">JTAG port</tspan></text>		</g>
		<g id="shape1050-182" v:mID="1050" v:groupContext="shape" transform="translate(585.375,-261.125)">
			<title>Sheet.1050</title>
			<desc>iJTAG</desc>
			<v:textBlock v:margins="rect(4,4,4,4)"/>
			<v:textRect cx="117" cy="531.125" width="234.01" height="20"/>
			<rect x="0" y="521.125" width="234" height="20" class="st16"/>
			<text x="83.32" y="540.13" class="st4" v:langID="1033"><v:paragraph v:horizAlign="1"/><v:tabList/>iJTAG</text>		</g>
		<g id="shape1051-185" v:mID="1051" v:groupContext="shape" transform="translate(1404,-73.125)">
			<title>Sheet.1051</title>
			<desc>IP with TAP</desc>
			<v:textBlock v:margins="rect(4,4,4,4)"/>
			<v:textRect cx="36" cy="505.125" width="72" height="72"/>
			<rect x="0" y="469.125" width="72" height="72" rx="13.5" ry="13.5" class="st20"/>
			<text x="10.81" y="496.12" class="st13" v:langID="1033"><v:paragraph v:horizAlign="1"/><v:tabList/>IP with <tspan
						x="21.76" dy="1.5em" class="st5">TAP</tspan></text>		</g>
		<g id="shape1052-189" v:mID="1052" v:groupContext="shape" transform="translate(1537.07,-73.125)">
			<title>Sheet.1052</title>
			<desc>IP with TAP</desc>
			<v:textBlock v:margins="rect(4,4,4,4)"/>
			<v:textRect cx="36" cy="505.125" width="72" height="72"/>
			<rect x="0" y="469.125" width="72" height="72" rx="13.5" ry="13.5" class="st20"/>
			<text x="10.81" y="496.12" class="st13" v:langID="1033"><v:paragraph v:horizAlign="1"/><v:tabList/>IP with <tspan
						x="21.76" dy="1.5em" class="st5">TAP</tspan></text>		</g>
		<g id="shape1053-193" v:mID="1053" v:groupContext="shape" transform="translate(864,-360)">
			<title>Sheet.1053</title>
			<path d="M0 415.12 L216 415.13 L216 524.65" class="st8"/>
		</g>
		<g id="shape1054-198" v:mID="1054" v:groupContext="shape" transform="translate(1621.12,253.125) rotate(90)">
			<title>Sheet.1054</title>
			<path d="M0 541.12 L55.53 541.12" class="st8"/>
		</g>
		<g id="shape1055-203" v:mID="1055" v:groupContext="shape" transform="translate(1080,-432)">
			<title>Sheet.1055</title>
			<path d="M0 487.13 L216 487.13 L216 524.65" class="st8"/>
		</g>
		<g id="shape1056-208" v:mID="1056" v:groupContext="shape" transform="translate(1837.12,181.125) rotate(90)">
			<title>Sheet.1056</title>
			<path d="M0 541.12 L55.53 541.12" class="st8"/>
		</g>
		<g id="shape1058-213" v:mID="1058" v:groupContext="shape" transform="translate(1242,-72)">
			<title>Sheet.1058</title>
			<desc>IP with iJTAG</desc>
			<v:textBlock v:margins="rect(4,4,4,4)"/>
			<v:textRect cx="36" cy="505.125" width="72" height="72"/>
			<rect x="0" y="469.125" width="72" height="72" rx="13.5" ry="13.5" class="st12"/>
			<text x="10.81" y="499.72" class="st13" v:langID="1033"><v:paragraph v:horizAlign="1"/><v:tabList/>IP with <tspan
						x="15.79" dy="1.2em" class="st5">iJTAG </tspan> </text>		</g>
		<g id="shape1059-217" v:mID="1059" v:groupContext="shape" transform="translate(1476,-288)">
			<title>Sheet.1059</title>
			<desc>IP with iJTAG</desc>
			<v:textBlock v:margins="rect(4,4,4,4)"/>
			<v:textRect cx="36" cy="505.125" width="72" height="72"/>
			<rect x="0" y="469.125" width="72" height="72" rx="13.5" ry="13.5" class="st12"/>
			<text x="10.81" y="499.72" class="st13" v:langID="1033"><v:paragraph v:horizAlign="1"/><v:tabList/>IP with <tspan
						x="15.79" dy="1.2em" class="st5">iJTAG </tspan> </text>		</g>
		<g id="shape1060-221" v:mID="1060" v:groupContext="shape" transform="translate(1476,-432)">
			<title>Sheet.1060</title>
			<desc>IP with iJTAG</desc>
			<v:textBlock v:margins="rect(4,4,4,4)"/>
			<v:textRect cx="36" cy="505.125" width="72" height="72"/>
			<rect x="0" y="469.125" width="72" height="72" rx="13.5" ry="13.5" class="st12"/>
			<text x="10.81" y="499.72" class="st13" v:langID="1033"><v:paragraph v:horizAlign="1"/><v:tabList/>IP with <tspan
						x="15.79" dy="1.2em" class="st5">iJTAG </tspan> </text>		</g>
	</g>
</svg>
