<?xml version="1.0" encoding="UTF-8" standalone="no"?>
<!DOCTYPE svg PUBLIC "-//W3C//DTD SVG 1.1//EN" "http://www.w3.org/Graphics/SVG/1.1/DTD/svg11.dtd">
<!-- Generated by Microsoft Visio, SVG Export Endebug_Concepts.vsdx_Concept_B_En1_74e3a.svg Page-1 -->
<svg xmlns="http://www.w3.org/2000/svg" xmlns:xlink="http://www.w3.org/1999/xlink" xmlns:ev="http://www.w3.org/2001/xml-events"
		xmlns:v="http://schemas.microsoft.com/visio/2003/SVGExtensions/" width="17.3793in" height="12.4128in"
		viewBox="0 0 1251.31 893.725" xml:space="preserve" color-interpolation-filters="sRGB" class="st26">
	<v:documentProperties v:langID="1033" v:viewMarkup="false">
		<v:userDefs>
			<v:ud v:nameU="msvConvertTheme"/>
		</v:userDefs>
	</v:documentProperties>

	<style type="text/css">
	<![CDATA[
		.st1 {fill:#ffffd0;stroke:#5880b3;stroke-linecap:round;stroke-linejoin:round;stroke-width:0.25}
		.st2 {fill:#ebf1df;stroke:#5880b3;stroke-linecap:round;stroke-linejoin:round;stroke-width:0.75}
		.st3 {fill:#eaeff5;stroke:#5880b3;stroke-linecap:round;stroke-linejoin:round;stroke-width:0.75}
		.st4 {fill:#ffffff;stroke:#000000;stroke-linecap:round;stroke-linejoin:round;stroke-width:0.75}
		.st5 {fill:#000000;font-family:Calibri;font-size:2.50001em}
		.st6 {fill:none;stroke:none;stroke-linecap:round;stroke-linejoin:round;stroke-width:0.75}
		.st7 {fill:#000000;font-family:Calibri;font-size:1.99999em}
		.st8 {fill:#c4d6a0;stroke:#5880b3;stroke-linecap:round;stroke-linejoin:round;stroke-width:0.75}
		.st9 {font-size:1em}
		.st10 {fill:#000000;font-family:Calibri;font-size:3em}
		.st11 {stroke:#000000;stroke-linecap:round;stroke-linejoin:round;stroke-width:0.75}
		.st12 {marker-end:url(#mrkr13-48);stroke:#000000;stroke-linecap:round;stroke-linejoin:round;stroke-width:0.75}
		.st13 {fill:#000000;fill-opacity:1;stroke:#000000;stroke-opacity:1;stroke-width:0.15923566878981}
		.st14 {marker-end:url(#mrkr13-86);stroke:#000000;stroke-linecap:round;stroke-linejoin:round;stroke-width:0.75}
		.st15 {fill:#000000;fill-opacity:1;stroke:#000000;stroke-opacity:1;stroke-width:0.22935779816514}
		.st16 {fill:#000000;font-family:Calibri;font-size:1.16666em}
		.st17 {marker-end:url(#mrkr13-195);stroke:#000000;stroke-dasharray:5.25,3.75;stroke-linecap:round;stroke-linejoin:round;stroke-width:0.75}
		.st18 {fill:#000000;font-family:Calibri;font-size:1.5em}
		.st19 {stroke:#0070c0;stroke-linecap:round;stroke-linejoin:round;stroke-width:0.75}
		.st20 {marker-end:url(#mrkr13-231);stroke:#789440;stroke-linecap:round;stroke-linejoin:round;stroke-width:0.75}
		.st21 {fill:#789440;fill-opacity:1;stroke:#789440;stroke-opacity:1;stroke-width:0.15923566878981}
		.st22 {fill:#789440;font-family:Calibri;font-size:1.5em}
		.st23 {marker-end:url(#mrkr13-261);stroke:#0070c0;stroke-linecap:round;stroke-linejoin:round;stroke-width:0.75}
		.st24 {fill:#0070c0;fill-opacity:1;stroke:#0070c0;stroke-opacity:1;stroke-width:0.15923566878981}
		.st25 {fill:#0070c0;font-family:Calibri;font-size:1.5em}
		.st26 {fill:none;fill-rule:evenodd;font-size:12px;overflow:visible;stroke-linecap:square;stroke-miterlimit:3}
	]]>
	</style>

	<defs id="Markers">
		<g id="lend13">
			<path d="M 3 1 L 0 0 L 3 -1 L 3 1 " style="stroke:none"/>
		</g>
		<marker id="mrkr13-48" class="st13" v:arrowType="13" v:arrowSize="4" v:setback="18.84" refX="-18.84" orient="auto"
				markerUnits="strokeWidth" overflow="visible">
			<use xlink:href="#lend13" transform="scale(-6.28,-6.28) "/>
		</marker>
		<marker id="mrkr13-86" class="st15" v:arrowType="13" v:arrowSize="2" v:setback="13.08" refX="-13.08" orient="auto"
				markerUnits="strokeWidth" overflow="visible">
			<use xlink:href="#lend13" transform="scale(-4.36,-4.36) "/>
		</marker>
		<marker id="mrkr13-195" class="st15" v:arrowType="13" v:arrowSize="2" v:setback="12.6" refX="-12.6" orient="auto"
				markerUnits="strokeWidth" overflow="visible">
			<use xlink:href="#lend13" transform="scale(-4.36,-4.36) "/>
		</marker>
		<marker id="mrkr13-231" class="st21" v:arrowType="13" v:arrowSize="4" v:setback="18.84" refX="-18.84" orient="auto"
				markerUnits="strokeWidth" overflow="visible">
			<use xlink:href="#lend13" transform="scale(-6.28,-6.28) "/>
		</marker>
		<marker id="mrkr13-261" class="st24" v:arrowType="13" v:arrowSize="4" v:setback="18.84" refX="-18.84" orient="auto"
				markerUnits="strokeWidth" overflow="visible">
			<use xlink:href="#lend13" transform="scale(-6.28,-6.28) "/>
		</marker>
	</defs>
	<g v:mID="0" v:index="1" v:groupContext="foregroundPage">
		<title>Page-1</title>
		<v:pageProperties v:drawingScale="1" v:pageScale="1" v:drawingUnits="19" v:shadowOffsetX="9" v:shadowOffsetY="-9"/>
		<g id="shape84-1" v:mID="84" v:groupContext="shape" transform="translate(116.938,-0.125)">
			<title>Sheet.84</title>
			<path d="M0 533.72 L144 533.72 L144 839.72 L810 839.72 L810 533.72 L954 533.72 L954 893.72 L0 893.72 L0 533.72 Z"
					class="st1"/>
		</g>
		<g id="shape88-3" v:mID="88" v:groupContext="shape" transform="translate(296.938,-72.125)">
			<title>Sheet.88</title>
			<rect x="0" y="155.725" width="379.125" height="738" class="st2"/>
		</g>
		<g id="shape28-5" v:mID="28" v:groupContext="shape" transform="translate(350.938,-504.125)">
			<title>Sheet.28</title>
			<rect x="0" y="623.725" width="288" height="270" class="st3"/>
		</g>
		<g id="shape29-7" v:mID="29" v:groupContext="shape" transform="translate(424.063,-666.125)">
			<title>Sheet.29</title>
			<desc>FSM</desc>
			<v:textBlock v:margins="rect(4,4,4,4)"/>
			<v:textRect cx="63" cy="857.725" width="126" height="72"/>
			<rect x="0" y="821.725" width="126" height="72" class="st4"/>
			<text x="36.39" y="866.72" class="st5" v:langID="1033"><v:paragraph v:horizAlign="1"/><v:tabList/>FSM</text>		</g>
		<g id="shape31-10" v:mID="31" v:groupContext="shape" transform="translate(418.938,-746.125)">
			<title>Sheet.31</title>
			<desc>Main CLTAP</desc>
			<v:textBlock v:margins="rect(4,4,4,4)"/>
			<v:textRect cx="76" cy="883.725" width="152" height="20"/>
			<rect x="0" y="873.725" width="152" height="20" class="st6"/>
			<text x="17.79" y="890.93" class="st7" v:langID="1033"><v:paragraph v:horizAlign="1"/><v:tabList/>Main CLTAP</text>		</g>
		<g id="shape32-13" v:mID="32" v:groupContext="shape" transform="translate(350.938,-108.125)">
			<title>Sheet.32</title>
			<rect x="0" y="623.725" width="288" height="270" class="st8"/>
		</g>
		<g id="shape33-15" v:mID="33" v:groupContext="shape" transform="translate(424.063,-270.125)">
			<title>Sheet.33</title>
			<desc>FSM</desc>
			<v:textBlock v:margins="rect(4,4,4,4)"/>
			<v:textRect cx="63" cy="857.725" width="126" height="72"/>
			<rect x="0" y="821.725" width="126" height="72" class="st4"/>
			<text x="36.39" y="866.72" class="st5" v:langID="1033"><v:paragraph v:horizAlign="1"/><v:tabList/>FSM</text>		</g>
		<g id="shape36-18" v:mID="36" v:groupContext="shape" transform="translate(746.938,-666.125)">
			<title>Sheet.36</title>
			<desc>Green TDRs</desc>
			<v:textBlock v:margins="rect(4,4,4,4)"/>
			<v:textRect cx="63" cy="857.725" width="126" height="72"/>
			<rect x="0" y="821.725" width="126" height="72" class="st4"/>
			<text x="25.5" y="848.72" class="st5" v:langID="1033"><v:paragraph v:horizAlign="1"/><v:tabList/>Green <tspan x="32.45"
						dy="1.2em" class="st9">TDRs</tspan></text>		</g>
		<g id="shape37-22" v:mID="37" v:groupContext="shape" transform="translate(746.938,-594.125)">
			<title>Sheet.37</title>
			<desc>Green ED TDRs</desc>
			<v:textBlock v:margins="rect(4,4,4,4)"/>
			<v:textRect cx="63" cy="857.725" width="126" height="72"/>
			<rect x="0" y="821.725" width="126" height="72" class="st4"/>
			<text x="25.5" y="848.72" class="st5" v:langID="1033"><v:paragraph v:horizAlign="1"/><v:tabList/>Green <v:newlineChar/><tspan
						x="12.51" dy="1.2em" class="st9">ED TDRs</tspan></text>		</g>
		<g id="shape38-26" v:mID="38" v:groupContext="shape" transform="translate(746.938,-198.125)">
			<title>Sheet.38</title>
			<desc>Orange/Red TDRs</desc>
			<v:textBlock v:margins="rect(4,4,4,4)"/>
			<v:textRect cx="63" cy="857.725" width="126" height="72"/>
			<rect x="0" y="821.725" width="126" height="72" class="st4"/>
			<text x="12.46" y="848.72" class="st5" v:langID="1033"><v:paragraph v:horizAlign="1"/><v:tabList/>Orange/<tspan
						x="5.57" dy="1.2em" class="st9">Red TDRs</tspan></text>		</g>
		<g id="shape39-30" v:mID="39" v:groupContext="shape" transform="translate(1124.94,-648.125)">
			<title>Sheet.39</title>
			<desc>TAP Network</desc>
			<v:textBlock v:margins="rect(4,4,4,4)"/>
			<v:textRect cx="63" cy="857.725" width="126" height="72"/>
			<rect x="0" y="821.725" width="126" height="72" class="st4"/>
			<text x="39.26" y="848.72" class="st5" v:langID="1033"><v:paragraph v:horizAlign="1"/><v:tabList/>TAP <tspan x="10.15"
						dy="1.2em" class="st9">Network</tspan></text>		</g>
		<g id="shape40-34" v:mID="40" v:groupContext="shape" transform="translate(278.938,-862.125)">
			<title>Sheet.40</title>
			<desc>Endebug mode, CLTAP only</desc>
			<v:textBlock v:margins="rect(4,4,4,4)"/>
			<v:textRect cx="284.719" cy="883.725" width="569.44" height="20"/>
			<rect x="0" y="873.725" width="569.438" height="20" class="st6"/>
			<text x="84.81" y="894.53" class="st10" v:langID="1033"><v:paragraph v:horizAlign="1"/><v:tabList/>Endebug mode, CLTAP only</text>		</g>
		<g id="shape41-37" v:mID="41" v:groupContext="shape" transform="translate(62.9375,-630.125)">
			<title>Sheet.41</title>
			<path d="M0 893.72 L648 893.72" class="st11"/>
		</g>
		<g id="shape42-40" v:mID="42" v:groupContext="shape" transform="translate(0.375,-620.125)">
			<title>Sheet.42</title>
			<desc>TDI</desc>
			<v:textBlock v:margins="rect(4,4,4,4)"/>
			<v:textRect cx="31.2812" cy="883.725" width="62.57" height="20"/>
			<rect x="0" y="873.725" width="62.5625" height="20" class="st6"/>
			<text x="10.96" y="892.72" class="st5" v:langID="1033"><v:paragraph v:horizAlign="1"/><v:tabList/>TDI</text>		</g>
		<g id="shape44-43" v:mID="44" v:groupContext="shape" transform="translate(386.938,-576.125)">
			<title>Sheet.44</title>
			<path d="M0 839.72 L0 893.72 L21.87 893.72" class="st12"/>
		</g>
		<g id="shape45-49" v:mID="45" v:groupContext="shape" transform="translate(710.938,-630.125)">
			<title>Sheet.45</title>
			<path d="M0 893.72 L0 821.72 L21.87 821.72" class="st12"/>
		</g>
		<g id="shape46-54" v:mID="46" v:groupContext="shape" transform="translate(926.938,-648.125)">
			<title>Sheet.46</title>
			<path d="M0 821.72 L0 893.72 L36 875.72 L36 839.72 L0 821.72 Z" class="st4"/>
		</g>
		<g id="shape47-56" v:mID="47" v:groupContext="shape" transform="translate(872.937,-702.125)">
			<title>Sheet.47</title>
			<path d="M0 893.72 L54 893.72" class="st11"/>
		</g>
		<g id="shape49-59" v:mID="49" v:groupContext="shape" transform="translate(62.9375,-684.125)">
			<title>Sheet.49</title>
			<path d="M900 893.72 L954 893.72 L954 749.72 L14.13 749.72" class="st12"/>
		</g>
		<g id="shape50-64" v:mID="50" v:groupContext="shape" transform="translate(62.9375,-702.125)">
			<title>Sheet.50</title>
			<path d="M0 893.72 L345.87 893.72" class="st12"/>
		</g>
		<g id="shape51-69" v:mID="51" v:groupContext="shape" transform="translate(0.375,-692.125)">
			<title>Sheet.51</title>
			<desc>TMS</desc>
			<v:textBlock v:margins="rect(4,4,4,4)"/>
			<v:textRect cx="31.2812" cy="883.725" width="62.57" height="20"/>
			<rect x="0" y="873.725" width="62.5625" height="20" class="st6"/>
			<text x="4.25" y="892.72" class="st5" v:langID="1033"><v:paragraph v:horizAlign="1"/><v:tabList/>TMS</text>		</g>
		<g id="shape52-72" v:mID="52" v:groupContext="shape" transform="translate(0.375,-818.125)">
			<title>Sheet.52</title>
			<desc>TDO</desc>
			<v:textBlock v:margins="rect(4,4,4,4)"/>
			<v:textRect cx="31.2812" cy="883.725" width="62.57" height="20"/>
			<rect x="0" y="873.725" width="62.5625" height="20" class="st6"/>
			<text x="4.81" y="892.72" class="st5" v:langID="1033"><v:paragraph v:horizAlign="1"/><v:tabList/>TDO</text>		</g>
		<g id="shape53-75" v:mID="53" v:groupContext="shape" transform="translate(962.938,-211.625)">
			<title>Sheet.53</title>
			<desc>Encr</desc>
			<v:textBlock v:margins="rect(4,4,4,4)"/>
			<v:textRect cx="36" cy="871.225" width="72" height="45"/>
			<rect x="0" y="848.725" width="72" height="45" class="st4"/>
			<text x="9.22" y="880.22" class="st5" v:langID="1033"><v:paragraph v:horizAlign="1"/><v:tabList/>Encr</text>		</g>
		<g id="shape54-78" v:mID="54" v:groupContext="shape" transform="translate(152.938,-238.625)">
			<title>Sheet.54</title>
			<desc>Decr</desc>
			<v:textBlock v:margins="rect(4,4,4,4)"/>
			<v:textRect cx="36" cy="871.225" width="72" height="45"/>
			<rect x="0" y="848.725" width="72" height="45" class="st4"/>
			<text x="7.74" y="880.22" class="st5" v:langID="1033"><v:paragraph v:horizAlign="1"/><v:tabList/>Decr</text>		</g>
		<g id="shape55-81" v:mID="55" v:groupContext="shape" transform="translate(1055.66,587.6) rotate(90)">
			<title>Sheet.55</title>
			<path d="M0 893.72 L12.69 893.72" class="st14"/>
		</g>
		<g id="shape56-87" v:mID="56" v:groupContext="shape" transform="translate(1064.66,587.6) rotate(90)">
			<title>Sheet.56</title>
			<path d="M0 893.72 L12.69 893.72" class="st14"/>
		</g>
		<g id="shape57-92" v:mID="57" v:groupContext="shape" transform="translate(1073.66,587.6) rotate(90)">
			<title>Sheet.57</title>
			<path d="M0 893.72 L12.69 893.72" class="st14"/>
		</g>
		<g id="shape58-97" v:mID="58" v:groupContext="shape" transform="translate(1082.66,587.6) rotate(90)">
			<title>Sheet.58</title>
			<path d="M0 893.72 L12.69 893.72" class="st14"/>
		</g>
		<g id="shape59-102" v:mID="59" v:groupContext="shape" transform="translate(1091.66,587.6) rotate(90)">
			<title>Sheet.59</title>
			<path d="M0 893.72 L12.69 893.72" class="st14"/>
		</g>
		<g id="shape60-107" v:mID="60" v:groupContext="shape" transform="translate(1100.66,587.6) rotate(90)">
			<title>Sheet.60</title>
			<path d="M0 893.72 L12.69 893.72" class="st14"/>
		</g>
		<g id="shape61-112" v:mID="61" v:groupContext="shape" transform="translate(1109.66,587.6) rotate(90)">
			<title>Sheet.61</title>
			<path d="M0 893.72 L12.69 893.72" class="st14"/>
		</g>
		<g id="shape62-117" v:mID="62" v:groupContext="shape" transform="translate(161.937,-305.125)">
			<title>Sheet.62</title>
			<desc>ED TDRs</desc>
			<v:textBlock v:margins="rect(4,4,4,4)"/>
			<v:textRect cx="29" cy="883.725" width="58" height="20"/>
			<rect x="0" y="873.725" width="58" height="20" class="st6"/>
			<text x="5.44" y="887.93" class="st16" v:langID="1033"><v:paragraph v:horizAlign="1"/><v:tabList/>ED TDRs</text>		</g>
		<g id="shape63-120" v:mID="63" v:groupContext="shape" transform="translate(132.213,637.1) rotate(-90)">
			<title>Sheet.63</title>
			<path d="M0 893.72 L12.69 893.72" class="st14"/>
		</g>
		<g id="shape64-125" v:mID="64" v:groupContext="shape" transform="translate(123.213,637.1) rotate(-90)">
			<title>Sheet.64</title>
			<path d="M0 893.72 L12.69 893.72" class="st14"/>
		</g>
		<g id="shape65-130" v:mID="65" v:groupContext="shape" transform="translate(114.213,637.1) rotate(-90)">
			<title>Sheet.65</title>
			<path d="M0 893.72 L12.69 893.72" class="st14"/>
		</g>
		<g id="shape66-135" v:mID="66" v:groupContext="shape" transform="translate(105.213,637.1) rotate(-90)">
			<title>Sheet.66</title>
			<path d="M0 893.72 L12.69 893.72" class="st14"/>
		</g>
		<g id="shape67-140" v:mID="67" v:groupContext="shape" transform="translate(96.2125,637.1) rotate(-90)">
			<title>Sheet.67</title>
			<path d="M0 893.72 L12.69 893.72" class="st14"/>
		</g>
		<g id="shape68-145" v:mID="68" v:groupContext="shape" transform="translate(87.2125,637.1) rotate(-90)">
			<title>Sheet.68</title>
			<path d="M0 893.72 L12.69 893.72" class="st14"/>
		</g>
		<g id="shape69-150" v:mID="69" v:groupContext="shape" transform="translate(78.2125,637.1) rotate(-90)">
			<title>Sheet.69</title>
			<path d="M0 893.72 L12.69 893.72" class="st14"/>
		</g>
		<g id="shape70-155" v:mID="70" v:groupContext="shape" transform="translate(969.937,-278.125)">
			<title>Sheet.70</title>
			<desc>ED TDRs</desc>
			<v:textBlock v:margins="rect(4,4,4,4)"/>
			<v:textRect cx="29" cy="883.725" width="58" height="20"/>
			<rect x="0" y="873.725" width="58" height="20" class="st6"/>
			<text x="5.44" y="887.93" class="st16" v:langID="1033"><v:paragraph v:horizAlign="1"/><v:tabList/>ED TDRs</text>		</g>
		<g id="shape72-158" v:mID="72" v:groupContext="shape" transform="translate(152.938,-99.125)">
			<title>Sheet.72</title>
			<desc>FSM</desc>
			<v:textBlock v:margins="rect(4,4,4,4)"/>
			<v:textRect cx="36" cy="871.225" width="72" height="45"/>
			<rect x="0" y="848.725" width="72" height="45" class="st4"/>
			<text x="23.58" y="875.43" class="st16" v:langID="1033"><v:paragraph v:horizAlign="1"/><v:tabList/>FSM</text>		</g>
		<g id="shape73-161" v:mID="73" v:groupContext="shape" transform="translate(1082.66,655.1) rotate(90)">
			<title>Sheet.73</title>
			<path d="M0 893.72 L22.5 893.72" class="st11"/>
		</g>
		<g id="shape75-164" v:mID="75" v:groupContext="shape" transform="translate(1082.66,722.6) rotate(90)">
			<title>Sheet.75</title>
			<path d="M0 893.72 L27 893.72" class="st11"/>
		</g>
		<g id="shape76-167" v:mID="76" v:groupContext="shape" transform="translate(224.938,-180.125) rotate(1.24185E-06)">
			<title>Sheet.76</title>
			<path d="M0 893.72 L183.87 893.72" class="st12"/>
		</g>
		<g id="shape77-172" v:mID="77" v:groupContext="shape" transform="translate(386.938,-180.125)">
			<title>Sheet.77</title>
			<path d="M0 893.72 L0 839.72 L345.87 839.72" class="st12"/>
		</g>
		<g id="shape78-177" v:mID="78" v:groupContext="shape" transform="translate(224.938,-207.125)">
			<title>Sheet.78</title>
			<path d="M0 893.72 L90 893.72 L90 794.72 L183.87 794.72" class="st12"/>
		</g>
		<g id="shape79-182" v:mID="79" v:groupContext="shape" transform="translate(872.937,-234.125)">
			<title>Sheet.79</title>
			<path d="M0 893.72 L75.87 893.72" class="st12"/>
		</g>
		<g id="shape80-187" v:mID="80" v:groupContext="shape" transform="translate(872.938,-630.125)">
			<title>Sheet.80</title>
			<path d="M0 893.72 L27 893.72 L27 857.72 L54 857.72" class="st11"/>
		</g>
		<g id="shape81-190" v:mID="81" v:groupContext="shape" transform="translate(1113.47,1051.84) rotate(156.28)">
			<title>Sheet.81</title>
			<path d="M0 821.65 C29.42 764.79 92.28 744.78 156.48 753.46 C232.92 763.79 311.25 814.79 394.34 850.8 C454.13 876.71
						 516.38 894.86 558.27 893.72 C591.22 892.83 611.57 879.99 626.24 860.63 C632.47 852.42 637.68 843.03 644.29
						 830.36 L644.46 830.04" class="st17"/>
		</g>
		<g id="shape82-196" v:mID="82" v:groupContext="shape" transform="translate(216.152,1001.11) rotate(-117.523)">
			<title>Sheet.82</title>
			<path d="M0 882.68 C40.9 904 69.07 890.72 95.69 875.18 C116.28 863.15 135.95 849.77 154.63 841.37 C179.97 829.97 203.5
						 827.74 229.39 834.72 C253.53 841.24 279.73 855.77 322.4 878.14 L322.72 878.3" class="st17"/>
		</g>
		<g id="shape83-201" v:mID="83" v:groupContext="shape" transform="translate(710.937,-630.125)">
			<title>Sheet.83</title>
			<path d="M0 893.72 L21.87 893.72" class="st12"/>
		</g>
		<g id="shape85-206" v:mID="85" v:groupContext="shape" transform="translate(508.938,-16.125)">
			<title>Sheet.85</title>
			<desc>Endebug IP</desc>
			<v:textBlock v:margins="rect(4,4,4,4)"/>
			<v:textRect cx="76" cy="883.725" width="152" height="20"/>
			<rect x="0" y="873.725" width="152" height="20" class="st6"/>
			<text x="21.37" y="890.93" class="st7" v:langID="1033"><v:paragraph v:horizAlign="1"/><v:tabList/>Endebug IP</text>		</g>
		<g id="shape89-209" v:mID="89" v:groupContext="shape" transform="translate(414.938,-782.125)">
			<title>Sheet.89</title>
			<desc>CLTAP IP</desc>
			<v:textBlock v:margins="rect(4,4,4,4)"/>
			<v:textRect cx="76" cy="883.725" width="152" height="20"/>
			<rect x="0" y="873.725" width="152" height="20" class="st6"/>
			<text x="33.63" y="890.93" class="st7" v:langID="1033"><v:paragraph v:horizAlign="1"/><v:tabList/>CLTAP IP</text>		</g>
		<g id="shape291-212" v:mID="291" v:groupContext="shape" transform="translate(213.188,-205.125)">
			<title>Sheet.291</title>
			<desc>TMS</desc>
			<v:textBlock v:margins="rect(4,4,4,4)"/>
			<v:textRect cx="29.75" cy="883.725" width="59.5" height="20"/>
			<rect x="0" y="873.725" width="59.5" height="20" class="st6"/>
			<text x="13.53" y="889.13" class="st18" v:langID="1033"><v:paragraph v:horizAlign="1"/><v:tabList/>TMS</text>		</g>
		<g id="shape292-215" v:mID="292" v:groupContext="shape" transform="translate(213.188,-179.125)">
			<title>Sheet.292</title>
			<desc>TDI</desc>
			<v:textBlock v:margins="rect(4,4,4,4)"/>
			<v:textRect cx="29.75" cy="883.725" width="59.5" height="20"/>
			<rect x="0" y="873.725" width="59.5" height="20" class="st6"/>
			<text x="17.56" y="889.13" class="st18" v:langID="1033"><v:paragraph v:horizAlign="1"/><v:tabList/>TDI</text>		</g>
		<g id="shape299-218" v:mID="299" v:groupContext="shape" transform="translate(893.188,-216.125)">
			<title>Sheet.299</title>
			<path d="M0 857.72 L0 893.72 L18 884.72 L18 866.72 L0 857.72 Z" class="st4"/>
		</g>
		<g id="shape300-220" v:mID="300" v:groupContext="shape" transform="translate(548.938,-180.125)">
			<title>Sheet.300</title>
			<path d="M0 893.72 L353.25 893.72 L353.25 853.22" class="st19"/>
		</g>
		<g id="shape302-223" v:mID="302" v:groupContext="shape" transform="translate(548.938,-576.125)">
			<title>Sheet.302</title>
			<path d="M0 893.72 L396 893.72 L396 811.6" class="st19"/>
		</g>
		<g id="shape319-226" v:mID="319" v:groupContext="shape" transform="translate(548.937,-720.125)">
			<title>Sheet.319</title>
			<path d="M0 893.72 L183.87 893.72" class="st20"/>
		</g>
		<g id="shape320-232" v:mID="320" v:groupContext="shape" transform="translate(692.937,-648.125)">
			<title>Sheet.320</title>
			<path d="M0 821.72 L0 893.72 L39.87 893.72" class="st20"/>
		</g>
		<g id="shape321-237" v:mID="321" v:groupContext="shape" transform="translate(548.938,-252.125)">
			<title>Sheet.321</title>
			<path d="M0 839.72 L144 839.72 L144 893.72 L183.87 893.72" class="st20"/>
		</g>
		<g id="shape334-242" v:mID="334" v:groupContext="shape" transform="translate(422.938,-540.125)">
			<title>Sheet.334</title>
			<desc>IR (Green Opcodes)</desc>
			<v:textBlock v:margins="rect(4,4,4,4)"/>
			<v:textRect cx="63" cy="857.725" width="126" height="72"/>
			<rect x="0" y="821.725" width="126" height="72" class="st4"/>
			<text x="17.11" y="850.53" class="st7" v:langID="1033"><v:paragraph v:horizAlign="1"/><v:tabList/>IR (Green <tspan
						x="16.74" dy="1.2em" class="st9">Opcodes)</tspan></text>		</g>
		<g id="shape335-246" v:mID="335" v:groupContext="shape" transform="translate(422.938,-144.125)">
			<title>Sheet.335</title>
			<desc>IR (Or/Red Opcodes)</desc>
			<v:textBlock v:margins="rect(4,4,4,4)"/>
			<v:textRect cx="63" cy="857.725" width="126" height="72"/>
			<rect x="0" y="821.725" width="126" height="72" class="st4"/>
			<text x="11.55" y="850.53" class="st7" v:langID="1033"><v:paragraph v:horizAlign="1"/><v:tabList/>IR (Or/Red <tspan
						x="16.74" dy="1.2em" class="st9">Opcodes)</tspan></text>		</g>
		<g id="shape350-250" v:mID="350" v:groupContext="shape" transform="translate(573.938,-718.125)">
			<title>Sheet.350</title>
			<desc>CSU</desc>
			<v:textBlock v:margins="rect(4,4,4,4)"/>
			<v:textRect cx="29" cy="883.725" width="58.01" height="20"/>
			<rect x="0" y="873.725" width="58" height="20" class="st6"/>
			<text x="14.29" y="889.13" class="st22" v:langID="1033"><v:paragraph v:horizAlign="1"/><v:tabList/>CSU</text>		</g>
		<g id="shape351-253" v:mID="351" v:groupContext="shape" transform="translate(573.938,-304.125)">
			<title>Sheet.351</title>
			<desc>CSU</desc>
			<v:textBlock v:margins="rect(4,4,4,4)"/>
			<v:textRect cx="29" cy="883.725" width="58.01" height="20"/>
			<rect x="0" y="873.725" width="58" height="20" class="st6"/>
			<text x="14.29" y="889.13" class="st22" v:langID="1033"><v:paragraph v:horizAlign="1"/><v:tabList/>CSU</text>		</g>
		<g id="shape436-256" v:mID="436" v:groupContext="shape" transform="translate(710.938,-180.625)">
			<title>Sheet.436</title>
			<path d="M0 893.72 L0 857.72 L21.87 857.72" class="st23"/>
		</g>
		<g id="shape437-262" v:mID="437" v:groupContext="shape" transform="translate(575.938,-178.125)">
			<title>Sheet.437</title>
			<desc>Select</desc>
			<v:textBlock v:margins="rect(4,4,4,4)"/>
			<v:textRect cx="29" cy="883.725" width="58.01" height="20"/>
			<rect x="0" y="873.725" width="58" height="20" class="st6"/>
			<text x="7.02" y="889.13" class="st25" v:langID="1033"><v:paragraph v:horizAlign="1"/><v:tabList/>Select</text>		</g>
		<g id="shape448-265" v:mID="448" v:groupContext="shape" transform="translate(719.937,-576.125)">
			<title>Sheet.448</title>
			<path d="M0 893.72 L0 785.72 L12.87 785.72" class="st23"/>
		</g>
		<g id="shape449-270" v:mID="449" v:groupContext="shape" transform="translate(719.937,-612.125)">
			<title>Sheet.449</title>
			<path d="M0 893.72 L12.87 893.72" class="st23"/>
		</g>
		<g id="shape450-275" v:mID="450" v:groupContext="shape" transform="translate(573.938,-574.125)">
			<title>Sheet.450</title>
			<desc>Select</desc>
			<v:textBlock v:margins="rect(4,4,4,4)"/>
			<v:textRect cx="29" cy="883.725" width="58.01" height="20"/>
			<rect x="0" y="873.725" width="58" height="20" class="st6"/>
			<text x="7.02" y="889.13" class="st25" v:langID="1033"><v:paragraph v:horizAlign="1"/><v:tabList/>Select</text>		</g>
		<g id="shape485-278" v:mID="485" v:groupContext="shape" transform="translate(152.938,-171.125)">
			<title>Sheet.485</title>
			<desc>Port Mastr</desc>
			<v:textBlock v:margins="rect(4,4,4,4)"/>
			<v:textRect cx="36" cy="871.225" width="72" height="45"/>
			<rect x="0" y="848.725" width="72" height="45" class="st4"/>
			<text x="20.45" y="865.82" class="st18" v:langID="1033"><v:paragraph v:horizAlign="1"/><v:tabList/>Port <tspan
						x="14.32" dy="1.2em" class="st9">Mastr</tspan></text>		</g>
		<g id="shape487-282" v:mID="487" v:groupContext="shape" transform="translate(399.338,-345.625)">
			<title>Sheet.487</title>
			<desc>Secondary TAP</desc>
			<v:textBlock v:margins="rect(4,4,4,4)"/>
			<v:textRect cx="92" cy="883.725" width="184" height="20"/>
			<rect x="0" y="873.725" width="184" height="20" class="st6"/>
			<text x="19.44" y="890.93" class="st7" v:langID="1033"><v:paragraph v:horizAlign="1"/><v:tabList/>Secondary TAP</text>		</g>
	</g>
</svg>
