<?xml version="1.0" encoding="UTF-8" standalone="no"?>
<!DOCTYPE svg PUBLIC "-//W3C//DTD SVG 1.1//EN" "http://www.w3.org/Graphics/SVG/1.1/DTD/svg11.dtd">
<!-- Generated by Microsoft Visio, SVG Export rTDR.vsdx_WO_1c4c4.svg Page-1 -->
<svg xmlns="http://www.w3.org/2000/svg" xmlns:xlink="http://www.w3.org/1999/xlink" xmlns:ev="http://www.w3.org/2001/xml-events"
		xmlns:v="http://schemas.microsoft.com/visio/2003/SVGExtensions/" width="8.11042in" height="2.70417in"
		viewBox="0 0 583.95 194.7" xml:space="preserve" color-interpolation-filters="sRGB" class="st14">
	<v:documentProperties v:langID="1033" v:viewMarkup="false">
		<v:userDefs>
			<v:ud v:nameU="msvConvertTheme"/>
		</v:userDefs>
	</v:documentProperties>

	<style type="text/css">
	<![CDATA[
		.st1 {fill:none;stroke:#008000;stroke-linecap:round;stroke-linejoin:round;stroke-width:1.2}
		.st2 {fill:none;stroke:none;stroke-linecap:round;stroke-linejoin:round;stroke-width:1.2}
		.st3 {fill:#000000;font-family:Calibri;font-size:1.00001em}
		.st4 {marker-end:url(#mrkr13-15);stroke:#000000;stroke-linecap:round;stroke-linejoin:round;stroke-width:1.2}
		.st5 {fill:#000000;fill-opacity:1;stroke:#000000;stroke-opacity:1;stroke-width:0.32258064516129}
		.st6 {stroke:#008000;stroke-linecap:round;stroke-linejoin:round;stroke-width:1.2}
		.st7 {fill:#ffffff;stroke:none;stroke-linecap:round;stroke-linejoin:round;stroke-width:1.2}
		.st8 {fill:#008000;font-family:Calibri;font-size:1.00001em}
		.st9 {fill:#ffffff;stroke:#000000;stroke-linecap:round;stroke-linejoin:round;stroke-width:1}
		.st10 {stroke:#000000;stroke-linecap:round;stroke-linejoin:round;stroke-width:1}
		.st11 {fill:none;stroke:#0000ff;stroke-linecap:round;stroke-linejoin:round;stroke-width:1.2}
		.st12 {stroke:#0000ff;stroke-linecap:round;stroke-linejoin:round;stroke-width:1.2}
		.st13 {fill:#0000ff;font-family:Calibri;font-size:1.00001em}
		.st14 {fill:none;fill-rule:evenodd;font-size:12px;overflow:visible;stroke-linecap:square;stroke-miterlimit:3}
	]]>
	</style>

	<defs id="Markers">
		<g id="lend13">
			<path d="M 3 1 L 0 0 L 3 -1 L 3 1 " style="stroke:none"/>
		</g>
		<marker id="mrkr13-15" class="st5" v:arrowType="13" v:arrowSize="2" v:setback="9.3" refX="-9.3" orient="auto"
				markerUnits="strokeWidth" overflow="visible">
			<use xlink:href="#lend13" transform="scale(-3.1,-3.1) "/>
		</marker>
	</defs>
	<g v:mID="0" v:index="1" v:groupContext="foregroundPage">
		<title>Page-1</title>
		<v:pageProperties v:drawingScale="1" v:pageScale="1" v:drawingUnits="19" v:shadowOffsetX="9" v:shadowOffsetY="-9"/>
		<g id="group1-1" transform="translate(232.35,-72.5999)" v:mID="1" v:groupContext="group">
			<title>Sheet.1</title>
			<g id="shape2-2" v:mID="2" v:groupContext="shape">
				<title>Sheet.2</title>
				<rect x="0" y="154.2" width="271.125" height="40.5" class="st1"/>
			</g>
		</g>
		<g id="shape4-4" v:mID="4" v:groupContext="shape" transform="translate(0.6,-158.1)">
			<title>Sheet.4</title>
			<desc>TDI</desc>
			<v:textBlock v:margins="rect(4,4,4,4)"/>
			<v:textRect cx="38.25" cy="176.7" width="76.5" height="36"/>
			<rect x="0" y="158.7" width="76.5" height="36" class="st2"/>
			<text x="56.25" y="180.3" class="st3" v:langID="1033"><v:paragraph v:horizAlign="2"/><v:tabList/>TDI</text>		</g>
		<g id="shape5-7" v:mID="5" v:groupContext="shape" transform="translate(551.85,-151.35)">
			<title>Sheet.5</title>
			<desc>TDO</desc>
			<v:textBlock v:margins="rect(4,4,4,4)"/>
			<v:textRect cx="15.75" cy="176.7" width="31.5" height="36"/>
			<rect x="0" y="158.7" width="31.5" height="36" class="st2"/>
			<text x="4" y="180.3" class="st3" v:langID="1033"><v:paragraph/><v:tabList/>TDO</text>		</g>
		<g id="shape9-10" v:mID="9" v:groupContext="shape" transform="translate(182.85,-171.6)">
			<title>Sheet.9</title>
			<path d="M0 194.7 L38.34 194.7" class="st4"/>
		</g>
		<g id="shape10-16" v:mID="10" v:groupContext="shape" transform="translate(503.475,-169.35)">
			<title>Sheet.10</title>
			<path d="M0 194.7 L38.34 194.7" class="st4"/>
		</g>
		<g id="shape11-21" v:mID="11" v:groupContext="shape" transform="translate(268.35,-0.6)">
			<title>Sheet.11</title>
			<desc>Parallel-Update data</desc>
			<v:textBlock v:margins="rect(4,4,4,4)"/>
			<v:textRect cx="126" cy="176.7" width="252" height="36"/>
			<rect x="0" y="158.7" width="252" height="36" class="st2"/>
			<text x="75.82" y="180.3" class="st3" v:langID="1033"><v:paragraph v:horizAlign="1"/><v:tabList/>Parallel-Update data</text>		</g>
		<g id="group24-24" transform="translate(314.475,-72.5999)" v:mID="24" v:groupContext="group">
			<title>Sheet.24</title>
			<g id="shape25-25" v:mID="25" v:groupContext="shape" transform="translate(304.387,154.2) rotate(90)">
				<title>Sheet.25</title>
				<path d="M0 194.7 L40.5 194.7" class="st6"/>
			</g>
			<g id="shape26-28" v:mID="26" v:groupContext="shape" transform="translate(248.7,154.2) rotate(90)">
				<title>Sheet.26</title>
				<path d="M0 194.7 L40.5 194.7" class="st6"/>
			</g>
			<g id="shape27-31" v:mID="27" v:groupContext="shape" transform="translate(221.7,154.2) rotate(90)">
				<title>Sheet.27</title>
				<path d="M0 194.7 L40.5 194.7" class="st6"/>
			</g>
			<g id="shape28-34" v:mID="28" v:groupContext="shape" transform="translate(275.7,154.2) rotate(90)">
				<title>Sheet.28</title>
				<path d="M0 194.7 L40.5 194.7" class="st6"/>
			</g>
			<g id="shape29-37" v:mID="29" v:groupContext="shape" transform="translate(329.7,154.2) rotate(90)">
				<title>Sheet.29</title>
				<path d="M0 194.7 L40.5 194.7" class="st6"/>
			</g>
			<g id="shape30-40" v:mID="30" v:groupContext="shape" transform="translate(194.7,154.2) rotate(90)">
				<title>Sheet.30</title>
				<path d="M0 194.7 L40.5 194.7" class="st6"/>
			</g>
			<g id="shape31-43" v:mID="31" v:groupContext="shape" transform="translate(356.7,154.2) rotate(90)">
				<title>Sheet.31</title>
				<path d="M0 194.7 L40.5 194.7" class="st6"/>
			</g>
		</g>
		<g id="shape32-46" v:mID="32" v:groupContext="shape" transform="translate(299.85,-86.0999)">
			<title>Sheet.32</title>
			<desc>Parallel Output Register</desc>
			<v:textBlock v:margins="rect(4,4,4,4)"/>
			<v:textRect cx="90" cy="186.825" width="180" height="15.75"/>
			<rect x="0" y="178.95" width="180" height="15.75" class="st7"/>
			<text x="31.9" y="190.43" class="st8" v:langID="1033"><v:paragraph v:horizAlign="1"/><v:tabList/>Parallel Output Register</text>		</g>
		<g id="group44-49" transform="translate(302.1,-36.5999)" v:mID="44" v:groupContext="group">
			<title>Sheet.44</title>
			<g id="group45-50" v:mID="45" v:groupContext="group">
				<title>Sheet.45</title>
				<g id="shape46-51" v:mID="46" v:groupContext="shape" transform="translate(248.7,158.7) rotate(90)">
					<title>Sheet.46</title>
					<path d="M0 194.7 L24.84 194.7" class="st4"/>
				</g>
				<g id="shape47-56" v:mID="47" v:groupContext="shape" transform="translate(194.7,158.7) rotate(90)">
					<title>Sheet.47</title>
					<path d="M0 194.7 L24.84 194.7" class="st4"/>
				</g>
				<g id="shape48-61" v:mID="48" v:groupContext="shape" transform="translate(304.387,158.7) rotate(90)">
					<title>Sheet.48</title>
					<path d="M0 194.7 L24.84 194.7" class="st4"/>
				</g>
				<g id="shape49-66" v:mID="49" v:groupContext="shape" transform="translate(356.7,158.7) rotate(90)">
					<title>Sheet.49</title>
					<path d="M0 194.7 L24.84 194.7" class="st4"/>
				</g>
			</g>
			<g id="group50-71" transform="translate(27,0)" v:mID="50" v:groupContext="group">
				<title>Sheet.50</title>
				<g id="shape51-72" v:mID="51" v:groupContext="shape" transform="translate(248.7,158.7) rotate(90)">
					<title>Sheet.51</title>
					<path d="M0 194.7 L24.84 194.7" class="st4"/>
				</g>
				<g id="shape52-77" v:mID="52" v:groupContext="shape" transform="translate(194.7,158.7) rotate(90)">
					<title>Sheet.52</title>
					<path d="M0 194.7 L24.84 194.7" class="st4"/>
				</g>
				<g id="shape53-82" v:mID="53" v:groupContext="shape" transform="translate(304.387,158.7) rotate(90)">
					<title>Sheet.53</title>
					<path d="M0 194.7 L24.84 194.7" class="st4"/>
				</g>
				<g id="shape54-87" v:mID="54" v:groupContext="shape" transform="translate(356.7,158.7) rotate(90)">
					<title>Sheet.54</title>
					<path d="M0 194.7 L24.84 194.7" class="st4"/>
				</g>
			</g>
		</g>
		<g id="group55-92" transform="translate(302.1,-113.1)" v:mID="55" v:groupContext="group">
			<title>Sheet.55</title>
			<g id="group56-93" v:mID="56" v:groupContext="group">
				<title>Sheet.56</title>
				<g id="shape57-94" v:mID="57" v:groupContext="shape" transform="translate(248.7,158.7) rotate(90)">
					<title>Sheet.57</title>
					<path d="M0 194.7 L24.84 194.7" class="st4"/>
				</g>
				<g id="shape58-99" v:mID="58" v:groupContext="shape" transform="translate(194.7,158.7) rotate(90)">
					<title>Sheet.58</title>
					<path d="M0 194.7 L24.84 194.7" class="st4"/>
				</g>
				<g id="shape59-104" v:mID="59" v:groupContext="shape" transform="translate(304.387,158.7) rotate(90)">
					<title>Sheet.59</title>
					<path d="M0 194.7 L24.84 194.7" class="st4"/>
				</g>
				<g id="shape60-109" v:mID="60" v:groupContext="shape" transform="translate(356.7,158.7) rotate(90)">
					<title>Sheet.60</title>
					<path d="M0 194.7 L24.84 194.7" class="st4"/>
				</g>
			</g>
			<g id="group61-114" transform="translate(27,0)" v:mID="61" v:groupContext="group">
				<title>Sheet.61</title>
				<g id="shape62-115" v:mID="62" v:groupContext="shape" transform="translate(248.7,158.7) rotate(90)">
					<title>Sheet.62</title>
					<path d="M0 194.7 L24.84 194.7" class="st4"/>
				</g>
				<g id="shape63-120" v:mID="63" v:groupContext="shape" transform="translate(194.7,158.7) rotate(90)">
					<title>Sheet.63</title>
					<path d="M0 194.7 L24.84 194.7" class="st4"/>
				</g>
				<g id="shape64-125" v:mID="64" v:groupContext="shape" transform="translate(304.387,158.7) rotate(90)">
					<title>Sheet.64</title>
					<path d="M0 194.7 L24.84 194.7" class="st4"/>
				</g>
				<g id="shape65-130" v:mID="65" v:groupContext="shape" transform="translate(356.7,158.7) rotate(90)">
					<title>Sheet.65</title>
					<path d="M0 194.7 L24.84 194.7" class="st4"/>
				</g>
			</g>
		</g>
		<g id="shape1000-135" v:mID="1000" v:groupContext="shape" transform="translate(164.85,-162.6)">
			<title>Sheet.1000</title>
			<path d="M0 194.7 L9 194.7 A9 9 -180 0 0 9 176.7 L0 176.7 L0 194.7 Z" class="st9"/>
		</g>
		<g id="shape1001-137" v:mID="1001" v:groupContext="shape" transform="translate(124.35,-149.1)">
			<title>Sheet.1001</title>
			<path d="M0 194.7 L9 194.7 A9 9 -180 0 0 9 176.7 L0 176.7 L0 194.7 Z" class="st9"/>
		</g>
		<g id="shape1002-139" v:mID="1002" v:groupContext="shape" transform="translate(164.85,213.3) rotate(180)">
			<title>Sheet.1002</title>
			<path d="M0 194.7 L90 194.7" class="st10"/>
		</g>
		<g id="shape1003-142" v:mID="1003" v:groupContext="shape" transform="translate(142.35,-158.1)">
			<title>Sheet.1003</title>
			<path d="M22.5 185.7 L9 185.7 L9 194.7 L0 194.7" class="st10"/>
		</g>
		<g id="shape1004-145" v:mID="1004" v:groupContext="shape" transform="translate(124.35,226.8) rotate(180)">
			<title>Sheet.1004</title>
			<path d="M0 194.7 L49.5 194.7" class="st10"/>
		</g>
		<g id="shape1005-148" v:mID="1005" v:groupContext="shape" transform="translate(124.35,235.8) rotate(180)">
			<title>Sheet.1005</title>
			<path d="M0 194.7 L49.5 194.7" class="st10"/>
		</g>
		<g id="shape1006-151" v:mID="1006" v:groupContext="shape" transform="translate(0.6,-146.85)">
			<title>Sheet.1006</title>
			<desc>Shift</desc>
			<v:textBlock v:margins="rect(4,4,4,4)"/>
			<v:textRect cx="38.25" cy="176.7" width="76.5" height="36"/>
			<rect x="0" y="158.7" width="76.5" height="36" class="st2"/>
			<text x="50.25" y="180.3" class="st3" v:langID="1033"><v:paragraph v:horizAlign="2"/><v:tabList/>Shift</text>		</g>
		<g id="shape1007-154" v:mID="1007" v:groupContext="shape" transform="translate(0.6,-135.6)">
			<title>Sheet.1007</title>
			<desc>Select</desc>
			<v:textBlock v:margins="rect(4,4,4,4)"/>
			<v:textRect cx="38.25" cy="176.7" width="76.5" height="36"/>
			<rect x="0" y="158.7" width="76.5" height="36" class="st2"/>
			<text x="43.2" y="180.3" class="st3" v:langID="1033"><v:paragraph v:horizAlign="2"/><v:tabList/>Select</text>		</g>
		<g id="shape1027-157" v:mID="1027" v:groupContext="shape" transform="translate(232.35,-149.1)">
			<title>Sheet.1027</title>
			<rect x="0" y="154.2" width="270" height="40.5" class="st11"/>
		</g>
		<g id="group1028-159" transform="translate(313.35,-149.1)" v:mID="1028" v:groupContext="group">
			<title>Sheet.1028</title>
			<g id="shape1029-160" v:mID="1029" v:groupContext="shape" transform="translate(304.387,154.2) rotate(90)">
				<title>Sheet.1029</title>
				<path d="M0 194.7 L40.5 194.7" class="st12"/>
			</g>
			<g id="shape1030-163" v:mID="1030" v:groupContext="shape" transform="translate(248.7,154.2) rotate(90)">
				<title>Sheet.1030</title>
				<path d="M0 194.7 L40.5 194.7" class="st12"/>
			</g>
			<g id="shape1031-166" v:mID="1031" v:groupContext="shape" transform="translate(221.7,154.2) rotate(90)">
				<title>Sheet.1031</title>
				<path d="M0 194.7 L40.5 194.7" class="st12"/>
			</g>
			<g id="shape1032-169" v:mID="1032" v:groupContext="shape" transform="translate(275.7,154.2) rotate(90)">
				<title>Sheet.1032</title>
				<path d="M0 194.7 L40.5 194.7" class="st12"/>
			</g>
			<g id="shape1033-172" v:mID="1033" v:groupContext="shape" transform="translate(329.7,154.2) rotate(90)">
				<title>Sheet.1033</title>
				<path d="M0 194.7 L40.5 194.7" class="st12"/>
			</g>
			<g id="shape1034-175" v:mID="1034" v:groupContext="shape" transform="translate(194.7,154.2) rotate(90)">
				<title>Sheet.1034</title>
				<path d="M0 194.7 L40.5 194.7" class="st12"/>
			</g>
			<g id="shape1035-178" v:mID="1035" v:groupContext="shape" transform="translate(356.7,154.2) rotate(90)">
				<title>Sheet.1035</title>
				<path d="M0 194.7 L40.5 194.7" class="st12"/>
			</g>
		</g>
		<g id="shape1037-181" v:mID="1037" v:groupContext="shape" transform="translate(226.162,-162.6)">
			<title>Sheet.1037</title>
			<desc>Serial in</desc>
			<v:textBlock v:margins="rect(4,4,4,4)"/>
			<v:textRect cx="28.6875" cy="185.7" width="57.38" height="18"/>
			<rect x="0" y="176.7" width="57.375" height="18" class="st2"/>
			<text x="9.34" y="189.3" class="st3" v:langID="1033"><v:paragraph v:horizAlign="1"/><v:tabList/>Serial in</text>		</g>
		<g id="shape1038-184" v:mID="1038" v:groupContext="shape" transform="translate(226.162,-149.1)">
			<title>Sheet.1038</title>
			<desc>Capture</desc>
			<v:textBlock v:margins="rect(4,4,4,4)"/>
			<v:textRect cx="28.6875" cy="185.7" width="57.38" height="18"/>
			<rect x="0" y="176.7" width="57.375" height="18" class="st2"/>
			<text x="9.22" y="189.3" class="st3" v:langID="1033"><v:paragraph v:horizAlign="1"/><v:tabList/>Capture</text>		</g>
		<g id="shape1045-187" v:mID="1045" v:groupContext="shape" transform="translate(485.55,5.1) rotate(90)">
			<title>Sheet.1045</title>
			<path d="M0 194.7 L40.5 194.7" class="st12"/>
		</g>
		<g id="shape1036-190" v:mID="1036" v:groupContext="shape" transform="translate(286.35,-158.1)">
			<title>Sheet.1036</title>
			<desc>Serial shift Register</desc>
			<v:textBlock v:margins="rect(4,4,4,4)"/>
			<v:textRect cx="96.75" cy="185.7" width="193.5" height="18"/>
			<rect x="0" y="176.7" width="193.5" height="18" class="st7"/>
			<text x="49.98" y="189.3" class="st13" v:langID="1033"><v:paragraph v:horizAlign="1"/><v:tabList/>Serial shift Register</text>		</g>
		<g id="shape1046-193" v:mID="1046" v:groupContext="shape" transform="translate(226.162,-72.5999)">
			<title>Sheet.1046</title>
			<desc>Update</desc>
			<v:textBlock v:margins="rect(4,4,4,4)"/>
			<v:textRect cx="28.6875" cy="185.7" width="57.38" height="18"/>
			<rect x="0" y="176.7" width="57.375" height="18" class="st2"/>
			<text x="10.66" y="189.3" class="st3" v:langID="1033"><v:paragraph v:horizAlign="1"/><v:tabList/>Update</text>		</g>
		<g id="shape1047-196" v:mID="1047" v:groupContext="shape" transform="translate(124.35,-72.5999)">
			<title>Sheet.1047</title>
			<path d="M0 194.7 L9 194.7 A9 9 -180 0 0 9 176.7 L0 176.7 L0 194.7 Z" class="st9"/>
		</g>
		<g id="shape1048-198" v:mID="1048" v:groupContext="shape" transform="translate(142.35,-81.6)">
			<title>Sheet.1048</title>
			<path d="M0 194.7 L78.84 194.7" class="st4"/>
		</g>
		<g id="shape1049-203" v:mID="1049" v:groupContext="shape" transform="translate(124.35,312.3) rotate(180)">
			<title>Sheet.1049</title>
			<path d="M0 194.7 L49.5 194.7" class="st10"/>
		</g>
		<g id="shape1050-206" v:mID="1050" v:groupContext="shape" transform="translate(110.85,-86.0999)">
			<title>Sheet.1050</title>
			<path d="M0 127.2 L0 194.7 L13.5 194.7" class="st10"/>
		</g>
		<g id="shape1051-209" v:mID="1051" v:groupContext="shape" transform="translate(0.6,-59.0999)">
			<title>Sheet.1051</title>
			<desc>Update</desc>
			<v:textBlock v:margins="rect(4,4,4,4)"/>
			<v:textRect cx="38.25" cy="176.7" width="76.5" height="36"/>
			<rect x="0" y="158.7" width="76.5" height="36" class="st2"/>
			<text x="36.45" y="180.3" class="st3" v:langID="1033"><v:paragraph v:horizAlign="2"/><v:tabList/>Update</text>		</g>
		<g id="shape1052-212" v:mID="1052" v:groupContext="shape" transform="translate(209.85,-158.1)">
			<title>Sheet.1052</title>
			<path d="M0 194.7 L11.34 194.7" class="st4"/>
		</g>
		<g id="shape1053-217" v:mID="1053" v:groupContext="shape" transform="translate(196.35,-149.1)">
			<title>Sheet.1053</title>
			<desc>0</desc>
			<v:textBlock v:margins="rect(4,4,4,4)"/>
			<v:textRect cx="8.4375" cy="185.7" width="16.88" height="18"/>
			<rect x="0" y="176.7" width="16.875" height="18" class="st2"/>
			<text x="5.4" y="189.3" class="st3" v:langID="1033"><v:paragraph v:horizAlign="1"/><v:tabList/>0</text>		</g>
	</g>
</svg>
