<?xml version="1.0" encoding="UTF-8" standalone="no"?>
<!DOCTYPE svg PUBLIC "-//W3C//DTD SVG 1.1//EN" "http://www.w3.org/Graphics/SVG/1.1/DTD/svg11.dtd">
<!-- Generated by Microsoft Visio, SVG Export extesttoggle_train_d6init.vsdx_d6init_fixed_c97aa.svg Page-1 -->
<svg xmlns="http://www.w3.org/2000/svg" xmlns:xlink="http://www.w3.org/1999/xlink" xmlns:ev="http://www.w3.org/2001/xml-events"
		xmlns:v="http://schemas.microsoft.com/visio/2003/SVGExtensions/" width="10.9479in" height="7.43646in"
		viewBox="0 0 788.25 535.425" xml:space="preserve" color-interpolation-filters="sRGB" class="st18">
	<v:documentProperties v:langID="1033" v:viewMarkup="false">
		<v:userDefs>
			<v:ud v:nameU="msvConvertTheme"/>
		</v:userDefs>
	</v:documentProperties>

	<style type="text/css">
	<![CDATA[
		.st1 {fill:#ffffff;stroke:#000000;stroke-linecap:round;stroke-linejoin:round;stroke-width:1.5}
		.st2 {stroke:#000000;stroke-linecap:round;stroke-linejoin:round;stroke-width:1.5}
		.st3 {fill:none;stroke:none;stroke-linecap:round;stroke-linejoin:round;stroke-width:0.75}
		.st4 {fill:#000000;font-family:Calibri;font-size:1.5em}
		.st5 {fill:#000000;font-family:Calibri;font-size:1.00001em}
		.st6 {fill:#000000;font-family:Calibri;font-size:0.833336em}
		.st7 {font-size:1em}
		.st8 {fill:#5880b3;font-family:Calibri;font-size:1.00001em}
		.st9 {marker-end:url(#mrkr13-130);stroke:#5880b3;stroke-linecap:round;stroke-linejoin:round;stroke-width:0.75}
		.st10 {fill:#5880b3;fill-opacity:1;stroke:#5880b3;stroke-opacity:1;stroke-width:0.22935779816514}
		.st11 {fill:#000000;font-family:Calibri;font-size:3em}
		.st12 {fill:#000000;font-family:Calibri;font-size:1.99999em}
		.st13 {fill:#eeeaf2;stroke:none;stroke-linecap:round;stroke-linejoin:round;stroke-width:0.75}
		.st14 {stroke:#548bd4;stroke-linecap:round;stroke-linejoin:round;stroke-width:1.5}
		.st15 {marker-end:url(#mrkr13-243);stroke:#000000;stroke-linecap:round;stroke-linejoin:round;stroke-width:0.75}
		.st16 {fill:#000000;fill-opacity:1;stroke:#000000;stroke-opacity:1;stroke-width:0.22935779816514}
		.st17 {fill:none;stroke:none;stroke-linecap:round;stroke-linejoin:round;stroke-width:1.5}
		.st18 {fill:none;fill-rule:evenodd;font-size:12px;overflow:visible;stroke-linecap:square;stroke-miterlimit:3}
	]]>
	</style>

	<defs id="Markers">
		<g id="lend13">
			<path d="M 3 1 L 0 0 L 3 -1 L 3 1 " style="stroke:none"/>
		</g>
		<marker id="mrkr13-130" class="st10" v:arrowType="13" v:arrowSize="2" v:setback="13.08" refX="-13.08" orient="auto"
				markerUnits="strokeWidth" overflow="visible">
			<use xlink:href="#lend13" transform="scale(-4.36,-4.36) "/>
		</marker>
		<marker id="mrkr13-243" class="st16" v:arrowType="13" v:arrowSize="2" v:setback="13.08" refX="-13.08" orient="auto"
				markerUnits="strokeWidth" overflow="visible">
			<use xlink:href="#lend13" transform="scale(-4.36,-4.36) "/>
		</marker>
	</defs>
	<g v:mID="0" v:index="1" v:groupContext="foregroundPage">
		<title>Page-1</title>
		<v:pageProperties v:drawingScale="1" v:pageScale="1" v:drawingUnits="19" v:shadowOffsetX="9" v:shadowOffsetY="-9"/>
		<g id="shape1-1" v:mID="1" v:groupContext="shape" transform="translate(468.375,-366.3)">
			<title>Sheet.1</title>
			<rect x="0" y="463.425" width="54" height="72" class="st1"/>
		</g>
		<g id="shape2-3" v:mID="2" v:groupContext="shape" transform="translate(468.375,-375.3)">
			<title>Sheet.2</title>
			<path d="M0 517.43 L11.25 526.43 L0 535.43" class="st2"/>
		</g>
		<g id="shape3-6" v:mID="3" v:groupContext="shape" transform="translate(461.625,-380.925)">
			<title>Sheet.3</title>
			<ellipse cx="3.37504" cy="532.05" rx="3.37504" ry="3.37504" class="st1"/>
		</g>
		<g id="shape4-8" v:mID="4" v:groupContext="shape" transform="translate(464.187,-409.3)">
			<title>Sheet.4</title>
			<desc>D</desc>
			<v:textBlock v:margins="rect(4,4,4,4)"/>
			<v:textRect cx="12.2187" cy="525.425" width="24.44" height="20"/>
			<rect x="0" y="515.425" width="24.4375" height="20" class="st3"/>
			<text x="6.68" y="530.83" class="st4" v:langID="1033"><v:paragraph v:horizAlign="1"/><v:tabList/>D</text>		</g>
		<g id="shape5-11" v:mID="5" v:groupContext="shape" transform="translate(468.375,650.55) rotate(180)">
			<title>Sheet.5</title>
			<path d="M0 535.43 L9 535.43" class="st2"/>
		</g>
		<g id="shape6-14" v:mID="6" v:groupContext="shape" transform="translate(522.375,-420.3)">
			<title>Sheet.6</title>
			<path d="M0 535.43 L9 535.43" class="st2"/>
		</g>
		<g id="shape7-17" v:mID="7" v:groupContext="shape" transform="translate(461.625,686.55) rotate(180)">
			<title>Sheet.7</title>
			<path d="M0 535.43 L15.75 535.43" class="st2"/>
		</g>
		<g id="shape8-20" v:mID="8" v:groupContext="shape" transform="translate(501.156,-409.3)">
			<title>Sheet.8</title>
			<desc>Q</desc>
			<v:textBlock v:margins="rect(4,4,4,4)"/>
			<v:textRect cx="12.2187" cy="525.425" width="24.44" height="20"/>
			<rect x="0" y="515.425" width="24.4375" height="20" class="st3"/>
			<text x="6.16" y="530.83" class="st4" v:langID="1033"><v:paragraph v:horizAlign="1"/><v:tabList/>Q</text>		</g>
		<g id="shape9-23" v:mID="9" v:groupContext="shape" transform="translate(483.156,-365.3)">
			<title>Sheet.9</title>
			<desc>R</desc>
			<v:textBlock v:margins="rect(4,4,4,4)"/>
			<v:textRect cx="12.2187" cy="525.425" width="24.44" height="20"/>
			<rect x="0" y="515.425" width="24.4375" height="20" class="st3"/>
			<text x="7.33" y="530.83" class="st4" v:langID="1033"><v:paragraph v:horizAlign="1"/><v:tabList/>R</text>		</g>
		<g id="shape10-26" v:mID="10" v:groupContext="shape" transform="translate(441.375,-420.3)">
			<title>Sheet.10</title>
			<path d="M0 472.43 L0 535.43 L18 535.43" class="st2"/>
		</g>
		<g id="shape11-29" v:mID="11" v:groupContext="shape" transform="translate(531.375,-420.3)">
			<title>Sheet.11</title>
			<path d="M0 535.43 L27 535.43 L27 479.18 L38.25 479.18" class="st2"/>
		</g>
		<g id="shape12-32" v:mID="12" v:groupContext="shape" transform="translate(411,-373.3)">
			<title>Sheet.12</title>
			<desc>tclk</desc>
			<v:textBlock v:margins="rect(4,4,4,4)"/>
			<v:textRect cx="16.9063" cy="525.425" width="33.82" height="20"/>
			<rect x="0" y="515.425" width="33.8125" height="20" class="st3"/>
			<text x="12.51" y="529.03" class="st5" v:langID="1033"><v:paragraph v:horizAlign="2"/><v:tabList/>tclk</text>		</g>
		<g id="shape13-35" v:mID="13" v:groupContext="shape" transform="translate(601.125,-486.8)">
			<title>Sheet.13</title>
			<desc>dc_init_ clk_int</desc>
			<v:textBlock v:margins="rect(4,4,4,4)"/>
			<v:textRect cx="33.75" cy="525.425" width="67.51" height="20"/>
			<rect x="0" y="515.425" width="67.5" height="20" class="st3"/>
			<text x="4" y="522.43" class="st6" v:langID="1033"><v:paragraph/><v:tabList/>dc_init_<v:newlineChar/><tspan x="4"
						dy="1.2em" class="st7">clk_int</tspan></text>		</g>
		<g id="shape14-39" v:mID="14" v:groupContext="shape" transform="translate(569.625,-473.175)">
			<title>Sheet.14</title>
			<ellipse cx="3.37504" cy="532.05" rx="3.37504" ry="3.37504" class="st1"/>
		</g>
		<g id="shape15-41" v:mID="15" v:groupContext="shape" transform="translate(337.875,-478.8)">
			<title>Sheet.15</title>
			<path d="M0 535.43 L15.19 535.43 A9.19471 9.19471 -180 0 0 15.19 517.43 L0 517.43 L0 535.43 Z" class="st1"/>
		</g>
		<g id="shape16-43" v:mID="16" v:groupContext="shape" transform="translate(423.375,-483.3) rotate(2.31825E-05)">
			<title>Sheet.16</title>
			<path d="M0 535.43 L153 535.43" class="st2"/>
		</g>
		<g id="shape17-46" v:mID="17" v:groupContext="shape" transform="translate(313.688,-492.3)">
			<title>Sheet.17</title>
			<path d="M0 535.43 L24.19 535.43" class="st2"/>
		</g>
		<g id="shape18-49" v:mID="18" v:groupContext="shape" transform="translate(306.375,-460.8)">
			<title>Sheet.18</title>
			<path d="M0 535.43 L18 535.43 L18 512.93 L31.5 512.93" class="st2"/>
		</g>
		<g id="shape19-52" v:mID="19" v:groupContext="shape" transform="translate(83.875,-451.8)">
			<title>Sheet.19</title>
			<desc>extest_select | sample_select | sample_preload_select | intes...</desc>
			<v:textBlock v:margins="rect(4,4,4,4)"/>
			<v:textRect cx="112.25" cy="525.425" width="224.51" height="20"/>
			<rect x="0" y="515.425" width="224.5" height="20" class="st3"/>
			<text x="67.46" y="521.83" class="st5" v:langID="1033"><v:paragraph v:horizAlign="2"/><v:tabList/>extest_select | sample_select | <tspan
						x="34.24" dy="1.2em" class="st7">sample_preload_select | intest_select </tspan> </text>		</g>
		<g id="shape20-56" v:mID="20" v:groupContext="shape" transform="translate(216.375,-483.3)">
			<title>Sheet.20</title>
			<desc>capture_dr</desc>
			<v:textBlock v:margins="rect(4,4,4,4)"/>
			<v:textRect cx="50.0937" cy="525.425" width="100.19" height="20"/>
			<rect x="0" y="515.425" width="100.187" height="20" class="st3"/>
			<text x="42.12" y="529.03" class="st5" v:langID="1033"><v:paragraph v:horizAlign="2"/><v:tabList/>capture_dr</text>		</g>
		<g id="shape21-59" v:mID="21" v:groupContext="shape" transform="translate(540.375,-442.8)">
			<title>Sheet.21</title>
			<path d="M0 494.93 L0 535.43 L36 535.43" class="st2"/>
		</g>
		<g id="shape22-62" v:mID="22" v:groupContext="shape" transform="translate(279.375,-395.55)">
			<title>Sheet.22</title>
			<path d="M0 512.93 A19.125 23.9062 0 0 1 0 535.43 A36.0253 45.0316 -180 0 0 22.5 524.18 A36.0253 45.0316 -180 0 0 0 512.93
						 Z" class="st1"/>
		</g>
		<g id="shape23-64" v:mID="23" v:groupContext="shape" transform="translate(337.875,-379.8)">
			<title>Sheet.23</title>
			<path d="M0 535.43 L15.19 535.43 A9.19471 9.19471 -180 0 0 15.19 517.43 L0 517.43 L0 535.43 Z" class="st1"/>
		</g>
		<g id="shape24-66" v:mID="24" v:groupContext="shape" transform="translate(558.375,-449.55)">
			<title>Sheet.24</title>
			<path d="M0 535.43 L18 535.43" class="st2"/>
		</g>
		<g id="shape25-69" v:mID="25" v:groupContext="shape" transform="translate(301.875,-370.8)">
			<title>Sheet.25</title>
			<path d="M0 535.43 L18 535.43 L18 521.93 L36 521.93" class="st2"/>
		</g>
		<g id="shape26-72" v:mID="26" v:groupContext="shape" transform="translate(279.375,-359.55)">
			<title>Sheet.26</title>
			<path d="M0 512.93 A19.125 23.9062 0 0 1 0 535.43 A36.0253 45.0316 -180 0 0 22.5 524.18 A36.0253 45.0316 -180 0 0 0 512.93
						 Z" class="st1"/>
		</g>
		<g id="shape27-74" v:mID="27" v:groupContext="shape" transform="translate(301.875,664.05) scale(1,-1)">
			<title>Sheet.27</title>
			<path d="M0 535.43 L18 535.43 L18 521.93 L36 521.93" class="st2"/>
		</g>
		<g id="shape28-77" v:mID="28" v:groupContext="shape" transform="translate(256.875,-411.3)">
			<title>Sheet.28</title>
			<path d="M0 535.43 L24.19 535.43" class="st2"/>
		</g>
		<g id="shape29-80" v:mID="29" v:groupContext="shape" transform="translate(256.875,-402.3)">
			<title>Sheet.29</title>
			<path d="M0 535.43 L24.19 535.43" class="st2"/>
		</g>
		<g id="shape30-83" v:mID="30" v:groupContext="shape" transform="translate(256.875,-375.3)">
			<title>Sheet.30</title>
			<path d="M0 535.43 L24.19 535.43" class="st2"/>
		</g>
		<g id="shape31-86" v:mID="31" v:groupContext="shape" transform="translate(256.875,-366.3)">
			<title>Sheet.31</title>
			<path d="M0 535.43 L24.19 535.43" class="st2"/>
		</g>
		<g id="shape32-89" v:mID="32" v:groupContext="shape" transform="translate(157.875,-404.8)">
			<title>Sheet.32</title>
			<desc>inst_extesttrain</desc>
			<v:textBlock v:margins="rect(4,4,4,4)"/>
			<v:textRect cx="50.0937" cy="525.425" width="100.19" height="20"/>
			<rect x="0" y="515.425" width="100.187" height="20" class="st3"/>
			<text x="19.56" y="529.03" class="st5" v:langID="1033"><v:paragraph v:horizAlign="2"/><v:tabList/>inst_extesttrain</text>		</g>
		<g id="shape33-92" v:mID="33" v:groupContext="shape" transform="translate(157.875,-393.3)">
			<title>Sheet.33</title>
			<desc>inst_extestpulse</desc>
			<v:textBlock v:margins="rect(4,4,4,4)"/>
			<v:textRect cx="50.0937" cy="525.425" width="100.19" height="20"/>
			<rect x="0" y="515.425" width="100.187" height="20" class="st3"/>
			<text x="16.54" y="529.03" class="st5" v:langID="1033"><v:paragraph v:horizAlign="2"/><v:tabList/>inst_extestpulse</text>		</g>
		<g id="shape34-95" v:mID="34" v:groupContext="shape" transform="translate(157.875,-356.3)">
			<title>Sheet.34</title>
			<desc>exit2_dr</desc>
			<v:textBlock v:margins="rect(4,4,4,4)"/>
			<v:textRect cx="50.0937" cy="525.425" width="100.19" height="20"/>
			<rect x="0" y="515.425" width="100.187" height="20" class="st3"/>
			<text x="55.7" y="529.03" class="st5" v:langID="1033"><v:paragraph v:horizAlign="2"/><v:tabList/>exit2_dr</text>		</g>
		<g id="shape35-98" v:mID="35" v:groupContext="shape" transform="translate(157.875,-367.55)">
			<title>Sheet.35</title>
			<desc>exit1_dr</desc>
			<v:textBlock v:margins="rect(4,4,4,4)"/>
			<v:textRect cx="50.0937" cy="525.425" width="100.19" height="20"/>
			<rect x="0" y="515.425" width="100.187" height="20" class="st3"/>
			<text x="55.7" y="529.03" class="st5" v:langID="1033"><v:paragraph v:horizAlign="2"/><v:tabList/>exit1_dr</text>		</g>
		<g id="shape36-101" v:mID="36" v:groupContext="shape" transform="translate(598.875,-483.3)">
			<title>Sheet.36</title>
			<path d="M0 535.43 L45 535.43" class="st2"/>
		</g>
		<g id="shape37-104" v:mID="37" v:groupContext="shape" transform="translate(598.875,-449.55)">
			<title>Sheet.37</title>
			<path d="M0 535.43 L24.75 535.43 L24.75 515.18 L44.51 515.18" class="st2"/>
		</g>
		<g id="shape38-107" v:mID="38" v:groupContext="shape" transform="translate(664.125,-476.55)">
			<title>Sheet.38</title>
			<path d="M0 535.43 L31.5 535.43" class="st2"/>
		</g>
		<g id="shape39-110" v:mID="39" v:groupContext="shape" transform="translate(596.625,-433.8)">
			<title>Sheet.39</title>
			<desc>d6_init_clk_int</desc>
			<v:textBlock v:margins="rect(4,4,4,4)"/>
			<v:textRect cx="37.125" cy="525.425" width="74.26" height="20"/>
			<rect x="0" y="515.425" width="74.25" height="20" class="st3"/>
			<text x="4" y="528.43" class="st6" v:langID="1033"><v:paragraph/><v:tabList/>d6_init_clk_int</text>		</g>
		<g id="shape40-113" v:mID="40" v:groupContext="shape" transform="translate(738.375,-472.3)">
			<title>Sheet.40</title>
			<desc>d6init</desc>
			<v:textBlock v:margins="rect(4,4,4,4)"/>
			<v:textRect cx="24.75" cy="525.425" width="49.5" height="20"/>
			<rect x="0" y="515.425" width="49.5" height="20" class="st3"/>
			<text x="4" y="529.03" class="st5" v:langID="1033"><v:paragraph/><v:tabList/>d6init</text>		</g>
		<g id="shape41-116" v:mID="41" v:groupContext="shape" transform="translate(294.812,-515.05)">
			<title>Sheet.41</title>
			<desc>on pos-edge</desc>
			<v:textBlock v:margins="rect(4,4,4,4)"/>
			<v:textRect cx="51.9063" cy="525.425" width="103.82" height="20"/>
			<rect x="0" y="515.425" width="103.813" height="20" class="st3"/>
			<text x="21.79" y="529.03" class="st8" v:langID="1033"><v:paragraph v:horizAlign="1"/><v:tabList/>on pos-edge</text>		</g>
		<g id="shape42-119" v:mID="42" v:groupContext="shape" transform="translate(1030.8,169.125) rotate(90)">
			<title>Sheet.42</title>
			<path d="M0 535.43 L26.16 535.43" class="st2"/>
		</g>
		<g id="shape43-122" v:mID="43" v:groupContext="shape" transform="translate(454.875,-322.144)">
			<title>Sheet.43</title>
			<desc>trst | TLR</desc>
			<v:textBlock v:margins="rect(4,4,4,4)"/>
			<v:textRect cx="34.0469" cy="525.425" width="68.1" height="20"/>
			<rect x="0" y="515.425" width="68.0938" height="20" class="st3"/>
			<text x="18.82" y="529.03" class="st5" v:langID="1033"><v:paragraph v:horizAlign="2"/><v:tabList/>trst | TLR</text>		</g>
		<g id="shape44-125" v:mID="44" v:groupContext="shape" transform="translate(618.41,466.513) rotate(147.265)">
			<title>Sheet.44</title>
			<path d="M0 535.43 L27.64 535.43" class="st9"/>
		</g>
		<g id="shape45-131" v:mID="45" v:groupContext="shape" transform="translate(695.625,-463.05)">
			<title>Sheet.45</title>
			<path d="M0 508.43 L0 535.43 L27 521.93 L0 508.43 Z" class="st1"/>
		</g>
		<g id="shape46-133" v:mID="46" v:groupContext="shape" transform="translate(722.625,-476.55)">
			<title>Sheet.46</title>
			<path d="M0 535.43 L45 535.43" class="st2"/>
		</g>
		<g id="shape47-136" v:mID="47" v:groupContext="shape" transform="translate(695.625,-492.3)">
			<title>Sheet.47</title>
			<desc>CTECH Buffer</desc>
			<v:textBlock v:margins="rect(4,4,4,4)"/>
			<v:textRect cx="24.75" cy="525.425" width="49.5" height="20"/>
			<rect x="0" y="515.425" width="49.5" height="20" class="st3"/>
			<text x="4" y="521.83" class="st5" v:langID="1033"><v:paragraph/><v:tabList/>CTECH <tspan x="4" dy="1.2em" class="st7">Buffer</tspan></text>		</g>
		<g id="shape48-140" v:mID="48" v:groupContext="shape" transform="translate(400.875,-472.05)">
			<title>Sheet.48</title>
			<path d="M0 512.93 A19.125 23.9062 0 0 1 0 535.43 A36.0253 45.0316 -180 0 0 22.5 524.18 A36.0253 45.0316 -180 0 0 0 512.93
						 Z" class="st1"/>
		</g>
		<g id="shape49-142" v:mID="49" v:groupContext="shape" transform="translate(360.375,-487.8)">
			<title>Sheet.49</title>
			<path d="M0 535.43 L41.62 535.43" class="st2"/>
		</g>
		<g id="shape50-145" v:mID="50" v:groupContext="shape" transform="translate(360.375,-388.8)">
			<title>Sheet.50</title>
			<path d="M0 535.43 L27 535.43 L27 445.43 L41.62 445.43" class="st2"/>
		</g>
		<g id="shape51-148" v:mID="51" v:groupContext="shape" transform="translate(405.375,-481.3)">
			<title>Sheet.51</title>
			<desc>dc_d6_combined_period</desc>
			<v:textBlock v:margins="rect(4,4,4,4)"/>
			<v:textRect cx="76" cy="525.425" width="152.01" height="20"/>
			<rect x="0" y="515.425" width="152" height="20" class="st3"/>
			<text x="25.1" y="528.43" class="st6" v:langID="1033"><v:paragraph v:horizAlign="1"/><v:tabList/>dc_d6_combined_period</text>		</g>
		<g id="shape52-151" v:mID="52" v:groupContext="shape" transform="translate(126.375,-262.8)">
			<title>Sheet.52</title>
			<path d="M0 535.43 L36 535.43 L36 499.43 L72 499.43 L72 535.43" class="st2"/>
		</g>
		<g id="shape53-154" v:mID="53" v:groupContext="shape" transform="translate(198.375,-262.8)">
			<title>Sheet.53</title>
			<path d="M0 535.43 L36 535.43 L36 499.43 L72 499.43 L72 535.43" class="st2"/>
		</g>
		<g id="shape54-157" v:mID="54" v:groupContext="shape" transform="translate(270.375,-262.8)">
			<title>Sheet.54</title>
			<path d="M0 535.43 L36 535.43 L36 499.43 L72 499.43 L72 535.43" class="st2"/>
		</g>
		<g id="shape55-160" v:mID="55" v:groupContext="shape" transform="translate(414.375,-262.8)">
			<title>Sheet.55</title>
			<path d="M0 535.43 L36 535.43 L36 499.43 L72 499.43 L72 535.43" class="st2"/>
		</g>
		<g id="shape56-163" v:mID="56" v:groupContext="shape" transform="translate(486.375,-262.8)">
			<title>Sheet.56</title>
			<path d="M0 535.43 L36 535.43 L36 499.43 L72 499.43 L72 535.43" class="st2"/>
		</g>
		<g id="shape57-166" v:mID="57" v:groupContext="shape" transform="translate(360.375,-278.8)">
			<title>Sheet.57</title>
			<desc>...</desc>
			<v:textBlock v:margins="rect(4,4,4,4)"/>
			<v:textRect cx="23.9375" cy="525.425" width="47.88" height="20"/>
			<rect x="0" y="515.425" width="47.8749" height="20" class="st3"/>
			<text x="10.31" y="536.23" class="st11" v:langID="1033"><v:paragraph v:horizAlign="1"/><v:tabList/>...</text>		</g>
		<g id="shape58-169" v:mID="58" v:groupContext="shape" transform="translate(558.375,-262.8)">
			<title>Sheet.58</title>
			<path d="M0 535.43 L36 535.43 L36 499.43 L72 499.43 L72 535.43" class="st2"/>
		</g>
		<g id="shape59-172" v:mID="59" v:groupContext="shape" transform="translate(630.375,-262.8)">
			<title>Sheet.59</title>
			<path d="M0 535.43 L36 535.43 L36 499.43 L72 499.43 L72 535.43" class="st2"/>
		</g>
		<g id="shape60-175" v:mID="60" v:groupContext="shape" transform="translate(126.375,-100.8)">
			<title>Sheet.60</title>
			<path d="M0 535.43 L108 535.43 L108 499.43 L144 499.43 L144 535.43 L216 535.43" class="st2"/>
		</g>
		<g id="shape61-178" v:mID="61" v:groupContext="shape" transform="translate(414.375,-100.8)">
			<title>Sheet.61</title>
			<path d="M0 535.43 L144 535.43 L144 499.43 L180 499.43 L180 535.43 L288 535.43" class="st2"/>
		</g>
		<g id="shape62-181" v:mID="62" v:groupContext="shape" transform="translate(360.375,-221.175)">
			<title>Sheet.62</title>
			<desc>...</desc>
			<v:textBlock v:margins="rect(4,4,4,4)"/>
			<v:textRect cx="23.9375" cy="525.425" width="47.88" height="20"/>
			<rect x="0" y="515.425" width="47.8749" height="20" class="st3"/>
			<text x="10.31" y="536.23" class="st11" v:langID="1033"><v:paragraph v:horizAlign="1"/><v:tabList/>...</text>		</g>
		<g id="shape63-184" v:mID="63" v:groupContext="shape" transform="translate(360.375,-116.8)">
			<title>Sheet.63</title>
			<desc>...</desc>
			<v:textBlock v:margins="rect(4,4,4,4)"/>
			<v:textRect cx="23.9375" cy="525.425" width="47.88" height="20"/>
			<rect x="0" y="515.425" width="47.8749" height="20" class="st3"/>
			<text x="10.31" y="536.23" class="st11" v:langID="1033"><v:paragraph v:horizAlign="1"/><v:tabList/>...</text>		</g>
		<g id="shape64-187" v:mID="64" v:groupContext="shape" transform="translate(39.1249,-269.8)">
			<title>Sheet.64</title>
			<desc>TCK</desc>
			<v:textBlock v:margins="rect(4,4,4,4)"/>
			<v:textRect cx="39.125" cy="525.425" width="78.26" height="20"/>
			<rect x="0" y="515.425" width="78.2501" height="20" class="st3"/>
			<text x="37.29" y="532.63" class="st12" v:langID="1033"><v:paragraph v:horizAlign="2"/><v:tabList/>TCK</text>		</g>
		<g id="shape65-190" v:mID="65" v:groupContext="shape" transform="translate(0.375,-217.8)">
			<title>Sheet.65</title>
			<desc>TAP State</desc>
			<v:textBlock v:margins="rect(4,4,4,4)"/>
			<v:textRect cx="58.5" cy="525.425" width="117" height="20"/>
			<rect x="0" y="515.425" width="117" height="20" class="st3"/>
			<text x="19.05" y="532.63" class="st12" v:langID="1033"><v:paragraph v:horizAlign="2"/><v:tabList/>TAP State</text>		</g>
		<g id="shape66-193" v:mID="66" v:groupContext="shape" transform="translate(39.1249,-107.8)">
			<title>Sheet.66</title>
			<desc>D6Init</desc>
			<v:textBlock v:margins="rect(4,4,4,4)"/>
			<v:textRect cx="39.125" cy="525.425" width="78.26" height="20"/>
			<rect x="0" y="515.425" width="78.2501" height="20" class="st3"/>
			<text x="15.12" y="532.63" class="st12" v:langID="1033"><v:paragraph v:horizAlign="2"/><v:tabList/>D6Init</text>		</g>
		<g id="shape67-196" v:mID="67" v:groupContext="shape" transform="translate(136.875,-0.80014)">
			<title>Sheet.67</title>
			<desc>D1IntrDR : Any of extest, sample, sample_preload or intest</desc>
			<v:textBlock v:margins="rect(4,4,4,4)"/>
			<v:textRect cx="223.5" cy="525.425" width="447.01" height="20"/>
			<rect x="0" y="515.425" width="447" height="20" class="st3"/>
			<text x="4" y="530.83" class="st4" v:langID="1033"><v:paragraph/><v:tabList/>D1IntrDR : Any of extest, sample, sample_preload or intest</text>		</g>
		<g id="shape68-199" v:mID="68" v:groupContext="shape" transform="translate(180.375,-154.8)">
			<title>Sheet.68</title>
			<desc>D1Instr</desc>
			<v:textBlock v:margins="rect(4,4,4,4)"/>
			<v:textRect cx="81" cy="517.425" width="162.01" height="36"/>
			<rect x="0" y="499.425" width="162" height="36" class="st13"/>
			<text x="63.16" y="521.03" class="st5" v:langID="1033"><v:paragraph v:horizAlign="1"/><v:tabList/>D1Instr</text>		</g>
		<g id="shape69-202" v:mID="69" v:groupContext="shape" transform="translate(180.375,-190.8)">
			<title>Sheet.69</title>
			<path d="M0 535.43 L162 535.43" class="st2"/>
		</g>
		<g id="shape70-205" v:mID="70" v:groupContext="shape" transform="translate(180.375,-154.8)">
			<title>Sheet.70</title>
			<path d="M0 535.43 L162 535.43" class="st2"/>
		</g>
		<g id="shape71-208" v:mID="71" v:groupContext="shape" transform="translate(468.375,-154.8)">
			<title>Sheet.71</title>
			<desc>Extest_train/pulse</desc>
			<v:textBlock v:margins="rect(4,4,4,4)"/>
			<v:textRect cx="90" cy="517.425" width="180" height="36"/>
			<rect x="0" y="499.425" width="180" height="36" class="st13"/>
			<text x="45.3" y="521.03" class="st5" v:langID="1033"><v:paragraph v:horizAlign="1"/><v:tabList/>Extest_train/pulse</text>		</g>
		<g id="shape72-211" v:mID="72" v:groupContext="shape" transform="translate(468.375,-190.8)">
			<title>Sheet.72</title>
			<path d="M0 535.43 L180 535.43" class="st2"/>
		</g>
		<g id="shape73-214" v:mID="73" v:groupContext="shape" transform="translate(468.375,-154.8)">
			<title>Sheet.73</title>
			<path d="M0 535.43 L180 535.43" class="st2"/>
		</g>
		<g id="shape74-217" v:mID="74" v:groupContext="shape" transform="translate(0.375,-163.8)">
			<title>Sheet.74</title>
			<desc>Instruction</desc>
			<v:textBlock v:margins="rect(4,4,4,4)"/>
			<v:textRect cx="58.5" cy="525.425" width="117" height="20"/>
			<rect x="0" y="515.425" width="117" height="20" class="st3"/>
			<text x="6.98" y="532.63" class="st12" v:langID="1033"><v:paragraph v:horizAlign="2"/><v:tabList/>Instruction</text>		</g>
		<g id="shape75-220" v:mID="75" v:groupContext="shape" transform="translate(769.8,277.125) rotate(90)">
			<title>Sheet.75</title>
			<path d="M0 535.43 L117 535.43" class="st14"/>
		</g>
		<g id="shape76-223" v:mID="76" v:groupContext="shape" transform="translate(805.8,277.125) rotate(90)">
			<title>Sheet.76</title>
			<path d="M0 535.43 L117 535.43" class="st14"/>
		</g>
		<g id="shape77-226" v:mID="77" v:groupContext="shape" transform="translate(1093.8,277.125) rotate(90)">
			<title>Sheet.77</title>
			<path d="M0 535.43 L117 535.43" class="st14"/>
		</g>
		<g id="shape78-229" v:mID="78" v:groupContext="shape" transform="translate(1129.8,277.125) rotate(90)">
			<title>Sheet.78</title>
			<path d="M0 535.43 L117 535.43" class="st14"/>
		</g>
		<g id="shape79-232" v:mID="79" v:groupContext="shape" transform="translate(104.375,-46.8001)">
			<title>Sheet.79</title>
			<desc>Reference: 1149.6 section 6.2.2</desc>
			<v:textBlock v:margins="rect(4,4,4,4)"/>
			<v:textRect cx="130" cy="525.425" width="260.01" height="20"/>
			<rect x="0" y="515.425" width="260" height="20" class="st3"/>
			<text x="14.6" y="530.83" class="st4" v:langID="1033"><v:paragraph v:horizAlign="1"/><v:tabList/>Reference: 1149.6 section 6.2.2</text>		</g>
		<g id="shape80-235" v:mID="80" v:groupContext="shape" transform="translate(428.375,-46.8001)">
			<title>Sheet.80</title>
			<desc>Reference: 1149.6 section 6.2.3</desc>
			<v:textBlock v:margins="rect(4,4,4,4)"/>
			<v:textRect cx="130" cy="525.425" width="260.01" height="20"/>
			<rect x="0" y="515.425" width="260" height="20" class="st3"/>
			<text x="14.6" y="530.83" class="st4" v:langID="1033"><v:paragraph v:horizAlign="1"/><v:tabList/>Reference: 1149.6 section 6.2.3</text>		</g>
		<g id="shape81-238" v:mID="81" v:groupContext="shape" transform="translate(-290.689,334.015) rotate(-75.9638)">
			<title>Sheet.81</title>
			<path d="M0 535.43 L13.38 535.43" class="st15"/>
		</g>
		<g id="shape82-244" v:mID="82" v:groupContext="shape" transform="translate(38.9363,334.765) rotate(-75.9638)">
			<title>Sheet.82</title>
			<path d="M0 535.43 L13.38 535.43" class="st15"/>
		</g>
		<g id="shape83-249" v:mID="83" v:groupContext="shape" transform="translate(387.375,-456.3)">
			<title>Sheet.83</title>
			<path d="M0 512.93 L0 485.93 L162 485.93 L162 535.43 L189 535.43" class="st2"/>
		</g>
		<g id="shape84-252" v:mID="84" v:groupContext="shape" transform="translate(378.375,-487.8)">
			<title>Sheet.84</title>
			<path d="M0 535.43 L0 508.43 L180 508.43 L180 533.18 L198 533.18" class="st2"/>
		</g>
		<g id="shape85-255" v:mID="85" v:groupContext="shape" transform="translate(641.625,-465.3)">
			<title>Sheet.85</title>
			<path d="M0 512.93 A19.125 23.9062 0 0 1 0 535.43 A36.0253 45.0316 -180 0 0 22.5 524.18 A36.0253 45.0316 -180 0 0 0 512.93
						 Z" class="st1"/>
		</g>
		<g id="shape86-257" v:mID="86" v:groupContext="shape" transform="translate(576.375,-472.05)">
			<title>Sheet.86</title>
			<path d="M0 535.43 L10 535.43 A12.5 11.25 -180 0 0 10 512.93 L0 512.93 L0 535.43 Z" class="st1"/>
		</g>
		<g id="shape87-259" v:mID="87" v:groupContext="shape" transform="translate(576.375,-438.3)">
			<title>Sheet.87</title>
			<path d="M0 535.43 L10 535.43 A12.5 11.25 -180 0 0 10 512.93 L0 512.93 L0 535.43 Z" class="st1"/>
		</g>
		<g id="shape88-261" v:mID="88" v:groupContext="shape" transform="translate(126.375,-208.8)">
			<title>Sheet.88</title>
			<path d="M0 499.43 L103.5 499.43 L112.5 535.43" class="st2"/>
		</g>
		<g id="shape89-264" v:mID="89" v:groupContext="shape" transform="translate(126.375,826.05) scale(1,-1)">
			<title>Sheet.89</title>
			<path d="M0 499.43 L103.5 499.43 L112.5 535.43" class="st2"/>
		</g>
		<g id="shape90-267" v:mID="90" v:groupContext="shape" transform="translate(238.875,826.05) scale(1,-1)">
			<title>Sheet.90</title>
			<path d="M0 499.43 L63 499.43 L72 535.43" class="st2"/>
		</g>
		<g id="shape91-270" v:mID="91" v:groupContext="shape" transform="translate(238.875,-208.8)">
			<title>Sheet.91</title>
			<path d="M0 499.43 L63 499.43 L72 535.43" class="st2"/>
		</g>
		<g id="shape92-273" v:mID="92" v:groupContext="shape" transform="translate(310.875,-244.8)">
			<title>Sheet.92</title>
			<path d="M0 535.43 L31.5 535.43" class="st2"/>
		</g>
		<g id="shape93-276" v:mID="93" v:groupContext="shape" transform="translate(310.875,-208.8)">
			<title>Sheet.93</title>
			<path d="M0 535.43 L31.5 535.43" class="st2"/>
		</g>
		<g id="shape94-279" v:mID="94" v:groupContext="shape" transform="translate(236.625,-208.8)">
			<title>Sheet.94</title>
			<desc>CaptureDR</desc>
			<v:textBlock v:margins="rect(4,4,4,4)"/>
			<v:textRect cx="36" cy="517.425" width="72" height="36"/>
			<rect x="0" y="499.425" width="72" height="36" class="st17"/>
			<text x="9.59" y="521.03" class="st5" v:langID="1033"><v:paragraph v:horizAlign="1"/><v:tabList/>CaptureDR</text>		</g>
		<g id="shape95-282" v:mID="95" v:groupContext="shape" transform="translate(414.375,-208.8)">
			<title>Sheet.95</title>
			<path d="M0 499.43 L103.5 499.43 L112.5 535.43" class="st2"/>
		</g>
		<g id="shape96-285" v:mID="96" v:groupContext="shape" transform="translate(414.375,826.05) scale(1,-1)">
			<title>Sheet.96</title>
			<path d="M0 499.43 L103.5 499.43 L112.5 535.43" class="st2"/>
		</g>
		<g id="shape97-288" v:mID="97" v:groupContext="shape" transform="translate(526.875,826.05) scale(1,-1)">
			<title>Sheet.97</title>
			<path d="M0 499.43 L63 499.43 L72 535.43" class="st2"/>
		</g>
		<g id="shape98-291" v:mID="98" v:groupContext="shape" transform="translate(526.875,-208.8)">
			<title>Sheet.98</title>
			<path d="M0 499.43 L63 499.43 L72 535.43" class="st2"/>
		</g>
		<g id="shape99-294" v:mID="99" v:groupContext="shape" transform="translate(598.875,-244.8)">
			<title>Sheet.99</title>
			<path d="M0 535.43 L103.5 535.43" class="st2"/>
		</g>
		<g id="shape100-297" v:mID="100" v:groupContext="shape" transform="translate(598.875,-208.8) rotate(4.75142E-07)">
			<title>Sheet.100</title>
			<path d="M0 535.43 L103.5 535.43" class="st2"/>
		</g>
		<g id="shape101-300" v:mID="101" v:groupContext="shape" transform="translate(522.375,-215.8)">
			<title>Sheet.101</title>
			<desc>Exit1/2DR</desc>
			<v:textBlock v:margins="rect(4,4,4,4)"/>
			<v:textRect cx="36.425" cy="525.425" width="72.85" height="20"/>
			<rect x="0" y="515.425" width="72.8499" height="20" class="st3"/>
			<text x="12.16" y="529.03" class="st5" v:langID="1033"><v:paragraph v:horizAlign="1"/><v:tabList/>Exit1/2DR</text>		</g>
		<g id="shape102-303" v:mID="102" v:groupContext="shape" transform="translate(360.375,-168.3)">
			<title>Sheet.102</title>
			<desc>...</desc>
			<v:textBlock v:margins="rect(4,4,4,4)"/>
			<v:textRect cx="23.9375" cy="525.425" width="47.88" height="20"/>
			<rect x="0" y="515.425" width="47.8749" height="20" class="st3"/>
			<text x="10.31" y="536.23" class="st11" v:langID="1033"><v:paragraph v:horizAlign="1"/><v:tabList/>...</text>		</g>
	</g>
</svg>
