<?xml version="1.0" encoding="UTF-8" standalone="no"?>
<!DOCTYPE svg PUBLIC "-//W3C//DTD SVG 1.1//EN" "http://www.w3.org/Graphics/SVG/1.1/DTD/svg11.dtd">
<!-- Generated by Microsoft Visio, SVG Export BScan_cell_update.vsdx_update_clk_eaafe.svg Page-1 -->
<svg xmlns="http://www.w3.org/2000/svg" xmlns:xlink="http://www.w3.org/1999/xlink" xmlns:ev="http://www.w3.org/2001/xml-events"
		xmlns:v="http://schemas.microsoft.com/visio/2003/SVGExtensions/" width="11.322in" height="5.55556in"
		viewBox="0 0 815.188 400" xml:space="preserve" color-interpolation-filters="sRGB" class="st18">
	<v:documentProperties v:langID="1033" v:viewMarkup="false">
		<v:userDefs>
			<v:ud v:nameU="msvConvertTheme"/>
		</v:userDefs>
	</v:documentProperties>

	<style type="text/css">
	<![CDATA[
		.st1 {fill:#5880b3;stroke:none;stroke-linecap:round;stroke-linejoin:round;stroke-width:1.5}
		.st2 {fill:#ebf1df;stroke:none;stroke-linecap:round;stroke-linejoin:round;stroke-width:1.5}
		.st3 {fill:#c6d8f0;stroke:none;stroke-linecap:round;stroke-linejoin:round;stroke-width:1.5}
		.st4 {fill:#ffffcc;stroke:#000000;stroke-linecap:round;stroke-linejoin:round;stroke-width:1.5}
		.st5 {stroke:#000000;stroke-linecap:round;stroke-linejoin:round;stroke-width:1.5}
		.st6 {fill:none;stroke:none;stroke-linecap:round;stroke-linejoin:round;stroke-width:1.5}
		.st7 {fill:#000000;font-family:Calibri;font-size:0.75em}
		.st8 {fill:#000000;font-family:Calibri;font-size:1.00001em}
		.st9 {fill:#ffffff;stroke:#000000;stroke-linecap:round;stroke-linejoin:round;stroke-width:1.5}
		.st10 {marker-end:url(#mrkr13-186);stroke:#000000;stroke-linecap:round;stroke-linejoin:round;stroke-width:1.5}
		.st11 {fill:#000000;fill-opacity:1;stroke:#000000;stroke-opacity:1;stroke-width:0.37313432835821}
		.st12 {fill:#000000;font-family:Calibri;font-size:0.833336em}
		.st13 {font-size:1em}
		.st14 {fill:#f9c499;stroke:none;stroke-linecap:round;stroke-linejoin:round;stroke-width:1.5}
		.st15 {fill:#a5a5a5;stroke:#000000;stroke-linecap:round;stroke-linejoin:round;stroke-width:1.5}
		.st16 {fill:#000000;font-family:Calibri;font-size:0.666664em}
		.st17 {fill:none;stroke:#ff0000;stroke-linecap:round;stroke-linejoin:round;stroke-width:2.25}
		.st18 {fill:none;fill-rule:evenodd;font-size:12px;overflow:visible;stroke-linecap:square;stroke-miterlimit:3}
	]]>
	</style>

	<defs id="Markers">
		<g id="lend13">
			<path d="M 3 1 L 0 0 L 3 -1 L 3 1 " style="stroke:none"/>
		</g>
		<marker id="mrkr13-186" class="st11" v:arrowType="13" v:arrowSize="2" v:setback="8.04" refX="-8.04" orient="auto"
				markerUnits="strokeWidth" overflow="visible">
			<use xlink:href="#lend13" transform="scale(-2.68,-2.68) "/>
		</marker>
	</defs>
	<g v:mID="0" v:index="1" v:groupContext="foregroundPage">
		<title>Page-1</title>
		<v:pageProperties v:drawingScale="1" v:pageScale="1" v:drawingUnits="19" v:shadowOffsetX="9" v:shadowOffsetY="-9"
				v:shadowType="1"/>
		<g id="shape1000-1" v:mID="1000" v:groupContext="shape" transform="translate(152.781,-0.75)">
			<title>Sheet.1000</title>
			<rect x="0" y="2.5" width="540" height="397.5" class="st1"/>
		</g>
		<g id="shape1001-3" v:mID="1001" v:groupContext="shape" transform="translate(166.281,-227.25)">
			<title>Sheet.1001</title>
			<rect x="0" y="265" width="436.5" height="135" class="st2"/>
		</g>
		<g id="shape1002-5" v:mID="1002" v:groupContext="shape" transform="translate(166.281,-99.75)">
			<title>Sheet.1002</title>
			<rect x="0" y="272.5" width="436.5" height="127.5" class="st3"/>
		</g>
		<g id="shape1003-7" v:mID="1003" v:groupContext="shape" transform="translate(386.781,-276.75)">
			<title>Sheet.1003</title>
			<rect x="0" y="373" width="27" height="27" class="st4"/>
		</g>
		<g id="shape1004-9" v:mID="1004" v:groupContext="shape" transform="translate(386.781,-285.75)">
			<title>Sheet.1004</title>
			<path d="M0 391 L4.5 395.5 L0 400" class="st5"/>
		</g>
		<g id="shape1005-12" v:mID="1005" v:groupContext="shape" transform="translate(384.131,-288.25)">
			<title>Sheet.1005</title>
			<desc>D</desc>
			<v:textBlock v:margins="rect(4,4,4,4)"/>
			<v:textRect cx="8.075" cy="390" width="16.15" height="20"/>
			<rect x="0" y="380" width="16.15" height="20" class="st6"/>
			<text x="5.31" y="392.7" class="st7" v:langID="1033"><v:paragraph v:horizAlign="1"/><v:tabList/>D</text>		</g>
		<g id="shape1006-15" v:mID="1006" v:groupContext="shape" transform="translate(386.781,509.75) rotate(180)">
			<title>Sheet.1006</title>
			<path d="M0 400 L9 400" class="st5"/>
		</g>
		<g id="shape1007-18" v:mID="1007" v:groupContext="shape" transform="translate(386.781,500.75) rotate(180)">
			<title>Sheet.1007</title>
			<path d="M0 400 L9 400" class="st5"/>
		</g>
		<g id="shape1008-21" v:mID="1008" v:groupContext="shape" transform="translate(401.206,-280.25)">
			<title>Sheet.1008</title>
			<desc>Q</desc>
			<v:textBlock v:margins="rect(4,4,4,4)"/>
			<v:textRect cx="8.075" cy="390" width="16.15" height="20"/>
			<rect x="0" y="380" width="16.15" height="20" class="st6"/>
			<text x="5.05" y="392.7" class="st7" v:langID="1033"><v:paragraph v:horizAlign="1"/><v:tabList/>Q</text>		</g>
		<g id="shape1009-24" v:mID="1009" v:groupContext="shape" transform="translate(422.781,509.75) rotate(180)">
			<title>Sheet.1009</title>
			<path d="M0 400 L9 400" class="st5"/>
		</g>
		<g id="shape1010-27" v:mID="1010" v:groupContext="shape" transform="translate(314.781,482.75) scale(1,-1)">
			<title>Sheet.1010</title>
			<path d="M0 400 L27 391 L27 373 L0 364 L0 400 Z" class="st4"/>
		</g>
		<g id="shape1011-29" v:mID="1011" v:groupContext="shape" transform="translate(312.131,498.75) scale(1,-1)">
			<title>Sheet.1011</title>
			<desc>0</desc>
			<v:textBlock v:margins="rect(4,4,4,4)"/>
			<v:textRect cx="8.075" cy="390" width="16.15" height="20"/>
			<rect x="0" y="380" width="16.15" height="20" class="st6"/>
			<text x="5.03" y="-386.4" transform="scale(1,-1)" class="st8" v:langID="1033"><v:paragraph v:horizAlign="1"/><v:tabList/>0</text>		</g>
		<g id="shape1012-32" v:mID="1012" v:groupContext="shape" transform="translate(314.781,-290.25) scale(-1,1)">
			<title>Sheet.1012</title>
			<path d="M0 400 L9 400" class="st5"/>
		</g>
		<g id="shape1013-35" v:mID="1013" v:groupContext="shape" transform="translate(314.781,-308.25) scale(-1,1)">
			<title>Sheet.1013</title>
			<path d="M0 400 L9 400" class="st5"/>
		</g>
		<g id="shape1014-38" v:mID="1014" v:groupContext="shape" transform="translate(312.131,481.75) scale(1,-1)">
			<title>Sheet.1014</title>
			<desc>1</desc>
			<v:textBlock v:margins="rect(4,4,4,4)"/>
			<v:textRect cx="8.075" cy="390" width="16.15" height="20"/>
			<rect x="0" y="380" width="16.15" height="20" class="st6"/>
			<text x="5.03" y="-386.4" transform="scale(1,-1)" class="st8" v:langID="1033"><v:paragraph v:horizAlign="1"/><v:tabList/>1</text>		</g>
		<g id="shape1015-41" v:mID="1015" v:groupContext="shape" transform="translate(350.781,-299.25) scale(-1,1)">
			<title>Sheet.1015</title>
			<path d="M0 400 L9 400" class="st5"/>
		</g>
		<g id="shape1016-44" v:mID="1016" v:groupContext="shape" transform="translate(287.781,-290.25) scale(-1,1)">
			<title>Sheet.1016</title>
			<path d="M0 400 L9 400" class="st5"/>
		</g>
		<g id="shape1017-47" v:mID="1017" v:groupContext="shape" transform="translate(512.781,-146.25)">
			<title>Sheet.1017</title>
			<path d="M-0 382 A19.125 19.125 0 0 1 -0 400 A25.93 25.93 -180 0 0 18 391 A25.93 25.93 -180 0 0 0 382 Z" class="st9"/>
		</g>
		<g id="shape1018-49" v:mID="1018" v:groupContext="shape" transform="translate(458.781,631.25) rotate(180)">
			<title>Sheet.1018</title>
			<path d="M0 400 L9 400" class="st5"/>
		</g>
		<g id="shape1019-52" v:mID="1019" v:groupContext="shape" transform="translate(386.781,-155.25)">
			<title>Sheet.1019</title>
			<rect x="0" y="373" width="27" height="27" class="st4"/>
		</g>
		<g id="shape1020-54" v:mID="1020" v:groupContext="shape" transform="translate(386.781,-164.25)">
			<title>Sheet.1020</title>
			<path d="M0 391 L4.5 395.5 L0 400" class="st5"/>
		</g>
		<g id="shape1021-57" v:mID="1021" v:groupContext="shape" transform="translate(384.131,-166.75)">
			<title>Sheet.1021</title>
			<desc>D</desc>
			<v:textBlock v:margins="rect(4,4,4,4)"/>
			<v:textRect cx="8.075" cy="390" width="16.15" height="20"/>
			<rect x="0" y="380" width="16.15" height="20" class="st6"/>
			<text x="5.31" y="392.7" class="st7" v:langID="1033"><v:paragraph v:horizAlign="1"/><v:tabList/>D</text>		</g>
		<g id="shape1022-60" v:mID="1022" v:groupContext="shape" transform="translate(386.781,631.25) rotate(180)">
			<title>Sheet.1022</title>
			<path d="M0 400 L9 400" class="st5"/>
		</g>
		<g id="shape1023-63" v:mID="1023" v:groupContext="shape" transform="translate(386.781,622.25) rotate(180)">
			<title>Sheet.1023</title>
			<path d="M0 400 L9 400" class="st5"/>
		</g>
		<g id="shape1024-66" v:mID="1024" v:groupContext="shape" transform="translate(401.206,-158.75)">
			<title>Sheet.1024</title>
			<desc>Q</desc>
			<v:textBlock v:margins="rect(4,4,4,4)"/>
			<v:textRect cx="8.075" cy="390" width="16.15" height="20"/>
			<rect x="0" y="380" width="16.15" height="20" class="st6"/>
			<text x="5.05" y="392.7" class="st7" v:langID="1033"><v:paragraph v:horizAlign="1"/><v:tabList/>Q</text>		</g>
		<g id="shape1025-69" v:mID="1025" v:groupContext="shape" transform="translate(422.781,631.25) rotate(180)">
			<title>Sheet.1025</title>
			<path d="M0 400 L9 400" class="st5"/>
		</g>
		<g id="shape1026-72" v:mID="1026" v:groupContext="shape" transform="translate(314.781,-159.75)">
			<title>Sheet.1026</title>
			<path d="M0 400 L27 391 L27 373 L0 364 L0 400 Z" class="st4"/>
		</g>
		<g id="shape1027-74" v:mID="1027" v:groupContext="shape" transform="translate(312.131,-175.75)">
			<title>Sheet.1027</title>
			<desc>0</desc>
			<v:textBlock v:margins="rect(4,4,4,4)"/>
			<v:textRect cx="8.075" cy="390" width="16.15" height="20"/>
			<rect x="0" y="380" width="16.15" height="20" class="st6"/>
			<text x="5.03" y="393.6" class="st8" v:langID="1033"><v:paragraph v:horizAlign="1"/><v:tabList/>0</text>		</g>
		<g id="shape1028-77" v:mID="1028" v:groupContext="shape" transform="translate(314.781,613.25) rotate(180)">
			<title>Sheet.1028</title>
			<path d="M0 400 L9 400" class="st5"/>
		</g>
		<g id="shape1029-80" v:mID="1029" v:groupContext="shape" transform="translate(312.131,-158.75)">
			<title>Sheet.1029</title>
			<desc>1</desc>
			<v:textBlock v:margins="rect(4,4,4,4)"/>
			<v:textRect cx="8.075" cy="390" width="16.15" height="20"/>
			<rect x="0" y="380" width="16.15" height="20" class="st6"/>
			<text x="5.03" y="393.6" class="st8" v:langID="1033"><v:paragraph v:horizAlign="1"/><v:tabList/>1</text>		</g>
		<g id="shape1030-83" v:mID="1030" v:groupContext="shape" transform="translate(350.781,-177.75) scale(-1,1)">
			<title>Sheet.1030</title>
			<path d="M0 400 L9 400" class="st5"/>
		</g>
		<g id="shape1031-86" v:mID="1031" v:groupContext="shape" transform="translate(287.781,-186.75) scale(-1,1)">
			<title>Sheet.1031</title>
			<path d="M0 400 L9 400" class="st5"/>
		</g>
		<g id="shape1032-89" v:mID="1032" v:groupContext="shape" transform="translate(620.781,509.75) rotate(180)">
			<title>Sheet.1032</title>
			<path d="M0 400 L31.5 400" class="st5"/>
		</g>
		<g id="shape1033-92" v:mID="1033" v:groupContext="shape" transform="translate(508.281,-159.75)">
			<title>Sheet.1033</title>
			<path d="M0 400 L9 400" class="st5"/>
		</g>
		<g id="shape1034-95" v:mID="1034" v:groupContext="shape" transform="translate(530.781,-155.25)">
			<title>Sheet.1034</title>
			<path d="M0 400 L4.5 400" class="st5"/>
		</g>
		<g id="shape1035-98" v:mID="1035" v:groupContext="shape" transform="translate(566.781,-281.25)">
			<title>Sheet.1035</title>
			<path d="M-0 382 A19.125 19.125 0 0 1 -0 400 A25.93 25.93 -180 0 0 18 391 A25.93 25.93 -180 0 0 0 382 Z" class="st9"/>
		</g>
		<g id="group1036-100" transform="translate(562.281,-281.25)" v:mID="1036" v:groupContext="group">
			<title>Sheet.1036</title>
			<g id="shape1037-101" v:mID="1037" v:groupContext="shape" transform="translate(0,-4.5)">
				<title>Sheet.1037</title>
				<path d="M0 400 L9 400" class="st5"/>
			</g>
			<g id="shape1038-104" v:mID="1038" v:groupContext="shape" transform="translate(0,-13.5)">
				<title>Sheet.1038</title>
				<path d="M0 400 L9 400" class="st5"/>
			</g>
			<g id="shape1039-107" v:mID="1039" v:groupContext="shape" transform="translate(4.5,0)">
				<title>Sheet.1039</title>
				<path d="M-0 382 A19.125 19.125 0 0 1 -0 400 A25.93 25.93 -180 0 0 18 391 A25.93 25.93 -180 0 0 0 382 Z"
						class="st4"/>
			</g>
			<g id="shape1040-109" v:mID="1040" v:groupContext="shape" transform="translate(22.5,-9)">
				<title>Sheet.1040</title>
				<path d="M0 400 L4.5 400" class="st5"/>
			</g>
		</g>
		<g id="shape1041-112" v:mID="1041" v:groupContext="shape" transform="translate(562.281,514.25) rotate(180)">
			<title>Sheet.1041</title>
			<path d="M0 400 L13.5 400" class="st5"/>
		</g>
		<g id="group1042-115" transform="translate(521.781,-276.75)" v:mID="1042" v:groupContext="group">
			<title>Sheet.1042</title>
			<g id="group1043-116" v:mID="1043" v:groupContext="group">
				<title>Sheet.1043</title>
				<g id="shape1044-117" v:mID="1044" v:groupContext="shape" transform="translate(0,-4.5)">
					<title>Sheet.1044</title>
					<path d="M0 400 L9 400" class="st5"/>
				</g>
				<g id="shape1045-120" v:mID="1045" v:groupContext="shape" transform="translate(0,-13.5)">
					<title>Sheet.1045</title>
					<path d="M0 400 L9 400" class="st5"/>
				</g>
				<g id="shape1046-123" v:mID="1046" v:groupContext="shape" transform="translate(4.5,0)">
					<title>Sheet.1046</title>
					<path d="M-0 382 A19.125 19.125 0 0 1 -0 400 A25.93 25.93 -180 0 0 18 391 A25.93 25.93 -180 0 0 0 382 Z"
							class="st4"/>
				</g>
				<g id="shape1047-125" v:mID="1047" v:groupContext="shape" transform="translate(22.5,-9)">
					<title>Sheet.1047</title>
					<path d="M0 400 L4.5 400" class="st5"/>
				</g>
			</g>
			<g id="shape1048-128" v:mID="1048" v:groupContext="shape" transform="translate(22.5,-6.75)">
				<title>Sheet.1048</title>
				<ellipse cx="2.25" cy="397.75" rx="2.25" ry="2.25" class="st4"/>
			</g>
		</g>
		<g id="shape1049-130" v:mID="1049" v:groupContext="shape" transform="translate(521.781,518.75) rotate(180)">
			<title>Sheet.1049</title>
			<path d="M0 400 L27 400" class="st5"/>
		</g>
		<g id="shape1050-133" v:mID="1050" v:groupContext="shape" transform="translate(422.781,-290.25)">
			<title>Sheet.1050</title>
			<path d="M0 400 L36 400" class="st5"/>
		</g>
		<g id="shape1051-136" v:mID="1051" v:groupContext="shape" transform="translate(350.781,-299.25)">
			<title>Sheet.1051</title>
			<path d="M0 400 L27 400" class="st5"/>
		</g>
		<g id="shape1052-139" v:mID="1052" v:groupContext="shape" transform="translate(287.781,-290.25)">
			<title>Sheet.1052</title>
			<path d="M0 400 L18 400" class="st5"/>
		</g>
		<g id="shape1053-142" v:mID="1053" v:groupContext="shape" transform="translate(305.781,-281.25)">
			<title>Sheet.1053</title>
			<path d="M193.5 400 L193.5 355 L0 355 L0 373 L9 373" class="st5"/>
		</g>
		<g id="shape1054-145" v:mID="1054" v:groupContext="shape" transform="translate(134.781,-294.75)">
			<title>Sheet.1054</title>
			<path d="M427.5 400 L418.1 400 L418.1 350.5 L0 350.5" class="st5"/>
		</g>
		<g id="shape1055-148" v:mID="1055" v:groupContext="shape" transform="translate(134.781,-290.25)">
			<title>Sheet.1055</title>
			<path d="M387 400 L377.56 400 L377.56 355 L0 355" class="st5"/>
		</g>
		<g id="shape1056-151" v:mID="1056" v:groupContext="shape" transform="translate(431.781,-137.25)">
			<title>Sheet.1056</title>
			<path d="M40.5 269.5 L40.5 278.5 L0 278.5 L0 400 L40.5 400 L40.5 391" class="st5"/>
		</g>
		<g id="shape1057-154" v:mID="1057" v:groupContext="shape" transform="translate(449.781,631.25) rotate(180)">
			<title>Sheet.1057</title>
			<path d="M0 400 L27 400" class="st5"/>
		</g>
		<g id="shape1058-157" v:mID="1058" v:groupContext="shape" transform="translate(581.08,-164.25)">
			<title>Sheet.1058</title>
			<path d="M0 400 L39.7 400" class="st5"/>
		</g>
		<g id="shape1059-160" v:mID="1059" v:groupContext="shape" transform="translate(535.281,-155.25)">
			<title>Sheet.1059</title>
			<path d="M0 400 L45.59 400 L45.59 391" class="st5"/>
		</g>
		<g id="shape1060-163" v:mID="1060" v:groupContext="shape" transform="translate(494.781,-159.75)">
			<title>Sheet.1060</title>
			<path d="M0 400 L13.5 400" class="st5"/>
		</g>
		<g id="shape1061-166" v:mID="1061" v:groupContext="shape" transform="translate(350.781,-177.75)">
			<title>Sheet.1061</title>
			<path d="M0 400 L27 400" class="st5"/>
		</g>
		<g id="shape1062-169" v:mID="1062" v:groupContext="shape" transform="translate(287.781,-186.75)">
			<title>Sheet.1062</title>
			<path d="M0 400 L18 400" class="st5"/>
		</g>
		<g id="shape1063-172" v:mID="1063" v:groupContext="shape" transform="translate(134.781,-128.25)">
			<title>Sheet.1063</title>
			<path d="M380.25 377.88 L373.16 377.88 L358.99 377.88 L358.99 400 L0 400" class="st5"/>
		</g>
		<g id="shape1064-175" v:mID="1064" v:groupContext="shape" transform="translate(276.531,-108.75)">
			<title>Sheet.1064</title>
			<path d="M0 400 L0 340.02 L37.72 340.02" class="st5"/>
		</g>
		<g id="shape1065-178" v:mID="1065" v:groupContext="shape" transform="translate(368.781,-168.75)">
			<title>Sheet.1065</title>
			<path d="M9 400 L0 400 L0 278.5 L9 278.5" class="st5"/>
		</g>
		<g id="shape1066-181" v:mID="1066" v:groupContext="shape" transform="translate(134.781,-108.75)">
			<title>Sheet.1066</title>
			<path d="M108 400 L12.06 400" class="st10"/>
		</g>
		<g id="shape1067-187" v:mID="1067" v:groupContext="shape" transform="translate(242.781,-108.75)">
			<title>Sheet.1067</title>
			<path d="M0 400 L414 400" class="st5"/>
		</g>
		<g id="shape1068-190" v:mID="1068" v:groupContext="shape" transform="translate(278.781,613.25) rotate(180)">
			<title>Sheet.1068</title>
			<path d="M0 400 L144 400" class="st5"/>
		</g>
		<g id="shape1069-193" v:mID="1069" v:groupContext="shape" transform="translate(41.25,-361.25)">
			<title>Sheet.1069</title>
			<desc>dt_dfx_txdatenable</desc>
			<v:textBlock v:margins="rect(4,4,4,4)"/>
			<v:textRect cx="46.2813" cy="390" width="92.57" height="20"/>
			<rect x="0" y="380" width="92.5625" height="20" class="st6"/>
			<text x="8.74" y="393" class="st12" v:langID="1033"><v:paragraph v:horizAlign="2"/><v:tabList/>dt_dfx_txdatenable</text>		</g>
		<g id="shape1070-196" v:mID="1070" v:groupContext="shape" transform="translate(36.75,-334.25)">
			<title>Sheet.1070</title>
			<desc>dfx_highz</desc>
			<v:textBlock v:margins="rect(4,4,4,4)"/>
			<v:textRect cx="48.5312" cy="390" width="97.07" height="20"/>
			<rect x="0" y="380" width="97.0625" height="20" class="st6"/>
			<text x="53.99" y="393" class="st12" v:langID="1033"><v:paragraph v:horizAlign="2"/><v:tabList/>dfx_highz</text>		</g>
		<g id="shape1071-199" v:mID="1071" v:groupContext="shape" transform="translate(50.25,-325.25)">
			<title>Sheet.1071</title>
			<desc>dfx_outdrven</desc>
			<v:textBlock v:margins="rect(4,4,4,4)"/>
			<v:textRect cx="41.7812" cy="390" width="83.57" height="20"/>
			<rect x="0" y="380" width="83.5625" height="20" class="st6"/>
			<text x="24.58" y="393" class="st12" v:langID="1033"><v:paragraph v:horizAlign="2"/><v:tabList/>dfx_outdrven</text>		</g>
		<g id="shape1072-202" v:mID="1072" v:groupContext="shape" transform="translate(0.75,-175.75)">
			<title>Sheet.1072</title>
			<desc>bscan_datasi (from previous bscan cell)</desc>
			<v:textBlock v:margins="rect(4,4,4,4)"/>
			<v:textRect cx="66.5312" cy="390" width="133.07" height="20"/>
			<rect x="0" y="380" width="133.062" height="20" class="st6"/>
			<text x="76.25" y="387" class="st12" v:langID="1033"><v:paragraph v:horizAlign="2"/><v:tabList/>bscan_datasi<v:newlineChar/><tspan
						x="24.22" dy="1.2em" class="st13">(from previous bscan cell)</tspan></text>		</g>
		<g id="shape1073-206" v:mID="1073" v:groupContext="shape" transform="translate(70.1875,-118.375)">
			<title>Sheet.1073</title>
			<desc>dfx_datatgl</desc>
			<v:textBlock v:margins="rect(4,4,4,4)"/>
			<v:textRect cx="31.8125" cy="390" width="63.63" height="20"/>
			<rect x="0" y="380" width="63.625" height="20" class="st6"/>
			<text x="13.47" y="393" class="st12" v:langID="1033"><v:paragraph v:horizAlign="2"/><v:tabList/>dfx_datatgl</text>		</g>
		<g id="shape1074-209" v:mID="1074" v:groupContext="shape" transform="translate(174.969,-198.25)">
			<title>Sheet.1074</title>
			<desc>B-Scan Data Cell</desc>
			<v:textBlock v:margins="rect(4,4,4,4)"/>
			<v:textRect cx="31.8125" cy="390" width="63.63" height="20"/>
			<rect x="0" y="380" width="63.625" height="20" class="st6"/>
			<text x="4" y="387" class="st12" v:langID="1033"><v:paragraph/><v:tabList/>B-Scan Data <tspan x="4" dy="1.2em"
						class="st13">Cell</tspan></text>		</g>
		<g id="shape1075-213" v:mID="1075" v:groupContext="shape" transform="translate(174.969,-303.75)">
			<title>Sheet.1075</title>
			<desc>B-Scan Output Enable Cell (Per Byte)</desc>
			<v:textBlock v:margins="rect(4,4,4,4)"/>
			<v:textRect cx="40.6563" cy="390" width="81.32" height="20"/>
			<rect x="0" y="380" width="81.3125" height="20" class="st6"/>
			<text x="4" y="381" class="st12" v:langID="1033"><v:paragraph/><v:tabList/>B-Scan Output <tspan x="4" dy="1.2em"
						class="st13">Enable Cell<v:newlineChar/></tspan><tspan x="4" dy="1.2em" class="st13">(Per Byte)</tspan></text>		</g>
		<g id="shape1076-218" v:mID="1076" v:groupContext="shape" transform="translate(34.8125,-249.75)">
			<title>Sheet.1076</title>
			<desc>bscan_updatedr_clk</desc>
			<v:textBlock v:margins="rect(4,4,4,4)"/>
			<v:textRect cx="49.5" cy="390" width="99" height="20"/>
			<rect x="0" y="380" width="99" height="20" class="st6"/>
			<text x="12.91" y="393" class="st12" v:langID="1033"><v:paragraph v:horizAlign="2"/><v:tabList/>bscan_updatedr_clk</text>		</g>
		<g id="shape1077-221" v:mID="1077" v:groupContext="shape" transform="translate(134.781,-146.25)">
			<title>Sheet.1077</title>
			<path d="M193.5 260.5 L193.5 400 L0 400" class="st5"/>
		</g>
		<g id="shape1078-224" v:mID="1078" v:groupContext="shape" transform="translate(50.25,-137.25)">
			<title>Sheet.1078</title>
			<desc>bscan_capture</desc>
			<v:textBlock v:margins="rect(4,4,4,4)"/>
			<v:textRect cx="41.7813" cy="390" width="83.57" height="20"/>
			<rect x="0" y="380" width="83.5625" height="20" class="st6"/>
			<text x="19.81" y="393" class="st12" v:langID="1033"><v:paragraph v:horizAlign="2"/><v:tabList/>bscan_capture</text>		</g>
		<g id="shape1079-227" v:mID="1079" v:groupContext="shape" transform="translate(278.781,-168.75)">
			<title>Sheet.1079</title>
			<path d="M144 400 L144 350.5 L0 350.5 L0 278.5" class="st5"/>
		</g>
		<g id="shape1080-230" v:mID="1080" v:groupContext="shape" transform="translate(440.781,509.75) scale(1,-1)">
			<title>Sheet.1080</title>
			<path d="M0 400 L0 361.75 L167.94 361.75" class="st10"/>
		</g>
		<g id="shape1081-235" v:mID="1081" v:groupContext="shape" transform="translate(134.781,-312.75)">
			<title>Sheet.1081</title>
			<path d="M517.5 400 L517.5 341.5 L0 341.5" class="st5"/>
		</g>
		<g id="shape1082-238" v:mID="1082" v:groupContext="shape" transform="translate(692.781,-0.75)">
			<title>Sheet.1082</title>
			<rect x="0" y="2.5" width="83.25" height="397.5" class="st14"/>
		</g>
		<g id="shape1083-240" v:mID="1083" v:groupContext="shape" transform="translate(713.031,-182.25)">
			<title>Sheet.1083</title>
			<ellipse cx="4.5" cy="395.5" rx="4.5" ry="4.5" class="st9"/>
		</g>
		<g id="shape1084-242" v:mID="1084" v:groupContext="shape" transform="translate(699.531,-155.25)">
			<title>Sheet.1084</title>
			<path d="M0 364 L0 400 L36 382 L0 364 Z" class="st4"/>
		</g>
		<g id="shape1085-244" v:mID="1085" v:groupContext="shape" transform="translate(735.531,673.25) rotate(180)">
			<title>Sheet.1085</title>
			<path d="M0 364 L0 400 L36 382 L0 364 Z" class="st4"/>
		</g>
		<g id="shape1086-246" v:mID="1086" v:groupContext="shape" transform="translate(735.531,-108.75)">
			<title>Sheet.1086</title>
			<path d="M0 400 L18 400 L18 335.5 L0 335.5" class="st5"/>
		</g>
		<g id="shape1087-249" v:mID="1087" v:groupContext="shape" transform="translate(753.531,-173.25)">
			<title>Sheet.1087</title>
			<path d="M0 400 L36 400" class="st5"/>
		</g>
		<g id="shape1088-252" v:mID="1088" v:groupContext="shape" transform="translate(789.531,-164.25)">
			<title>Sheet.1088</title>
			<rect x="0" y="382" width="18" height="18" class="st15"/>
		</g>
		<g id="shape1089-254" v:mID="1089" v:groupContext="shape" transform="translate(696.969,-371.25)">
			<title>Sheet.1089</title>
			<desc>IO Driver (AFE)</desc>
			<v:textBlock v:margins="rect(4,4,4,4)"/>
			<v:textRect cx="31.8125" cy="390" width="63.63" height="20"/>
			<rect x="0" y="380" width="63.625" height="20" class="st6"/>
			<text x="4" y="387" class="st12" v:langID="1033"><v:paragraph/><v:tabList/>IO Driver<v:newlineChar/><tspan x="4"
						dy="1.2em" class="st13">(AFE)</tspan></text>		</g>
		<g id="shape1090-258" v:mID="1090" v:groupContext="shape" transform="translate(782.625,-180.25)">
			<title>Sheet.1090</title>
			<desc>Pad</desc>
			<v:textBlock v:margins="rect(4,4,4,4)"/>
			<v:textRect cx="15.9062" cy="390" width="31.82" height="20"/>
			<rect x="0" y="380" width="31.8125" height="20" class="st6"/>
			<text x="8.3" y="393" class="st12" v:langID="1033"><v:paragraph v:horizAlign="1"/><v:tabList/>Pad</text>		</g>
		<g id="shape1091-261" v:mID="1091" v:groupContext="shape" transform="translate(638.781,-281.25)">
			<title>Sheet.1091</title>
			<path d="M0 400 L27 391 L27 373 L0 364 L0 400 Z" class="st4"/>
		</g>
		<g id="shape1092-263" v:mID="1092" v:groupContext="shape" transform="translate(636.131,-297.125)">
			<title>Sheet.1092</title>
			<desc>0</desc>
			<v:textBlock v:margins="rect(4,4,4,4)"/>
			<v:textRect cx="8.075" cy="390" width="16.15" height="20"/>
			<rect x="0" y="380" width="16.15" height="20" class="st6"/>
			<text x="5.03" y="393.6" class="st8" v:langID="1033"><v:paragraph v:horizAlign="1"/><v:tabList/>0</text>		</g>
		<g id="shape1093-266" v:mID="1093" v:groupContext="shape" transform="translate(638.781,491.75) rotate(180)">
			<title>Sheet.1093</title>
			<path d="M0 400 L9 400" class="st5"/>
		</g>
		<g id="shape1094-269" v:mID="1094" v:groupContext="shape" transform="translate(638.781,509.75) rotate(180)">
			<title>Sheet.1094</title>
			<path d="M0 400 L9 400" class="st5"/>
		</g>
		<g id="shape1095-272" v:mID="1095" v:groupContext="shape" transform="translate(636.131,-280.125)">
			<title>Sheet.1095</title>
			<desc>1</desc>
			<v:textBlock v:margins="rect(4,4,4,4)"/>
			<v:textRect cx="8.075" cy="390" width="16.15" height="20"/>
			<rect x="0" y="380" width="16.15" height="20" class="st6"/>
			<text x="5.03" y="393.6" class="st8" v:langID="1033"><v:paragraph v:horizAlign="1"/><v:tabList/>1</text>		</g>
		<g id="shape1096-275" v:mID="1096" v:groupContext="shape" transform="translate(647.781,-155.25)">
			<title>Sheet.1096</title>
			<path d="M0 400 L27 391 L27 373 L0 364 L0 400 Z" class="st4"/>
		</g>
		<g id="shape1097-277" v:mID="1097" v:groupContext="shape" transform="translate(645.131,-171.25)">
			<title>Sheet.1097</title>
			<desc>0</desc>
			<v:textBlock v:margins="rect(4,4,4,4)"/>
			<v:textRect cx="8.075" cy="390" width="16.15" height="20"/>
			<rect x="0" y="380" width="16.15" height="20" class="st6"/>
			<text x="5.03" y="393.6" class="st8" v:langID="1033"><v:paragraph v:horizAlign="1"/><v:tabList/>0</text>		</g>
		<g id="shape1098-280" v:mID="1098" v:groupContext="shape" transform="translate(647.781,617.75) rotate(180)">
			<title>Sheet.1098</title>
			<path d="M0 400 L9 400" class="st5"/>
		</g>
		<g id="shape1099-283" v:mID="1099" v:groupContext="shape" transform="translate(647.781,635.75) rotate(180)">
			<title>Sheet.1099</title>
			<path d="M0 400 L9 400" class="st5"/>
		</g>
		<g id="shape1100-286" v:mID="1100" v:groupContext="shape" transform="translate(645.131,-154.25)">
			<title>Sheet.1100</title>
			<desc>1</desc>
			<v:textBlock v:margins="rect(4,4,4,4)"/>
			<v:textRect cx="8.075" cy="390" width="16.15" height="20"/>
			<rect x="0" y="380" width="16.15" height="20" class="st6"/>
			<text x="5.03" y="393.6" class="st8" v:langID="1033"><v:paragraph v:horizAlign="1"/><v:tabList/>1</text>		</g>
		<g id="shape1101-289" v:mID="1101" v:groupContext="shape" transform="translate(683.781,-173.25) scale(-1,1)">
			<title>Sheet.1101</title>
			<path d="M0 400 L9 400" class="st5"/>
		</g>
		<g id="shape1102-292" v:mID="1102" v:groupContext="shape" transform="translate(629.781,-182.25)">
			<title>Sheet.1102</title>
			<path d="M9 400 L0 400 L0 382" class="st5"/>
		</g>
		<g id="shape1103-295" v:mID="1103" v:groupContext="shape" transform="translate(620.781,-308.25)">
			<title>Sheet.1103</title>
			<path d="M9 400 L0 400 L0 382.13" class="st5"/>
		</g>
		<g id="shape1104-298" v:mID="1104" v:groupContext="shape" transform="translate(589.281,-321.625)">
			<title>Sheet.1104</title>
			<desc>Functional Path</desc>
			<v:textBlock v:margins="rect(4,4,4,4)"/>
			<v:textRect cx="31.8125" cy="390" width="63.63" height="20"/>
			<rect x="0" y="380" width="63.625" height="20" class="st6"/>
			<text x="6.45" y="392.4" class="st16" v:langID="1033"><v:paragraph v:horizAlign="1"/><v:tabList/>Functional Path</text>		</g>
		<g id="shape1105-301" v:mID="1105" v:groupContext="shape" transform="translate(602.156,-196)">
			<title>Sheet.1105</title>
			<desc>Functional Path</desc>
			<v:textBlock v:margins="rect(4,4,4,4)"/>
			<v:textRect cx="31.8125" cy="390" width="63.63" height="20"/>
			<rect x="0" y="380" width="63.625" height="20" class="st6"/>
			<text x="6.45" y="392.4" class="st16" v:langID="1033"><v:paragraph v:horizAlign="1"/><v:tabList/>Functional Path</text>		</g>
		<g id="shape1106-304" v:mID="1106" v:groupContext="shape" transform="translate(322.031,173.375) rotate(-90)">
			<title>Sheet.1106</title>
			<desc>Output Enable</desc>
			<v:textBlock v:margins="rect(4,4,4,4)"/>
			<v:textRect cx="31.8125" cy="390" width="63.63" height="20"/>
			<rect x="0" y="380" width="63.625" height="20" class="st6"/>
			<text x="8.3" y="392.4" class="st16" v:langID="1033"><v:paragraph v:horizAlign="1"/><v:tabList/>Output Enable</text>		</g>
		<g id="shape1107-307" v:mID="1107" v:groupContext="shape" transform="translate(584.781,-290.25)">
			<title>Sheet.1107</title>
			<path d="M0 400 L45 400" class="st5"/>
		</g>
		<g id="shape1108-310" v:mID="1108" v:groupContext="shape" transform="translate(620.781,-164.25)">
			<title>Sheet.1108</title>
			<path d="M0 400 L18 400" class="st5"/>
		</g>
		<g id="shape1109-313" v:mID="1109" v:groupContext="shape" transform="translate(674.781,-173.25)">
			<title>Sheet.1109</title>
			<path d="M0 400 L24.75 400" class="st5"/>
		</g>
		<g id="shape1110-316" v:mID="1110" v:groupContext="shape" transform="translate(665.781,-191.25)">
			<title>Sheet.1110</title>
			<path d="M0 292 L51.75 292 L51.75 400" class="st5"/>
		</g>
		<g id="shape1111-319" v:mID="1111" v:groupContext="shape" transform="translate(656.781,-108.75)">
			<title>Sheet.1111</title>
			<path d="M0 400 L42.75 400" class="st5"/>
		</g>
		<g id="shape1112-322" v:mID="1112" v:groupContext="shape" transform="translate(616.281,-240.75)">
			<title>Sheet.1112</title>
			<desc>bscan_so (to next b-scan cell)</desc>
			<v:textBlock v:margins="rect(4,4,4,4)"/>
			<v:textRect cx="33.75" cy="390" width="67.5" height="20"/>
			<rect x="0" y="380" width="67.5" height="20" class="st6"/>
			<text x="4" y="381.9" class="st7" v:langID="1033"><v:paragraph/><v:tabList/>bscan_so<v:newlineChar/><tspan x="4"
						dy="1.2em" class="st13">(to next b</tspan>-scan <tspan x="4" dy="1.2em" class="st13">cell)</tspan></text>		</g>
		<g id="shape1113-327" v:mID="1113" v:groupContext="shape" transform="translate(611.781,-103.25)">
			<title>Sheet.1113</title>
			<desc>io_paddatain</desc>
			<v:textBlock v:margins="rect(4,4,4,4)"/>
			<v:textRect cx="31.8125" cy="390" width="63.63" height="20"/>
			<rect x="0" y="380" width="63.625" height="20" class="st6"/>
			<text x="10.38" y="392.4" class="st16" v:langID="1033"><v:paragraph v:horizAlign="1"/><v:tabList/>io_paddatain</text>		</g>
		<g id="shape1114-330" v:mID="1114" v:groupContext="shape" transform="translate(577.719,-284.75)">
			<title>Sheet.1114</title>
			<desc>Padouten_ctrl</desc>
			<v:textBlock v:margins="rect(4,4,4,4)"/>
			<v:textRect cx="31.8125" cy="390" width="63.63" height="20"/>
			<rect x="0" y="380" width="63.625" height="20" class="st6"/>
			<text x="8.75" y="392.4" class="st16" v:langID="1033"><v:paragraph v:horizAlign="1"/><v:tabList/>Padouten_ctrl</text>		</g>
		<g id="shape1115-333" v:mID="1115" v:groupContext="shape" transform="translate(629.781,-45.75)">
			<title>Sheet.1115</title>
			<path d="M0 400 L27 391 L27 373 L0 364 L0 400 Z" class="st4"/>
		</g>
		<g id="shape1116-335" v:mID="1116" v:groupContext="shape" transform="translate(627.131,-61.625)">
			<title>Sheet.1116</title>
			<desc>0</desc>
			<v:textBlock v:margins="rect(4,4,4,4)"/>
			<v:textRect cx="8.075" cy="390" width="16.15" height="20"/>
			<rect x="0" y="380" width="16.15" height="20" class="st6"/>
			<text x="5.03" y="393.6" class="st8" v:langID="1033"><v:paragraph v:horizAlign="1"/><v:tabList/>0</text>		</g>
		<g id="shape1117-338" v:mID="1117" v:groupContext="shape" transform="translate(629.781,727.25) rotate(180)">
			<title>Sheet.1117</title>
			<path d="M0 400 L9 400" class="st5"/>
		</g>
		<g id="shape1118-341" v:mID="1118" v:groupContext="shape" transform="translate(629.781,745.25) rotate(180)">
			<title>Sheet.1118</title>
			<path d="M0 400 L9 400" class="st5"/>
		</g>
		<g id="shape1119-344" v:mID="1119" v:groupContext="shape" transform="translate(627.131,-44.625)">
			<title>Sheet.1119</title>
			<desc>1</desc>
			<v:textBlock v:margins="rect(4,4,4,4)"/>
			<v:textRect cx="8.075" cy="390" width="16.15" height="20"/>
			<rect x="0" y="380" width="16.15" height="20" class="st6"/>
			<text x="5.03" y="393.6" class="st8" v:langID="1033"><v:paragraph v:horizAlign="1"/><v:tabList/>1</text>		</g>
		<g id="shape1120-347" v:mID="1120" v:groupContext="shape" transform="translate(665.781,-63.75) scale(-1,1)">
			<title>Sheet.1120</title>
			<path d="M0 400 L9 400" class="st5"/>
		</g>
		<g id="shape1121-350" v:mID="1121" v:groupContext="shape" transform="translate(620.781,745.25) rotate(180)">
			<title>Sheet.1121</title>
			<path d="M0 400 L486 400" class="st5"/>
		</g>
		<g id="shape1122-353" v:mID="1122" v:groupContext="shape" transform="translate(665.781,-63.75)">
			<title>Sheet.1122</title>
			<path d="M0 400 L51.75 400 L51.75 364" class="st5"/>
		</g>
		<g id="shape1123-356" v:mID="1123" v:groupContext="shape" transform="translate(50.25,-44.875)">
			<title>Sheet.1123</title>
			<desc>dt_dfx_indrven</desc>
			<v:textBlock v:margins="rect(4,4,4,4)"/>
			<v:textRect cx="41.7813" cy="390" width="83.57" height="20"/>
			<rect x="0" y="380" width="83.5625" height="20" class="st6"/>
			<text x="17.33" y="393" class="st12" v:langID="1033"><v:paragraph v:horizAlign="2"/><v:tabList/>dt_dfx_indrven</text>		</g>
		<g id="shape1124-359" v:mID="1124" v:groupContext="shape" transform="translate(611.781,-72.75)">
			<title>Sheet.1124</title>
			<path d="M9 400 L0 400 L0 388.75" class="st5"/>
		</g>
		<g id="shape1125-362" v:mID="1125" v:groupContext="shape" transform="translate(570.969,-79.75)">
			<title>Sheet.1125</title>
			<desc>Functional Path</desc>
			<v:textBlock v:margins="rect(4,4,4,4)"/>
			<v:textRect cx="31.8125" cy="390" width="63.63" height="20"/>
			<rect x="0" y="380" width="63.625" height="20" class="st6"/>
			<text x="6.45" y="392.4" class="st16" v:langID="1033"><v:paragraph v:horizAlign="1"/><v:tabList/>Functional Path</text>		</g>
		<g id="shape1126-365" v:mID="1126" v:groupContext="shape" transform="translate(134.781,-36.75)">
			<title>Sheet.1126</title>
			<path d="M513 385.38 L513 400 L0 400" class="st5"/>
		</g>
		<g id="shape1127-368" v:mID="1127" v:groupContext="shape" transform="translate(41.25,-27.75)">
			<title>Sheet.1127</title>
			<desc>dt_dfx_rxdatenable</desc>
			<v:textBlock v:margins="rect(4,4,4,4)"/>
			<v:textRect cx="46.2813" cy="390" width="92.57" height="20"/>
			<rect x="0" y="380" width="92.5625" height="20" class="st6"/>
			<text x="8.61" y="393" class="st12" v:langID="1033"><v:paragraph v:horizAlign="2"/><v:tabList/>dt_dfx_rxdatenable</text>		</g>
		<g id="shape1128-371" v:mID="1128" v:groupContext="shape" transform="translate(73.1875,-98.25)">
			<title>Sheet.1128</title>
			<desc>To Rx FIFO</desc>
			<v:textBlock v:margins="rect(4,4,4,4)"/>
			<v:textRect cx="31.8125" cy="390" width="63.63" height="20"/>
			<rect x="0" y="380" width="63.625" height="20" class="st6"/>
			<text x="16.87" y="393" class="st12" v:langID="1033"><v:paragraph v:horizAlign="2"/><v:tabList/>To Rx FIFO</text>		</g>
		<g id="shape1129-374" v:mID="1129" v:groupContext="shape" transform="translate(588.969,-159.75)">
			<title>Sheet.1129</title>
			<desc>paddata</desc>
			<v:textBlock v:margins="rect(4,4,4,4)"/>
			<v:textRect cx="31.8125" cy="390" width="63.63" height="20"/>
			<rect x="0" y="380" width="63.625" height="20" class="st6"/>
			<text x="18.42" y="392.4" class="st16" v:langID="1033"><v:paragraph v:horizAlign="1"/><v:tabList/>paddata</text>		</g>
		<g id="shape1130-377" v:mID="1130" v:groupContext="shape" transform="translate(458.781,-146.25)">
			<title>Sheet.1130</title>
			<rect x="0" y="373" width="27" height="27" class="st4"/>
		</g>
		<g id="shape1131-379" v:mID="1131" v:groupContext="shape" transform="translate(75.6562,253.75) rotate(-90)">
			<title>Sheet.1131</title>
			<path d="M0 393.25 L4.5 393.25 L4.5 400 L0 400" class="st5"/>
		</g>
		<g id="shape1132-382" v:mID="1132" v:groupContext="shape" transform="translate(456.131,-157.75)">
			<title>Sheet.1132</title>
			<desc>D</desc>
			<v:textBlock v:margins="rect(4,4,4,4)"/>
			<v:textRect cx="8.075" cy="390" width="16.15" height="20"/>
			<rect x="0" y="380" width="16.15" height="20" class="st6"/>
			<text x="5.31" y="392.7" class="st7" v:langID="1033"><v:paragraph v:horizAlign="1"/><v:tabList/>D</text>		</g>
		<g id="shape1133-385" v:mID="1133" v:groupContext="shape" transform="translate(473.206,-149.75)">
			<title>Sheet.1133</title>
			<desc>Q</desc>
			<v:textBlock v:margins="rect(4,4,4,4)"/>
			<v:textRect cx="8.075" cy="390" width="16.15" height="20"/>
			<rect x="0" y="380" width="16.15" height="20" class="st6"/>
			<text x="5.05" y="392.7" class="st7" v:langID="1033"><v:paragraph v:horizAlign="1"/><v:tabList/>Q</text>		</g>
		<g id="shape1134-388" v:mID="1134" v:groupContext="shape" transform="translate(494.781,640.25) rotate(180)">
			<title>Sheet.1134</title>
			<path d="M0 400 L9 400" class="st5"/>
		</g>
		<g id="shape1135-391" v:mID="1135" v:groupContext="shape" transform="translate(458.781,-267.75)">
			<title>Sheet.1135</title>
			<rect x="0" y="373" width="27" height="27" class="st4"/>
		</g>
		<g id="shape1136-393" v:mID="1136" v:groupContext="shape" transform="translate(75.6562,132.25) rotate(-90)">
			<title>Sheet.1136</title>
			<path d="M0 393.25 L4.5 393.25 L4.5 400 L0 400" class="st5"/>
		</g>
		<g id="shape1137-396" v:mID="1137" v:groupContext="shape" transform="translate(456.131,-279.25)">
			<title>Sheet.1137</title>
			<desc>D</desc>
			<v:textBlock v:margins="rect(4,4,4,4)"/>
			<v:textRect cx="8.075" cy="390" width="16.15" height="20"/>
			<rect x="0" y="380" width="16.15" height="20" class="st6"/>
			<text x="5.31" y="392.7" class="st7" v:langID="1033"><v:paragraph v:horizAlign="1"/><v:tabList/>D</text>		</g>
		<g id="shape1138-399" v:mID="1138" v:groupContext="shape" transform="translate(473.206,-271.25)">
			<title>Sheet.1138</title>
			<desc>Q</desc>
			<v:textBlock v:margins="rect(4,4,4,4)"/>
			<v:textRect cx="8.075" cy="390" width="16.15" height="20"/>
			<rect x="0" y="380" width="16.15" height="20" class="st6"/>
			<text x="5.05" y="392.7" class="st7" v:langID="1033"><v:paragraph v:horizAlign="1"/><v:tabList/>Q</text>		</g>
		<g id="shape1139-402" v:mID="1139" v:groupContext="shape" transform="translate(494.781,518.75) rotate(180)">
			<title>Sheet.1139</title>
			<path d="M0 400 L9 400" class="st5"/>
		</g>
		<g id="shape1140-405" v:mID="1140" v:groupContext="shape" transform="translate(431.781,541.25) rotate(180)">
			<title>Sheet.1140</title>
			<path d="M0 400 L297 400" class="st5"/>
		</g>
		<g id="shape1141-408" v:mID="1141" v:groupContext="shape" transform="translate(368.781,527.75) rotate(180)">
			<title>Sheet.1141</title>
			<path d="M0 400 L234 400" class="st5"/>
		</g>
		<g id="shape1142-411" v:mID="1142" v:groupContext="shape" transform="translate(34.8125,-262.25)">
			<title>Sheet.1142</title>
			<desc>bscan_clockdr_clk</desc>
			<v:textBlock v:margins="rect(4,4,4,4)"/>
			<v:textRect cx="49.5" cy="390" width="99" height="20"/>
			<rect x="0" y="380" width="99" height="20" class="st6"/>
			<text x="21.22" y="393" class="st12" v:langID="1033"><v:paragraph v:horizAlign="2"/><v:tabList/>bscan_clockdr_clk</text>		</g>
		<g id="shape1143-414" v:mID="1143" v:groupContext="shape" transform="translate(174.969,-379.25)">
			<title>Sheet.1143</title>
			<desc>Digital</desc>
			<v:textBlock v:margins="rect(4,4,4,4)"/>
			<v:textRect cx="31.8125" cy="390" width="63.63" height="20"/>
			<rect x="0" y="380" width="63.625" height="20" class="st6"/>
			<text x="4" y="393" class="st12" v:langID="1033"><v:paragraph/><v:tabList/>Digital</text>		</g>
		<g id="shape1144-417" v:mID="1144" v:groupContext="shape" transform="translate(134.781,-186.75)">
			<title>Sheet.1144</title>
			<path d="M528.75 400 L528.75 391 L542.25 391 L542.25 206.5 L526.5 206.5 L0 206.5" class="st5"/>
		</g>
		<g id="shape1145-420" v:mID="1145" v:groupContext="shape" transform="translate(41.25,-370.25)">
			<title>Sheet.1145</title>
			<desc>dt_iotx_txdrvsel</desc>
			<v:textBlock v:margins="rect(4,4,4,4)"/>
			<v:textRect cx="46.2813" cy="390" width="92.57" height="20"/>
			<rect x="0" y="380" width="92.5625" height="20" class="st6"/>
			<text x="22.63" y="393" class="st12" v:langID="1033"><v:paragraph v:horizAlign="2"/><v:tabList/>dt_iotx_txdrvsel</text>		</g>
		<g id="shape1146-423" v:mID="1146" v:groupContext="shape" transform="translate(1117.53,100.75) rotate(90) scale(-1,1)">
			<title>Sheet.1146</title>
			<path d="M0 400 L19.44 400" class="st10"/>
		</g>
		<g id="shape1147-428" v:mID="1147" v:groupContext="shape" transform="translate(692.781,-330.75)">
			<title>Sheet.1147</title>
			<desc>To I/O control mux in rest of byte</desc>
			<v:textBlock v:margins="rect(4,4,4,4)"/>
			<v:textRect cx="42.9062" cy="390" width="85.82" height="20"/>
			<rect x="0" y="380" width="85.8125" height="20" class="st6"/>
			<text x="4" y="387" class="st12" v:langID="1033"><v:paragraph/><v:tabList/>To I/O control mux <tspan x="4" dy="1.2em"
						class="st13">in rest of byte</tspan></text>		</g>
		<g id="shape1148-432" v:mID="1148" v:groupContext="shape" transform="translate(512.781,-146.25)">
			<title>Sheet.1148</title>
			<path d="M-0 382 A19.125 19.125 0 0 1 -0 400 A25.93 25.93 -180 0 0 18 391 A25.93 25.93 -180 0 0 0 382 Z" class="st4"/>
		</g>
		<g id="shape1149-434" v:mID="1149" v:groupContext="shape" transform="translate(435.75,-257.25)">
			<title>Sheet.1149</title>
			<ellipse cx="33.75" cy="373" rx="33.75" ry="27" class="st17"/>
		</g>
		<g id="shape1150-436" v:mID="1150" v:groupContext="shape" transform="translate(435.75,-131.25)">
			<title>Sheet.1150</title>
			<ellipse cx="33.75" cy="373" rx="33.75" ry="27" class="st17"/>
		</g>
		<g id="shape1151-438" v:mID="1151" v:groupContext="shape" transform="translate(39.75,-248.25)">
			<title>Sheet.1151</title>
			<ellipse cx="50.625" cy="389.875" rx="50.625" ry="10.125" class="st17"/>
		</g>
	</g>
</svg>
