<?xml version="1.0" encoding="UTF-8" standalone="no"?>
<!DOCTYPE svg PUBLIC "-//W3C//DTD SVG 1.1//EN" "http://www.w3.org/Graphics/SVG/1.1/DTD/svg11.dtd">
<!-- Generated by Microsoft Visio, SVG Export BScan_cell_update.vsdx_update_eaafe.svg Page-1 -->
<svg xmlns="http://www.w3.org/2000/svg" xmlns:xlink="http://www.w3.org/1999/xlink" xmlns:ev="http://www.w3.org/2001/xml-events"
		xmlns:v="http://schemas.microsoft.com/visio/2003/SVGExtensions/" width="11.4918in" height="5.4092in"
		viewBox="0 0 827.406 389.462" xml:space="preserve" color-interpolation-filters="sRGB" class="st17">
	<v:documentProperties v:langID="1033" v:viewMarkup="false">
		<v:userDefs>
			<v:ud v:nameU="msvConvertTheme"/>
		</v:userDefs>
	</v:documentProperties>

	<style type="text/css">
	<![CDATA[
		.st1 {fill:#f9c499;stroke:none;stroke-linecap:round;stroke-linejoin:round;stroke-width:1.5}
		.st2 {fill:#ebf1df;stroke:none;stroke-linecap:round;stroke-linejoin:round;stroke-width:1.5}
		.st3 {fill:#c6d8f0;stroke:none;stroke-linecap:round;stroke-linejoin:round;stroke-width:1.5}
		.st4 {fill:#ffffcc;stroke:#000000;stroke-linecap:round;stroke-linejoin:round;stroke-width:1.5}
		.st5 {fill:#ffffff;stroke:#000000;stroke-linecap:round;stroke-linejoin:round;stroke-width:1.5}
		.st6 {stroke:#000000;stroke-linecap:round;stroke-linejoin:round;stroke-width:1.5}
		.st7 {fill:none;stroke:none;stroke-linecap:round;stroke-linejoin:round;stroke-width:1.5}
		.st8 {fill:#000000;font-family:Calibri;font-size:1.00001em}
		.st9 {fill:#000000;font-family:Calibri;font-size:0.75em}
		.st10 {marker-end:url(#mrkr13-287);stroke:#000000;stroke-linecap:round;stroke-linejoin:round;stroke-width:1.5}
		.st11 {fill:#000000;fill-opacity:1;stroke:#000000;stroke-opacity:1;stroke-width:0.37313432835821}
		.st12 {fill:#a5a5a5;stroke:#000000;stroke-linecap:round;stroke-linejoin:round;stroke-width:1.5}
		.st13 {fill:#000000;font-family:Calibri;font-size:0.666664em}
		.st14 {fill:#000000;font-family:Calibri;font-size:0.833336em}
		.st15 {font-size:1em}
		.st16 {fill:none;stroke:#ff0000;stroke-linecap:round;stroke-linejoin:round;stroke-width:2.25}
		.st17 {fill:none;fill-rule:evenodd;font-size:12px;overflow:visible;stroke-linecap:square;stroke-miterlimit:3}
	]]>
	</style>

	<defs id="Markers">
		<g id="lend13">
			<path d="M 3 1 L 0 0 L 3 -1 L 3 1 " style="stroke:none"/>
		</g>
		<marker id="mrkr13-287" class="st11" v:arrowType="13" v:arrowSize="2" v:setback="8.04" refX="-8.04" orient="auto"
				markerUnits="strokeWidth" overflow="visible">
			<use xlink:href="#lend13" transform="scale(-2.68,-2.68) "/>
		</marker>
	</defs>
	<g v:mID="0" v:index="1" v:groupContext="foregroundPage">
		<title>Page-1</title>
		<v:pageProperties v:drawingScale="1" v:pageScale="1" v:drawingUnits="19" v:shadowOffsetX="9" v:shadowOffsetY="-9"/>
		<g id="shape207-1" v:mID="207" v:groupContext="shape" transform="translate(693.75,-62.2124)">
			<title>Sheet.207</title>
			<rect x="0" y="234.962" width="90" height="154.5" class="st1"/>
		</g>
		<g id="shape205-3" v:mID="205" v:groupContext="shape" transform="translate(135.75,-234.712)">
			<title>Sheet.205</title>
			<rect x="0" y="254.462" width="432" height="135" class="st2"/>
		</g>
		<g id="shape204-5" v:mID="204" v:groupContext="shape" transform="translate(135.75,-75.7124)">
			<title>Sheet.204</title>
			<rect x="0" y="230.462" width="432" height="159" class="st3"/>
		</g>
		<g id="shape2-7" v:mID="2" v:groupContext="shape" transform="translate(621.75,-288.712)">
			<title>Sheet.2</title>
			<path d="M0 389.46 L27 380.46 L27 362.46 L0 353.46 L0 389.46 Z" class="st4"/>
		</g>
		<g id="shape3-9" v:mID="3" v:groupContext="shape" transform="translate(725.25,-189.712)">
			<title>Sheet.3</title>
			<ellipse cx="4.5" cy="384.962" rx="4.5" ry="4.5" class="st5"/>
		</g>
		<g id="shape4-11" v:mID="4" v:groupContext="shape" transform="translate(648.75,-198.712)">
			<title>Sheet.4</title>
			<path d="M0 281.46 L81 281.46 L81 389.46" class="st6"/>
		</g>
		<g id="shape1-14" v:mID="1" v:groupContext="shape" transform="translate(711.75,-162.712)">
			<title>Sheet.1</title>
			<path d="M0 353.46 L0 389.46 L36 371.46 L0 353.46 Z" class="st4"/>
		</g>
		<g id="shape5-16" v:mID="5" v:groupContext="shape" transform="translate(619.1,-304.712)">
			<title>Sheet.5</title>
			<desc>0</desc>
			<v:textBlock v:margins="rect(4,4,4,4)"/>
			<v:textRect cx="8.075" cy="379.462" width="16.15" height="20"/>
			<rect x="0" y="369.462" width="16.15" height="20" class="st7"/>
			<text x="5.03" y="383.06" class="st8" v:langID="1033"><v:paragraph v:horizAlign="1"/><v:tabList/>0</text>		</g>
		<g id="shape6-19" v:mID="6" v:groupContext="shape" transform="translate(621.75,463.212) rotate(180)">
			<title>Sheet.6</title>
			<path d="M0 389.46 L9 389.46" class="st6"/>
		</g>
		<g id="shape7-22" v:mID="7" v:groupContext="shape" transform="translate(621.75,481.212) rotate(180)">
			<title>Sheet.7</title>
			<path d="M0 389.46 L9 389.46" class="st6"/>
		</g>
		<g id="shape8-25" v:mID="8" v:groupContext="shape" transform="translate(619.1,-287.712)">
			<title>Sheet.8</title>
			<desc>1</desc>
			<v:textBlock v:margins="rect(4,4,4,4)"/>
			<v:textRect cx="8.075" cy="379.462" width="16.15" height="20"/>
			<rect x="0" y="369.462" width="16.15" height="20" class="st7"/>
			<text x="5.03" y="383.06" class="st8" v:langID="1033"><v:paragraph v:horizAlign="1"/><v:tabList/>1</text>		</g>
		<g id="shape13-28" v:mID="13" v:groupContext="shape" transform="translate(423.75,-275.212)">
			<title>Sheet.13</title>
			<rect x="0" y="362.462" width="27" height="27" class="st4"/>
		</g>
		<g id="shape14-30" v:mID="14" v:groupContext="shape" transform="translate(423.75,-284.212)">
			<title>Sheet.14</title>
			<path d="M0 380.46 L4.5 384.96 L0 389.46" class="st6"/>
		</g>
		<g id="shape15-33" v:mID="15" v:groupContext="shape" transform="translate(421.1,-286.712)">
			<title>Sheet.15</title>
			<desc>D</desc>
			<v:textBlock v:margins="rect(4,4,4,4)"/>
			<v:textRect cx="8.075" cy="379.462" width="16.15" height="20"/>
			<rect x="0" y="369.462" width="16.15" height="20" class="st7"/>
			<text x="5.31" y="382.16" class="st9" v:langID="1033"><v:paragraph v:horizAlign="1"/><v:tabList/>D</text>		</g>
		<g id="shape16-36" v:mID="16" v:groupContext="shape" transform="translate(420.175,-270.712)">
			<title>Sheet.16</title>
			<desc>En</desc>
			<v:textBlock v:margins="rect(4,4,4,4)"/>
			<v:textRect cx="10.325" cy="379.462" width="20.65" height="20"/>
			<rect x="0" y="369.462" width="20.65" height="20" class="st7"/>
			<text x="5.76" y="382.16" class="st9" v:langID="1033"><v:paragraph v:horizAlign="1"/><v:tabList/>En</text>		</g>
		<g id="shape17-39" v:mID="17" v:groupContext="shape" transform="translate(423.75,490.212) rotate(180)">
			<title>Sheet.17</title>
			<path d="M0 389.46 L9 389.46" class="st6"/>
		</g>
		<g id="shape18-42" v:mID="18" v:groupContext="shape" transform="translate(423.75,481.212) rotate(180)">
			<title>Sheet.18</title>
			<path d="M0 389.46 L9 389.46" class="st6"/>
		</g>
		<g id="shape19-45" v:mID="19" v:groupContext="shape" transform="translate(423.75,499.212) rotate(180)">
			<title>Sheet.19</title>
			<path d="M0 389.46 L9 389.46" class="st6"/>
		</g>
		<g id="shape20-48" v:mID="20" v:groupContext="shape" transform="translate(438.175,-278.712)">
			<title>Sheet.20</title>
			<desc>Q</desc>
			<v:textBlock v:margins="rect(4,4,4,4)"/>
			<v:textRect cx="8.075" cy="379.462" width="16.15" height="20"/>
			<rect x="0" y="369.462" width="16.15" height="20" class="st7"/>
			<text x="5.05" y="382.16" class="st9" v:langID="1033"><v:paragraph v:horizAlign="1"/><v:tabList/>Q</text>		</g>
		<g id="shape21-51" v:mID="21" v:groupContext="shape" transform="translate(459.75,490.212) rotate(180)">
			<title>Sheet.21</title>
			<path d="M0 389.46 L9 389.46" class="st6"/>
		</g>
		<g id="shape22-54" v:mID="22" v:groupContext="shape" transform="translate(351.75,-284.212)">
			<title>Sheet.22</title>
			<rect x="0" y="362.462" width="27" height="27" class="st4"/>
		</g>
		<g id="shape23-56" v:mID="23" v:groupContext="shape" transform="translate(351.75,-293.212)">
			<title>Sheet.23</title>
			<path d="M0 380.46 L4.5 384.96 L0 389.46" class="st6"/>
		</g>
		<g id="shape24-59" v:mID="24" v:groupContext="shape" transform="translate(349.1,-295.712)">
			<title>Sheet.24</title>
			<desc>D</desc>
			<v:textBlock v:margins="rect(4,4,4,4)"/>
			<v:textRect cx="8.075" cy="379.462" width="16.15" height="20"/>
			<rect x="0" y="369.462" width="16.15" height="20" class="st7"/>
			<text x="5.31" y="382.16" class="st9" v:langID="1033"><v:paragraph v:horizAlign="1"/><v:tabList/>D</text>		</g>
		<g id="shape26-62" v:mID="26" v:groupContext="shape" transform="translate(351.75,481.212) rotate(180)">
			<title>Sheet.26</title>
			<path d="M0 389.46 L9 389.46" class="st6"/>
		</g>
		<g id="shape27-65" v:mID="27" v:groupContext="shape" transform="translate(351.75,472.212) rotate(180)">
			<title>Sheet.27</title>
			<path d="M0 389.46 L9 389.46" class="st6"/>
		</g>
		<g id="shape29-68" v:mID="29" v:groupContext="shape" transform="translate(366.175,-287.712)">
			<title>Sheet.29</title>
			<desc>Q</desc>
			<v:textBlock v:margins="rect(4,4,4,4)"/>
			<v:textRect cx="8.075" cy="379.462" width="16.15" height="20"/>
			<rect x="0" y="369.462" width="16.15" height="20" class="st7"/>
			<text x="5.05" y="382.16" class="st9" v:langID="1033"><v:paragraph v:horizAlign="1"/><v:tabList/>Q</text>		</g>
		<g id="shape30-71" v:mID="30" v:groupContext="shape" transform="translate(387.75,481.212) rotate(180)">
			<title>Sheet.30</title>
			<path d="M0 389.46 L9 389.46" class="st6"/>
		</g>
		<g id="shape31-74" v:mID="31" v:groupContext="shape" transform="translate(279.75,454.212) scale(1,-1)">
			<title>Sheet.31</title>
			<path d="M0 389.46 L27 380.46 L27 362.46 L0 353.46 L0 389.46 Z" class="st4"/>
		</g>
		<g id="shape32-76" v:mID="32" v:groupContext="shape" transform="translate(277.1,470.212) scale(1,-1)">
			<title>Sheet.32</title>
			<desc>0</desc>
			<v:textBlock v:margins="rect(4,4,4,4)"/>
			<v:textRect cx="8.075" cy="379.462" width="16.15" height="20"/>
			<rect x="0" y="369.462" width="16.15" height="20" class="st7"/>
			<text x="5.03" y="-375.86" transform="scale(1,-1)" class="st8" v:langID="1033"><v:paragraph v:horizAlign="1"/><v:tabList/>0</text>		</g>
		<g id="shape33-79" v:mID="33" v:groupContext="shape" transform="translate(279.75,-297.712) scale(-1,1)">
			<title>Sheet.33</title>
			<path d="M0 389.46 L9 389.46" class="st6"/>
		</g>
		<g id="shape34-82" v:mID="34" v:groupContext="shape" transform="translate(279.75,-315.712) scale(-1,1)">
			<title>Sheet.34</title>
			<path d="M0 389.46 L9 389.46" class="st6"/>
		</g>
		<g id="shape35-85" v:mID="35" v:groupContext="shape" transform="translate(277.1,453.212) scale(1,-1)">
			<title>Sheet.35</title>
			<desc>1</desc>
			<v:textBlock v:margins="rect(4,4,4,4)"/>
			<v:textRect cx="8.075" cy="379.462" width="16.15" height="20"/>
			<rect x="0" y="369.462" width="16.15" height="20" class="st7"/>
			<text x="5.03" y="-375.86" transform="scale(1,-1)" class="st8" v:langID="1033"><v:paragraph v:horizAlign="1"/><v:tabList/>1</text>		</g>
		<g id="shape36-88" v:mID="36" v:groupContext="shape" transform="translate(315.75,-306.712) scale(-1,1)">
			<title>Sheet.36</title>
			<path d="M0 389.46 L9 389.46" class="st6"/>
		</g>
		<g id="shape37-91" v:mID="37" v:groupContext="shape" transform="translate(216.75,-279.712)">
			<title>Sheet.37</title>
			<path d="M0 389.46 L27 380.46 L27 362.46 L0 353.46 L0 389.46 Z" class="st4"/>
		</g>
		<g id="shape38-93" v:mID="38" v:groupContext="shape" transform="translate(214.1,-295.712)">
			<title>Sheet.38</title>
			<desc>0</desc>
			<v:textBlock v:margins="rect(4,4,4,4)"/>
			<v:textRect cx="8.075" cy="379.462" width="16.15" height="20"/>
			<rect x="0" y="369.462" width="16.15" height="20" class="st7"/>
			<text x="5.03" y="383.06" class="st8" v:langID="1033"><v:paragraph v:horizAlign="1"/><v:tabList/>0</text>		</g>
		<g id="shape39-96" v:mID="39" v:groupContext="shape" transform="translate(216.75,472.212) rotate(180)">
			<title>Sheet.39</title>
			<path d="M0 389.46 L9 389.46" class="st6"/>
		</g>
		<g id="shape40-99" v:mID="40" v:groupContext="shape" transform="translate(216.75,490.212) rotate(180)">
			<title>Sheet.40</title>
			<path d="M0 389.46 L9 389.46" class="st6"/>
		</g>
		<g id="shape41-102" v:mID="41" v:groupContext="shape" transform="translate(214.1,-278.712)">
			<title>Sheet.41</title>
			<desc>1</desc>
			<v:textBlock v:margins="rect(4,4,4,4)"/>
			<v:textRect cx="8.075" cy="379.462" width="16.15" height="20"/>
			<rect x="0" y="369.462" width="16.15" height="20" class="st7"/>
			<text x="5.03" y="383.06" class="st8" v:langID="1033"><v:paragraph v:horizAlign="1"/><v:tabList/>1</text>		</g>
		<g id="shape42-105" v:mID="42" v:groupContext="shape" transform="translate(252.75,-297.712) scale(-1,1)">
			<title>Sheet.42</title>
			<path d="M0 389.46 L9 389.46" class="st6"/>
		</g>
		<g id="shape43-108" v:mID="43" v:groupContext="shape" transform="translate(621.75,-162.712)">
			<title>Sheet.43</title>
			<path d="M0 389.46 L27 380.46 L27 362.46 L0 353.46 L0 389.46 Z" class="st4"/>
		</g>
		<g id="shape44-110" v:mID="44" v:groupContext="shape" transform="translate(619.1,-178.712)">
			<title>Sheet.44</title>
			<desc>0</desc>
			<v:textBlock v:margins="rect(4,4,4,4)"/>
			<v:textRect cx="8.075" cy="379.462" width="16.15" height="20"/>
			<rect x="0" y="369.462" width="16.15" height="20" class="st7"/>
			<text x="5.03" y="383.06" class="st8" v:langID="1033"><v:paragraph v:horizAlign="1"/><v:tabList/>0</text>		</g>
		<g id="shape45-113" v:mID="45" v:groupContext="shape" transform="translate(621.75,589.212) rotate(180)">
			<title>Sheet.45</title>
			<path d="M0 389.46 L9 389.46" class="st6"/>
		</g>
		<g id="shape46-116" v:mID="46" v:groupContext="shape" transform="translate(621.75,607.212) rotate(180)">
			<title>Sheet.46</title>
			<path d="M0 389.46 L9 389.46" class="st6"/>
		</g>
		<g id="shape47-119" v:mID="47" v:groupContext="shape" transform="translate(619.1,-161.712)">
			<title>Sheet.47</title>
			<desc>1</desc>
			<v:textBlock v:margins="rect(4,4,4,4)"/>
			<v:textRect cx="8.075" cy="379.462" width="16.15" height="20"/>
			<rect x="0" y="369.462" width="16.15" height="20" class="st7"/>
			<text x="5.03" y="383.06" class="st8" v:langID="1033"><v:paragraph v:horizAlign="1"/><v:tabList/>1</text>		</g>
		<g id="shape48-122" v:mID="48" v:groupContext="shape" transform="translate(657.75,-180.712) scale(-1,1)">
			<title>Sheet.48</title>
			<path d="M0 389.46 L9 389.46" class="st6"/>
		</g>
		<g id="shape55-125" v:mID="55" v:groupContext="shape" transform="translate(477.75,-153.712)">
			<title>Sheet.55</title>
			<path d="M-0 371.46 A19.125 19.125 0 0 1 -0 389.46 A25.93 25.93 -180 0 0 18 380.46 A25.93 25.93 -180 0 0 0 371.46 Z"
					class="st5"/>
		</g>
		<g id="shape56-127" v:mID="56" v:groupContext="shape" transform="translate(423.75,-153.712)">
			<title>Sheet.56</title>
			<rect x="0" y="362.462" width="27" height="27" class="st4"/>
		</g>
		<g id="shape57-129" v:mID="57" v:groupContext="shape" transform="translate(423.75,-162.712)">
			<title>Sheet.57</title>
			<path d="M0 380.46 L4.5 384.96 L0 389.46" class="st6"/>
		</g>
		<g id="shape58-132" v:mID="58" v:groupContext="shape" transform="translate(421.1,-165.212)">
			<title>Sheet.58</title>
			<desc>D</desc>
			<v:textBlock v:margins="rect(4,4,4,4)"/>
			<v:textRect cx="8.075" cy="379.462" width="16.15" height="20"/>
			<rect x="0" y="369.462" width="16.15" height="20" class="st7"/>
			<text x="5.31" y="382.16" class="st9" v:langID="1033"><v:paragraph v:horizAlign="1"/><v:tabList/>D</text>		</g>
		<g id="shape59-135" v:mID="59" v:groupContext="shape" transform="translate(420.175,-149.212)">
			<title>Sheet.59</title>
			<desc>En</desc>
			<v:textBlock v:margins="rect(4,4,4,4)"/>
			<v:textRect cx="10.325" cy="379.462" width="20.65" height="20"/>
			<rect x="0" y="369.462" width="20.65" height="20" class="st7"/>
			<text x="5.76" y="382.16" class="st9" v:langID="1033"><v:paragraph v:horizAlign="1"/><v:tabList/>En</text>		</g>
		<g id="shape60-138" v:mID="60" v:groupContext="shape" transform="translate(423.75,611.712) rotate(180)">
			<title>Sheet.60</title>
			<path d="M0 389.46 L9 389.46" class="st6"/>
		</g>
		<g id="shape61-141" v:mID="61" v:groupContext="shape" transform="translate(423.75,602.712) rotate(180)">
			<title>Sheet.61</title>
			<path d="M0 389.46 L9 389.46" class="st6"/>
		</g>
		<g id="shape62-144" v:mID="62" v:groupContext="shape" transform="translate(423.75,620.712) rotate(180)">
			<title>Sheet.62</title>
			<path d="M0 389.46 L9 389.46" class="st6"/>
		</g>
		<g id="shape63-147" v:mID="63" v:groupContext="shape" transform="translate(438.175,-157.212)">
			<title>Sheet.63</title>
			<desc>Q</desc>
			<v:textBlock v:margins="rect(4,4,4,4)"/>
			<v:textRect cx="8.075" cy="379.462" width="16.15" height="20"/>
			<rect x="0" y="369.462" width="16.15" height="20" class="st7"/>
			<text x="5.05" y="382.16" class="st9" v:langID="1033"><v:paragraph v:horizAlign="1"/><v:tabList/>Q</text>		</g>
		<g id="shape64-150" v:mID="64" v:groupContext="shape" transform="translate(459.75,611.712) rotate(180)">
			<title>Sheet.64</title>
			<path d="M0 389.46 L9 389.46" class="st6"/>
		</g>
		<g id="shape25-153" v:mID="25" v:groupContext="shape" transform="translate(351.75,-162.712)">
			<title>Sheet.25</title>
			<rect x="0" y="362.462" width="27" height="27" class="st4"/>
		</g>
		<g id="shape28-155" v:mID="28" v:groupContext="shape" transform="translate(351.75,-171.712)">
			<title>Sheet.28</title>
			<path d="M0 380.46 L4.5 384.96 L0 389.46" class="st6"/>
		</g>
		<g id="shape65-158" v:mID="65" v:groupContext="shape" transform="translate(349.1,-174.212)">
			<title>Sheet.65</title>
			<desc>D</desc>
			<v:textBlock v:margins="rect(4,4,4,4)"/>
			<v:textRect cx="8.075" cy="379.462" width="16.15" height="20"/>
			<rect x="0" y="369.462" width="16.15" height="20" class="st7"/>
			<text x="5.31" y="382.16" class="st9" v:langID="1033"><v:paragraph v:horizAlign="1"/><v:tabList/>D</text>		</g>
		<g id="shape66-161" v:mID="66" v:groupContext="shape" transform="translate(351.75,602.712) rotate(180)">
			<title>Sheet.66</title>
			<path d="M0 389.46 L9 389.46" class="st6"/>
		</g>
		<g id="shape67-164" v:mID="67" v:groupContext="shape" transform="translate(351.75,593.712) rotate(180)">
			<title>Sheet.67</title>
			<path d="M0 389.46 L9 389.46" class="st6"/>
		</g>
		<g id="shape68-167" v:mID="68" v:groupContext="shape" transform="translate(366.175,-166.212)">
			<title>Sheet.68</title>
			<desc>Q</desc>
			<v:textBlock v:margins="rect(4,4,4,4)"/>
			<v:textRect cx="8.075" cy="379.462" width="16.15" height="20"/>
			<rect x="0" y="369.462" width="16.15" height="20" class="st7"/>
			<text x="5.05" y="382.16" class="st9" v:langID="1033"><v:paragraph v:horizAlign="1"/><v:tabList/>Q</text>		</g>
		<g id="shape69-170" v:mID="69" v:groupContext="shape" transform="translate(387.75,602.712) rotate(180)">
			<title>Sheet.69</title>
			<path d="M0 389.46 L9 389.46" class="st6"/>
		</g>
		<g id="shape70-173" v:mID="70" v:groupContext="shape" transform="translate(279.75,-167.212)">
			<title>Sheet.70</title>
			<path d="M0 389.46 L27 380.46 L27 362.46 L0 353.46 L0 389.46 Z" class="st4"/>
		</g>
		<g id="shape71-175" v:mID="71" v:groupContext="shape" transform="translate(277.1,-183.212)">
			<title>Sheet.71</title>
			<desc>0</desc>
			<v:textBlock v:margins="rect(4,4,4,4)"/>
			<v:textRect cx="8.075" cy="379.462" width="16.15" height="20"/>
			<rect x="0" y="369.462" width="16.15" height="20" class="st7"/>
			<text x="5.03" y="383.06" class="st8" v:langID="1033"><v:paragraph v:horizAlign="1"/><v:tabList/>0</text>		</g>
		<g id="shape72-178" v:mID="72" v:groupContext="shape" transform="translate(279.75,584.712) rotate(180)">
			<title>Sheet.72</title>
			<path d="M0 389.46 L9 389.46" class="st6"/>
		</g>
		<g id="shape73-181" v:mID="73" v:groupContext="shape" transform="translate(279.75,602.712) rotate(180)">
			<title>Sheet.73</title>
			<path d="M0 389.46 L9 389.46" class="st6"/>
		</g>
		<g id="shape74-184" v:mID="74" v:groupContext="shape" transform="translate(277.1,-166.212)">
			<title>Sheet.74</title>
			<desc>1</desc>
			<v:textBlock v:margins="rect(4,4,4,4)"/>
			<v:textRect cx="8.075" cy="379.462" width="16.15" height="20"/>
			<rect x="0" y="369.462" width="16.15" height="20" class="st7"/>
			<text x="5.03" y="383.06" class="st8" v:langID="1033"><v:paragraph v:horizAlign="1"/><v:tabList/>1</text>		</g>
		<g id="shape75-187" v:mID="75" v:groupContext="shape" transform="translate(315.75,-185.212) scale(-1,1)">
			<title>Sheet.75</title>
			<path d="M0 389.46 L9 389.46" class="st6"/>
		</g>
		<g id="shape76-190" v:mID="76" v:groupContext="shape" transform="translate(216.75,-176.212)">
			<title>Sheet.76</title>
			<path d="M0 389.46 L27 380.46 L27 362.46 L0 353.46 L0 389.46 Z" class="st4"/>
		</g>
		<g id="shape77-192" v:mID="77" v:groupContext="shape" transform="translate(214.1,-192.212)">
			<title>Sheet.77</title>
			<desc>0</desc>
			<v:textBlock v:margins="rect(4,4,4,4)"/>
			<v:textRect cx="8.075" cy="379.462" width="16.15" height="20"/>
			<rect x="0" y="369.462" width="16.15" height="20" class="st7"/>
			<text x="5.03" y="383.06" class="st8" v:langID="1033"><v:paragraph v:horizAlign="1"/><v:tabList/>0</text>		</g>
		<g id="shape78-195" v:mID="78" v:groupContext="shape" transform="translate(216.75,575.712) rotate(180)">
			<title>Sheet.78</title>
			<path d="M0 389.46 L9 389.46" class="st6"/>
		</g>
		<g id="shape79-198" v:mID="79" v:groupContext="shape" transform="translate(216.75,593.712) rotate(180)">
			<title>Sheet.79</title>
			<path d="M0 389.46 L9 389.46" class="st6"/>
		</g>
		<g id="shape80-201" v:mID="80" v:groupContext="shape" transform="translate(214.1,-175.212)">
			<title>Sheet.80</title>
			<desc>1</desc>
			<v:textBlock v:margins="rect(4,4,4,4)"/>
			<v:textRect cx="8.075" cy="379.462" width="16.15" height="20"/>
			<rect x="0" y="369.462" width="16.15" height="20" class="st7"/>
			<text x="5.03" y="383.06" class="st8" v:langID="1033"><v:paragraph v:horizAlign="1"/><v:tabList/>1</text>		</g>
		<g id="shape81-204" v:mID="81" v:groupContext="shape" transform="translate(252.75,-194.212) scale(-1,1)">
			<title>Sheet.81</title>
			<path d="M0 389.46 L9 389.46" class="st6"/>
		</g>
		<g id="shape100-207" v:mID="100" v:groupContext="shape" transform="translate(621.75,-57.7124)">
			<title>Sheet.100</title>
			<path d="M0 389.46 L27 380.46 L27 362.46 L0 353.46 L0 389.46 Z" class="st4"/>
		</g>
		<g id="shape101-209" v:mID="101" v:groupContext="shape" transform="translate(619.1,-73.7124)">
			<title>Sheet.101</title>
			<desc>0</desc>
			<v:textBlock v:margins="rect(4,4,4,4)"/>
			<v:textRect cx="8.075" cy="379.462" width="16.15" height="20"/>
			<rect x="0" y="369.462" width="16.15" height="20" class="st7"/>
			<text x="5.03" y="383.06" class="st8" v:langID="1033"><v:paragraph v:horizAlign="1"/><v:tabList/>0</text>		</g>
		<g id="shape102-212" v:mID="102" v:groupContext="shape" transform="translate(621.75,694.212) rotate(180)">
			<title>Sheet.102</title>
			<path d="M0 389.46 L9 389.46" class="st6"/>
		</g>
		<g id="shape103-215" v:mID="103" v:groupContext="shape" transform="translate(621.75,712.212) rotate(180)">
			<title>Sheet.103</title>
			<path d="M0 389.46 L9 389.46" class="st6"/>
		</g>
		<g id="shape104-218" v:mID="104" v:groupContext="shape" transform="translate(619.1,-56.7124)">
			<title>Sheet.104</title>
			<desc>1</desc>
			<v:textBlock v:margins="rect(4,4,4,4)"/>
			<v:textRect cx="8.075" cy="379.462" width="16.15" height="20"/>
			<rect x="0" y="369.462" width="16.15" height="20" class="st7"/>
			<text x="5.03" y="383.06" class="st8" v:langID="1033"><v:paragraph v:horizAlign="1"/><v:tabList/>1</text>		</g>
		<g id="shape105-221" v:mID="105" v:groupContext="shape" transform="translate(657.75,-75.7124) scale(-1,1)">
			<title>Sheet.105</title>
			<path d="M0 389.46 L9 389.46" class="st6"/>
		</g>
		<g id="shape106-224" v:mID="106" v:groupContext="shape" transform="translate(747.75,649.212) rotate(180)">
			<title>Sheet.106</title>
			<path d="M0 353.46 L0 389.46 L36 371.46 L0 353.46 Z" class="st4"/>
		</g>
		<g id="shape107-226" v:mID="107" v:groupContext="shape" transform="translate(612.75,481.212) rotate(180)">
			<title>Sheet.107</title>
			<path d="M0 389.46 L58.5 389.46" class="st6"/>
		</g>
		<g id="shape109-229" v:mID="109" v:groupContext="shape" transform="translate(473.25,-167.212)">
			<title>Sheet.109</title>
			<path d="M0 389.46 L9 389.46" class="st6"/>
		</g>
		<g id="shape110-232" v:mID="110" v:groupContext="shape" transform="translate(495.75,-162.712)">
			<title>Sheet.110</title>
			<path d="M0 389.46 L4.5 389.46" class="st6"/>
		</g>
		<g id="shape122-235" v:mID="122" v:groupContext="shape" transform="translate(531.75,-288.712)">
			<title>Sheet.122</title>
			<path d="M-0 371.46 A19.125 19.125 0 0 1 -0 389.46 A25.93 25.93 -180 0 0 18 380.46 A25.93 25.93 -180 0 0 0 371.46 Z"
					class="st5"/>
		</g>
		<g id="group123-237" transform="translate(527.25,-288.712)" v:mID="123" v:groupContext="group">
			<title>Sheet.123</title>
			<g id="shape124-238" v:mID="124" v:groupContext="shape" transform="translate(0,-4.5)">
				<title>Sheet.124</title>
				<path d="M0 389.46 L9 389.46" class="st6"/>
			</g>
			<g id="shape125-241" v:mID="125" v:groupContext="shape" transform="translate(0,-13.5)">
				<title>Sheet.125</title>
				<path d="M0 389.46 L9 389.46" class="st6"/>
			</g>
			<g id="shape126-244" v:mID="126" v:groupContext="shape" transform="translate(4.5,0)">
				<title>Sheet.126</title>
				<path d="M-0 371.46 A19.125 19.125 0 0 1 -0 389.46 A25.93 25.93 -180 0 0 18 380.46 A25.93 25.93 -180 0 0 0 371.46
							 Z" class="st4"/>
			</g>
			<g id="shape127-246" v:mID="127" v:groupContext="shape" transform="translate(22.5,-9)">
				<title>Sheet.127</title>
				<path d="M0 389.46 L4.5 389.46" class="st6"/>
			</g>
		</g>
		<g id="shape128-249" v:mID="128" v:groupContext="shape" transform="translate(527.25,485.712) rotate(180)">
			<title>Sheet.128</title>
			<path d="M0 389.46 L13.5 389.46" class="st6"/>
		</g>
		<g id="group10-252" transform="translate(486.75,-284.212)" v:mID="10" v:groupContext="group">
			<title>Sheet.10</title>
			<g id="group129-253" v:mID="129" v:groupContext="group">
				<title>Sheet.129</title>
				<g id="shape130-254" v:mID="130" v:groupContext="shape" transform="translate(0,-4.5)">
					<title>Sheet.130</title>
					<path d="M0 389.46 L9 389.46" class="st6"/>
				</g>
				<g id="shape131-257" v:mID="131" v:groupContext="shape" transform="translate(0,-13.5)">
					<title>Sheet.131</title>
					<path d="M0 389.46 L9 389.46" class="st6"/>
				</g>
				<g id="shape132-260" v:mID="132" v:groupContext="shape" transform="translate(4.5,0)">
					<title>Sheet.132</title>
					<path d="M-0 371.46 A19.125 19.125 0 0 1 -0 389.46 A25.93 25.93 -180 0 0 18 380.46 A25.93 25.93 -180 0 0 0 371.46
								 Z" class="st4"/>
				</g>
				<g id="shape133-262" v:mID="133" v:groupContext="shape" transform="translate(22.5,-9)">
					<title>Sheet.133</title>
					<path d="M0 389.46 L4.5 389.46" class="st6"/>
				</g>
			</g>
			<g id="shape12-265" v:mID="12" v:groupContext="shape" transform="translate(22.5,-6.75)">
				<title>Sheet.12</title>
				<ellipse cx="2.25" cy="387.212" rx="2.25" ry="2.25" class="st4"/>
			</g>
		</g>
		<g id="shape11-267" v:mID="11" v:groupContext="shape" transform="translate(486.75,490.212) rotate(180)">
			<title>Sheet.11</title>
			<path d="M0 389.46 L27 389.46" class="st6"/>
		</g>
		<g id="shape134-270" v:mID="134" v:groupContext="shape" transform="translate(387.75,-297.712)">
			<title>Sheet.134</title>
			<path d="M0 389.46 L27 389.46" class="st6"/>
		</g>
		<g id="shape135-273" v:mID="135" v:groupContext="shape" transform="translate(315.75,-306.712)">
			<title>Sheet.135</title>
			<path d="M0 389.46 L27 389.46" class="st6"/>
		</g>
		<g id="shape136-276" v:mID="136" v:groupContext="shape" transform="translate(252.75,-297.712)">
			<title>Sheet.136</title>
			<path d="M0 389.46 L18 389.46" class="st6"/>
		</g>
		<g id="shape137-279" v:mID="137" v:groupContext="shape" transform="translate(270.75,-288.712)">
			<title>Sheet.137</title>
			<path d="M193.5 389.46 L193.5 344.46 L0 344.46 L0 362.46 L9 362.46" class="st6"/>
		</g>
		<g id="shape138-282" v:mID="138" v:groupContext="shape" transform="translate(405.75,-297.712)">
			<title>Sheet.138</title>
			<path d="M0 389.46 L0 326.46 L257.94 326.46" class="st10"/>
		</g>
		<g id="shape139-288" v:mID="139" v:groupContext="shape" transform="translate(207.75,-306.712)">
			<title>Sheet.139</title>
			<path d="M9 389.46 L0 389.46 L0 335.46 L198 335.46" class="st6"/>
		</g>
		<g id="shape140-291" v:mID="140" v:groupContext="shape" transform="translate(198.75,-203.212)">
			<title>Sheet.140</title>
			<path d="M9 389.46 L0 389.46 L0 303.96 L9 303.96" class="st6"/>
		</g>
		<g id="shape141-294" v:mID="141" v:groupContext="shape" transform="translate(117.75,-302.212)">
			<title>Sheet.141</title>
			<path d="M409.5 389.46 L400.5 389.46 L400.5 339.96 L0 339.96" class="st6"/>
		</g>
		<g id="shape142-297" v:mID="142" v:groupContext="shape" transform="translate(117.75,-297.712)">
			<title>Sheet.142</title>
			<path d="M369 389.46 L360 389.46 L360 344.46 L0 344.46" class="st6"/>
		</g>
		<g id="shape143-300" v:mID="143" v:groupContext="shape" transform="translate(405.75,-158.212)">
			<title>Sheet.143</title>
			<path d="M9 389.46 L0 389.46 L0 267.96 L9 267.96" class="st6"/>
		</g>
		<g id="shape144-303" v:mID="144" v:groupContext="shape" transform="translate(396.75,-167.212)">
			<title>Sheet.144</title>
			<path d="M18 267.96 L0 267.96 L0 389.46" class="st6"/>
		</g>
		<g id="shape145-306" v:mID="145" v:groupContext="shape" transform="translate(414.75,611.712) rotate(180)">
			<title>Sheet.145</title>
			<path d="M0 389.46 L18 389.46" class="st6"/>
		</g>
		<g id="shape146-309" v:mID="146" v:groupContext="shape" transform="translate(414.75,602.712) rotate(180)">
			<title>Sheet.146</title>
			<path d="M0 389.46 L27 389.46" class="st6"/>
		</g>
		<g id="shape147-312" v:mID="147" v:groupContext="shape" transform="translate(117.75,-320.212)">
			<title>Sheet.147</title>
			<path d="M517.5 389.46 L517.5 330.96 L0 330.96" class="st6"/>
		</g>
		<g id="shape148-315" v:mID="148" v:groupContext="shape" transform="translate(584.5,-171.712)">
			<title>Sheet.148</title>
			<path d="M0 389.46 L28.25 389.46" class="st6"/>
		</g>
		<g id="shape149-318" v:mID="149" v:groupContext="shape" transform="translate(500.25,-162.712)">
			<title>Sheet.149</title>
			<path d="M0 389.46 L83.75 389.46 L83.79 380.56" class="st6"/>
		</g>
		<g id="shape150-321" v:mID="150" v:groupContext="shape" transform="translate(459.75,-167.212)">
			<title>Sheet.150</title>
			<path d="M0 389.46 L13.5 389.46" class="st6"/>
		</g>
		<g id="shape151-324" v:mID="151" v:groupContext="shape" transform="translate(315.75,-185.212)">
			<title>Sheet.151</title>
			<path d="M0 389.46 L27 389.46" class="st6"/>
		</g>
		<g id="shape152-327" v:mID="152" v:groupContext="shape" transform="translate(252.75,-194.212)">
			<title>Sheet.152</title>
			<path d="M0 389.46 L18 389.46" class="st6"/>
		</g>
		<g id="shape153-330" v:mID="153" v:groupContext="shape" transform="translate(117.75,-194.212)">
			<title>Sheet.153</title>
			<path d="M517.5 389.46 L517.5 321.96 L0 321.96" class="st6"/>
		</g>
		<g id="shape155-333" v:mID="155" v:groupContext="shape" transform="translate(117.75,-135.712)">
			<title>Sheet.155</title>
			<path d="M362.25 366.21 L355.5 366.21 L342 366.21 L342 389.46 L0 389.46" class="st6"/>
		</g>
		<g id="shape158-336" v:mID="158" v:groupContext="shape" transform="translate(261.75,-111.712)">
			<title>Sheet.158</title>
			<path d="M9 324.96 L0 324.96 L0 389.46" class="st6"/>
		</g>
		<g id="shape164-339" v:mID="164" v:groupContext="shape" transform="translate(333.75,-126.337)">
			<title>Sheet.164</title>
			<path d="M0 389.46 L0 339.59 L9 339.59" class="st6"/>
		</g>
		<g id="shape165-342" v:mID="165" v:groupContext="shape" transform="translate(333.75,-176.212)">
			<title>Sheet.165</title>
			<path d="M0 389.46 L0 267.96 L9 267.96" class="st6"/>
		</g>
		<g id="shape166-345" v:mID="166" v:groupContext="shape" transform="translate(333.75,-275.212)">
			<title>Sheet.166</title>
			<path d="M0 389.46 L63 389.46" class="st6"/>
		</g>
		<g id="shape168-348" v:mID="168" v:groupContext="shape" transform="translate(612.75,712.212) rotate(180)">
			<title>Sheet.168</title>
			<path d="M0 389.46 L495 389.46" class="st6"/>
		</g>
		<g id="shape169-351" v:mID="169" v:groupContext="shape" transform="translate(657.75,-75.7124)">
			<title>Sheet.169</title>
			<path d="M0 389.46 L72 389.46 L72 362.46" class="st6"/>
		</g>
		<g id="shape170-354" v:mID="170" v:groupContext="shape" transform="translate(711.75,667.212) rotate(180)">
			<title>Sheet.170</title>
			<path d="M0 389.46 L449.5 389.46" class="st6"/>
		</g>
		<g id="shape173-357" v:mID="173" v:groupContext="shape" transform="translate(621.75,667.212) scale(1,-1)">
			<title>Sheet.173</title>
			<path d="M54 389.46 L54 290.46 L12.06 290.46" class="st10"/>
		</g>
		<g id="shape174-362" v:mID="174" v:groupContext="shape" transform="translate(207.75,593.712) rotate(180)">
			<title>Sheet.174</title>
			<path d="M0 389.46 L90 389.46" class="st6"/>
		</g>
		<g id="shape175-365" v:mID="175" v:groupContext="shape" transform="translate(603.75,-189.712)">
			<title>Sheet.175</title>
			<path d="M9 389.46 L0 389.46 L0 371.46" class="st6"/>
		</g>
		<g id="shape176-368" v:mID="176" v:groupContext="shape" transform="translate(603.75,-315.712)">
			<title>Sheet.176</title>
			<path d="M9 389.46 L0 389.46 L0 371.46" class="st6"/>
		</g>
		<g id="shape177-371" v:mID="177" v:groupContext="shape" transform="translate(648.75,-180.712)">
			<title>Sheet.177</title>
			<path d="M0 389.46 L63 389.46" class="st6"/>
		</g>
		<g id="shape178-374" v:mID="178" v:groupContext="shape" transform="translate(747.75,-111.712)">
			<title>Sheet.178</title>
			<path d="M0 389.46 L18 389.46 L18 320.46 L0 320.46" class="st6"/>
		</g>
		<g id="shape179-377" v:mID="179" v:groupContext="shape" transform="translate(765.75,-180.712)">
			<title>Sheet.179</title>
			<path d="M0 389.46 L36 389.46" class="st6"/>
		</g>
		<g id="shape180-380" v:mID="180" v:groupContext="shape" transform="translate(117.75,-125.712)">
			<title>Sheet.180</title>
			<path d="M216 389.46 L0 389.46" class="st6"/>
		</g>
		<g id="shape181-383" v:mID="181" v:groupContext="shape" transform="translate(117.75,-144.712)">
			<title>Sheet.181</title>
			<path d="M288 375.96 L288 389.46 L0 389.46" class="st6"/>
		</g>
		<g id="shape112-386" v:mID="112" v:groupContext="shape" transform="translate(801.75,-171.712)">
			<title>Sheet.112</title>
			<rect x="0" y="371.462" width="18" height="18" class="st12"/>
		</g>
		<g id="shape183-388" v:mID="183" v:groupContext="shape" transform="translate(576.125,-329.212)">
			<title>Sheet.183</title>
			<desc>Functional Path</desc>
			<v:textBlock v:margins="rect(4,4,4,4)"/>
			<v:textRect cx="31.8125" cy="379.462" width="63.63" height="20"/>
			<rect x="0" y="369.462" width="63.625" height="20" class="st7"/>
			<text x="6.45" y="381.86" class="st13" v:langID="1033"><v:paragraph v:horizAlign="1"/><v:tabList/>Functional Path</text>		</g>
		<g id="shape184-391" v:mID="184" v:groupContext="shape" transform="translate(576.125,-203.212)">
			<title>Sheet.184</title>
			<desc>Functional Path</desc>
			<v:textBlock v:margins="rect(4,4,4,4)"/>
			<v:textRect cx="31.8125" cy="379.462" width="63.63" height="20"/>
			<rect x="0" y="369.462" width="63.625" height="20" class="st7"/>
			<text x="6.45" y="381.86" class="st13" v:langID="1033"><v:paragraph v:horizAlign="1"/><v:tabList/>Functional Path</text>		</g>
		<g id="shape185-394" v:mID="185" v:groupContext="shape" transform="translate(36.75,-251.712)">
			<title>Sheet.185</title>
			<desc>dt_dfx_txdrvsel</desc>
			<v:textBlock v:margins="rect(4,4,4,4)"/>
			<v:textRect cx="41.7813" cy="379.462" width="83.57" height="20"/>
			<rect x="0" y="369.462" width="83.5625" height="20" class="st7"/>
			<text x="16.24" y="382.46" class="st14" v:langID="1033"><v:paragraph v:horizAlign="2"/><v:tabList/>dt_dfx_txdrvsel</text>		</g>
		<g id="shape186-397" v:mID="186" v:groupContext="shape" transform="translate(27.75,-368.712)">
			<title>Sheet.186</title>
			<desc>dt_dfx_txdatenable</desc>
			<v:textBlock v:margins="rect(4,4,4,4)"/>
			<v:textRect cx="46.2813" cy="379.462" width="92.57" height="20"/>
			<rect x="0" y="369.462" width="92.5625" height="20" class="st7"/>
			<text x="8.74" y="382.46" class="st14" v:langID="1033"><v:paragraph v:horizAlign="2"/><v:tabList/>dt_dfx_txdatenable</text>		</g>
		<g id="shape187-400" v:mID="187" v:groupContext="shape" transform="translate(41.8125,-341.712)">
			<title>Sheet.187</title>
			<desc>bscancell_highz</desc>
			<v:textBlock v:margins="rect(4,4,4,4)"/>
			<v:textRect cx="39.25" cy="379.462" width="78.51" height="20"/>
			<rect x="0" y="369.462" width="78.5" height="20" class="st7"/>
			<text x="10.83" y="382.46" class="st14" v:langID="1033"><v:paragraph v:horizAlign="2"/><v:tabList/>bscancell_highz</text>		</g>
		<g id="shape188-403" v:mID="188" v:groupContext="shape" transform="translate(56.6875,-332.712)">
			<title>Sheet.188</title>
			<desc>dfx_outdrven</desc>
			<v:textBlock v:margins="rect(4,4,4,4)"/>
			<v:textRect cx="31.8125" cy="379.462" width="63.63" height="20"/>
			<rect x="0" y="369.462" width="63.625" height="20" class="st7"/>
			<text x="4.64" y="382.46" class="st14" v:langID="1033"><v:paragraph v:horizAlign="2"/><v:tabList/>dfx_outdrven</text>		</g>
		<g id="shape191-406" v:mID="191" v:groupContext="shape" transform="translate(0.75,-175.337)">
			<title>Sheet.191</title>
			<desc>bscan_datasi (from previous bscan cell)</desc>
			<v:textBlock v:margins="rect(4,4,4,4)"/>
			<v:textRect cx="59.7813" cy="379.462" width="119.57" height="20"/>
			<rect x="0" y="369.462" width="119.563" height="20" class="st7"/>
			<text x="62.75" y="376.46" class="st14" v:langID="1033"><v:paragraph v:horizAlign="2"/><v:tabList/>bscan_datasi<v:newlineChar/><tspan
						x="10.72" dy="1.2em" class="st15">(from previous bscan cell)</tspan></text>		</g>
		<g id="shape192-410" v:mID="192" v:groupContext="shape" transform="translate(36.75,-134.837)">
			<title>Sheet.192</title>
			<desc>bscan_update</desc>
			<v:textBlock v:margins="rect(4,4,4,4)"/>
			<v:textRect cx="41.7813" cy="379.462" width="83.57" height="20"/>
			<rect x="0" y="369.462" width="83.5625" height="20" class="st7"/>
			<text x="22.27" y="382.46" class="st14" v:langID="1033"><v:paragraph v:horizAlign="2"/><v:tabList/>bscan_update</text>		</g>
		<g id="shape193-413" v:mID="193" v:groupContext="shape" transform="translate(56.6875,-125.837)">
			<title>Sheet.193</title>
			<desc>dfx_datatgl</desc>
			<v:textBlock v:margins="rect(4,4,4,4)"/>
			<v:textRect cx="31.8125" cy="379.462" width="63.63" height="20"/>
			<rect x="0" y="369.462" width="63.625" height="20" class="st7"/>
			<text x="13.47" y="382.46" class="st14" v:langID="1033"><v:paragraph v:horizAlign="2"/><v:tabList/>dfx_datatgl</text>		</g>
		<g id="shape197-416" v:mID="197" v:groupContext="shape" transform="translate(56.6875,-115.712)">
			<title>Sheet.197</title>
			<desc>jtclk</desc>
			<v:textBlock v:margins="rect(4,4,4,4)"/>
			<v:textRect cx="31.8125" cy="379.462" width="63.63" height="20"/>
			<rect x="0" y="369.462" width="63.625" height="20" class="st7"/>
			<text x="42.81" y="382.46" class="st14" v:langID="1033"><v:paragraph v:horizAlign="2"/><v:tabList/>jtclk</text>		</g>
		<g id="shape198-419" v:mID="198" v:groupContext="shape" transform="translate(36.75,-56.8374)">
			<title>Sheet.198</title>
			<desc>dt_dfx_indrven</desc>
			<v:textBlock v:margins="rect(4,4,4,4)"/>
			<v:textRect cx="41.7813" cy="379.462" width="83.57" height="20"/>
			<rect x="0" y="369.462" width="83.5625" height="20" class="st7"/>
			<text x="17.33" y="382.46" class="st14" v:langID="1033"><v:paragraph v:horizAlign="2"/><v:tabList/>dt_dfx_indrven</text>		</g>
		<g id="shape199-422" v:mID="199" v:groupContext="shape" transform="translate(603.75,-84.7124)">
			<title>Sheet.199</title>
			<path d="M9 389.46 L0 389.46 L0 378.21" class="st6"/>
		</g>
		<g id="shape200-425" v:mID="200" v:groupContext="shape" transform="translate(561,-90.4624)">
			<title>Sheet.200</title>
			<desc>Functional Path</desc>
			<v:textBlock v:margins="rect(4,4,4,4)"/>
			<v:textRect cx="31.8125" cy="379.462" width="63.63" height="20"/>
			<rect x="0" y="369.462" width="63.625" height="20" class="st7"/>
			<text x="6.45" y="381.86" class="st13" v:langID="1033"><v:paragraph v:horizAlign="1"/><v:tabList/>Functional Path</text>		</g>
		<g id="shape201-428" v:mID="201" v:groupContext="shape" transform="translate(117.75,-48.7124)">
			<title>Sheet.201</title>
			<path d="M522 375.96 L522 389.46 L0 389.46" class="st6"/>
		</g>
		<g id="shape202-431" v:mID="202" v:groupContext="shape" transform="translate(27.75,-39.7124)">
			<title>Sheet.202</title>
			<desc>dt_dfx_rxdatenable</desc>
			<v:textBlock v:margins="rect(4,4,4,4)"/>
			<v:textRect cx="46.2813" cy="379.462" width="92.57" height="20"/>
			<rect x="0" y="369.462" width="92.5625" height="20" class="st7"/>
			<text x="8.61" y="382.46" class="st14" v:langID="1033"><v:paragraph v:horizAlign="2"/><v:tabList/>dt_dfx_rxdatenable</text>		</g>
		<g id="shape209-434" v:mID="209" v:groupContext="shape" transform="translate(675.75,-349.712)">
			<title>Sheet.209</title>
			<desc>Bscan_outen_o (to next b-scan cell)</desc>
			<v:textBlock v:margins="rect(4,4,4,4)"/>
			<v:textRect cx="49.5" cy="379.462" width="99" height="20"/>
			<rect x="0" y="369.462" width="99" height="20" class="st7"/>
			<text x="4" y="376.46" class="st14" v:langID="1033"><v:paragraph/><v:tabList/>Bscan_outen_o<v:newlineChar/><tspan x="4"
						dy="1.2em" class="st15">(to next b</tspan>-scan cell)</text>		</g>
		<g id="shape210-438" v:mID="210" v:groupContext="shape" transform="translate(562.719,-2.21236)">
			<title>Sheet.210</title>
			<desc>Functional input</desc>
			<v:textBlock v:margins="rect(4,4,4,4)"/>
			<v:textRect cx="39.5313" cy="379.462" width="79.07" height="20"/>
			<rect x="0" y="369.462" width="79.0625" height="20" class="st7"/>
			<text x="4" y="381.86" class="st13" v:langID="1033"><v:paragraph/><v:tabList/>Functional input</text>		</g>
		<g id="shape211-441" v:mID="211" v:groupContext="shape" transform="translate(576.75,-109.712)">
			<title>Sheet.211</title>
			<desc>io_paddatain</desc>
			<v:textBlock v:margins="rect(4,4,4,4)"/>
			<v:textRect cx="31.8125" cy="379.462" width="63.63" height="20"/>
			<rect x="0" y="369.462" width="63.625" height="20" class="st7"/>
			<text x="10.38" y="381.86" class="st13" v:langID="1033"><v:paragraph v:horizAlign="1"/><v:tabList/>io_paddatain</text>		</g>
		<g id="shape212-444" v:mID="212" v:groupContext="shape" transform="translate(139.937,-205.712)">
			<title>Sheet.212</title>
			<desc>B-Scan Data Cell</desc>
			<v:textBlock v:margins="rect(4,4,4,4)"/>
			<v:textRect cx="31.8125" cy="379.462" width="63.63" height="20"/>
			<rect x="0" y="369.462" width="63.625" height="20" class="st7"/>
			<text x="4" y="376.46" class="st14" v:langID="1033"><v:paragraph/><v:tabList/>B-Scan Data <tspan x="4" dy="1.2em"
						class="st15">Cell</tspan></text>		</g>
		<g id="shape213-448" v:mID="213" v:groupContext="shape" transform="translate(139.937,-313.712)">
			<title>Sheet.213</title>
			<desc>B-Scan Output Enable Cell</desc>
			<v:textBlock v:margins="rect(4,4,4,4)"/>
			<v:textRect cx="31.8125" cy="379.462" width="63.63" height="20"/>
			<rect x="0" y="369.462" width="63.625" height="20" class="st7"/>
			<text x="4" y="370.46" class="st14" v:langID="1033"><v:paragraph/><v:tabList/>B-Scan <tspan x="4" dy="1.2em"
						class="st15">Output </tspan><tspan x="4" dy="1.2em" class="st15">Enable Cell</tspan></text>		</g>
		<g id="shape214-453" v:mID="214" v:groupContext="shape" transform="translate(562.937,-292.212)">
			<title>Sheet.214</title>
			<desc>Padouten_ctrl</desc>
			<v:textBlock v:margins="rect(4,4,4,4)"/>
			<v:textRect cx="31.8125" cy="379.462" width="63.63" height="20"/>
			<rect x="0" y="369.462" width="63.625" height="20" class="st7"/>
			<text x="8.75" y="381.86" class="st13" v:langID="1033"><v:paragraph v:horizAlign="1"/><v:tabList/>Padouten_ctrl</text>		</g>
		<g id="shape216-456" v:mID="216" v:groupContext="shape" transform="translate(702.125,-136.462)">
			<title>Sheet.216</title>
			<desc>IO Driver</desc>
			<v:textBlock v:margins="rect(4,4,4,4)"/>
			<v:textRect cx="31.8125" cy="379.462" width="63.63" height="20"/>
			<rect x="0" y="369.462" width="63.625" height="20" class="st7"/>
			<text x="4" y="382.46" class="st14" v:langID="1033"><v:paragraph/><v:tabList/>IO Driver</text>		</g>
		<g id="shape217-459" v:mID="217" v:groupContext="shape" transform="translate(794.844,-187.712)">
			<title>Sheet.217</title>
			<desc>Pad</desc>
			<v:textBlock v:margins="rect(4,4,4,4)"/>
			<v:textRect cx="15.9062" cy="379.462" width="31.82" height="20"/>
			<rect x="0" y="369.462" width="31.8125" height="20" class="st7"/>
			<text x="8.3" y="382.46" class="st14" v:langID="1033"><v:paragraph v:horizAlign="1"/><v:tabList/>Pad</text>		</g>
		<g id="shape220-462" v:mID="220" v:groupContext="shape" transform="translate(56.6875,-74.7124)">
			<title>Sheet.220</title>
			<desc>Jtrst_b</desc>
			<v:textBlock v:margins="rect(4,4,4,4)"/>
			<v:textRect cx="31.8125" cy="379.462" width="63.63" height="20"/>
			<rect x="0" y="369.462" width="63.625" height="20" class="st7"/>
			<text x="32.11" y="382.46" class="st14" v:langID="1033"><v:paragraph v:horizAlign="2"/><v:tabList/>Jtrst_b</text>		</g>
		<g id="shape221-465" v:mID="221" v:groupContext="shape" transform="translate(117.75,-84.7124)">
			<title>Sheet.221</title>
			<path d="M0 389.46 L23.94 389.46" class="st10"/>
		</g>
		<g id="shape222-470" v:mID="222" v:groupContext="shape" transform="translate(153.125,-74.7124)">
			<title>Sheet.222</title>
			<desc>All flops</desc>
			<v:textBlock v:margins="rect(4,4,4,4)"/>
			<v:textRect cx="31.8125" cy="379.462" width="63.63" height="20"/>
			<rect x="0" y="369.462" width="63.625" height="20" class="st7"/>
			<text x="4" y="382.46" class="st14" v:langID="1033"><v:paragraph/><v:tabList/>All flops</text>		</g>
		<g id="shape223-473" v:mID="223" v:groupContext="shape" transform="translate(117.75,-270.712)">
			<title>Sheet.223</title>
			<path d="M112.5 375.96 L112.5 389.46 L0 389.46" class="st6"/>
		</g>
		<g id="shape224-476" v:mID="224" v:groupContext="shape" transform="translate(619.712,118.75) rotate(90)">
			<title>Sheet.224</title>
			<path d="M0 389.46 L63 389.46" class="st6"/>
		</g>
		<g id="shape225-479" v:mID="225" v:groupContext="shape" transform="translate(36.75,-261.712)">
			<title>Sheet.225</title>
			<desc>bscan_shift</desc>
			<v:textBlock v:margins="rect(4,4,4,4)"/>
			<v:textRect cx="41.7813" cy="379.462" width="83.57" height="20"/>
			<rect x="0" y="369.462" width="83.5625" height="20" class="st7"/>
			<text x="33.28" y="382.46" class="st14" v:langID="1033"><v:paragraph v:horizAlign="2"/><v:tabList/>bscan_shift</text>		</g>
		<g id="shape228-482" v:mID="228" v:groupContext="shape" transform="translate(117.75,-153.712)">
			<title>Sheet.228</title>
			<path d="M175.5 249.96 L175.5 389.46 L0 389.46" class="st6"/>
		</g>
		<g id="shape229-485" v:mID="229" v:groupContext="shape" transform="translate(36.75,-144.712)">
			<title>Sheet.229</title>
			<desc>bscan_capture</desc>
			<v:textBlock v:margins="rect(4,4,4,4)"/>
			<v:textRect cx="41.7813" cy="379.462" width="83.57" height="20"/>
			<rect x="0" y="369.462" width="83.5625" height="20" class="st7"/>
			<text x="19.81" y="382.46" class="st14" v:langID="1033"><v:paragraph v:horizAlign="2"/><v:tabList/>bscan_capture</text>		</g>
		<g id="shape230-488" v:mID="230" v:groupContext="shape" transform="translate(419.25,-286.462)">
			<title>Sheet.230</title>
			<ellipse cx="2.25" cy="387.212" rx="2.25" ry="2.25" class="st4"/>
		</g>
		<g id="shape231-490" v:mID="231" v:groupContext="shape" transform="translate(419.25,-164.962)">
			<title>Sheet.231</title>
			<ellipse cx="2.25" cy="387.212" rx="2.25" ry="2.25" class="st4"/>
		</g>
		<g id="shape232-492" v:mID="232" v:groupContext="shape" transform="translate(198.75,-176.212)">
			<title>Sheet.232</title>
			<path d="M189 389.46 L189 339.96 L0 339.96" class="st6"/>
		</g>
		<g id="shape9-495" v:mID="9" v:groupContext="shape" transform="translate(477.75,-153.712)">
			<title>Sheet.9</title>
			<path d="M-0 371.46 A19.125 19.125 0 0 1 -0 389.46 A25.93 25.93 -180 0 0 18 380.46 A25.93 25.93 -180 0 0 0 371.46 Z"
					class="st4"/>
		</g>
		<g id="shape1001-497" v:mID="1001" v:groupContext="shape" transform="translate(399.75,-264.712)">
			<title>Sheet.1001</title>
			<ellipse cx="33.75" cy="362.462" rx="33.75" ry="27" class="st16"/>
		</g>
		<g id="shape1002-499" v:mID="1002" v:groupContext="shape" transform="translate(399.75,-138.712)">
			<title>Sheet.1002</title>
			<ellipse cx="33.75" cy="362.462" rx="33.75" ry="27" class="st16"/>
		</g>
		<g id="shape1003-501" v:mID="1003" v:groupContext="shape" transform="translate(53.25,-134.212)">
			<title>Sheet.1003</title>
			<ellipse cx="33.75" cy="379.337" rx="33.75" ry="10.125" class="st16"/>
		</g>
	</g>
</svg>
