<?xml version="1.0" encoding="UTF-8" standalone="no"?>
<!DOCTYPE svg PUBLIC "-//W3C//DTD SVG 1.1//EN" "http://www.w3.org/Graphics/SVG/1.1/DTD/svg11.dtd">
<!-- Generated by Microsoft Visio, SVG Export cltap_fsm.vsd_-1_691d3.svg Page-1 -->
<svg xmlns="http://www.w3.org/2000/svg" xmlns:xlink="http://www.w3.org/1999/xlink" xmlns:ev="http://www.w3.org/2001/xml-events"
		xmlns:v="http://schemas.microsoft.com/visio/2003/SVGExtensions/" width="7.37153in" height="6.20107in"
		viewBox="0 0 530.75 446.477" xml:space="preserve" color-interpolation-filters="sRGB" class="st20">
	<v:documentProperties v:langID="1033" v:viewMarkup="false">
		<v:userDefs>
			<v:ud v:nameU="msvConvertTheme"/>
		</v:userDefs>
	</v:documentProperties>

	<style type="text/css">
	<![CDATA[
		.st1 {fill:none;stroke:none;stroke-linecap:round;stroke-linejoin:round;stroke-width:0.72}
		.st2 {fill:#000000;font-family:Arial;font-size:1.16666em}
		.st3 {marker-end:url(#mrkr4-9);stroke:#000000;stroke-linecap:round;stroke-linejoin:round;stroke-width:1.2}
		.st4 {fill:#000000;fill-opacity:1;stroke:#000000;stroke-opacity:1;stroke-width:0.4}
		.st5 {fill:#c0c0c0;marker-start:url(#mrkr13-13);stroke:#000000;stroke-linecap:round;stroke-linejoin:round;stroke-width:2.16}
		.st6 {fill:#000000;fill-opacity:1;stroke:#000000;stroke-opacity:1;stroke-width:0.54545454545455}
		.st7 {fill:#000000;font-family:Arial;font-size:1.00001em}
		.st8 {font-size:1em}
		.st9 {marker-end:url(#mrkr13-62);stroke:#000000;stroke-linecap:round;stroke-linejoin:round;stroke-width:1.2}
		.st10 {marker-end:url(#mrkr4-93);stroke:#000000;stroke-linecap:round;stroke-linejoin:round;stroke-width:0.72}
		.st11 {fill:#000000;fill-opacity:1;stroke:#000000;stroke-opacity:1;stroke-width:0.22222222222222}
		.st12 {marker-end:url(#mrkr4-109);stroke:#000000;stroke-linecap:round;stroke-linejoin:round;stroke-width:1}
		.st13 {fill:#000000;fill-opacity:1;stroke:#000000;stroke-opacity:1;stroke-width:0.28409090909091}
		.st14 {marker-end:url(#mrkr13-199);stroke:#000000;stroke-linecap:round;stroke-linejoin:round;stroke-width:1}
		.st15 {fill:#000000;fill-opacity:1;stroke:#000000;stroke-opacity:1;stroke-width:0.35714285714286}
		.st16 {marker-end:url(#mrkr4-278);stroke:#000000;stroke-linecap:round;stroke-linejoin:round;stroke-width:1}
		.st17 {marker-end:url(#mrkr13-300);stroke:#000000;stroke-linecap:round;stroke-linejoin:round;stroke-width:0.24}
		.st18 {fill:#000000;fill-opacity:1;stroke:#000000;stroke-opacity:1;stroke-width:0.08695652173913}
		.st19 {marker-end:url(#mrkr13-312);stroke:#000000;stroke-linecap:round;stroke-linejoin:round;stroke-width:0.72}
		.st20 {fill:none;fill-rule:evenodd;font-size:12px;overflow:visible;stroke-linecap:square;stroke-miterlimit:3}
	]]>
	</style>

	<defs id="Markers">
		<g id="lend4">
			<path d="M 2 1 L 0 0 L 2 -1 L 2 1 " style="stroke:none"/>
		</g>
		<marker id="mrkr4-9" class="st4" v:arrowType="4" v:arrowSize="1" v:setback="4.7" refX="-4.7" orient="auto"
				markerUnits="strokeWidth" overflow="visible">
			<use xlink:href="#lend4" transform="scale(-2.5,-2.5) "/>
		</marker>
		<g id="lend13">
			<path d="M 3 1 L 0 0 L 3 -1 L 3 1 " style="stroke:none"/>
		</g>
		<marker id="mrkr13-13" class="st6" v:arrowType="13" v:arrowSize="1" v:setback="5.5" refX="5.5" orient="auto"
				markerUnits="strokeWidth" overflow="visible">
			<use xlink:href="#lend13" transform="scale(1.8333333333333) "/>
		</marker>
		<marker id="mrkr13-62" class="st4" v:arrowType="13" v:arrowSize="1" v:setback="7.5" refX="-7.5" orient="auto"
				markerUnits="strokeWidth" overflow="visible">
			<use xlink:href="#lend13" transform="scale(-2.5,-2.5) "/>
		</marker>
		<marker id="mrkr4-93" class="st11" v:arrowType="4" v:arrowSize="2" v:setback="9" refX="-9" orient="auto"
				markerUnits="strokeWidth" overflow="visible">
			<use xlink:href="#lend4" transform="scale(-4.5,-4.5) "/>
		</marker>
		<marker id="mrkr4-109" class="st13" v:arrowType="4" v:arrowSize="2" v:setback="7.04" refX="-7.04" orient="auto"
				markerUnits="strokeWidth" overflow="visible">
			<use xlink:href="#lend4" transform="scale(-3.52,-3.52) "/>
		</marker>
		<marker id="mrkr13-199" class="st15" v:arrowType="13" v:arrowSize="1" v:setback="8.4" refX="-8.4" orient="auto"
				markerUnits="strokeWidth" overflow="visible">
			<use xlink:href="#lend13" transform="scale(-2.8,-2.8) "/>
		</marker>
		<marker id="mrkr4-278" class="st15" v:arrowType="4" v:arrowSize="1" v:setback="5.24" refX="-5.24" orient="auto"
				markerUnits="strokeWidth" overflow="visible">
			<use xlink:href="#lend4" transform="scale(-2.8,-2.8) "/>
		</marker>
		<marker id="mrkr13-300" class="st18" v:arrowType="13" v:arrowSize="2" v:setback="34.5" refX="-34.5" orient="auto"
				markerUnits="strokeWidth" overflow="visible">
			<use xlink:href="#lend13" transform="scale(-11.5,-11.5) "/>
		</marker>
		<marker id="mrkr13-312" class="st11" v:arrowType="13" v:arrowSize="2" v:setback="13.5" refX="-13.5" orient="auto"
				markerUnits="strokeWidth" overflow="visible">
			<use xlink:href="#lend13" transform="scale(-4.5,-4.5) "/>
		</marker>
	</defs>
	<g v:mID="0" v:index="1" v:groupContext="foregroundPage">
		<title>Page-1</title>
		<v:pageProperties v:drawingScale="1" v:pageScale="1" v:drawingUnits="0" v:shadowOffsetX="9" v:shadowOffsetY="-9"/>
		<v:layer v:name="Connector" v:index="0"/>
		<g id="shape1-1" v:mID="1" v:groupContext="shape" transform="translate(19.125,-408.97)">
			<title>Sheet.1</title>
			<desc>1</desc>
			<v:textBlock v:margins="rect(1,1,1,1)"/>
			<v:textRect cx="4.5" cy="439.727" width="9" height="13.5"/>
			<rect x="0" y="432.977" width="9" height="13.5" class="st1"/>
			<text x="1" y="443.93" class="st2" v:langID="1033"><v:paragraph/><v:tabList/>1</text>		</g>
		<g id="shape2-4" v:mID="2" v:groupContext="shape" v:layerMember="0" transform="translate(75.375,526.969) rotate(180)">
			<title>Loop on center.20</title>
			<v:userDefs>
				<v:ud v:nameU="ScaleFactor" v:val="VT0(1):26"/>
				<v:ud v:nameU="visVersion" v:val="VT0(10):26"/>
			</v:userDefs>
			<path d="M27.2 437.66 A10.2715 10.2715 0 1 1 33.03 456.73 L32.68 456.65" class="st3"/>
		</g>
		<g id="shape3-10" v:mID="3" v:groupContext="shape" transform="translate(203.625,-347.986)">
			<title>Sheet.3</title>
			<desc>Select DR-Scan</desc>
			<v:textBlock v:margins="rect(1,1,1,1)"/>
			<v:textRect cx="45" cy="428.243" width="90" height="36.4687"/>
			<ellipse cx="45" cy="428.243" rx="45" ry="18.2344" class="st5"/>
			<text x="28.32" y="424.64" class="st7" v:langID="1033"><v:paragraph v:horizAlign="1"/><v:tabList/>Select <v:newlineChar/><tspan
						x="20.66" dy="1.2em" class="st8">DR</tspan>-Scan</text>		</g>
		<g id="shape4-16" v:mID="4" v:groupContext="shape" transform="translate(203.625,-298.017)">
			<title>Sheet.4</title>
			<desc>Capture-DR</desc>
			<v:textBlock v:margins="rect(1,1,1,1)"/>
			<v:textRect cx="45" cy="428.243" width="90" height="36.4687"/>
			<ellipse cx="45" cy="428.243" rx="45" ry="18.2344" class="st5"/>
			<text x="12.99" y="431.84" class="st7" v:langID="1033"><v:paragraph v:horizAlign="1"/><v:tabList/>Capture-DR</text>		</g>
		<g id="shape5-20" v:mID="5" v:groupContext="shape" transform="translate(203.625,-248.048)">
			<title>Sheet.5</title>
			<desc>Shift-DR</desc>
			<v:textBlock v:margins="rect(1,1,1,1)"/>
			<v:textRect cx="45" cy="428.243" width="90" height="36.4687"/>
			<ellipse cx="45" cy="428.243" rx="45" ry="18.2344" class="st5"/>
			<text x="22.33" y="431.84" class="st7" v:langID="1033"><v:paragraph v:horizAlign="1"/><v:tabList/>Shift-DR</text>		</g>
		<g id="shape6-24" v:mID="6" v:groupContext="shape" transform="translate(203.625,-198.08)">
			<title>Sheet.6</title>
			<desc>Exit1-DR</desc>
			<v:textBlock v:margins="rect(1,1,1,1)"/>
			<v:textRect cx="45" cy="428.243" width="90" height="36.4687"/>
			<ellipse cx="45" cy="428.243" rx="45" ry="18.2344" class="st5"/>
			<text x="21" y="431.84" class="st7" v:langID="1033"><v:paragraph v:horizAlign="1"/><v:tabList/>Exit1-DR</text>		</g>
		<g id="shape7-28" v:mID="7" v:groupContext="shape" transform="translate(203.625,-148.111)">
			<title>Sheet.7</title>
			<desc>Pause-DR</desc>
			<v:textBlock v:margins="rect(1,1,1,1)"/>
			<v:textRect cx="45" cy="428.243" width="90" height="36.4687"/>
			<ellipse cx="45" cy="428.243" rx="45" ry="18.2344" class="st5"/>
			<text x="17.32" y="431.84" class="st7" v:langID="1033"><v:paragraph v:horizAlign="1"/><v:tabList/>Pause-DR</text>		</g>
		<g id="shape8-32" v:mID="8" v:groupContext="shape" transform="translate(203.625,-98.142)">
			<title>Sheet.8</title>
			<desc>Exit2-DR</desc>
			<v:textBlock v:margins="rect(1,1,1,1)"/>
			<v:textRect cx="45" cy="428.243" width="90" height="36.4687"/>
			<ellipse cx="45" cy="428.243" rx="45" ry="18.2344" class="st5"/>
			<text x="21" y="431.84" class="st7" v:langID="1033"><v:paragraph v:horizAlign="1"/><v:tabList/>Exit2-DR</text>		</g>
		<g id="shape9-36" v:mID="9" v:groupContext="shape" transform="translate(203.625,-48.1733)">
			<title>Sheet.9</title>
			<desc>Update-DR</desc>
			<v:textBlock v:margins="rect(1,1,1,1)"/>
			<v:textRect cx="45" cy="428.243" width="90" height="36.4687"/>
			<ellipse cx="45" cy="428.243" rx="45" ry="18.2344" class="st5"/>
			<text x="14.99" y="431.84" class="st7" v:langID="1033"><v:paragraph v:horizAlign="1"/><v:tabList/>Update-DR</text>		</g>
		<g id="shape10-40" v:mID="10" v:groupContext="shape" transform="translate(50.625,-347.986)">
			<title>Sheet.10</title>
			<desc>Run-Test-Idle</desc>
			<v:textBlock v:margins="rect(1,1,1,1)"/>
			<v:textRect cx="45" cy="428.243" width="90" height="36.4687"/>
			<ellipse cx="45" cy="428.243" rx="45" ry="18.2344" class="st5"/>
			<text x="8.65" y="431.84" class="st7" v:langID="1033"><v:paragraph v:horizAlign="1"/><v:tabList/>Run-Test-Idle</text>		</g>
		<g id="shape11-44" v:mID="11" v:groupContext="shape" transform="translate(50.625,-397.486)">
			<title>Sheet.11</title>
			<desc>Test-Logic Reset</desc>
			<v:textBlock v:margins="rect(1,1,1,1)" v:verticalAlign="2"/>
			<v:textRect cx="45" cy="428.243" width="90" height="36.4687"/>
			<ellipse cx="45" cy="428.243" rx="45" ry="18.2344" class="st5"/>
			<text x="16.99" y="427.48" class="st7" v:langID="1033"><v:paragraph v:horizAlign="1"/><v:tabList/>Test-Logic<v:newlineChar/><tspan
						x="29.33" dy="1.2em" class="st8">Reset</tspan></text>		</g>
		<g id="shape12-49" v:mID="12" v:groupContext="shape" transform="translate(19.125,-359.47)">
			<title>Sheet.12</title>
			<desc>0</desc>
			<v:textBlock v:margins="rect(1,1,1,1)"/>
			<v:textRect cx="4.5" cy="439.727" width="9" height="13.5"/>
			<rect x="0" y="432.977" width="9" height="13.5" class="st1"/>
			<text x="1" y="443.93" class="st2" v:langID="1033"><v:paragraph/><v:tabList/>0</text>		</g>
		<g id="shape13-52" v:mID="13" v:groupContext="shape" v:layerMember="0" transform="translate(75.375,477.469) rotate(180)">
			<title>Loop on center.29</title>
			<v:userDefs>
				<v:ud v:nameU="ScaleFactor" v:val="VT0(1):26"/>
				<v:ud v:nameU="visVersion" v:val="VT0(10):26"/>
			</v:userDefs>
			<path d="M27.2 437.66 A10.2715 10.2715 0 1 1 33.03 456.73 L32.68 456.65" class="st3"/>
		</g>
		<g id="shape14-57" v:mID="14" v:groupContext="shape" transform="translate(695.102,98.4914) rotate(90)">
			<title>Sheet.14</title>
			<path d="M0 446.48 L4.5 446.48" class="st9"/>
		</g>
		<g id="shape15-63" v:mID="15" v:groupContext="shape" transform="translate(695.102,148.46) rotate(90)">
			<title>Sheet.15</title>
			<path d="M0 446.48 L4.5 446.48" class="st9"/>
		</g>
		<g id="shape16-68" v:mID="16" v:groupContext="shape" transform="translate(695.102,198.429) rotate(90)">
			<title>Sheet.16</title>
			<path d="M0 446.48 L4.5 446.48" class="st9"/>
		</g>
		<g id="shape17-73" v:mID="17" v:groupContext="shape" transform="translate(695.102,248.398) rotate(90)">
			<title>Sheet.17</title>
			<path d="M0 446.48 L4.5 446.48" class="st9"/>
		</g>
		<g id="shape18-78" v:mID="18" v:groupContext="shape" transform="translate(695.102,298.366) rotate(90)">
			<title>Sheet.18</title>
			<path d="M0 446.48 L4.5 446.48" class="st9"/>
		</g>
		<g id="shape19-83" v:mID="19" v:groupContext="shape" transform="translate(695.102,348.335) rotate(90)">
			<title>Sheet.19</title>
			<path d="M0 446.48 L4.5 446.48" class="st9"/>
		</g>
		<g id="shape20-88" v:mID="20" v:groupContext="shape" v:layerMember="0" transform="translate(196.425,-116.376)">
			<title>Dynamic connector.20</title>
			<path d="M7.2 446.48 L-21.49 446.48 L-21.49 296.57 L0.72 296.57" class="st10"/>
		</g>
		<g id="shape21-94" v:mID="21" v:groupContext="shape" v:layerMember="0" transform="translate(196.425,-316.251)">
			<title>Dynamic connector.28</title>
			<path d="M7.2 446.48 L-10.8 446.48 L-10.8 546.41 L0.72 546.41" class="st10"/>
		</g>
		<g id="shape22-99" v:mID="22" v:groupContext="shape" v:layerMember="0" transform="translate(286.425,-216.314)">
			<title>Dynamic connector.30</title>
			<path d="M7.2 446.48 L39.82 446.48 L39.82 596.38 L13.68 596.38" class="st10"/>
		</g>
		<g id="shape24-104" v:mID="24" v:groupContext="shape" v:layerMember="0" transform="translate(88.425,-398.17)">
			<title>Dynamic connector.33</title>
			<path d="M7.2 447.16 L7.2 453.15" class="st12"/>
		</g>
		<g id="shape25-110" v:mID="25" v:groupContext="shape" transform="translate(109.125,-383.986)">
			<title>Sheet.25</title>
			<desc>0</desc>
			<v:textBlock v:margins="rect(1,1,1,1)"/>
			<v:textRect cx="4.5" cy="439.727" width="9" height="13.5"/>
			<rect x="0" y="432.977" width="9" height="13.5" class="st1"/>
			<text x="1" y="443.93" class="st2" v:langID="1033"><v:paragraph/><v:tabList/>0</text>		</g>
		<g id="shape26-113" v:mID="26" v:groupContext="shape" transform="translate(149.625,-374.986)">
			<title>Sheet.26</title>
			<desc>1</desc>
			<v:textBlock v:margins="rect(1,1,1,1)"/>
			<v:textRect cx="4.5" cy="439.727" width="9" height="13.5"/>
			<rect x="0" y="432.977" width="9" height="13.5" class="st1"/>
			<text x="1" y="443.93" class="st2" v:langID="1033"><v:paragraph/><v:tabList/>1</text>		</g>
		<g id="shape27-116" v:mID="27" v:groupContext="shape" transform="translate(185.625,-325.486)">
			<title>Sheet.27</title>
			<desc>1</desc>
			<v:textBlock v:margins="rect(1,1,1,1)"/>
			<v:textRect cx="4.5" cy="439.727" width="9" height="13.5"/>
			<rect x="0" y="432.977" width="9" height="13.5" class="st1"/>
			<text x="1" y="443.93" class="st2" v:langID="1033"><v:paragraph/><v:tabList/>1</text>		</g>
		<g id="shape28-119" v:mID="28" v:groupContext="shape" transform="translate(185.625,-122.986)">
			<title>Sheet.28</title>
			<desc>0</desc>
			<v:textBlock v:margins="rect(1,1,1,1)"/>
			<v:textRect cx="4.5" cy="439.727" width="9" height="13.5"/>
			<rect x="0" y="432.977" width="9" height="13.5" class="st1"/>
			<text x="1" y="443.93" class="st2" v:langID="1033"><v:paragraph/><v:tabList/>0</text>		</g>
		<g id="shape29-122" v:mID="29" v:groupContext="shape" transform="translate(259.875,-332.236)">
			<title>Sheet.29</title>
			<desc>0</desc>
			<v:textBlock v:margins="rect(1,1,1,1)"/>
			<v:textRect cx="4.5" cy="439.727" width="9" height="13.5"/>
			<rect x="0" y="432.977" width="9" height="13.5" class="st1"/>
			<text x="1" y="443.93" class="st2" v:langID="1033"><v:paragraph/><v:tabList/>0</text>		</g>
		<g id="shape30-125" v:mID="30" v:groupContext="shape" transform="translate(259.875,-283.298)">
			<title>Sheet.30</title>
			<desc>0</desc>
			<v:textBlock v:margins="rect(1,1,1,1)"/>
			<v:textRect cx="4.5" cy="439.727" width="9" height="13.5"/>
			<rect x="0" y="432.977" width="9" height="13.5" class="st1"/>
			<text x="1" y="443.93" class="st2" v:langID="1033"><v:paragraph/><v:tabList/>0</text>		</g>
		<g id="shape31-128" v:mID="31" v:groupContext="shape" transform="translate(259.875,-233.236)">
			<title>Sheet.31</title>
			<desc>1</desc>
			<v:textBlock v:margins="rect(1,1,1,1)"/>
			<v:textRect cx="4.5" cy="439.727" width="9" height="13.5"/>
			<rect x="0" y="432.977" width="9" height="13.5" class="st1"/>
			<text x="1" y="443.93" class="st2" v:langID="1033"><v:paragraph/><v:tabList/>1</text>		</g>
		<g id="shape32-131" v:mID="32" v:groupContext="shape" transform="translate(259.875,-183.173)">
			<title>Sheet.32</title>
			<desc>0</desc>
			<v:textBlock v:margins="rect(1,1,1,1)"/>
			<v:textRect cx="4.5" cy="439.727" width="9" height="13.5"/>
			<rect x="0" y="432.977" width="9" height="13.5" class="st1"/>
			<text x="1" y="443.93" class="st2" v:langID="1033"><v:paragraph/><v:tabList/>0</text>		</g>
		<g id="shape33-134" v:mID="33" v:groupContext="shape" transform="translate(259.875,-133.673)">
			<title>Sheet.33</title>
			<desc>1</desc>
			<v:textBlock v:margins="rect(1,1,1,1)"/>
			<v:textRect cx="4.5" cy="439.727" width="9" height="13.5"/>
			<rect x="0" y="432.977" width="9" height="13.5" class="st1"/>
			<text x="1" y="443.93" class="st2" v:langID="1033"><v:paragraph/><v:tabList/>1</text>		</g>
		<g id="shape34-137" v:mID="34" v:groupContext="shape" transform="translate(259.875,-83.0483)">
			<title>Sheet.34</title>
			<desc>1</desc>
			<v:textBlock v:margins="rect(1,1,1,1)"/>
			<v:textRect cx="4.5" cy="439.727" width="9" height="13.5"/>
			<rect x="0" y="432.977" width="9" height="13.5" class="st1"/>
			<text x="1" y="443.93" class="st2" v:langID="1033"><v:paragraph/><v:tabList/>1</text>		</g>
		<g id="shape35-140" v:mID="35" v:groupContext="shape" transform="translate(293.625,-216.314)">
			<title>Sheet.35</title>
			<desc>1</desc>
			<v:textBlock v:margins="rect(1,1,1,1)"/>
			<v:textRect cx="4.5" cy="439.727" width="9" height="13.5"/>
			<rect x="0" y="432.977" width="9" height="13.5" class="st1"/>
			<text x="1" y="443.93" class="st2" v:langID="1033"><v:paragraph/><v:tabList/>1</text>		</g>
		<g id="shape38-143" v:mID="38" v:groupContext="shape" transform="translate(271.125,-32.9858)">
			<title>Sheet.38</title>
			<desc>0</desc>
			<v:textBlock v:margins="rect(1,1,1,1)"/>
			<v:textRect cx="4.5" cy="439.727" width="9" height="13.5"/>
			<rect x="0" y="432.977" width="9" height="13.5" class="st1"/>
			<text x="1" y="443.93" class="st2" v:langID="1033"><v:paragraph/><v:tabList/>0</text>		</g>
		<g id="shape39-146" v:mID="39" v:groupContext="shape" transform="translate(211.5,-32.9858)">
			<title>Sheet.39</title>
			<desc>1</desc>
			<v:textBlock v:margins="rect(1,1,1,1)"/>
			<v:textRect cx="4.5" cy="439.727" width="9" height="13.5"/>
			<rect x="0" y="432.977" width="9" height="13.5" class="st1"/>
			<text x="1" y="443.93" class="st2" v:langID="1033"><v:paragraph/><v:tabList/>1</text>		</g>
		<g id="shape40-149" v:mID="40" v:groupContext="shape" v:layerMember="0" transform="translate(266.906,625.969) scale(1,-1)">
			<title>Loop on center.49</title>
			<v:userDefs>
				<v:ud v:nameU="ScaleFactor" v:val="VT0(1):26"/>
				<v:ud v:nameU="visVersion" v:val="VT0(10):26"/>
			</v:userDefs>
			<path d="M27.2 437.66 A9.49149 9.49149 0 1 1 33.19 455.64 L32.83 455.62" class="st3"/>
		</g>
		<g id="shape41-154" v:mID="41" v:groupContext="shape" v:layerMember="0" transform="translate(266.906,726.609) scale(1,-1)">
			<title>Loop on center.50</title>
			<v:userDefs>
				<v:ud v:nameU="ScaleFactor" v:val="VT0(1):26"/>
				<v:ud v:nameU="visVersion" v:val="VT0(10):26"/>
			</v:userDefs>
			<path d="M27.2 437.66 A9.49149 9.49149 0 1 1 33.19 455.64 L32.83 455.62" class="st3"/>
		</g>
		<g id="shape42-159" v:mID="42" v:groupContext="shape" transform="translate(302.625,-176.986)">
			<title>Sheet.42</title>
			<desc>0</desc>
			<v:textBlock v:margins="rect(1,1,1,1)"/>
			<v:textRect cx="4.5" cy="439.727" width="9" height="13.5"/>
			<rect x="0" y="432.977" width="9" height="13.5" class="st1"/>
			<text x="1" y="443.93" class="st2" v:langID="1033"><v:paragraph/><v:tabList/>0</text>		</g>
		<g id="shape43-162" v:mID="43" v:groupContext="shape" transform="translate(302.625,-275.986)">
			<title>Sheet.43</title>
			<desc>0</desc>
			<v:textBlock v:margins="rect(1,1,1,1)"/>
			<v:textRect cx="4.5" cy="439.727" width="9" height="13.5"/>
			<rect x="0" y="432.977" width="9" height="13.5" class="st1"/>
			<text x="1" y="443.93" class="st2" v:langID="1033"><v:paragraph/><v:tabList/>0</text>		</g>
		<g id="shape44-165" v:mID="44" v:groupContext="shape" transform="translate(388.125,-348.033)">
			<title>Sheet.44</title>
			<desc>Select IR-Scan</desc>
			<v:textBlock v:margins="rect(1,1,1,1)"/>
			<v:textRect cx="45" cy="428.243" width="90" height="36.4687"/>
			<ellipse cx="45" cy="428.243" rx="45" ry="18.2344" class="st5"/>
			<text x="28.32" y="424.64" class="st7" v:langID="1033"><v:paragraph v:horizAlign="1"/><v:tabList/>Select <v:newlineChar/><tspan
						x="23.33" dy="1.2em" class="st8">IR</tspan>-Scan</text>		</g>
		<g id="shape45-170" v:mID="45" v:groupContext="shape" transform="translate(388.125,-298.064)">
			<title>Sheet.45</title>
			<desc>Capture-IR</desc>
			<v:textBlock v:margins="rect(1,1,1,1)"/>
			<v:textRect cx="45" cy="428.243" width="90" height="36.4687"/>
			<ellipse cx="45" cy="428.243" rx="45" ry="18.2344" class="st5"/>
			<text x="15.66" y="431.84" class="st7" v:langID="1033"><v:paragraph v:horizAlign="1"/><v:tabList/>Capture-IR</text>		</g>
		<g id="shape46-174" v:mID="46" v:groupContext="shape" transform="translate(388.125,-248.095)">
			<title>Sheet.46</title>
			<desc>Shift-IR</desc>
			<v:textBlock v:margins="rect(1,1,1,1)"/>
			<v:textRect cx="45" cy="428.243" width="90" height="36.4687"/>
			<ellipse cx="45" cy="428.243" rx="45" ry="18.2344" class="st5"/>
			<text x="25" y="431.84" class="st7" v:langID="1033"><v:paragraph v:horizAlign="1"/><v:tabList/>Shift-IR</text>		</g>
		<g id="shape47-178" v:mID="47" v:groupContext="shape" transform="translate(388.125,-198.126)">
			<title>Sheet.47</title>
			<desc>Exit1-IR</desc>
			<v:textBlock v:margins="rect(1,1,1,1)"/>
			<v:textRect cx="45" cy="428.243" width="90" height="36.4687"/>
			<ellipse cx="45" cy="428.243" rx="45" ry="18.2344" class="st5"/>
			<text x="23.66" y="431.84" class="st7" v:langID="1033"><v:paragraph v:horizAlign="1"/><v:tabList/>Exit1-IR</text>		</g>
		<g id="shape48-182" v:mID="48" v:groupContext="shape" transform="translate(388.125,-148.158)">
			<title>Sheet.48</title>
			<desc>Pause-IR</desc>
			<v:textBlock v:margins="rect(1,1,1,1)"/>
			<v:textRect cx="45" cy="428.243" width="90" height="36.4687"/>
			<ellipse cx="45" cy="428.243" rx="45" ry="18.2344" class="st5"/>
			<text x="19.99" y="431.84" class="st7" v:langID="1033"><v:paragraph v:horizAlign="1"/><v:tabList/>Pause-IR</text>		</g>
		<g id="shape49-186" v:mID="49" v:groupContext="shape" transform="translate(388.125,-98.1889)">
			<title>Sheet.49</title>
			<desc>Exit2-IR</desc>
			<v:textBlock v:margins="rect(1,1,1,1)"/>
			<v:textRect cx="45" cy="428.243" width="90" height="36.4687"/>
			<ellipse cx="45" cy="428.243" rx="45" ry="18.2344" class="st5"/>
			<text x="23.66" y="431.84" class="st7" v:langID="1033"><v:paragraph v:horizAlign="1"/><v:tabList/>Exit2-IR</text>		</g>
		<g id="shape50-190" v:mID="50" v:groupContext="shape" transform="translate(388.125,-48.2202)">
			<title>Sheet.50</title>
			<desc>Update-IR</desc>
			<v:textBlock v:margins="rect(1,1,1,1)"/>
			<v:textRect cx="45" cy="428.243" width="90" height="36.4687"/>
			<ellipse cx="45" cy="428.243" rx="45" ry="18.2344" class="st5"/>
			<text x="17.65" y="431.84" class="st7" v:langID="1033"><v:paragraph v:horizAlign="1"/><v:tabList/>Update-IR</text>		</g>
		<g id="shape51-194" v:mID="51" v:groupContext="shape" transform="translate(879.602,98.4445) rotate(90)">
			<title>Sheet.51</title>
			<path d="M0 446.48 L5.1 446.48" class="st14"/>
		</g>
		<g id="shape52-200" v:mID="52" v:groupContext="shape" transform="translate(879.602,148.413) rotate(90)">
			<title>Sheet.52</title>
			<path d="M0 446.48 L5.1 446.48" class="st14"/>
		</g>
		<g id="shape53-205" v:mID="53" v:groupContext="shape" transform="translate(879.602,198.382) rotate(90)">
			<title>Sheet.53</title>
			<path d="M0 446.48 L5.1 446.48" class="st14"/>
		</g>
		<g id="shape54-210" v:mID="54" v:groupContext="shape" transform="translate(879.602,248.351) rotate(90)">
			<title>Sheet.54</title>
			<path d="M0 446.48 L4.5 446.48" class="st9"/>
		</g>
		<g id="shape55-215" v:mID="55" v:groupContext="shape" transform="translate(879.602,298.319) rotate(90)">
			<title>Sheet.55</title>
			<path d="M0 446.48 L4.5 446.48" class="st9"/>
		</g>
		<g id="shape56-220" v:mID="56" v:groupContext="shape" transform="translate(879.602,348.288) rotate(90)">
			<title>Sheet.56</title>
			<path d="M0 446.48 L4.5 446.48" class="st9"/>
		</g>
		<g id="shape57-225" v:mID="57" v:groupContext="shape" v:layerMember="0" transform="translate(380.925,-116.423)">
			<title>Dynamic connector.62</title>
			<path d="M7.2 446.48 L-21.49 446.48 L-21.49 296.57 L0.72 296.57" class="st10"/>
		</g>
		<g id="shape58-230" v:mID="58" v:groupContext="shape" v:layerMember="0" transform="translate(380.925,-316.298)">
			<title>Dynamic connector.63</title>
			<path d="M7.2 446.48 L-10.8 446.48 L-10.8 546.41 L0.72 546.41" class="st10"/>
		</g>
		<g id="shape59-235" v:mID="59" v:groupContext="shape" v:layerMember="0" transform="translate(470.925,-216.361)">
			<title>Dynamic connector.64</title>
			<path d="M7.2 446.48 L39.82 446.48 L39.82 596.38 L14.24 596.38" class="st12"/>
		</g>
		<g id="shape60-240" v:mID="60" v:groupContext="shape" transform="translate(370.125,-325.533)">
			<title>Sheet.60</title>
			<desc>1</desc>
			<v:textBlock v:margins="rect(1,1,1,1)"/>
			<v:textRect cx="4.5" cy="439.727" width="9" height="13.5"/>
			<rect x="0" y="432.977" width="9" height="13.5" class="st1"/>
			<text x="1" y="443.93" class="st2" v:langID="1033"><v:paragraph/><v:tabList/>1</text>		</g>
		<g id="shape61-243" v:mID="61" v:groupContext="shape" transform="translate(370.125,-123.033)">
			<title>Sheet.61</title>
			<desc>0</desc>
			<v:textBlock v:margins="rect(1,1,1,1)"/>
			<v:textRect cx="4.5" cy="439.727" width="9" height="13.5"/>
			<rect x="0" y="432.977" width="9" height="13.5" class="st1"/>
			<text x="1" y="443.93" class="st2" v:langID="1033"><v:paragraph/><v:tabList/>0</text>		</g>
		<g id="shape62-246" v:mID="62" v:groupContext="shape" transform="translate(444.375,-332.283)">
			<title>Sheet.62</title>
			<desc>0</desc>
			<v:textBlock v:margins="rect(1,1,1,1)"/>
			<v:textRect cx="4.5" cy="439.727" width="9" height="13.5"/>
			<rect x="0" y="432.977" width="9" height="13.5" class="st1"/>
			<text x="1" y="443.93" class="st2" v:langID="1033"><v:paragraph/><v:tabList/>0</text>		</g>
		<g id="shape63-249" v:mID="63" v:groupContext="shape" transform="translate(444.375,-283.345)">
			<title>Sheet.63</title>
			<desc>0</desc>
			<v:textBlock v:margins="rect(1,1,1,1)"/>
			<v:textRect cx="4.5" cy="439.727" width="9" height="13.5"/>
			<rect x="0" y="432.977" width="9" height="13.5" class="st1"/>
			<text x="1" y="443.93" class="st2" v:langID="1033"><v:paragraph/><v:tabList/>0</text>		</g>
		<g id="shape64-252" v:mID="64" v:groupContext="shape" transform="translate(444.375,-233.283)">
			<title>Sheet.64</title>
			<desc>1</desc>
			<v:textBlock v:margins="rect(1,1,1,1)"/>
			<v:textRect cx="4.5" cy="439.727" width="9" height="13.5"/>
			<rect x="0" y="432.977" width="9" height="13.5" class="st1"/>
			<text x="1" y="443.93" class="st2" v:langID="1033"><v:paragraph/><v:tabList/>1</text>		</g>
		<g id="shape65-255" v:mID="65" v:groupContext="shape" transform="translate(444.375,-183.22)">
			<title>Sheet.65</title>
			<desc>0</desc>
			<v:textBlock v:margins="rect(1,1,1,1)"/>
			<v:textRect cx="4.5" cy="439.727" width="9" height="13.5"/>
			<rect x="0" y="432.977" width="9" height="13.5" class="st1"/>
			<text x="1" y="443.93" class="st2" v:langID="1033"><v:paragraph/><v:tabList/>0</text>		</g>
		<g id="shape66-258" v:mID="66" v:groupContext="shape" transform="translate(444.375,-133.72)">
			<title>Sheet.66</title>
			<desc>1</desc>
			<v:textBlock v:margins="rect(1,1,1,1)"/>
			<v:textRect cx="4.5" cy="439.727" width="9" height="13.5"/>
			<rect x="0" y="432.977" width="9" height="13.5" class="st1"/>
			<text x="1" y="443.93" class="st2" v:langID="1033"><v:paragraph/><v:tabList/>1</text>		</g>
		<g id="shape67-261" v:mID="67" v:groupContext="shape" transform="translate(444.375,-83.0952)">
			<title>Sheet.67</title>
			<desc>1</desc>
			<v:textBlock v:margins="rect(1,1,1,1)"/>
			<v:textRect cx="4.5" cy="439.727" width="9" height="13.5"/>
			<rect x="0" y="432.977" width="9" height="13.5" class="st1"/>
			<text x="1" y="443.93" class="st2" v:langID="1033"><v:paragraph/><v:tabList/>1</text>		</g>
		<g id="shape68-264" v:mID="68" v:groupContext="shape" transform="translate(478.125,-216.361)">
			<title>Sheet.68</title>
			<desc>1</desc>
			<v:textBlock v:margins="rect(1,1,1,1)"/>
			<v:textRect cx="4.5" cy="439.727" width="9" height="13.5"/>
			<rect x="0" y="432.977" width="9" height="13.5" class="st1"/>
			<text x="1" y="443.93" class="st2" v:langID="1033"><v:paragraph/><v:tabList/>1</text>		</g>
		<g id="shape69-267" v:mID="69" v:groupContext="shape" transform="translate(455.625,-33.0327)">
			<title>Sheet.69</title>
			<desc>0</desc>
			<v:textBlock v:margins="rect(1,1,1,1)"/>
			<v:textRect cx="4.5" cy="439.727" width="9" height="13.5"/>
			<rect x="0" y="432.977" width="9" height="13.5" class="st1"/>
			<text x="1" y="443.93" class="st2" v:langID="1033"><v:paragraph/><v:tabList/>0</text>		</g>
		<g id="shape70-270" v:mID="70" v:groupContext="shape" transform="translate(397.125,-33.0327)">
			<title>Sheet.70</title>
			<desc>1</desc>
			<v:textBlock v:margins="rect(1,1,1,1)"/>
			<v:textRect cx="4.5" cy="439.727" width="9" height="13.5"/>
			<rect x="0" y="432.977" width="9" height="13.5" class="st1"/>
			<text x="1" y="443.93" class="st2" v:langID="1033"><v:paragraph/><v:tabList/>1</text>		</g>
		<g id="shape71-273" v:mID="71" v:groupContext="shape" v:layerMember="0" transform="translate(451.406,625.922) scale(1,-1)">
			<title>Loop on center.77</title>
			<v:userDefs>
				<v:ud v:nameU="ScaleFactor" v:val="VT0(1):26"/>
				<v:ud v:nameU="visVersion" v:val="VT0(10):26"/>
			</v:userDefs>
			<path d="M27.2 437.66 A9.49149 9.49149 0 1 1 32.78 455.74 L32.42 455.71" class="st16"/>
		</g>
		<g id="shape72-279" v:mID="72" v:groupContext="shape" v:layerMember="0" transform="translate(451.406,726.562) scale(1,-1)">
			<title>Loop on center.78</title>
			<v:userDefs>
				<v:ud v:nameU="ScaleFactor" v:val="VT0(1):26"/>
				<v:ud v:nameU="visVersion" v:val="VT0(10):26"/>
			</v:userDefs>
			<path d="M27.2 437.66 A9.49149 9.49149 0 1 1 33.19 455.64 L32.83 455.62" class="st3"/>
		</g>
		<g id="shape73-284" v:mID="73" v:groupContext="shape" transform="translate(487.125,-177.033)">
			<title>Sheet.73</title>
			<desc>0</desc>
			<v:textBlock v:margins="rect(1,1,1,1)"/>
			<v:textRect cx="4.5" cy="439.727" width="9" height="13.5"/>
			<rect x="0" y="432.977" width="9" height="13.5" class="st1"/>
			<text x="1" y="443.93" class="st2" v:langID="1033"><v:paragraph/><v:tabList/>0</text>		</g>
		<g id="shape74-287" v:mID="74" v:groupContext="shape" transform="translate(487.125,-276.033)">
			<title>Sheet.74</title>
			<desc>0</desc>
			<v:textBlock v:margins="rect(1,1,1,1)"/>
			<v:textRect cx="4.5" cy="439.727" width="9" height="13.5"/>
			<rect x="0" y="432.977" width="9" height="13.5" class="st1"/>
			<text x="1" y="443.93" class="st2" v:langID="1033"><v:paragraph/><v:tabList/>0</text>		</g>
		<g id="shape80-290" v:mID="80" v:groupContext="shape" transform="translate(293.404,-366.22) rotate(-0.0284205)">
			<title>Sheet.80</title>
			<path d="M0 446.48 L86.1 446.48" class="st14"/>
		</g>
		<g id="shape81-295" v:mID="81" v:groupContext="shape" v:layerMember="0" transform="translate(478.125,-366.267)">
			<title>Dynamic connector.88</title>
			<path d="M0 446.48 L0 397.02 L-329.22 397.02" class="st17"/>
		</g>
		<g id="shape82-301" v:mID="82" v:groupContext="shape" transform="translate(480.375,-368.236)">
			<title>Sheet.82</title>
			<desc>1</desc>
			<v:textBlock v:margins="rect(1,1,1,1)"/>
			<v:textRect cx="4.5" cy="439.727" width="9" height="13.5"/>
			<rect x="0" y="432.977" width="9" height="13.5" class="st1"/>
			<text x="1" y="443.93" class="st2" v:langID="1033"><v:paragraph/><v:tabList/>1</text>		</g>
		<g id="shape83-304" v:mID="83" v:groupContext="shape" transform="translate(298.125,-368.236)">
			<title>Sheet.83</title>
			<desc>1</desc>
			<v:textBlock v:margins="rect(1,1,1,1)"/>
			<v:textRect cx="4.5" cy="439.727" width="9" height="13.5"/>
			<rect x="0" y="432.977" width="9" height="13.5" class="st1"/>
			<text x="1" y="443.93" class="st2" v:langID="1033"><v:paragraph/><v:tabList/>1</text>		</g>
		<g id="shape23-307" v:mID="23" v:groupContext="shape" transform="translate(97.2,-10.2458)">
			<title>Sheet.23</title>
			<path d="M356.4 406.88 L356.4 446.48 L0 446.48 L0 117.8" class="st19"/>
		</g>
		<g id="shape36-313" v:mID="36" v:groupContext="shape" transform="translate(716.477,396.631) rotate(90)">
			<title>Sheet.36</title>
			<path d="M0 446.48 L29.88 446.48" class="st19"/>
		</g>
		<g id="shape37-318" v:mID="37" v:groupContext="shape" transform="translate(158.4,-28.2458)">
			<title>Sheet.37</title>
			<path d="M252 424.88 L252 446.48 L0 446.48 L0 117.8" class="st19"/>
		</g>
		<g id="shape75-323" v:mID="75" v:groupContext="shape" transform="translate(140.4,-366.646)">
			<title>Sheet.75</title>
			<path d="M0 446.48 L51.48 446.48" class="st19"/>
		</g>
		<g id="shape76-328" v:mID="76" v:groupContext="shape" transform="translate(669.677,396.631) rotate(90)">
			<title>Sheet.76</title>
			<path d="M0 446.48 L11.88 446.48" class="st19"/>
		</g>
	</g>
</svg>
