<?xml version="1.0" encoding="UTF-8" standalone="no"?>
<!DOCTYPE svg PUBLIC "-//W3C//DTD SVG 1.1//EN" "http://www.w3.org/Graphics/SVG/1.1/DTD/svg11.dtd">
<!-- Generated by Microsoft Visio, SVG Export Endebug_Concepts.vsdx_Concept_b_Norm2_74e3a.svg Page-1 -->
<svg xmlns="http://www.w3.org/2000/svg" xmlns:xlink="http://www.w3.org/1999/xlink" xmlns:ev="http://www.w3.org/2001/xml-events"
		xmlns:v="http://schemas.microsoft.com/visio/2003/SVGExtensions/" width="18.331in" height="11.6663in"
		viewBox="0 0 1319.83 839.975" xml:space="preserve" color-interpolation-filters="sRGB" class="st20">
	<v:documentProperties v:langID="1033" v:viewMarkup="false">
		<v:userDefs>
			<v:ud v:nameU="msvConvertTheme"/>
		</v:userDefs>
	</v:documentProperties>

	<style type="text/css">
	<![CDATA[
		.st1 {fill:#ebf1df;stroke:#5880b3;stroke-linecap:round;stroke-linejoin:round;stroke-width:0.75}
		.st2 {fill:none;stroke:none;stroke-linecap:round;stroke-linejoin:round;stroke-width:0.75}
		.st3 {fill:#000000;font-family:Calibri;font-size:3em}
		.st4 {fill:#eaeff5;stroke:#5880b3;stroke-linecap:round;stroke-linejoin:round;stroke-width:0.75}
		.st5 {fill:#ffffff;stroke:#000000;stroke-linecap:round;stroke-linejoin:round;stroke-width:0.75}
		.st6 {fill:#000000;font-family:Calibri;font-size:2.50001em}
		.st7 {fill:#000000;font-family:Calibri;font-size:1.99999em}
		.st8 {fill:#c4d6a0;stroke:#5880b3;stroke-linecap:round;stroke-linejoin:round;stroke-width:0.75}
		.st9 {font-size:1em}
		.st10 {stroke:#000000;stroke-linecap:round;stroke-linejoin:round;stroke-width:0.75}
		.st11 {marker-end:url(#mrkr13-45);stroke:#000000;stroke-linecap:round;stroke-linejoin:round;stroke-width:0.75}
		.st12 {fill:#000000;fill-opacity:1;stroke:#000000;stroke-opacity:1;stroke-width:0.15923566878981}
		.st13 {stroke:#0070c0;stroke-linecap:round;stroke-linejoin:round;stroke-width:0.75}
		.st14 {marker-end:url(#mrkr13-99);stroke:#789440;stroke-linecap:round;stroke-linejoin:round;stroke-width:0.75}
		.st15 {fill:#789440;fill-opacity:1;stroke:#789440;stroke-opacity:1;stroke-width:0.15923566878981}
		.st16 {fill:#789440;font-family:Calibri;font-size:1.5em}
		.st17 {marker-end:url(#mrkr13-147);stroke:#0070c0;stroke-linecap:round;stroke-linejoin:round;stroke-width:0.75}
		.st18 {fill:#0070c0;fill-opacity:1;stroke:#0070c0;stroke-opacity:1;stroke-width:0.15923566878981}
		.st19 {fill:#0070c0;font-family:Calibri;font-size:1.5em}
		.st20 {fill:none;fill-rule:evenodd;font-size:12px;overflow:visible;stroke-linecap:square;stroke-miterlimit:3}
	]]>
	</style>

	<defs id="Markers">
		<g id="lend13">
			<path d="M 3 1 L 0 0 L 3 -1 L 3 1 " style="stroke:none"/>
		</g>
		<marker id="mrkr13-45" class="st12" v:arrowType="13" v:arrowSize="4" v:setback="18.84" refX="-18.84" orient="auto"
				markerUnits="strokeWidth" overflow="visible">
			<use xlink:href="#lend13" transform="scale(-6.28,-6.28) "/>
		</marker>
		<marker id="mrkr13-99" class="st15" v:arrowType="13" v:arrowSize="4" v:setback="18.84" refX="-18.84" orient="auto"
				markerUnits="strokeWidth" overflow="visible">
			<use xlink:href="#lend13" transform="scale(-6.28,-6.28) "/>
		</marker>
		<marker id="mrkr13-147" class="st18" v:arrowType="13" v:arrowSize="4" v:setback="18.84" refX="-18.84" orient="auto"
				markerUnits="strokeWidth" overflow="visible">
			<use xlink:href="#lend13" transform="scale(-6.28,-6.28) "/>
		</marker>
	</defs>
	<g v:mID="0" v:index="1" v:groupContext="foregroundPage">
		<title>Page-1</title>
		<v:pageProperties v:drawingScale="1" v:pageScale="1" v:drawingUnits="19" v:shadowOffsetX="9" v:shadowOffsetY="-9"/>
		<g id="shape344-1" v:mID="344" v:groupContext="shape" transform="translate(260.938,-0.375)">
			<title>Sheet.344</title>
			<rect x="0" y="83.9749" width="396" height="756" class="st1"/>
		</g>
		<g id="shape159-3" v:mID="159" v:groupContext="shape" transform="translate(278.938,-808.375)">
			<title>Sheet.159</title>
			<desc>Normal mode, CLTAP + TAP Network</desc>
			<v:textBlock v:margins="rect(4,4,4,4)"/>
			<v:textRect cx="284.719" cy="829.975" width="569.44" height="20"/>
			<rect x="0" y="819.975" width="569.438" height="20" class="st2"/>
			<text x="16.56" y="840.78" class="st3" v:langID="1033"><v:paragraph v:horizAlign="1"/><v:tabList/>Normal mode, CLTAP + TAP Network</text>		</g>
		<g id="shape204-6" v:mID="204" v:groupContext="shape" transform="translate(350.938,-450.375)">
			<title>Sheet.204</title>
			<rect x="0" y="569.975" width="288" height="270" class="st4"/>
		</g>
		<g id="shape205-8" v:mID="205" v:groupContext="shape" transform="translate(424.063,-612.375)">
			<title>Sheet.205</title>
			<desc>FSM</desc>
			<v:textBlock v:margins="rect(4,4,4,4)"/>
			<v:textRect cx="63" cy="803.975" width="126" height="72"/>
			<rect x="0" y="767.975" width="126" height="72" class="st5"/>
			<text x="36.39" y="812.97" class="st6" v:langID="1033"><v:paragraph v:horizAlign="1"/><v:tabList/>FSM</text>		</g>
		<g id="shape207-11" v:mID="207" v:groupContext="shape" transform="translate(418.938,-692.375)">
			<title>Sheet.207</title>
			<desc>Main CLTAP</desc>
			<v:textBlock v:margins="rect(4,4,4,4)"/>
			<v:textRect cx="76" cy="829.975" width="152" height="20"/>
			<rect x="0" y="819.975" width="152" height="20" class="st2"/>
			<text x="17.79" y="837.18" class="st7" v:langID="1033"><v:paragraph v:horizAlign="1"/><v:tabList/>Main CLTAP</text>		</g>
		<g id="shape208-14" v:mID="208" v:groupContext="shape" transform="translate(350.938,-54.375)">
			<title>Sheet.208</title>
			<rect x="0" y="569.975" width="288" height="270" class="st8"/>
		</g>
		<g id="shape209-16" v:mID="209" v:groupContext="shape" transform="translate(424.063,-216.375)">
			<title>Sheet.209</title>
			<desc>FSM</desc>
			<v:textBlock v:margins="rect(4,4,4,4)"/>
			<v:textRect cx="63" cy="803.975" width="126" height="72"/>
			<rect x="0" y="767.975" width="126" height="72" class="st5"/>
			<text x="36.39" y="812.97" class="st6" v:langID="1033"><v:paragraph v:horizAlign="1"/><v:tabList/>FSM</text>		</g>
		<g id="shape212-19" v:mID="212" v:groupContext="shape" transform="translate(746.938,-612.375)">
			<title>Sheet.212</title>
			<desc>Green TDRs</desc>
			<v:textBlock v:margins="rect(4,4,4,4)"/>
			<v:textRect cx="63" cy="803.975" width="126" height="72"/>
			<rect x="0" y="767.975" width="126" height="72" class="st5"/>
			<text x="25.5" y="794.97" class="st6" v:langID="1033"><v:paragraph v:horizAlign="1"/><v:tabList/>Green <tspan x="32.45"
						dy="1.2em" class="st9">TDRs</tspan></text>		</g>
		<g id="shape213-23" v:mID="213" v:groupContext="shape" transform="translate(746.938,-540.375)">
			<title>Sheet.213</title>
			<desc>ED TDRs</desc>
			<v:textBlock v:margins="rect(4,4,4,4)"/>
			<v:textRect cx="63" cy="803.975" width="126" height="72"/>
			<rect x="0" y="767.975" width="126" height="72" class="st5"/>
			<text x="12.51" y="812.97" class="st6" v:langID="1033"><v:paragraph v:horizAlign="1"/><v:tabList/>ED TDRs</text>		</g>
		<g id="shape214-26" v:mID="214" v:groupContext="shape" transform="translate(746.938,-144.375)">
			<title>Sheet.214</title>
			<desc>Orange/Red TDRs</desc>
			<v:textBlock v:margins="rect(4,4,4,4)"/>
			<v:textRect cx="63" cy="803.975" width="126" height="72"/>
			<rect x="0" y="767.975" width="126" height="72" class="st5"/>
			<text x="12.46" y="794.97" class="st6" v:langID="1033"><v:paragraph v:horizAlign="1"/><v:tabList/>Orange/<tspan
						x="5.57" dy="1.2em" class="st9">Red TDRs</tspan></text>		</g>
		<g id="shape215-30" v:mID="215" v:groupContext="shape" transform="translate(1124.94,-585.375)">
			<title>Sheet.215</title>
			<desc>TAP Network</desc>
			<v:textBlock v:margins="rect(4,4,4,4)"/>
			<v:textRect cx="63" cy="803.975" width="126" height="72"/>
			<rect x="0" y="767.975" width="126" height="72" class="st5"/>
			<text x="39.26" y="794.97" class="st6" v:langID="1033"><v:paragraph v:horizAlign="1"/><v:tabList/>TAP <tspan x="10.15"
						dy="1.2em" class="st9">Network</tspan></text>		</g>
		<g id="shape216-34" v:mID="216" v:groupContext="shape" transform="translate(62.9375,-576.375)">
			<title>Sheet.216</title>
			<path d="M0 839.97 L648 839.97" class="st10"/>
		</g>
		<g id="shape217-37" v:mID="217" v:groupContext="shape" transform="translate(0.375,-566.375)">
			<title>Sheet.217</title>
			<desc>TDI</desc>
			<v:textBlock v:margins="rect(4,4,4,4)"/>
			<v:textRect cx="31.2812" cy="829.975" width="62.57" height="20"/>
			<rect x="0" y="819.975" width="62.5625" height="20" class="st2"/>
			<text x="10.96" y="838.97" class="st6" v:langID="1033"><v:paragraph v:horizAlign="1"/><v:tabList/>TDI</text>		</g>
		<g id="shape219-40" v:mID="219" v:groupContext="shape" transform="translate(386.938,-522.375)">
			<title>Sheet.219</title>
			<path d="M0 785.97 L0 839.97 L21.87 839.97" class="st11"/>
		</g>
		<g id="shape220-46" v:mID="220" v:groupContext="shape" transform="translate(710.938,-576.375)">
			<title>Sheet.220</title>
			<path d="M0 839.97 L0 767.97 L21.87 767.97" class="st11"/>
		</g>
		<g id="shape221-51" v:mID="221" v:groupContext="shape" transform="translate(926.938,-594.375)">
			<title>Sheet.221</title>
			<path d="M0 767.97 L0 839.97 L36 821.97 L36 785.97 L0 767.97 Z" class="st5"/>
		</g>
		<g id="shape222-53" v:mID="222" v:groupContext="shape" transform="translate(872.937,-648.375)">
			<title>Sheet.222</title>
			<path d="M0 839.97 L54 839.97" class="st10"/>
		</g>
		<g id="shape224-56" v:mID="224" v:groupContext="shape" transform="translate(62.9375,-621.375)">
			<title>Sheet.224</title>
			<path d="M1188 839.97 L1242 839.97 L1242 686.97 L14.13 686.97" class="st11"/>
		</g>
		<g id="shape225-61" v:mID="225" v:groupContext="shape" transform="translate(62.9375,-648.375)">
			<title>Sheet.225</title>
			<path d="M0 839.97 L345.87 839.97" class="st11"/>
		</g>
		<g id="shape226-66" v:mID="226" v:groupContext="shape" transform="translate(0.375,-638.375)">
			<title>Sheet.226</title>
			<desc>TMS</desc>
			<v:textBlock v:margins="rect(4,4,4,4)"/>
			<v:textRect cx="31.2812" cy="829.975" width="62.57" height="20"/>
			<rect x="0" y="819.975" width="62.5625" height="20" class="st2"/>
			<text x="4.25" y="838.97" class="st6" v:langID="1033"><v:paragraph v:horizAlign="1"/><v:tabList/>TMS</text>		</g>
		<g id="shape227-69" v:mID="227" v:groupContext="shape" transform="translate(0.375,-764.375)">
			<title>Sheet.227</title>
			<desc>TDO</desc>
			<v:textBlock v:margins="rect(4,4,4,4)"/>
			<v:textRect cx="31.2812" cy="829.975" width="62.57" height="20"/>
			<rect x="0" y="819.975" width="62.5625" height="20" class="st2"/>
			<text x="4.81" y="838.97" class="st6" v:langID="1033"><v:paragraph v:horizAlign="1"/><v:tabList/>TDO</text>		</g>
		<g id="shape228-72" v:mID="228" v:groupContext="shape" transform="translate(1124.94,-157.875)">
			<title>Sheet.228</title>
			<desc>Encr</desc>
			<v:textBlock v:margins="rect(4,4,4,4)"/>
			<v:textRect cx="36" cy="817.475" width="72" height="45"/>
			<rect x="0" y="794.975" width="72" height="45" class="st5"/>
			<text x="9.22" y="826.47" class="st6" v:langID="1033"><v:paragraph v:horizAlign="1"/><v:tabList/>Encr</text>		</g>
		<g id="shape231-75" v:mID="231" v:groupContext="shape" transform="translate(414.938,-728.375)">
			<title>Sheet.231</title>
			<desc>CLTAP IP</desc>
			<v:textBlock v:margins="rect(4,4,4,4)"/>
			<v:textRect cx="76" cy="829.975" width="152" height="20"/>
			<rect x="0" y="819.975" width="152" height="20" class="st2"/>
			<text x="33.63" y="837.18" class="st7" v:langID="1033"><v:paragraph v:horizAlign="1"/><v:tabList/>CLTAP IP</text>		</g>
		<g id="shape232-78" v:mID="232" v:groupContext="shape" transform="translate(1034.94,-621.375)">
			<title>Sheet.232</title>
			<path d="M0 839.97 L75.87 839.97" class="st11"/>
		</g>
		<g id="shape301-83" v:mID="301" v:groupContext="shape" transform="translate(548.938,-522.375)">
			<title>Sheet.301</title>
			<path d="M0 839.97 L396 839.97 L396 757.85" class="st13"/>
		</g>
		<g id="shape310-86" v:mID="310" v:groupContext="shape" transform="translate(872.938,-576.375)">
			<title>Sheet.310</title>
			<path d="M0 839.97 L18 839.97 L18 803.97 L54 803.97" class="st10"/>
		</g>
		<g id="shape311-89" v:mID="311" v:groupContext="shape" transform="translate(710.938,-576.375)">
			<title>Sheet.311</title>
			<path d="M0 839.97 L21.87 839.97" class="st11"/>
		</g>
		<g id="shape322-94" v:mID="322" v:groupContext="shape" transform="translate(548.937,-666.375)">
			<title>Sheet.322</title>
			<path d="M0 839.97 L183.87 839.97" class="st14"/>
		</g>
		<g id="shape323-100" v:mID="323" v:groupContext="shape" transform="translate(692.937,-594.375)">
			<title>Sheet.323</title>
			<path d="M0 767.97 L0 839.97 L39.87 839.97" class="st14"/>
		</g>
		<g id="shape336-105" v:mID="336" v:groupContext="shape" transform="translate(422.938,-486.375)">
			<title>Sheet.336</title>
			<desc>IR (Green Opcodes)</desc>
			<v:textBlock v:margins="rect(4,4,4,4)"/>
			<v:textRect cx="63" cy="803.975" width="126" height="72"/>
			<rect x="0" y="767.975" width="126" height="72" class="st5"/>
			<text x="17.11" y="796.78" class="st7" v:langID="1033"><v:paragraph v:horizAlign="1"/><v:tabList/>IR (Green <tspan
						x="16.74" dy="1.2em" class="st9">Opcodes)</tspan></text>		</g>
		<g id="shape337-109" v:mID="337" v:groupContext="shape" transform="translate(422.938,-90.375)">
			<title>Sheet.337</title>
			<desc>IR (Or/Red Opcodes)</desc>
			<v:textBlock v:margins="rect(4,4,4,4)"/>
			<v:textRect cx="63" cy="803.975" width="126" height="72"/>
			<rect x="0" y="767.975" width="126" height="72" class="st5"/>
			<text x="11.55" y="796.78" class="st7" v:langID="1033"><v:paragraph v:horizAlign="1"/><v:tabList/>IR (Or/Red <tspan
						x="16.74" dy="1.2em" class="st9">Opcodes)</tspan></text>		</g>
		<g id="shape342-113" v:mID="342" v:groupContext="shape" transform="translate(296.938,-180.375)">
			<title>Sheet.342</title>
			<path d="M0 443.97 L0 839.97 L435.87 839.97" class="st11"/>
		</g>
		<g id="shape343-118" v:mID="343" v:groupContext="shape" transform="translate(170.938,-157.875)">
			<title>Sheet.343</title>
			<desc>Decr</desc>
			<v:textBlock v:margins="rect(4,4,4,4)"/>
			<v:textRect cx="36" cy="817.475" width="72" height="45"/>
			<rect x="0" y="794.975" width="72" height="45" class="st5"/>
			<text x="7.74" y="826.47" class="st6" v:langID="1033"><v:paragraph v:horizAlign="1"/><v:tabList/>Decr</text>		</g>
		<g id="shape345-121" v:mID="345" v:groupContext="shape" transform="translate(548.938,-198.375)">
			<title>Sheet.345</title>
			<path d="M0 785.97 L144 785.97 L144 839.97 L183.87 839.97" class="st14"/>
		</g>
		<g id="shape346-126" v:mID="346" v:groupContext="shape" transform="translate(296.938,-126.375)">
			<title>Sheet.346</title>
			<path d="M0 785.97 L0 839.97 L111.87 839.97" class="st11"/>
		</g>
		<g id="shape347-131" v:mID="347" v:groupContext="shape" transform="translate(314.938,-252.375)">
			<title>Sheet.347</title>
			<path d="M0 443.97 L0 839.97 L93.87 839.97" class="st11"/>
		</g>
		<g id="shape352-136" v:mID="352" v:groupContext="shape" transform="translate(573.938,-664.375)">
			<title>Sheet.352</title>
			<desc>CSU</desc>
			<v:textBlock v:margins="rect(4,4,4,4)"/>
			<v:textRect cx="29" cy="829.975" width="58.01" height="20"/>
			<rect x="0" y="819.975" width="58" height="20" class="st2"/>
			<text x="14.29" y="835.37" class="st16" v:langID="1033"><v:paragraph v:horizAlign="1"/><v:tabList/>CSU</text>		</g>
		<g id="shape353-139" v:mID="353" v:groupContext="shape" transform="translate(573.938,-250.375)">
			<title>Sheet.353</title>
			<desc>CSU</desc>
			<v:textBlock v:margins="rect(4,4,4,4)"/>
			<v:textRect cx="29" cy="829.975" width="58.01" height="20"/>
			<rect x="0" y="819.975" width="58" height="20" class="st2"/>
			<text x="14.29" y="835.37" class="st16" v:langID="1033"><v:paragraph v:horizAlign="1"/><v:tabList/>CSU</text>		</g>
		<g id="shape438-142" v:mID="438" v:groupContext="shape" transform="translate(710.937,-126.375)">
			<title>Sheet.438</title>
			<path d="M0 839.97 L0 803.97 L21.87 803.97" class="st17"/>
		</g>
		<g id="shape439-148" v:mID="439" v:groupContext="shape" transform="translate(573.938,-124.375)">
			<title>Sheet.439</title>
			<desc>Select</desc>
			<v:textBlock v:margins="rect(4,4,4,4)"/>
			<v:textRect cx="29" cy="829.975" width="58.01" height="20"/>
			<rect x="0" y="819.975" width="58" height="20" class="st2"/>
			<text x="7.02" y="835.37" class="st19" v:langID="1033"><v:paragraph v:horizAlign="1"/><v:tabList/>Select</text>		</g>
		<g id="shape440-151" v:mID="440" v:groupContext="shape" transform="translate(548.938,-126.375)">
			<title>Sheet.440</title>
			<path d="M0 839.97 L342 839.97 L342 799.47" class="st13"/>
		</g>
		<g id="shape451-154" v:mID="451" v:groupContext="shape" transform="translate(719.937,-522.375)">
			<title>Sheet.451</title>
			<path d="M0 839.97 L0 731.97 L12.87 731.97" class="st17"/>
		</g>
		<g id="shape452-159" v:mID="452" v:groupContext="shape" transform="translate(719.937,-558.375)">
			<title>Sheet.452</title>
			<path d="M0 839.97 L12.87 839.97" class="st17"/>
		</g>
		<g id="shape453-164" v:mID="453" v:groupContext="shape" transform="translate(573.938,-520.375)">
			<title>Sheet.453</title>
			<desc>Select</desc>
			<v:textBlock v:margins="rect(4,4,4,4)"/>
			<v:textRect cx="29" cy="829.975" width="58.01" height="20"/>
			<rect x="0" y="819.975" width="58" height="20" class="st2"/>
			<text x="7.02" y="835.37" class="st19" v:langID="1033"><v:paragraph v:horizAlign="1"/><v:tabList/>Select</text>		</g>
		<g id="shape471-167" v:mID="471" v:groupContext="shape" transform="translate(872.938,-180.375)">
			<title>Sheet.471</title>
			<path d="M0 839.97 L126 839.97 L126 407.97 L144 407.97" class="st10"/>
		</g>
		<g id="shape473-170" v:mID="473" v:groupContext="shape" transform="translate(1016.94,-603.375)">
			<title>Sheet.473</title>
			<path d="M0 803.97 L0 839.97 L18 830.97 L18 812.97 L0 803.97 Z" class="st5"/>
		</g>
		<g id="shape474-172" v:mID="474" v:groupContext="shape" transform="translate(962.938,-630.375)">
			<title>Sheet.474</title>
			<path d="M0 839.97 L54 839.97" class="st10"/>
		</g>
		<g id="shape312-175" v:mID="312" v:groupContext="shape" transform="translate(881.937,-162.375)">
			<title>Sheet.312</title>
			<path d="M0 803.97 L0 839.97 L18 830.97 L18 812.97 L0 803.97 Z" class="st5"/>
		</g>
		<g id="shape488-177" v:mID="488" v:groupContext="shape" transform="translate(396.188,-290.525)">
			<title>Sheet.488</title>
			<desc>Secondary TAP</desc>
			<v:textBlock v:margins="rect(4,4,4,4)"/>
			<v:textRect cx="92" cy="829.975" width="184" height="20"/>
			<rect x="0" y="819.975" width="184" height="20" class="st2"/>
			<text x="19.44" y="837.18" class="st7" v:langID="1033"><v:paragraph v:horizAlign="1"/><v:tabList/>Secondary TAP</text>		</g>
	</g>
</svg>
