<?xml version="1.0" encoding="UTF-8" standalone="no"?>
<!DOCTYPE svg PUBLIC "-//W3C//DTD SVG 1.1//EN" "http://www.w3.org/Graphics/SVG/1.1/DTD/svg11.dtd">
<!-- Generated by Microsoft Visio, SVG Export Endebug_Concepts.vsdx_Concept_b_En2_74e3a.svg Page-1 -->
<svg xmlns="http://www.w3.org/2000/svg" xmlns:xlink="http://www.w3.org/1999/xlink" xmlns:ev="http://www.w3.org/2001/xml-events"
		xmlns:v="http://schemas.microsoft.com/visio/2003/SVGExtensions/" width="16.8759in" height="12.4128in"
		viewBox="0 0 1215.06 893.725" xml:space="preserve" color-interpolation-filters="sRGB" class="st26">
	<v:documentProperties v:langID="1033" v:viewMarkup="false">
		<v:userDefs>
			<v:ud v:nameU="msvConvertTheme"/>
		</v:userDefs>
	</v:documentProperties>

	<style type="text/css">
	<![CDATA[
		.st1 {fill:#ffffd0;stroke:#5880b3;stroke-linecap:round;stroke-linejoin:round;stroke-width:0.25}
		.st2 {fill:#ebf1df;stroke:#5880b3;stroke-linecap:round;stroke-linejoin:round;stroke-width:0.75}
		.st3 {fill:#eaeff5;stroke:#5880b3;stroke-linecap:round;stroke-linejoin:round;stroke-width:0.75}
		.st4 {fill:#ffffff;stroke:#000000;stroke-linecap:round;stroke-linejoin:round;stroke-width:0.75}
		.st5 {fill:#000000;font-family:Calibri;font-size:2.50001em}
		.st6 {fill:none;stroke:none;stroke-linecap:round;stroke-linejoin:round;stroke-width:0.75}
		.st7 {fill:#000000;font-family:Calibri;font-size:1.99999em}
		.st8 {fill:#c4d6a0;stroke:#5880b3;stroke-linecap:round;stroke-linejoin:round;stroke-width:0.75}
		.st9 {font-size:1em}
		.st10 {fill:#000000;font-family:Calibri;font-size:3em}
		.st11 {stroke:#000000;stroke-linecap:round;stroke-linejoin:round;stroke-width:0.75}
		.st12 {marker-end:url(#mrkr13-47);stroke:#000000;stroke-linecap:round;stroke-linejoin:round;stroke-width:0.75}
		.st13 {fill:#000000;fill-opacity:1;stroke:#000000;stroke-opacity:1;stroke-width:0.15923566878981}
		.st14 {marker-end:url(#mrkr13-85);stroke:#000000;stroke-linecap:round;stroke-linejoin:round;stroke-width:0.75}
		.st15 {fill:#000000;fill-opacity:1;stroke:#000000;stroke-opacity:1;stroke-width:0.22935779816514}
		.st16 {fill:#000000;font-family:Calibri;font-size:1.16666em}
		.st17 {fill:#000000;font-family:Calibri;font-size:1.5em}
		.st18 {marker-end:url(#mrkr13-202);stroke:#000000;stroke-dasharray:5.25,3.75;stroke-linecap:round;stroke-linejoin:round;stroke-width:0.75}
		.st19 {stroke:#0070c0;stroke-linecap:round;stroke-linejoin:round;stroke-width:0.75}
		.st20 {marker-end:url(#mrkr13-237);stroke:#789440;stroke-linecap:round;stroke-linejoin:round;stroke-width:0.75}
		.st21 {fill:#789440;fill-opacity:1;stroke:#789440;stroke-opacity:1;stroke-width:0.15923566878981}
		.st22 {fill:#789440;font-family:Calibri;font-size:1.5em}
		.st23 {marker-end:url(#mrkr13-267);stroke:#0070c0;stroke-linecap:round;stroke-linejoin:round;stroke-width:0.75}
		.st24 {fill:#0070c0;fill-opacity:1;stroke:#0070c0;stroke-opacity:1;stroke-width:0.15923566878981}
		.st25 {fill:#0070c0;font-family:Calibri;font-size:1.5em}
		.st26 {fill:none;fill-rule:evenodd;font-size:12px;overflow:visible;stroke-linecap:square;stroke-miterlimit:3}
	]]>
	</style>

	<defs id="Markers">
		<g id="lend13">
			<path d="M 3 1 L 0 0 L 3 -1 L 3 1 " style="stroke:none"/>
		</g>
		<marker id="mrkr13-47" class="st13" v:arrowType="13" v:arrowSize="4" v:setback="18.84" refX="-18.84" orient="auto"
				markerUnits="strokeWidth" overflow="visible">
			<use xlink:href="#lend13" transform="scale(-6.28,-6.28) "/>
		</marker>
		<marker id="mrkr13-85" class="st15" v:arrowType="13" v:arrowSize="2" v:setback="13.08" refX="-13.08" orient="auto"
				markerUnits="strokeWidth" overflow="visible">
			<use xlink:href="#lend13" transform="scale(-4.36,-4.36) "/>
		</marker>
		<marker id="mrkr13-202" class="st15" v:arrowType="13" v:arrowSize="2" v:setback="12.6" refX="-12.6" orient="auto"
				markerUnits="strokeWidth" overflow="visible">
			<use xlink:href="#lend13" transform="scale(-4.36,-4.36) "/>
		</marker>
		<marker id="mrkr13-237" class="st21" v:arrowType="13" v:arrowSize="4" v:setback="18.84" refX="-18.84" orient="auto"
				markerUnits="strokeWidth" overflow="visible">
			<use xlink:href="#lend13" transform="scale(-6.28,-6.28) "/>
		</marker>
		<marker id="mrkr13-267" class="st24" v:arrowType="13" v:arrowSize="4" v:setback="18.84" refX="-18.84" orient="auto"
				markerUnits="strokeWidth" overflow="visible">
			<use xlink:href="#lend13" transform="scale(-6.28,-6.28) "/>
		</marker>
	</defs>
	<g v:mID="0" v:index="1" v:groupContext="foregroundPage">
		<title>Page-1</title>
		<v:pageProperties v:drawingScale="1" v:pageScale="1" v:drawingUnits="19" v:shadowOffsetX="9" v:shadowOffsetY="-9"/>
		<g id="shape286-1" v:mID="286" v:groupContext="shape" transform="translate(116.938,-0.125)">
			<title>Sheet.286</title>
			<path d="M0 533.72 L144 533.72 L144 839.72 L954 839.72 L954 533.72 L1098 533.72 L1098 893.72 L0 893.72 L0 533.72 Z"
					class="st1"/>
		</g>
		<g id="shape288-3" v:mID="288" v:groupContext="shape" transform="translate(296.938,-72.125)">
			<title>Sheet.288</title>
			<rect x="0" y="155.725" width="379.125" height="738" class="st2"/>
		</g>
		<g id="shape233-5" v:mID="233" v:groupContext="shape" transform="translate(350.938,-504.125)">
			<title>Sheet.233</title>
			<rect x="0" y="623.725" width="288" height="270" class="st3"/>
		</g>
		<g id="shape234-7" v:mID="234" v:groupContext="shape" transform="translate(424.063,-666.125)">
			<title>Sheet.234</title>
			<desc>FSM</desc>
			<v:textBlock v:margins="rect(4,4,4,4)"/>
			<v:textRect cx="63" cy="857.725" width="126" height="72"/>
			<rect x="0" y="821.725" width="126" height="72" class="st4"/>
			<text x="36.39" y="866.72" class="st5" v:langID="1033"><v:paragraph v:horizAlign="1"/><v:tabList/>FSM</text>		</g>
		<g id="shape236-10" v:mID="236" v:groupContext="shape" transform="translate(418.938,-746.125)">
			<title>Sheet.236</title>
			<desc>Main CLTAP</desc>
			<v:textBlock v:margins="rect(4,4,4,4)"/>
			<v:textRect cx="76" cy="883.725" width="152" height="20"/>
			<rect x="0" y="873.725" width="152" height="20" class="st6"/>
			<text x="17.79" y="890.93" class="st7" v:langID="1033"><v:paragraph v:horizAlign="1"/><v:tabList/>Main CLTAP</text>		</g>
		<g id="shape237-13" v:mID="237" v:groupContext="shape" transform="translate(350.938,-108.125)">
			<title>Sheet.237</title>
			<rect x="0" y="623.725" width="288" height="270" class="st8"/>
		</g>
		<g id="shape238-15" v:mID="238" v:groupContext="shape" transform="translate(424.063,-270.125)">
			<title>Sheet.238</title>
			<desc>FSM</desc>
			<v:textBlock v:margins="rect(4,4,4,4)"/>
			<v:textRect cx="63" cy="857.725" width="126" height="72"/>
			<rect x="0" y="821.725" width="126" height="72" class="st4"/>
			<text x="36.39" y="866.72" class="st5" v:langID="1033"><v:paragraph v:horizAlign="1"/><v:tabList/>FSM</text>		</g>
		<g id="shape241-18" v:mID="241" v:groupContext="shape" transform="translate(746.938,-666.125)">
			<title>Sheet.241</title>
			<desc>Green TDRs</desc>
			<v:textBlock v:margins="rect(4,4,4,4)"/>
			<v:textRect cx="63" cy="857.725" width="126" height="72"/>
			<rect x="0" y="821.725" width="126" height="72" class="st4"/>
			<text x="25.5" y="848.72" class="st5" v:langID="1033"><v:paragraph v:horizAlign="1"/><v:tabList/>Green <tspan x="32.45"
						dy="1.2em" class="st9">TDRs</tspan></text>		</g>
		<g id="shape242-22" v:mID="242" v:groupContext="shape" transform="translate(746.938,-594.125)">
			<title>Sheet.242</title>
			<desc>ED TDRs</desc>
			<v:textBlock v:margins="rect(4,4,4,4)"/>
			<v:textRect cx="63" cy="857.725" width="126" height="72"/>
			<rect x="0" y="821.725" width="126" height="72" class="st4"/>
			<text x="12.51" y="866.72" class="st5" v:langID="1033"><v:paragraph v:horizAlign="1"/><v:tabList/>ED TDRs</text>		</g>
		<g id="shape243-25" v:mID="243" v:groupContext="shape" transform="translate(746.938,-198.125)">
			<title>Sheet.243</title>
			<desc>Orange/Red TDRs</desc>
			<v:textBlock v:margins="rect(4,4,4,4)"/>
			<v:textRect cx="63" cy="857.725" width="126" height="72"/>
			<rect x="0" y="821.725" width="126" height="72" class="st4"/>
			<text x="12.46" y="848.72" class="st5" v:langID="1033"><v:paragraph v:horizAlign="1"/><v:tabList/>Orange/<tspan
						x="5.57" dy="1.2em" class="st9">Red TDRs</tspan></text>		</g>
		<g id="shape244-29" v:mID="244" v:groupContext="shape" transform="translate(926.938,-198.125)">
			<title>Sheet.244</title>
			<desc>TAP Network</desc>
			<v:textBlock v:margins="rect(4,4,4,4)"/>
			<v:textRect cx="63" cy="857.725" width="126" height="72"/>
			<rect x="0" y="821.725" width="126" height="72" class="st4"/>
			<text x="39.26" y="848.72" class="st5" v:langID="1033"><v:paragraph v:horizAlign="1"/><v:tabList/>TAP <tspan x="10.15"
						dy="1.2em" class="st9">Network</tspan></text>		</g>
		<g id="shape245-33" v:mID="245" v:groupContext="shape" transform="translate(278.938,-862.125)">
			<title>Sheet.245</title>
			<desc>Endebug mode, CLTAP + TAP Network</desc>
			<v:textBlock v:margins="rect(4,4,4,4)"/>
			<v:textRect cx="284.719" cy="883.725" width="569.44" height="20"/>
			<rect x="0" y="873.725" width="569.438" height="20" class="st6"/>
			<text x="7.03" y="894.53" class="st10" v:langID="1033"><v:paragraph v:horizAlign="1"/><v:tabList/>Endebug mode, CLTAP + TAP Network</text>		</g>
		<g id="shape246-36" v:mID="246" v:groupContext="shape" transform="translate(62.9375,-630.125)">
			<title>Sheet.246</title>
			<path d="M0 893.72 L648 893.72" class="st11"/>
		</g>
		<g id="shape247-39" v:mID="247" v:groupContext="shape" transform="translate(0.375,-620.125)">
			<title>Sheet.247</title>
			<desc>TDI</desc>
			<v:textBlock v:margins="rect(4,4,4,4)"/>
			<v:textRect cx="31.2812" cy="883.725" width="62.57" height="20"/>
			<rect x="0" y="873.725" width="62.5625" height="20" class="st6"/>
			<text x="10.96" y="892.72" class="st5" v:langID="1033"><v:paragraph v:horizAlign="1"/><v:tabList/>TDI</text>		</g>
		<g id="shape248-42" v:mID="248" v:groupContext="shape" transform="translate(386.938,-576.125)">
			<title>Sheet.248</title>
			<path d="M0 839.72 L0 893.72 L21.87 893.72" class="st12"/>
		</g>
		<g id="shape249-48" v:mID="249" v:groupContext="shape" transform="translate(710.938,-630.125)">
			<title>Sheet.249</title>
			<path d="M0 893.72 L0 821.72 L21.87 821.72" class="st12"/>
		</g>
		<g id="shape250-53" v:mID="250" v:groupContext="shape" transform="translate(926.938,-648.125)">
			<title>Sheet.250</title>
			<path d="M0 821.72 L0 893.72 L36 875.72 L36 839.72 L0 821.72 Z" class="st4"/>
		</g>
		<g id="shape251-55" v:mID="251" v:groupContext="shape" transform="translate(872.937,-702.125)">
			<title>Sheet.251</title>
			<path d="M0 893.72 L54 893.72" class="st11"/>
		</g>
		<g id="shape252-58" v:mID="252" v:groupContext="shape" transform="translate(62.9375,-684.125)">
			<title>Sheet.252</title>
			<path d="M900 893.72 L954 893.72 L954 749.72 L14.13 749.72" class="st12"/>
		</g>
		<g id="shape253-63" v:mID="253" v:groupContext="shape" transform="translate(62.9375,-702.125)">
			<title>Sheet.253</title>
			<path d="M0 893.72 L345.87 893.72" class="st12"/>
		</g>
		<g id="shape254-68" v:mID="254" v:groupContext="shape" transform="translate(0.375,-692.125)">
			<title>Sheet.254</title>
			<desc>TMS</desc>
			<v:textBlock v:margins="rect(4,4,4,4)"/>
			<v:textRect cx="31.2812" cy="883.725" width="62.57" height="20"/>
			<rect x="0" y="873.725" width="62.5625" height="20" class="st6"/>
			<text x="4.25" y="892.72" class="st5" v:langID="1033"><v:paragraph v:horizAlign="1"/><v:tabList/>TMS</text>		</g>
		<g id="shape255-71" v:mID="255" v:groupContext="shape" transform="translate(0.375,-818.125)">
			<title>Sheet.255</title>
			<desc>TDO</desc>
			<v:textBlock v:margins="rect(4,4,4,4)"/>
			<v:textRect cx="31.2812" cy="883.725" width="62.57" height="20"/>
			<rect x="0" y="873.725" width="62.5625" height="20" class="st6"/>
			<text x="4.81" y="892.72" class="st5" v:langID="1033"><v:paragraph v:horizAlign="1"/><v:tabList/>TDO</text>		</g>
		<g id="shape256-74" v:mID="256" v:groupContext="shape" transform="translate(1106.94,-211.625)">
			<title>Sheet.256</title>
			<desc>Encr</desc>
			<v:textBlock v:margins="rect(4,4,4,4)"/>
			<v:textRect cx="36" cy="871.225" width="72" height="45"/>
			<rect x="0" y="848.725" width="72" height="45" class="st4"/>
			<text x="9.22" y="880.22" class="st5" v:langID="1033"><v:paragraph v:horizAlign="1"/><v:tabList/>Encr</text>		</g>
		<g id="shape257-77" v:mID="257" v:groupContext="shape" transform="translate(152.938,-238.625)">
			<title>Sheet.257</title>
			<desc>Decr</desc>
			<v:textBlock v:margins="rect(4,4,4,4)"/>
			<v:textRect cx="36" cy="871.225" width="72" height="45"/>
			<rect x="0" y="848.725" width="72" height="45" class="st4"/>
			<text x="7.74" y="880.22" class="st5" v:langID="1033"><v:paragraph v:horizAlign="1"/><v:tabList/>Decr</text>		</g>
		<g id="shape258-80" v:mID="258" v:groupContext="shape" transform="translate(1055.66,587.6) rotate(90)">
			<title>Sheet.258</title>
			<path d="M0 893.72 L12.69 893.72" class="st14"/>
		</g>
		<g id="shape259-86" v:mID="259" v:groupContext="shape" transform="translate(1064.66,587.6) rotate(90)">
			<title>Sheet.259</title>
			<path d="M0 893.72 L12.69 893.72" class="st14"/>
		</g>
		<g id="shape260-91" v:mID="260" v:groupContext="shape" transform="translate(1073.66,587.6) rotate(90)">
			<title>Sheet.260</title>
			<path d="M0 893.72 L12.69 893.72" class="st14"/>
		</g>
		<g id="shape261-96" v:mID="261" v:groupContext="shape" transform="translate(1082.66,587.6) rotate(90)">
			<title>Sheet.261</title>
			<path d="M0 893.72 L12.69 893.72" class="st14"/>
		</g>
		<g id="shape262-101" v:mID="262" v:groupContext="shape" transform="translate(1091.66,587.6) rotate(90)">
			<title>Sheet.262</title>
			<path d="M0 893.72 L12.69 893.72" class="st14"/>
		</g>
		<g id="shape263-106" v:mID="263" v:groupContext="shape" transform="translate(1100.66,587.6) rotate(90)">
			<title>Sheet.263</title>
			<path d="M0 893.72 L12.69 893.72" class="st14"/>
		</g>
		<g id="shape264-111" v:mID="264" v:groupContext="shape" transform="translate(1109.66,587.6) rotate(90)">
			<title>Sheet.264</title>
			<path d="M0 893.72 L12.69 893.72" class="st14"/>
		</g>
		<g id="shape265-116" v:mID="265" v:groupContext="shape" transform="translate(161.937,-305.125)">
			<title>Sheet.265</title>
			<desc>ED TDRs</desc>
			<v:textBlock v:margins="rect(4,4,4,4)"/>
			<v:textRect cx="29" cy="883.725" width="58" height="20"/>
			<rect x="0" y="873.725" width="58" height="20" class="st6"/>
			<text x="5.44" y="887.93" class="st16" v:langID="1033"><v:paragraph v:horizAlign="1"/><v:tabList/>ED TDRs</text>		</g>
		<g id="shape266-119" v:mID="266" v:groupContext="shape" transform="translate(276.213,637.1) rotate(-90)">
			<title>Sheet.266</title>
			<path d="M0 893.72 L12.69 893.72" class="st14"/>
		</g>
		<g id="shape267-124" v:mID="267" v:groupContext="shape" transform="translate(267.213,637.1) rotate(-90)">
			<title>Sheet.267</title>
			<path d="M0 893.72 L12.69 893.72" class="st14"/>
		</g>
		<g id="shape268-129" v:mID="268" v:groupContext="shape" transform="translate(258.213,637.1) rotate(-90)">
			<title>Sheet.268</title>
			<path d="M0 893.72 L12.69 893.72" class="st14"/>
		</g>
		<g id="shape269-134" v:mID="269" v:groupContext="shape" transform="translate(249.213,637.1) rotate(-90)">
			<title>Sheet.269</title>
			<path d="M0 893.72 L12.69 893.72" class="st14"/>
		</g>
		<g id="shape270-139" v:mID="270" v:groupContext="shape" transform="translate(240.213,637.1) rotate(-90)">
			<title>Sheet.270</title>
			<path d="M0 893.72 L12.69 893.72" class="st14"/>
		</g>
		<g id="shape271-144" v:mID="271" v:groupContext="shape" transform="translate(231.213,637.1) rotate(-90)">
			<title>Sheet.271</title>
			<path d="M0 893.72 L12.69 893.72" class="st14"/>
		</g>
		<g id="shape272-149" v:mID="272" v:groupContext="shape" transform="translate(222.213,637.1) rotate(-90)">
			<title>Sheet.272</title>
			<path d="M0 893.72 L12.69 893.72" class="st14"/>
		</g>
		<g id="shape273-154" v:mID="273" v:groupContext="shape" transform="translate(1113.94,-278.125)">
			<title>Sheet.273</title>
			<desc>ED TDRs</desc>
			<v:textBlock v:margins="rect(4,4,4,4)"/>
			<v:textRect cx="29" cy="883.725" width="58" height="20"/>
			<rect x="0" y="873.725" width="58" height="20" class="st6"/>
			<text x="5.44" y="887.93" class="st16" v:langID="1033"><v:paragraph v:horizAlign="1"/><v:tabList/>ED TDRs</text>		</g>
		<g id="shape274-157" v:mID="274" v:groupContext="shape" transform="translate(152.938,-171.125)">
			<title>Sheet.274</title>
			<desc>Port Mastr</desc>
			<v:textBlock v:margins="rect(4,4,4,4)"/>
			<v:textRect cx="36" cy="871.225" width="72" height="45"/>
			<rect x="0" y="848.725" width="72" height="45" class="st4"/>
			<text x="20.45" y="865.82" class="st17" v:langID="1033"><v:paragraph v:horizAlign="1"/><v:tabList/>Port <tspan
						x="14.32" dy="1.2em" class="st9">Mastr</tspan></text>		</g>
		<g id="shape275-161" v:mID="275" v:groupContext="shape" transform="translate(152.938,-99.125)">
			<title>Sheet.275</title>
			<desc>FSM</desc>
			<v:textBlock v:margins="rect(4,4,4,4)"/>
			<v:textRect cx="36" cy="871.225" width="72" height="45"/>
			<rect x="0" y="848.725" width="72" height="45" class="st4"/>
			<text x="23.58" y="875.43" class="st16" v:langID="1033"><v:paragraph v:horizAlign="1"/><v:tabList/>FSM</text>		</g>
		<g id="shape276-164" v:mID="276" v:groupContext="shape" transform="translate(1082.66,655.1) rotate(90)">
			<title>Sheet.276</title>
			<path d="M0 893.72 L8.37 893.72" class="st12"/>
		</g>
		<g id="shape277-169" v:mID="277" v:groupContext="shape" transform="translate(-704.787,749.6) rotate(-90)">
			<title>Sheet.277</title>
			<path d="M0 893.72 L12.87 893.72" class="st12"/>
		</g>
		<g id="shape278-174" v:mID="278" v:groupContext="shape" transform="translate(224.938,-180.125) rotate(1.24185E-06)">
			<title>Sheet.278</title>
			<path d="M0 893.72 L183.87 893.72" class="st12"/>
		</g>
		<g id="shape279-179" v:mID="279" v:groupContext="shape" transform="translate(386.938,-180.125)">
			<title>Sheet.279</title>
			<path d="M0 893.72 L0 839.72 L345.87 839.72" class="st12"/>
		</g>
		<g id="shape280-184" v:mID="280" v:groupContext="shape" transform="translate(224.938,-207.125)">
			<title>Sheet.280</title>
			<path d="M0 893.72 L90 893.72 L90 794.72 L183.87 794.72" class="st12"/>
		</g>
		<g id="shape281-189" v:mID="281" v:groupContext="shape" transform="translate(872.937,-234.125)">
			<title>Sheet.281</title>
			<path d="M0 893.72 L39.87 893.72" class="st12"/>
		</g>
		<g id="shape282-194" v:mID="282" v:groupContext="shape" transform="translate(872.938,-630.125)">
			<title>Sheet.282</title>
			<path d="M0 893.72 L27 893.72 L27 857.72 L54 857.72" class="st11"/>
		</g>
		<g id="shape283-197" v:mID="283" v:groupContext="shape" transform="translate(1113.38,1051.64) rotate(156.28)">
			<title>Sheet.283</title>
			<path d="M0 821.44 C25.63 763.12 91.12 744.03 156.31 753.16 C233.94 764.03 311.15 814.9 394.33 850.47 C454.2 876.06 517.16
						 893.74 558.09 893.72 C590.29 893.72 608.85 882.76 622.09 869.15 C628.25 862.81 633.26 855.9 644.82 830.4
						 L644.96 830.07" class="st18"/>
		</g>
		<g id="shape284-203" v:mID="284" v:groupContext="shape" transform="translate(531.241,1218.41) rotate(-135.881)">
			<title>Sheet.284</title>
			<path d="M0 878.69 C28.98 908.57 81.21 887.84 121.26 870.75 C152.24 857.53 175.92 846.49 194.9 837.65 C220.65 825.65
						 237.73 817.7 274.79 819.28 C309.79 820.77 362.58 830.75 406.7 871.82 L406.96 872.08" class="st18"/>
		</g>
		<g id="shape285-208" v:mID="285" v:groupContext="shape" transform="translate(710.937,-630.125)">
			<title>Sheet.285</title>
			<path d="M0 893.72 L21.87 893.72" class="st12"/>
		</g>
		<g id="shape287-213" v:mID="287" v:groupContext="shape" transform="translate(508.938,-16.125)">
			<title>Sheet.287</title>
			<desc>Endebug IP</desc>
			<v:textBlock v:margins="rect(4,4,4,4)"/>
			<v:textRect cx="76" cy="883.725" width="152" height="20"/>
			<rect x="0" y="873.725" width="152" height="20" class="st6"/>
			<text x="21.37" y="890.93" class="st7" v:langID="1033"><v:paragraph v:horizAlign="1"/><v:tabList/>Endebug IP</text>		</g>
		<g id="shape289-216" v:mID="289" v:groupContext="shape" transform="translate(414.938,-782.125)">
			<title>Sheet.289</title>
			<desc>CLTAP IP</desc>
			<v:textBlock v:margins="rect(4,4,4,4)"/>
			<v:textRect cx="76" cy="883.725" width="152" height="20"/>
			<rect x="0" y="873.725" width="152" height="20" class="st6"/>
			<text x="33.63" y="890.93" class="st7" v:langID="1033"><v:paragraph v:horizAlign="1"/><v:tabList/>CLTAP IP</text>		</g>
		<g id="shape290-219" v:mID="290" v:groupContext="shape" transform="translate(1052.94,-234.125)">
			<title>Sheet.290</title>
			<path d="M0 893.72 L39.87 893.72" class="st12"/>
		</g>
		<g id="shape307-224" v:mID="307" v:groupContext="shape" transform="translate(881.937,-216.125)">
			<title>Sheet.307</title>
			<path d="M0 857.72 L0 893.72 L18 884.72 L18 866.72 L0 857.72 Z" class="st4"/>
		</g>
		<g id="shape308-226" v:mID="308" v:groupContext="shape" transform="translate(548.937,-180.125)">
			<title>Sheet.308</title>
			<path d="M0 893.72 L342 893.72 L342 853.22" class="st19"/>
		</g>
		<g id="shape309-229" v:mID="309" v:groupContext="shape" transform="translate(548.938,-576.125)">
			<title>Sheet.309</title>
			<path d="M0 893.72 L396 893.72 L396 811.6" class="st19"/>
		</g>
		<g id="shape325-232" v:mID="325" v:groupContext="shape" transform="translate(548.938,-720.125)">
			<title>Sheet.325</title>
			<path d="M0 893.72 L183.87 893.72" class="st20"/>
		</g>
		<g id="shape326-238" v:mID="326" v:groupContext="shape" transform="translate(692.937,-648.125)">
			<title>Sheet.326</title>
			<path d="M0 821.72 L0 893.72 L39.87 893.72" class="st20"/>
		</g>
		<g id="shape327-243" v:mID="327" v:groupContext="shape" transform="translate(548.938,-252.125)">
			<title>Sheet.327</title>
			<path d="M0 839.72 L144 839.72 L144 893.72 L183.87 893.72" class="st20"/>
		</g>
		<g id="shape338-248" v:mID="338" v:groupContext="shape" transform="translate(422.938,-540.125)">
			<title>Sheet.338</title>
			<desc>IR (Green Opcodes)</desc>
			<v:textBlock v:margins="rect(4,4,4,4)"/>
			<v:textRect cx="63" cy="857.725" width="126" height="72"/>
			<rect x="0" y="821.725" width="126" height="72" class="st4"/>
			<text x="17.11" y="850.53" class="st7" v:langID="1033"><v:paragraph v:horizAlign="1"/><v:tabList/>IR (Green <tspan
						x="16.74" dy="1.2em" class="st9">Opcodes)</tspan></text>		</g>
		<g id="shape339-252" v:mID="339" v:groupContext="shape" transform="translate(422.938,-144.125)">
			<title>Sheet.339</title>
			<desc>IR (Or/Red Opcodes)</desc>
			<v:textBlock v:margins="rect(4,4,4,4)"/>
			<v:textRect cx="63" cy="857.725" width="126" height="72"/>
			<rect x="0" y="821.725" width="126" height="72" class="st4"/>
			<text x="11.55" y="850.53" class="st7" v:langID="1033"><v:paragraph v:horizAlign="1"/><v:tabList/>IR (Or/Red <tspan
						x="16.74" dy="1.2em" class="st9">Opcodes)</tspan></text>		</g>
		<g id="shape354-256" v:mID="354" v:groupContext="shape" transform="translate(573.938,-718.125)">
			<title>Sheet.354</title>
			<desc>CSU</desc>
			<v:textBlock v:margins="rect(4,4,4,4)"/>
			<v:textRect cx="29" cy="883.725" width="58.01" height="20"/>
			<rect x="0" y="873.725" width="58" height="20" class="st6"/>
			<text x="14.29" y="889.13" class="st22" v:langID="1033"><v:paragraph v:horizAlign="1"/><v:tabList/>CSU</text>		</g>
		<g id="shape355-259" v:mID="355" v:groupContext="shape" transform="translate(573.938,-306.125)">
			<title>Sheet.355</title>
			<desc>CSU</desc>
			<v:textBlock v:margins="rect(4,4,4,4)"/>
			<v:textRect cx="29" cy="883.725" width="58.01" height="20"/>
			<rect x="0" y="873.725" width="58" height="20" class="st6"/>
			<text x="14.29" y="889.13" class="st22" v:langID="1033"><v:paragraph v:horizAlign="1"/><v:tabList/>CSU</text>		</g>
		<g id="shape443-262" v:mID="443" v:groupContext="shape" transform="translate(710.938,-180.125)">
			<title>Sheet.443</title>
			<path d="M0 893.72 L0 857.72 L21.87 857.72" class="st23"/>
		</g>
		<g id="shape444-268" v:mID="444" v:groupContext="shape" transform="translate(575.938,-178.125)">
			<title>Sheet.444</title>
			<desc>Select</desc>
			<v:textBlock v:margins="rect(4,4,4,4)"/>
			<v:textRect cx="29" cy="883.725" width="58.01" height="20"/>
			<rect x="0" y="873.725" width="58" height="20" class="st6"/>
			<text x="7.02" y="889.13" class="st25" v:langID="1033"><v:paragraph v:horizAlign="1"/><v:tabList/>Select</text>		</g>
		<g id="shape454-271" v:mID="454" v:groupContext="shape" transform="translate(719.937,-576.125)">
			<title>Sheet.454</title>
			<path d="M0 893.72 L0 785.72 L12.87 785.72" class="st23"/>
		</g>
		<g id="shape455-276" v:mID="455" v:groupContext="shape" transform="translate(719.937,-612.125)">
			<title>Sheet.455</title>
			<path d="M0 893.72 L12.87 893.72" class="st23"/>
		</g>
		<g id="shape456-281" v:mID="456" v:groupContext="shape" transform="translate(571.938,-576.125)">
			<title>Sheet.456</title>
			<desc>Select</desc>
			<v:textBlock v:margins="rect(4,4,4,4)"/>
			<v:textRect cx="29" cy="883.725" width="58.01" height="20"/>
			<rect x="0" y="873.725" width="58" height="20" class="st6"/>
			<text x="7.02" y="889.13" class="st25" v:langID="1033"><v:paragraph v:horizAlign="1"/><v:tabList/>Select</text>		</g>
		<g id="shape489-284" v:mID="489" v:groupContext="shape" transform="translate(397.088,-344.725)">
			<title>Sheet.489</title>
			<desc>Secondary TAP</desc>
			<v:textBlock v:margins="rect(4,4,4,4)"/>
			<v:textRect cx="92" cy="883.725" width="184" height="20"/>
			<rect x="0" y="873.725" width="184" height="20" class="st6"/>
			<text x="19.44" y="890.93" class="st7" v:langID="1033"><v:paragraph v:horizAlign="1"/><v:tabList/>Secondary TAP</text>		</g>
	</g>
</svg>
