<?xml version="1.0" encoding="UTF-8" standalone="no"?>
<!DOCTYPE svg PUBLIC "-//W3C//DTD SVG 1.1//EN" "http://www.w3.org/Graphics/SVG/1.1/DTD/svg11.dtd">
<!-- Generated by Microsoft Visio, SVG Export Endebug_Concepts.vsdx_Concept_b_Norm1_74e3a.svg Page-1 -->
<svg xmlns="http://www.w3.org/2000/svg" xmlns:xlink="http://www.w3.org/1999/xlink" xmlns:ev="http://www.w3.org/2001/xml-events"
		xmlns:v="http://schemas.microsoft.com/visio/2003/SVGExtensions/" width="18.8793in" height="11.9441in"
		viewBox="0 0 1359.31 859.975" xml:space="preserve" color-interpolation-filters="sRGB" class="st20">
	<v:documentProperties v:langID="1033" v:viewMarkup="false">
		<v:userDefs>
			<v:ud v:nameU="msvConvertTheme"/>
		</v:userDefs>
	</v:documentProperties>

	<style type="text/css">
	<![CDATA[
		.st1 {fill:#ebf1df;stroke:#5880b3;stroke-linecap:round;stroke-linejoin:round;stroke-width:0.75}
		.st2 {fill:#eaeff5;stroke:#5880b3;stroke-linecap:round;stroke-linejoin:round;stroke-width:0.75}
		.st3 {fill:#ffffff;stroke:#000000;stroke-linecap:round;stroke-linejoin:round;stroke-width:0.75}
		.st4 {fill:#000000;font-family:Calibri;font-size:2.50001em}
		.st5 {fill:#000000;font-family:Calibri;font-size:1.99999em}
		.st6 {font-size:1em}
		.st7 {fill:none;stroke:none;stroke-linecap:round;stroke-linejoin:round;stroke-width:0.75}
		.st8 {fill:#c4d6a0;stroke:#5880b3;stroke-linecap:round;stroke-linejoin:round;stroke-width:0.75}
		.st9 {fill:#000000;font-family:Calibri;font-size:3em}
		.st10 {stroke:#000000;stroke-linecap:round;stroke-linejoin:round;stroke-width:0.75}
		.st11 {marker-end:url(#mrkr13-53);stroke:#000000;stroke-linecap:round;stroke-linejoin:round;stroke-width:0.75}
		.st12 {fill:#000000;fill-opacity:1;stroke:#000000;stroke-opacity:1;stroke-width:0.15923566878981}
		.st13 {stroke:#0070c0;stroke-linecap:round;stroke-linejoin:round;stroke-width:0.75}
		.st14 {marker-end:url(#mrkr13-115);stroke:#789440;stroke-linecap:round;stroke-linejoin:round;stroke-width:0.75}
		.st15 {fill:#789440;fill-opacity:1;stroke:#789440;stroke-opacity:1;stroke-width:0.15923566878981}
		.st16 {fill:#789440;font-family:Calibri;font-size:1.5em}
		.st17 {marker-end:url(#mrkr13-150);stroke:#0070c0;stroke-linecap:round;stroke-linejoin:round;stroke-width:0.75}
		.st18 {fill:#0070c0;fill-opacity:1;stroke:#0070c0;stroke-opacity:1;stroke-width:0.15923566878981}
		.st19 {fill:#0070c0;font-family:Calibri;font-size:1.5em}
		.st20 {fill:none;fill-rule:evenodd;font-size:12px;overflow:visible;stroke-linecap:square;stroke-miterlimit:3}
	]]>
	</style>

	<defs id="Markers">
		<g id="lend13">
			<path d="M 3 1 L 0 0 L 3 -1 L 3 1 " style="stroke:none"/>
		</g>
		<marker id="mrkr13-53" class="st12" v:arrowType="13" v:arrowSize="4" v:setback="18.84" refX="-18.84" orient="auto"
				markerUnits="strokeWidth" overflow="visible">
			<use xlink:href="#lend13" transform="scale(-6.28,-6.28) "/>
		</marker>
		<marker id="mrkr13-115" class="st15" v:arrowType="13" v:arrowSize="4" v:setback="18.84" refX="-18.84" orient="auto"
				markerUnits="strokeWidth" overflow="visible">
			<use xlink:href="#lend13" transform="scale(-6.28,-6.28) "/>
		</marker>
		<marker id="mrkr13-150" class="st18" v:arrowType="13" v:arrowSize="4" v:setback="18.84" refX="-18.84" orient="auto"
				markerUnits="strokeWidth" overflow="visible">
			<use xlink:href="#lend13" transform="scale(-6.28,-6.28) "/>
		</marker>
	</defs>
	<g v:mID="0" v:index="1" v:groupContext="foregroundPage">
		<title>Page-1</title>
		<v:pageProperties v:drawingScale="1" v:pageScale="1" v:drawingUnits="19" v:shadowOffsetX="9" v:shadowOffsetY="-9"/>
		<g id="shape86-1" v:mID="86" v:groupContext="shape" transform="translate(260.938,-0.375)">
			<title>Sheet.86</title>
			<rect x="0" y="103.975" width="396" height="756" class="st1"/>
		</g>
		<g id="shape1-3" v:mID="1" v:groupContext="shape" transform="translate(350.938,-450.375)">
			<title>Sheet.1</title>
			<rect x="0" y="589.975" width="288" height="270" class="st2"/>
		</g>
		<g id="shape2-5" v:mID="2" v:groupContext="shape" transform="translate(424.063,-612.375)">
			<title>Sheet.2</title>
			<desc>FSM</desc>
			<v:textBlock v:margins="rect(4,4,4,4)"/>
			<v:textRect cx="63" cy="823.975" width="126" height="72"/>
			<rect x="0" y="787.975" width="126" height="72" class="st3"/>
			<text x="36.39" y="832.97" class="st4" v:langID="1033"><v:paragraph v:horizAlign="1"/><v:tabList/>FSM</text>		</g>
		<g id="shape3-8" v:mID="3" v:groupContext="shape" transform="translate(422.938,-486.375)">
			<title>Sheet.3</title>
			<desc>IR (Green Opcodes)</desc>
			<v:textBlock v:margins="rect(4,4,4,4)"/>
			<v:textRect cx="63" cy="823.975" width="126" height="72"/>
			<rect x="0" y="787.975" width="126" height="72" class="st3"/>
			<text x="17.11" y="816.78" class="st5" v:langID="1033"><v:paragraph v:horizAlign="1"/><v:tabList/>IR (Green <tspan
						x="16.74" dy="1.2em" class="st6">Opcodes)</tspan></text>		</g>
		<g id="shape4-12" v:mID="4" v:groupContext="shape" transform="translate(418.938,-692.375)">
			<title>Sheet.4</title>
			<desc>Main CLTAP</desc>
			<v:textBlock v:margins="rect(4,4,4,4)"/>
			<v:textRect cx="76" cy="849.975" width="152" height="20"/>
			<rect x="0" y="839.975" width="152" height="20" class="st7"/>
			<text x="17.79" y="857.18" class="st5" v:langID="1033"><v:paragraph v:horizAlign="1"/><v:tabList/>Main CLTAP</text>		</g>
		<g id="shape5-15" v:mID="5" v:groupContext="shape" transform="translate(350.938,-54.375)">
			<title>Sheet.5</title>
			<rect x="0" y="589.975" width="288" height="270" class="st8"/>
		</g>
		<g id="shape6-17" v:mID="6" v:groupContext="shape" transform="translate(424.063,-216.375)">
			<title>Sheet.6</title>
			<desc>FSM</desc>
			<v:textBlock v:margins="rect(4,4,4,4)"/>
			<v:textRect cx="63" cy="823.975" width="126" height="72"/>
			<rect x="0" y="787.975" width="126" height="72" class="st3"/>
			<text x="36.39" y="832.97" class="st4" v:langID="1033"><v:paragraph v:horizAlign="1"/><v:tabList/>FSM</text>		</g>
		<g id="shape7-20" v:mID="7" v:groupContext="shape" transform="translate(422.938,-90.375)">
			<title>Sheet.7</title>
			<desc>IR (Or/Red Opcodes)</desc>
			<v:textBlock v:margins="rect(4,4,4,4)"/>
			<v:textRect cx="63" cy="823.975" width="126" height="72"/>
			<rect x="0" y="787.975" width="126" height="72" class="st3"/>
			<text x="11.55" y="816.78" class="st5" v:langID="1033"><v:paragraph v:horizAlign="1"/><v:tabList/>IR (Or/Red <tspan
						x="16.74" dy="1.2em" class="st6">Opcodes)</tspan></text>		</g>
		<g id="shape9-24" v:mID="9" v:groupContext="shape" transform="translate(746.938,-612.375)">
			<title>Sheet.9</title>
			<desc>Green TDRs</desc>
			<v:textBlock v:margins="rect(4,4,4,4)"/>
			<v:textRect cx="63" cy="823.975" width="126" height="72"/>
			<rect x="0" y="787.975" width="126" height="72" class="st3"/>
			<text x="25.5" y="814.97" class="st4" v:langID="1033"><v:paragraph v:horizAlign="1"/><v:tabList/>Green <tspan x="32.45"
						dy="1.2em" class="st6">TDRs</tspan></text>		</g>
		<g id="shape10-28" v:mID="10" v:groupContext="shape" transform="translate(746.938,-540.375)">
			<title>Sheet.10</title>
			<desc>ED TDRs</desc>
			<v:textBlock v:margins="rect(4,4,4,4)"/>
			<v:textRect cx="63" cy="823.975" width="126" height="72"/>
			<rect x="0" y="787.975" width="126" height="72" class="st3"/>
			<text x="12.51" y="832.97" class="st4" v:langID="1033"><v:paragraph v:horizAlign="1"/><v:tabList/>ED TDRs</text>		</g>
		<g id="shape11-31" v:mID="11" v:groupContext="shape" transform="translate(746.938,-144.375)">
			<title>Sheet.11</title>
			<desc>Orange/Red TDRs</desc>
			<v:textBlock v:margins="rect(4,4,4,4)"/>
			<v:textRect cx="63" cy="823.975" width="126" height="72"/>
			<rect x="0" y="787.975" width="126" height="72" class="st3"/>
			<text x="12.46" y="814.97" class="st4" v:langID="1033"><v:paragraph v:horizAlign="1"/><v:tabList/>Orange/<tspan
						x="5.57" dy="1.2em" class="st6">Red TDRs</tspan></text>		</g>
		<g id="shape12-35" v:mID="12" v:groupContext="shape" transform="translate(1232.94,-594.375)">
			<title>Sheet.12</title>
			<desc>TAP Network</desc>
			<v:textBlock v:margins="rect(4,4,4,4)"/>
			<v:textRect cx="63" cy="823.975" width="126" height="72"/>
			<rect x="0" y="787.975" width="126" height="72" class="st3"/>
			<text x="39.26" y="814.97" class="st4" v:langID="1033"><v:paragraph v:horizAlign="1"/><v:tabList/>TAP <tspan x="10.15"
						dy="1.2em" class="st6">Network</tspan></text>		</g>
		<g id="shape13-39" v:mID="13" v:groupContext="shape" transform="translate(278.938,-828.375)">
			<title>Sheet.13</title>
			<desc>Not in Endebug mode, CLTAP only</desc>
			<v:textBlock v:margins="rect(4,4,4,4)"/>
			<v:textRect cx="284.719" cy="849.975" width="569.44" height="20"/>
			<rect x="0" y="839.975" width="569.438" height="20" class="st7"/>
			<text x="35.94" y="860.78" class="st9" v:langID="1033"><v:paragraph v:horizAlign="1"/><v:tabList/>Not in Endebug mode, CLTAP only</text>		</g>
		<g id="shape14-42" v:mID="14" v:groupContext="shape" transform="translate(62.9375,-576.375)">
			<title>Sheet.14</title>
			<path d="M0 859.97 L648 859.97" class="st10"/>
		</g>
		<g id="shape15-45" v:mID="15" v:groupContext="shape" transform="translate(0.375,-566.375)">
			<title>Sheet.15</title>
			<desc>TDI</desc>
			<v:textBlock v:margins="rect(4,4,4,4)"/>
			<v:textRect cx="31.2812" cy="849.975" width="62.57" height="20"/>
			<rect x="0" y="839.975" width="62.5625" height="20" class="st7"/>
			<text x="10.96" y="858.97" class="st4" v:langID="1033"><v:paragraph v:horizAlign="1"/><v:tabList/>TDI</text>		</g>
		<g id="shape16-48" v:mID="16" v:groupContext="shape" transform="translate(296.938,-180.375)">
			<title>Sheet.16</title>
			<path d="M0 463.97 L0 859.97 L435.87 859.97" class="st11"/>
		</g>
		<g id="shape17-54" v:mID="17" v:groupContext="shape" transform="translate(386.938,-522.375)">
			<title>Sheet.17</title>
			<path d="M0 805.97 L0 859.97 L21.87 859.97" class="st11"/>
		</g>
		<g id="shape18-59" v:mID="18" v:groupContext="shape" transform="translate(710.938,-576.375)">
			<title>Sheet.18</title>
			<path d="M0 859.97 L0 787.97 L21.87 787.97" class="st11"/>
		</g>
		<g id="shape19-64" v:mID="19" v:groupContext="shape" transform="translate(926.938,-594.375)">
			<title>Sheet.19</title>
			<path d="M0 787.97 L0 859.97 L36 841.97 L36 805.97 L0 787.97 Z" class="st3"/>
		</g>
		<g id="shape20-66" v:mID="20" v:groupContext="shape" transform="translate(872.937,-648.375)">
			<title>Sheet.20</title>
			<path d="M0 859.97 L54 859.97" class="st10"/>
		</g>
		<g id="shape21-69" v:mID="21" v:groupContext="shape" transform="translate(872.938,-180.375)">
			<title>Sheet.21</title>
			<path d="M0 859.97 L126 859.97 L126 427.97 L144 427.97" class="st10"/>
		</g>
		<g id="shape22-72" v:mID="22" v:groupContext="shape" transform="translate(62.9375,-621.375)">
			<title>Sheet.22</title>
			<path d="M972 859.97 L1008 859.97 L1008 706.97 L14.13 706.97" class="st11"/>
		</g>
		<g id="shape23-77" v:mID="23" v:groupContext="shape" transform="translate(62.9375,-648.375)">
			<title>Sheet.23</title>
			<path d="M0 859.97 L345.87 859.97" class="st11"/>
		</g>
		<g id="shape24-82" v:mID="24" v:groupContext="shape" transform="translate(0.375,-638.375)">
			<title>Sheet.24</title>
			<desc>TMS</desc>
			<v:textBlock v:margins="rect(4,4,4,4)"/>
			<v:textRect cx="31.2812" cy="849.975" width="62.57" height="20"/>
			<rect x="0" y="839.975" width="62.5625" height="20" class="st7"/>
			<text x="4.25" y="858.97" class="st4" v:langID="1033"><v:paragraph v:horizAlign="1"/><v:tabList/>TMS</text>		</g>
		<g id="shape25-85" v:mID="25" v:groupContext="shape" transform="translate(0.375,-764.375)">
			<title>Sheet.25</title>
			<desc>TDO</desc>
			<v:textBlock v:margins="rect(4,4,4,4)"/>
			<v:textRect cx="31.2812" cy="849.975" width="62.57" height="20"/>
			<rect x="0" y="839.975" width="62.5625" height="20" class="st7"/>
			<text x="4.81" y="858.97" class="st4" v:langID="1033"><v:paragraph v:horizAlign="1"/><v:tabList/>TDO</text>		</g>
		<g id="shape26-88" v:mID="26" v:groupContext="shape" transform="translate(1034.94,-157.875)">
			<title>Sheet.26</title>
			<desc>Encr</desc>
			<v:textBlock v:margins="rect(4,4,4,4)"/>
			<v:textRect cx="36" cy="837.475" width="72" height="45"/>
			<rect x="0" y="814.975" width="72" height="45" class="st3"/>
			<text x="9.22" y="846.47" class="st4" v:langID="1033"><v:paragraph v:horizAlign="1"/><v:tabList/>Encr</text>		</g>
		<g id="shape27-91" v:mID="27" v:groupContext="shape" transform="translate(170.938,-157.875)">
			<title>Sheet.27</title>
			<desc>Decr</desc>
			<v:textBlock v:margins="rect(4,4,4,4)"/>
			<v:textRect cx="36" cy="837.475" width="72" height="45"/>
			<rect x="0" y="814.975" width="72" height="45" class="st3"/>
			<text x="7.74" y="846.47" class="st4" v:langID="1033"><v:paragraph v:horizAlign="1"/><v:tabList/>Decr</text>		</g>
		<g id="shape87-94" v:mID="87" v:groupContext="shape" transform="translate(414.938,-728.375)">
			<title>Sheet.87</title>
			<desc>CLTAP IP</desc>
			<v:textBlock v:margins="rect(4,4,4,4)"/>
			<v:textRect cx="76" cy="849.975" width="152" height="20"/>
			<rect x="0" y="839.975" width="152" height="20" class="st7"/>
			<text x="33.63" y="857.18" class="st5" v:langID="1033"><v:paragraph v:horizAlign="1"/><v:tabList/>CLTAP IP</text>		</g>
		<g id="shape293-97" v:mID="293" v:groupContext="shape" transform="translate(710.938,-576.375)">
			<title>Sheet.293</title>
			<path d="M0 859.97 L21.87 859.97" class="st11"/>
		</g>
		<g id="shape294-102" v:mID="294" v:groupContext="shape" transform="translate(872.938,-576.375)">
			<title>Sheet.294</title>
			<path d="M0 859.97 L18 859.97 L18 823.97 L54 823.97" class="st10"/>
		</g>
		<g id="shape296-105" v:mID="296" v:groupContext="shape" transform="translate(548.938,-522.375)">
			<title>Sheet.296</title>
			<path d="M0 859.97 L396 859.97 L396 777.85" class="st13"/>
		</g>
		<g id="shape314-108" v:mID="314" v:groupContext="shape" transform="translate(881.938,-162.375)">
			<title>Sheet.314</title>
			<path d="M0 823.97 L0 859.97 L18 850.97 L18 832.97 L0 823.97 Z" class="st3"/>
		</g>
		<g id="shape316-110" v:mID="316" v:groupContext="shape" transform="translate(548.938,-666.375)">
			<title>Sheet.316</title>
			<path d="M0 859.97 L183.87 859.97" class="st14"/>
		</g>
		<g id="shape317-116" v:mID="317" v:groupContext="shape" transform="translate(692.938,-594.375)">
			<title>Sheet.317</title>
			<path d="M0 787.97 L0 859.97 L39.87 859.97" class="st14"/>
		</g>
		<g id="shape318-121" v:mID="318" v:groupContext="shape" transform="translate(548.938,-198.375)">
			<title>Sheet.318</title>
			<path d="M0 805.97 L144 805.97 L144 859.97 L183.87 859.97" class="st14"/>
		</g>
		<g id="shape331-126" v:mID="331" v:groupContext="shape" transform="translate(296.938,-126.375)">
			<title>Sheet.331</title>
			<path d="M0 805.97 L0 859.97 L111.87 859.97" class="st11"/>
		</g>
		<g id="shape332-131" v:mID="332" v:groupContext="shape" transform="translate(548.938,-126.375)">
			<title>Sheet.332</title>
			<path d="M0 859.97 L342 859.97 L342 819.47" class="st13"/>
		</g>
		<g id="shape333-134" v:mID="333" v:groupContext="shape" transform="translate(314.938,-252.375)">
			<title>Sheet.333</title>
			<path d="M0 463.97 L0 859.97 L93.87 859.97" class="st11"/>
		</g>
		<g id="shape348-139" v:mID="348" v:groupContext="shape" transform="translate(573.938,-664.375)">
			<title>Sheet.348</title>
			<desc>CSU</desc>
			<v:textBlock v:margins="rect(4,4,4,4)"/>
			<v:textRect cx="29" cy="849.975" width="58.01" height="20"/>
			<rect x="0" y="839.975" width="58" height="20" class="st7"/>
			<text x="14.29" y="855.38" class="st16" v:langID="1033"><v:paragraph v:horizAlign="1"/><v:tabList/>CSU</text>		</g>
		<g id="shape349-142" v:mID="349" v:groupContext="shape" transform="translate(573.938,-250.375)">
			<title>Sheet.349</title>
			<desc>CSU</desc>
			<v:textBlock v:margins="rect(4,4,4,4)"/>
			<v:textRect cx="29" cy="849.975" width="58.01" height="20"/>
			<rect x="0" y="839.975" width="58" height="20" class="st7"/>
			<text x="14.29" y="855.38" class="st16" v:langID="1033"><v:paragraph v:horizAlign="1"/><v:tabList/>CSU</text>		</g>
		<g id="shape434-145" v:mID="434" v:groupContext="shape" transform="translate(710.938,-126.375)">
			<title>Sheet.434</title>
			<path d="M0 859.97 L0 823.97 L21.87 823.97" class="st17"/>
		</g>
		<g id="shape435-151" v:mID="435" v:groupContext="shape" transform="translate(571.938,-125.375)">
			<title>Sheet.435</title>
			<desc>Select</desc>
			<v:textBlock v:margins="rect(4,4,4,4)"/>
			<v:textRect cx="29" cy="849.975" width="58.01" height="20"/>
			<rect x="0" y="839.975" width="58" height="20" class="st7"/>
			<text x="7.02" y="855.38" class="st19" v:langID="1033"><v:paragraph v:horizAlign="1"/><v:tabList/>Select</text>		</g>
		<g id="shape445-154" v:mID="445" v:groupContext="shape" transform="translate(719.937,-522.375)">
			<title>Sheet.445</title>
			<path d="M0 859.97 L0 751.97 L12.87 751.97" class="st17"/>
		</g>
		<g id="shape446-159" v:mID="446" v:groupContext="shape" transform="translate(719.937,-558.375)">
			<title>Sheet.446</title>
			<path d="M0 859.97 L12.87 859.97" class="st17"/>
		</g>
		<g id="shape447-164" v:mID="447" v:groupContext="shape" transform="translate(573.938,-521.375)">
			<title>Sheet.447</title>
			<desc>Select</desc>
			<v:textBlock v:margins="rect(4,4,4,4)"/>
			<v:textRect cx="29" cy="849.975" width="58.01" height="20"/>
			<rect x="0" y="839.975" width="58" height="20" class="st7"/>
			<text x="7.02" y="855.38" class="st19" v:langID="1033"><v:paragraph v:horizAlign="1"/><v:tabList/>Select</text>		</g>
		<g id="shape469-167" v:mID="469" v:groupContext="shape" transform="translate(1016.94,-603.375)">
			<title>Sheet.469</title>
			<path d="M0 823.97 L0 859.97 L18 850.97 L18 832.97 L0 823.97 Z" class="st3"/>
		</g>
		<g id="shape470-169" v:mID="470" v:groupContext="shape" transform="translate(962.938,-630.375)">
			<title>Sheet.470</title>
			<path d="M0 859.97 L54 859.97" class="st10"/>
		</g>
		<g id="shape486-172" v:mID="486" v:groupContext="shape" transform="translate(401.138,-290.975)">
			<title>Sheet.486</title>
			<desc>Secondary TAP</desc>
			<v:textBlock v:margins="rect(4,4,4,4)"/>
			<v:textRect cx="92" cy="849.975" width="184" height="20"/>
			<rect x="0" y="839.975" width="184" height="20" class="st7"/>
			<text x="19.44" y="857.18" class="st5" v:langID="1033"><v:paragraph v:horizAlign="1"/><v:tabList/>Secondary TAP</text>		</g>
	</g>
</svg>
