<?xml version="1.0" encoding="UTF-8" standalone="no"?>
<!DOCTYPE svg PUBLIC "-//W3C//DTD SVG 1.1//EN" "http://www.w3.org/Graphics/SVG/1.1/DTD/svg11.dtd">
<!-- Generated by Microsoft Visio, SVG Export repeaters.vsdx_negedgerep_7bcba.svg Page-1 -->
<svg xmlns="http://www.w3.org/2000/svg" xmlns:xlink="http://www.w3.org/1999/xlink" xmlns:ev="http://www.w3.org/2001/xml-events"
		xmlns:v="http://schemas.microsoft.com/visio/2003/SVGExtensions/" width="47.5104in" height="32.2611in"
		viewBox="0 0 3420.75 2322.8" xml:space="preserve" color-interpolation-filters="sRGB" class="st15">
	<v:documentProperties v:langID="1033" v:viewMarkup="false">
		<v:userDefs>
			<v:ud v:nameU="msvConvertTheme"/>
		</v:userDefs>
	</v:documentProperties>

	<style type="text/css">
	<![CDATA[
		.st1 {stroke:#000000;stroke-linecap:round;stroke-linejoin:round;stroke-width:3}
		.st2 {fill:none;stroke:none;stroke-linecap:round;stroke-linejoin:round;stroke-width:0.75}
		.st3 {fill:#000000;font-family:Calibri;font-size:4.99999em}
		.st4 {fill:#000000;font-family:Calibri;font-size:4.00001em}
		.st5 {marker-end:url(#mrkr13-15);stroke:#000000;stroke-linecap:round;stroke-linejoin:round;stroke-width:0.75}
		.st6 {fill:#000000;fill-opacity:1;stroke:#000000;stroke-opacity:1;stroke-width:0.15923566878981}
		.st7 {stroke:#a5a5a5;stroke-linecap:round;stroke-linejoin:round;stroke-width:3}
		.st8 {fill:#ffffff;stroke:#000000;stroke-linecap:round;stroke-linejoin:round;stroke-width:4.5}
		.st9 {stroke:#000000;stroke-linecap:round;stroke-linejoin:round;stroke-width:4.5}
		.st10 {marker-end:url(#mrkr13-111);stroke:#000000;stroke-linecap:round;stroke-linejoin:round;stroke-width:4.5}
		.st11 {fill:#000000;fill-opacity:1;stroke:#000000;stroke-opacity:1;stroke-width:0.33333333333333}
		.st12 {fill:#000000;font-family:Calibri;font-size:3em}
		.st13 {font-size:1em}
		.st14 {fill:none;stroke:#5880b3;stroke-linecap:round;stroke-linejoin:round;stroke-width:3}
		.st15 {fill:none;fill-rule:evenodd;font-size:12px;overflow:visible;stroke-linecap:square;stroke-miterlimit:3}
	]]>
	</style>

	<defs id="Markers">
		<g id="lend13">
			<path d="M 3 1 L 0 0 L 3 -1 L 3 1 " style="stroke:none"/>
		</g>
		<marker id="mrkr13-15" class="st6" v:arrowType="13" v:arrowSize="4" v:setback="18.84" refX="-18.84" orient="auto"
				markerUnits="strokeWidth" overflow="visible">
			<use xlink:href="#lend13" transform="scale(-6.28,-6.28) "/>
		</marker>
		<marker id="mrkr13-111" class="st11" v:arrowType="13" v:arrowSize="5" v:setback="9" refX="-9" orient="auto"
				markerUnits="strokeWidth" overflow="visible">
			<use xlink:href="#lend13" transform="scale(-3,-3) "/>
		</marker>
	</defs>
	<g v:mID="0" v:index="1" v:groupContext="foregroundPage">
		<title>Page-1</title>
		<v:pageProperties v:drawingScale="1" v:pageScale="1" v:drawingUnits="19" v:shadowOffsetX="9" v:shadowOffsetY="-9"/>
		<g id="shape1-1" v:mID="1" v:groupContext="shape" transform="translate(630.375,-2186)">
			<title>Sheet.1</title>
			<path d="M0 2322.8 L432 2322.8 L432 2250.8 L1080 2250.8 L1080 2322.8 L1728 2322.8 L1728 2250.8 L2124 2250.8"
					class="st1"/>
		</g>
		<g id="shape2-4" v:mID="2" v:groupContext="shape" transform="translate(442.375,-2204)">
			<title>Sheet.2</title>
			<desc>DR/IR</desc>
			<v:textBlock v:margins="rect(4,4,4,4)"/>
			<v:textRect cx="76" cy="2312.8" width="152" height="20"/>
			<rect x="0" y="2302.8" width="152" height="20" class="st2"/>
			<text x="7.64" y="2330.8" class="st3" v:langID="1033"><v:paragraph v:horizAlign="2"/><v:tabList/>DR/IR</text>		</g>
		<g id="shape3-7" v:mID="3" v:groupContext="shape" transform="translate(1288.37,-2284)">
			<title>Sheet.3</title>
			<desc>DR</desc>
			<v:textBlock v:margins="rect(4,4,4,4)"/>
			<v:textRect cx="76" cy="2312.8" width="152" height="20"/>
			<rect x="0" y="2302.8" width="152" height="20" class="st2"/>
			<text x="48.2" y="2327.2" class="st4" v:langID="1033"><v:paragraph v:horizAlign="1"/><v:tabList/>DR</text>		</g>
		<g id="shape4-10" v:mID="4" v:groupContext="shape" transform="translate(1314.37,2351.6) rotate(180)">
			<title>Sheet.4</title>
			<path d="M0 2322.8 L237.87 2322.8" class="st5"/>
		</g>
		<g id="shape5-16" v:mID="5" v:groupContext="shape" transform="translate(1404.37,-2294)">
			<title>Sheet.5</title>
			<path d="M0 2322.8 L291.87 2322.8" class="st5"/>
		</g>
		<g id="shape6-21" v:mID="6" v:groupContext="shape" transform="translate(1936.37,-2284)">
			<title>Sheet.6</title>
			<desc>IR</desc>
			<v:textBlock v:margins="rect(4,4,4,4)"/>
			<v:textRect cx="76" cy="2312.8" width="152" height="20"/>
			<rect x="0" y="2302.8" width="152" height="20" class="st2"/>
			<text x="56.92" y="2327.2" class="st4" v:langID="1033"><v:paragraph v:horizAlign="1"/><v:tabList/>IR</text>		</g>
		<g id="shape7-24" v:mID="7" v:groupContext="shape" transform="translate(1962.37,2351.6) rotate(180)">
			<title>Sheet.7</title>
			<path d="M0 2322.8 L237.87 2322.8" class="st5"/>
		</g>
		<g id="shape8-29" v:mID="8" v:groupContext="shape" transform="translate(2052.37,-2294)">
			<title>Sheet.8</title>
			<path d="M0 2322.8 L291.87 2322.8" class="st5"/>
		</g>
		<g id="shape9-34" v:mID="9" v:groupContext="shape" transform="translate(630.375,-2078)">
			<title>Sheet.9</title>
			<path d="M0 2322.8 L720 2322.8 L720 2250.8 L756 2250.8 L756 2322.8 L2124 2322.8" class="st1"/>
		</g>
		<g id="shape10-37" v:mID="10" v:groupContext="shape" transform="translate(342.375,-2096)">
			<title>Sheet.10</title>
			<desc>Pause_dr</desc>
			<v:textBlock v:margins="rect(4,4,4,4)"/>
			<v:textRect cx="126" cy="2312.8" width="252" height="20"/>
			<rect x="0" y="2302.8" width="252" height="20" class="st2"/>
			<text x="21.1" y="2330.8" class="st3" v:langID="1033"><v:paragraph v:horizAlign="2"/><v:tabList/>Pause_dr</text>		</g>
		<g id="shape11-40" v:mID="11" v:groupContext="shape" transform="translate(630.375,-1862)">
			<title>Sheet.11</title>
			<path d="M0 2322.8 L468 2322.8 L468 2250.8 L720 2250.8 L720 2322.8 L756 2322.8 L756 2250.8 L1044 2250.8 L1044 2322.8
						 L2124 2322.8" class="st1"/>
		</g>
		<g id="shape12-43" v:mID="12" v:groupContext="shape" transform="translate(342.375,-1878)">
			<title>Sheet.12</title>
			<desc>Shift_dr</desc>
			<v:textBlock v:margins="rect(4,4,4,4)"/>
			<v:textRect cx="126" cy="2312.8" width="252" height="20"/>
			<rect x="0" y="2302.8" width="252" height="20" class="st2"/>
			<text x="54.41" y="2330.8" class="st3" v:langID="1033"><v:paragraph v:horizAlign="2"/><v:tabList/>Shift_dr</text>		</g>
		<g id="shape13-46" v:mID="13" v:groupContext="shape" transform="translate(630.375,-1970)">
			<title>Sheet.13</title>
			<path d="M0 2322.8 L432 2322.8 L432 2250.8 L468 2250.8 L468 2322.8 L1728 2322.8 L1728 2250.8 L1764 2250.8 L1764 2322.8
						 L2124 2322.8" class="st1"/>
		</g>
		<g id="shape14-49" v:mID="14" v:groupContext="shape" transform="translate(630.375,-1754)">
			<title>Sheet.14</title>
			<path d="M0 2322.8 L1044 2322.8 L1044 2250.8 L1080 2250.8 L1080 2322.8 L2124 2322.8" class="st1"/>
		</g>
		<g id="shape15-52" v:mID="15" v:groupContext="shape" transform="translate(270.375,-1988)">
			<title>Sheet.15</title>
			<desc>Capture_dr</desc>
			<v:textBlock v:margins="rect(4,4,4,4)"/>
			<v:textRect cx="162" cy="2312.8" width="324" height="20"/>
			<rect x="0" y="2302.8" width="324" height="20" class="st2"/>
			<text x="43.03" y="2330.8" class="st3" v:langID="1033"><v:paragraph v:horizAlign="2"/><v:tabList/>Capture_dr</text>		</g>
		<g id="shape16-55" v:mID="16" v:groupContext="shape" transform="translate(270.375,-1772)">
			<title>Sheet.16</title>
			<desc>Update_dr</desc>
			<v:textBlock v:margins="rect(4,4,4,4)"/>
			<v:textRect cx="162" cy="2312.8" width="324" height="20"/>
			<rect x="0" y="2302.8" width="324" height="20" class="st2"/>
			<text x="57.44" y="2330.8" class="st3" v:langID="1033"><v:paragraph v:horizAlign="2"/><v:tabList/>Update_dr</text>		</g>
		<g id="shape17-58" v:mID="17" v:groupContext="shape" transform="translate(630.375,-1646)">
			<title>Sheet.17</title>
			<path d="M0 2250.8 L468 2250.8 L468 2304.8 L1080 2304.8 L1080 2250.8 L1764 2250.8 L1764 2322.8 L2124 2322.8"
					class="st1"/>
		</g>
		<g id="shape18-61" v:mID="18" v:groupContext="shape" transform="translate(630.375,-1538)">
			<title>Sheet.18</title>
			<path d="M0 2250.8 L720 2250.8 L720 2322.8 L756 2322.8 L756 2250.8 L1764 2250.8 L1764 2322.8 L2124 2322.8" class="st1"/>
		</g>
		<g id="shape19-64" v:mID="19" v:groupContext="shape" transform="translate(2584.37,-2284)">
			<title>Sheet.19</title>
			<desc>DR</desc>
			<v:textBlock v:margins="rect(4,4,4,4)"/>
			<v:textRect cx="76" cy="2312.8" width="152" height="20"/>
			<rect x="0" y="2302.8" width="152" height="20" class="st2"/>
			<text x="48.2" y="2327.2" class="st4" v:langID="1033"><v:paragraph v:horizAlign="1"/><v:tabList/>DR</text>		</g>
		<g id="shape20-67" v:mID="20" v:groupContext="shape" transform="translate(2610.37,2351.6) rotate(180)">
			<title>Sheet.20</title>
			<path d="M0 2322.8 L237.87 2322.8" class="st5"/>
		</g>
		<g id="shape21-72" v:mID="21" v:groupContext="shape" transform="translate(2700.38,-2294)">
			<title>Sheet.21</title>
			<path d="M0 2322.8 L57.87 2322.8" class="st5"/>
		</g>
		<g id="shape22-77" v:mID="22" v:groupContext="shape" transform="translate(0.375,-1680)">
			<title>Sheet.22</title>
			<desc>tdi_tdo_force_ungate</desc>
			<v:textBlock v:margins="rect(4,4,4,4)"/>
			<v:textRect cx="297" cy="2312.8" width="594" height="20"/>
			<rect x="0" y="2302.8" width="594" height="20" class="st2"/>
			<text x="55.63" y="2330.8" class="st3" v:langID="1033"><v:paragraph v:horizAlign="2"/><v:tabList/>tdi_tdo_force_ungate</text>		</g>
		<g id="shape23-80" v:mID="23" v:groupContext="shape" transform="translate(54.375,-1564)">
			<title>Sheet.23</title>
			<desc>tdi_tdo_enable</desc>
			<v:textBlock v:margins="rect(4,4,4,4)"/>
			<v:textRect cx="270" cy="2312.8" width="540" height="20"/>
			<rect x="0" y="2302.8" width="540" height="20" class="st2"/>
			<text x="162.32" y="2330.8" class="st3" v:langID="1033"><v:paragraph v:horizAlign="2"/><v:tabList/>tdi_tdo_enable</text>		</g>
		<g id="shape24-83" v:mID="24" v:groupContext="shape" transform="translate(4033.18,568.8) rotate(90)">
			<title>Sheet.24</title>
			<path d="M0 2322.8 L36 2322.8" class="st7"/>
		</g>
		<g id="shape25-86" v:mID="25" v:groupContext="shape" transform="translate(4717.18,352.8) rotate(90)">
			<title>Sheet.25</title>
			<path d="M0 2322.8 L252 2322.8" class="st7"/>
		</g>
		<g id="shape26-89" v:mID="26" v:groupContext="shape" transform="translate(1494.38,-890)">
			<title>Sheet.26</title>
			<rect x="0" y="2106.8" width="216" height="216" class="st8"/>
		</g>
		<g id="shape27-91" v:mID="27" v:groupContext="shape" transform="translate(1350.37,3557.57) rotate(180)">
			<title>Sheet.27</title>
			<path d="M54.83 2322.77 L108 2322.77 L108 2214.77 L54.83 2214.77 A53.1944 54.0257 -180 1 0 54.83 2322.77 Z" class="st8"/>
		</g>
		<g id="shape28-93" v:mID="28" v:groupContext="shape" transform="translate(3349.18,1198.8) rotate(90)">
			<title>Sheet.28</title>
			<path d="M54 2214.8 A155.579 155.579 -180 0 0 0 2322.8 A114.75 114.75 0 0 1 108 2322.8 A155.581 155.581 -180 0 0 54 2214.8
						 Z" class="st8"/>
		</g>
		<g id="shape29-95" v:mID="29" v:groupContext="shape" transform="translate(1134.37,-1070)">
			<title>Sheet.29</title>
			<path d="M0 2322.8 L108 2322.8" class="st9"/>
		</g>
		<g id="shape30-98" v:mID="30" v:groupContext="shape" transform="translate(1215.37,-984.5)">
			<title>Sheet.30</title>
			<ellipse cx="13.5" cy="2309.3" rx="13.5" ry="13.5" class="st8"/>
		</g>
		<g id="shape31-100" v:mID="31" v:groupContext="shape" transform="translate(846.375,-962)">
			<title>Sheet.31</title>
			<path d="M369 2286.8 L324 2286.8 L324 2322.8 L0 2322.8" class="st9"/>
		</g>
		<g id="shape32-103" v:mID="32" v:groupContext="shape" transform="translate(846.375,-1043)">
			<title>Sheet.32</title>
			<path d="M0 2322.8 L189 2322.8" class="st9"/>
		</g>
		<g id="shape33-106" v:mID="33" v:groupContext="shape" transform="translate(1350.38,-1034)">
			<title>Sheet.33</title>
			<path d="M0 2322.8 L103.5 2322.8" class="st10"/>
		</g>
		<g id="shape34-112" v:mID="34" v:groupContext="shape" transform="translate(954.375,-1034)">
			<title>Sheet.34</title>
			<path d="M756 2322.8 L900 2322.8 L900 2106.8 L0 2106.8 L0 2259.8 L81 2259.8" class="st9"/>
		</g>
		<g id="shape35-115" v:mID="35" v:groupContext="shape" transform="translate(1566.37,-890)">
			<title>Sheet.35</title>
			<path d="M0 2322.8 L36 2286.8 L72 2322.8" class="st9"/>
		</g>
		<g id="shape36-118" v:mID="36" v:groupContext="shape" transform="translate(3006.37,-548)">
			<title>Sheet.36</title>
			<path d="M0 2322.8 L175.5 2322.8" class="st10"/>
		</g>
		<g id="shape37-123" v:mID="37" v:groupContext="shape" transform="translate(522.375,-1042)">
			<title>Sheet.37</title>
			<desc>Update_dr</desc>
			<v:textBlock v:margins="rect(4,4,4,4)"/>
			<v:textRect cx="162" cy="2312.8" width="324" height="20"/>
			<rect x="0" y="2302.8" width="324" height="20" class="st2"/>
			<text x="57.44" y="2330.8" class="st3" v:langID="1033"><v:paragraph v:horizAlign="2"/><v:tabList/>Update_dr</text>		</g>
		<g id="shape38-126" v:mID="38" v:groupContext="shape" transform="translate(522.375,-960)">
			<title>Sheet.38</title>
			<desc>Capture_dr</desc>
			<v:textBlock v:margins="rect(4,4,4,4)"/>
			<v:textRect cx="162" cy="2312.8" width="324" height="20"/>
			<rect x="0" y="2302.8" width="324" height="20" class="st2"/>
			<text x="43.03" y="2330.8" class="st3" v:langID="1033"><v:paragraph v:horizAlign="2"/><v:tabList/>Capture_dr</text>		</g>
		<g id="shape39-129" v:mID="39" v:groupContext="shape" transform="translate(1377.38,-1266)">
			<title>Sheet.39</title>
			<desc>tdi_tdo_force_ungate</desc>
			<v:textBlock v:margins="rect(4,4,4,4)"/>
			<v:textRect cx="297" cy="2312.8" width="594" height="20"/>
			<rect x="0" y="2302.8" width="594" height="20" class="st2"/>
			<text x="136.69" y="2323.6" class="st12" v:langID="1033"><v:paragraph v:horizAlign="1"/><v:tabList/>tdi_tdo_force_ungate</text>		</g>
		<g id="shape40-132" v:mID="40" v:groupContext="shape" transform="translate(4249.18,1540.8) rotate(90)">
			<title>Sheet.40</title>
			<path d="M54 2214.8 A155.579 155.579 -180 0 0 0 2322.8 A114.75 114.75 0 0 1 108 2322.8 A155.581 155.581 -180 0 0 54 2214.8
						 Z" class="st8"/>
		</g>
		<g id="shape41-134" v:mID="41" v:groupContext="shape" transform="translate(1854.37,-764)">
			<title>Sheet.41</title>
			<path d="M0 2052.8 L0 2322.8 L76.5 2322.8" class="st9"/>
		</g>
		<g id="shape42-137" v:mID="42" v:groupContext="shape" transform="translate(1170.38,-728)">
			<title>Sheet.42</title>
			<path d="M0 2088.8 L0 2322.8 L765 2322.8" class="st9"/>
		</g>
		<g id="shape43-140" v:mID="43" v:groupContext="shape" transform="translate(846.375,-692)">
			<title>Sheet.43</title>
			<path d="M0 2322.8 L1084.5 2322.8" class="st9"/>
		</g>
		<g id="shape44-143" v:mID="44" v:groupContext="shape" transform="translate(522.375,-690)">
			<title>Sheet.44</title>
			<desc>Shift_dr</desc>
			<v:textBlock v:margins="rect(4,4,4,4)"/>
			<v:textRect cx="162" cy="2312.8" width="324" height="20"/>
			<rect x="0" y="2302.8" width="324" height="20" class="st2"/>
			<text x="126.41" y="2330.8" class="st3" v:langID="1033"><v:paragraph v:horizAlign="2"/><v:tabList/>Shift_dr</text>		</g>
		<g id="shape45-146" v:mID="45" v:groupContext="shape" transform="translate(2142.38,-350)">
			<title>Sheet.45</title>
			<rect x="0" y="2106.8" width="216" height="216" class="st8"/>
		</g>
		<g id="shape46-148" v:mID="46" v:groupContext="shape" transform="translate(2502.37,-350)">
			<title>Sheet.46</title>
			<rect x="0" y="2106.8" width="216" height="216" class="st8"/>
		</g>
		<g id="shape47-150" v:mID="47" v:groupContext="shape" transform="translate(2214.38,-350)">
			<title>Sheet.47</title>
			<path d="M0 2322.8 L36 2286.8 L72 2322.8" class="st9"/>
		</g>
		<g id="shape48-153" v:mID="48" v:groupContext="shape" transform="translate(2574.37,-350)">
			<title>Sheet.48</title>
			<path d="M0 2322.8 L36 2286.8 L72 2322.8" class="st9"/>
		</g>
		<g id="shape50-156" v:mID="50" v:groupContext="shape" transform="translate(846.375,-494) rotate(1.47039E-06)">
			<title>Sheet.50</title>
			<path d="M0 2322.8 L1255.5 2322.8" class="st10"/>
		</g>
		<g id="shape51-161" v:mID="51" v:groupContext="shape" transform="translate(2358.37,-494)">
			<title>Sheet.51</title>
			<path d="M0 2322.8 L103.5 2322.8" class="st10"/>
		</g>
		<g id="shape52-166" v:mID="52" v:groupContext="shape" transform="translate(846.375,-242)">
			<title>Sheet.52</title>
			<path d="M0 2322.8 L1404 2322.8 L1404 2214.8" class="st9"/>
		</g>
		<g id="shape53-169" v:mID="53" v:groupContext="shape" transform="translate(2250.37,-242)">
			<title>Sheet.53</title>
			<path d="M0 2322.8 L360 2322.8 L360 2214.8" class="st9"/>
		</g>
		<g id="shape54-172" v:mID="54" v:groupContext="shape" transform="translate(3925.18,1432.8) rotate(90)">
			<title>Sheet.54</title>
			<path d="M0 2322.8 L648 2322.8" class="st9"/>
		</g>
		<g id="shape55-175" v:mID="55" v:groupContext="shape" transform="translate(2034.38,-566)">
			<title>Sheet.55</title>
			<path d="M0 2160.8 L216 2160.8 L216 2322.8" class="st9"/>
		</g>
		<g id="shape56-178" v:mID="56" v:groupContext="shape" transform="translate(2214.38,-1322)">
			<title>Sheet.56</title>
			<desc>Meta</desc>
			<v:textBlock v:margins="rect(4,4,4,4)"/>
			<v:textRect cx="108" cy="2286.8" width="216" height="72.0001"/>
			<rect x="0" y="2250.8" width="216" height="72.0001" class="st8"/>
			<text x="69" y="2297.6" class="st12" v:langID="1033"><v:paragraph v:horizAlign="1"/><v:tabList/>Meta</text>		</g>
		<g id="shape57-181" v:mID="57" v:groupContext="shape" transform="translate(2214.37,-1034)">
			<title>Sheet.57</title>
			<desc>Retime latch</desc>
			<v:textBlock v:margins="rect(4,4,4,4)"/>
			<v:textRect cx="108" cy="2286.8" width="216" height="72.0001"/>
			<rect x="0" y="2250.8" width="216" height="72.0001" class="st8"/>
			<text x="15.86" y="2297.6" class="st12" v:langID="1033"><v:paragraph v:horizAlign="1"/><v:tabList/>Retime latch</text>		</g>
		<g id="shape58-184" v:mID="58" v:groupContext="shape" transform="translate(2448.38,-1068)">
			<title>Sheet.58</title>
			<desc>neg edge</desc>
			<v:textBlock v:margins="rect(4,4,4,4)"/>
			<v:textRect cx="90" cy="2312.8" width="180" height="20"/>
			<rect x="0" y="2302.8" width="180" height="20" class="st2"/>
			<text x="4" y="2323.6" class="st12" v:langID="1033"><v:paragraph/><v:tabList/>neg edge</text>		</g>
		<g id="shape59-187" v:mID="59" v:groupContext="shape" transform="translate(2250.38,-1410)">
			<title>Sheet.59</title>
			<desc>pos edge</desc>
			<v:textBlock v:margins="rect(4,4,4,4)"/>
			<v:textRect cx="90" cy="2312.8" width="180" height="20"/>
			<rect x="0" y="2302.8" width="180" height="20" class="st2"/>
			<text x="4" y="2323.6" class="st12" v:langID="1033"><v:paragraph/><v:tabList/>pos edge</text>		</g>
		<g id="shape60-190" v:mID="60" v:groupContext="shape" transform="translate(4645.18,1000.8) rotate(90)">
			<title>Sheet.60</title>
			<path d="M0 2322.8 L175.5 2322.8" class="st10"/>
		</g>
		<g id="shape61-195" v:mID="61" v:groupContext="shape" transform="translate(2322.38,-1268)">
			<title>Sheet.61</title>
			<path d="M0 2322.8 L211.5 2322.8" class="st10"/>
		</g>
		<g id="shape62-200" v:mID="62" v:groupContext="shape" transform="translate(2574.38,-1266)">
			<title>Sheet.62</title>
			<desc>powergood_sync</desc>
			<v:textBlock v:margins="rect(4,4,4,4)"/>
			<v:textRect cx="90" cy="2312.8" width="180" height="20"/>
			<rect x="0" y="2302.8" width="180" height="20" class="st2"/>
			<text x="4" y="2302" class="st12" v:langID="1033"><v:paragraph/><v:tabList/>powergood<tspan x="4" dy="1.2em"
						class="st13">_sync</tspan></text>		</g>
		<g id="shape63-204" v:mID="63" v:groupContext="shape" transform="translate(1602.37,-1070)">
			<title>Sheet.63</title>
			<path d="M0 2286.8 L0 2214.8 L468 2214.8 L468 2322.8 L612 2322.8" class="st9"/>
		</g>
		<g id="shape64-207" v:mID="64" v:groupContext="shape" transform="translate(1485.37,-1078)">
			<title>Sheet.64</title>
			<desc>preset_b</desc>
			<v:textBlock v:margins="rect(4,4,4,4)"/>
			<v:textRect cx="112.5" cy="2312.8" width="225.01" height="20"/>
			<rect x="0" y="2302.8" width="225" height="20" class="st2"/>
			<text x="47.36" y="2323.6" class="st12" v:langID="1033"><v:paragraph v:horizAlign="1"/><v:tabList/>preset_b</text>		</g>
		<g id="shape65-210" v:mID="65" v:groupContext="shape" transform="translate(2187.37,-538)">
			<title>Sheet.65</title>
			<desc>En</desc>
			<v:textBlock v:margins="rect(4,4,4,4)"/>
			<v:textRect cx="63" cy="2312.8" width="126.01" height="20"/>
			<rect x="0" y="2302.8" width="126" height="20" class="st2"/>
			<text x="44.75" y="2323.6" class="st12" v:langID="1033"><v:paragraph v:horizAlign="1"/><v:tabList/>En</text>		</g>
		<g id="shape66-213" v:mID="66" v:groupContext="shape" transform="translate(504.375,-492)">
			<title>Sheet.66</title>
			<desc>repeater_in</desc>
			<v:textBlock v:margins="rect(4,4,4,4)"/>
			<v:textRect cx="162" cy="2312.8" width="324" height="20"/>
			<rect x="0" y="2302.8" width="324" height="20" class="st2"/>
			<text x="33.07" y="2330.8" class="st3" v:langID="1033"><v:paragraph v:horizAlign="2"/><v:tabList/>repeater_in</text>		</g>
		<g id="shape67-216" v:mID="67" v:groupContext="shape" transform="translate(684.375,-232)">
			<title>Sheet.67</title>
			<desc>TCK</desc>
			<v:textBlock v:margins="rect(4,4,4,4)"/>
			<v:textRect cx="81" cy="2312.8" width="162" height="20"/>
			<rect x="0" y="2302.8" width="162" height="20" class="st2"/>
			<text x="65.6" y="2330.8" class="st3" v:langID="1033"><v:paragraph v:horizAlign="2"/><v:tabList/>TCK</text>		</g>
		<g id="shape68-219" v:mID="68" v:groupContext="shape" transform="translate(3060.37,-582)">
			<title>Sheet.68</title>
			<desc>repeater_out</desc>
			<v:textBlock v:margins="rect(4,4,4,4)"/>
			<v:textRect cx="180" cy="2312.8" width="360" height="20"/>
			<rect x="0" y="2302.8" width="360" height="20" class="st2"/>
			<text x="31.1" y="2330.8" class="st3" v:langID="1033"><v:paragraph v:horizAlign="2"/><v:tabList/>repeater_out</text>		</g>
		<g id="shape69-222" v:mID="69" v:groupContext="shape" transform="translate(1863.38,-744)">
			<title>Sheet.69</title>
			<desc>tdi_tdo_enable</desc>
			<v:textBlock v:margins="rect(4,4,4,4)"/>
			<v:textRect cx="297" cy="2312.8" width="594" height="20"/>
			<rect x="0" y="2302.8" width="594" height="20" class="st2"/>
			<text x="184.9" y="2323.6" class="st12" v:langID="1033"><v:paragraph v:horizAlign="1"/><v:tabList/>tdi_tdo_enable</text>		</g>
		<g id="shape70-225" v:mID="70" v:groupContext="shape" transform="translate(918.375,-134)">
			<title>Sheet.70</title>
			<path d="M0 1098.8 L1224 1098.8 L1224 1242.8 L2160 1242.8 L2160 2322.8 L0 2322.8 L0 1098.8 Z" class="st14"/>
		</g>
		<g id="shape71-227" v:mID="71" v:groupContext="shape" transform="translate(2574.38,3287.6) rotate(180)">
			<title>Sheet.71</title>
			<path d="M0 2322.8 L103.5 2322.8" class="st10"/>
		</g>
		<g id="shape72-232" v:mID="72" v:groupContext="shape" transform="translate(2583.38,-1347)">
			<title>Sheet.72</title>
			<desc>powergood</desc>
			<v:textBlock v:margins="rect(4,4,4,4)"/>
			<v:textRect cx="90" cy="2312.8" width="180" height="20"/>
			<rect x="0" y="2302.8" width="180" height="20" class="st2"/>
			<text x="4" y="2323.6" class="st12" v:langID="1033"><v:paragraph/><v:tabList/>powergood</text>		</g>
		<g id="shape73-235" v:mID="73" v:groupContext="shape" transform="translate(909.375,-1374)">
			<title>Sheet.73</title>
			<desc>Neg-Edge repeater</desc>
			<v:textBlock v:margins="rect(4,4,4,4)"/>
			<v:textRect cx="274.5" cy="2312.8" width="549.01" height="20"/>
			<rect x="0" y="2302.8" width="549" height="20" class="st2"/>
			<text x="44.78" y="2330.8" class="st3" v:langID="1033"><v:paragraph v:horizAlign="1"/><v:tabList/>Neg-Edge repeater</text>		</g>
		<g id="shape74-238" v:mID="74" v:groupContext="shape" transform="translate(2862.38,-440)">
			<title>Sheet.74</title>
			<path d="M0 2322.8 L144 2268.8 L144 2160.8 L0 2106.8 L0 2322.8 Z" class="st8"/>
		</g>
		<g id="shape75-240" v:mID="75" v:groupContext="shape" transform="translate(2718.38,-494)">
			<title>Sheet.75</title>
			<path d="M0 2322.8 L144 2322.8" class="st9"/>
		</g>
		<g id="shape76-243" v:mID="76" v:groupContext="shape" transform="translate(2034.37,-494)">
			<title>Sheet.76</title>
			<path d="M0 2322.8 L0 2214.8 L828 2214.8" class="st9"/>
		</g>
		<g id="shape77-246" v:mID="77" v:groupContext="shape" transform="translate(629.575,2260.8) rotate(-90)">
			<title>Sheet.77</title>
			<path d="M0 2322.8 L414 2322.8" class="st9"/>
		</g>
		<g id="shape78-249" v:mID="78" v:groupContext="shape" transform="translate(2772.38,-26.0003)">
			<title>Sheet.78</title>
			<desc>Enable</desc>
			<v:textBlock v:margins="rect(4,4,4,4)"/>
			<v:textRect cx="162" cy="2312.8" width="324" height="20"/>
			<rect x="0" y="2302.8" width="324" height="20" class="st2"/>
			<text x="79.65" y="2330.8" class="st3" v:langID="1033"><v:paragraph v:horizAlign="1"/><v:tabList/>Enable</text>		</g>
		<g id="shape79-252" v:mID="79" v:groupContext="shape" transform="translate(2853.37,-484)">
			<title>Sheet.79</title>
			<desc>1</desc>
			<v:textBlock v:margins="rect(4,4,4,4)"/>
			<v:textRect cx="40.5" cy="2312.8" width="81.01" height="20"/>
			<rect x="0" y="2302.8" width="81" height="20" class="st2"/>
			<text x="25.29" y="2330.8" class="st3" v:langID="1033"><v:paragraph v:horizAlign="1"/><v:tabList/>1</text>		</g>
		<g id="shape49-255" v:mID="49" v:groupContext="shape" transform="translate(2592.37,-314)">
			<title>Sheet.49</title>
			<ellipse cx="18" cy="2304.8" rx="18" ry="18" class="st8"/>
		</g>
	</g>
</svg>
