<?xml version="1.0" encoding="UTF-8" standalone="no"?>
<!DOCTYPE svg PUBLIC "-//W3C//DTD SVG 1.1//EN" "http://www.w3.org/Graphics/SVG/1.1/DTD/svg11.dtd">
<!-- Generated by Microsoft Visio, SVG Export rTDR.vsdx_RW_V_1c4c4.svg Page-1 -->
<svg xmlns="http://www.w3.org/2000/svg" xmlns:xlink="http://www.w3.org/1999/xlink" xmlns:ev="http://www.w3.org/2001/xml-events"
		xmlns:v="http://schemas.microsoft.com/visio/2003/SVGExtensions/" width="8.11042in" height="3.39167in"
		viewBox="0 0 583.95 244.2" xml:space="preserve" color-interpolation-filters="sRGB" class="st14">
	<v:documentProperties v:langID="1033" v:viewMarkup="false">
		<v:userDefs>
			<v:ud v:nameU="msvConvertTheme"/>
		</v:userDefs>
	</v:documentProperties>

	<style type="text/css">
	<![CDATA[
		.st1 {fill:none;stroke:#008000;stroke-linecap:round;stroke-linejoin:round;stroke-width:1.2}
		.st2 {fill:none;stroke:none;stroke-linecap:round;stroke-linejoin:round;stroke-width:1.2}
		.st3 {fill:#000000;font-family:Calibri;font-size:1.00001em}
		.st4 {marker-end:url(#mrkr13-15);stroke:#000000;stroke-linecap:round;stroke-linejoin:round;stroke-width:1.2}
		.st5 {fill:#000000;fill-opacity:1;stroke:#000000;stroke-opacity:1;stroke-width:0.32258064516129}
		.st6 {stroke:#008000;stroke-linecap:round;stroke-linejoin:round;stroke-width:1.2}
		.st7 {fill:#ffffff;stroke:none;stroke-linecap:round;stroke-linejoin:round;stroke-width:1.2}
		.st8 {fill:#008000;font-family:Calibri;font-size:1.00001em}
		.st9 {fill:#ffffff;stroke:#000000;stroke-linecap:round;stroke-linejoin:round;stroke-width:1}
		.st10 {stroke:#000000;stroke-linecap:round;stroke-linejoin:round;stroke-width:1}
		.st11 {fill:none;stroke:#0000ff;stroke-linecap:round;stroke-linejoin:round;stroke-width:1.2}
		.st12 {stroke:#0000ff;stroke-linecap:round;stroke-linejoin:round;stroke-width:1.2}
		.st13 {fill:#0000ff;font-family:Calibri;font-size:1.00001em}
		.st14 {fill:none;fill-rule:evenodd;font-size:12px;overflow:visible;stroke-linecap:square;stroke-miterlimit:3}
	]]>
	</style>

	<defs id="Markers">
		<g id="lend13">
			<path d="M 3 1 L 0 0 L 3 -1 L 3 1 " style="stroke:none"/>
		</g>
		<marker id="mrkr13-15" class="st5" v:arrowType="13" v:arrowSize="2" v:setback="9.3" refX="-9.3" orient="auto"
				markerUnits="strokeWidth" overflow="visible">
			<use xlink:href="#lend13" transform="scale(-3.1,-3.1) "/>
		</marker>
	</defs>
	<g v:mID="0" v:index="1" v:groupContext="foregroundPage">
		<title>Page-1</title>
		<v:pageProperties v:drawingScale="1" v:pageScale="1" v:drawingUnits="19" v:shadowOffsetX="9" v:shadowOffsetY="-9"/>
		<g id="group1-1" transform="translate(232.35,-72.5999)" v:mID="1" v:groupContext="group">
			<title>Sheet.1</title>
			<g id="shape2-2" v:mID="2" v:groupContext="shape">
				<title>Sheet.2</title>
				<rect x="0" y="203.7" width="271.125" height="40.5" class="st1"/>
			</g>
		</g>
		<g id="shape4-4" v:mID="4" v:groupContext="shape" transform="translate(0.6,-158.1)">
			<title>Sheet.4</title>
			<desc>TDI</desc>
			<v:textBlock v:margins="rect(4,4,4,4)"/>
			<v:textRect cx="38.25" cy="226.2" width="76.5" height="36"/>
			<rect x="0" y="208.2" width="76.5" height="36" class="st2"/>
			<text x="56.25" y="229.8" class="st3" v:langID="1033"><v:paragraph v:horizAlign="2"/><v:tabList/>TDI</text>		</g>
		<g id="shape5-7" v:mID="5" v:groupContext="shape" transform="translate(551.85,-151.35)">
			<title>Sheet.5</title>
			<desc>TDO</desc>
			<v:textBlock v:margins="rect(4,4,4,4)"/>
			<v:textRect cx="15.75" cy="226.2" width="31.5" height="36"/>
			<rect x="0" y="208.2" width="31.5" height="36" class="st2"/>
			<text x="4" y="229.8" class="st3" v:langID="1033"><v:paragraph/><v:tabList/>TDO</text>		</g>
		<g id="shape9-10" v:mID="9" v:groupContext="shape" transform="translate(182.85,-171.6)">
			<title>Sheet.9</title>
			<path d="M0 244.2 L38.34 244.2" class="st4"/>
		</g>
		<g id="shape10-16" v:mID="10" v:groupContext="shape" transform="translate(503.475,-169.35)">
			<title>Sheet.10</title>
			<path d="M0 244.2 L38.34 244.2" class="st4"/>
		</g>
		<g id="shape11-21" v:mID="11" v:groupContext="shape" transform="translate(268.35,-0.6)">
			<title>Sheet.11</title>
			<desc>Parallel-Update data</desc>
			<v:textBlock v:margins="rect(4,4,4,4)"/>
			<v:textRect cx="126" cy="226.2" width="252" height="36"/>
			<rect x="0" y="208.2" width="252" height="36" class="st2"/>
			<text x="75.82" y="229.8" class="st3" v:langID="1033"><v:paragraph v:horizAlign="1"/><v:tabList/>Parallel-Update data</text>		</g>
		<g id="shape12-24" v:mID="12" v:groupContext="shape" transform="translate(309.975,-225.6)">
			<title>Sheet.12</title>
			<desc>Parallel Capture data</desc>
			<v:textBlock v:margins="rect(4,4,4,4)"/>
			<v:textRect cx="84.375" cy="235.2" width="168.75" height="18"/>
			<rect x="0" y="226.2" width="168.75" height="18" class="st2"/>
			<text x="33.23" y="238.8" class="st3" v:langID="1033"><v:paragraph v:horizAlign="1"/><v:tabList/>Parallel Capture data</text>		</g>
		<g id="group24-27" transform="translate(314.475,-72.5999)" v:mID="24" v:groupContext="group">
			<title>Sheet.24</title>
			<g id="shape25-28" v:mID="25" v:groupContext="shape" transform="translate(353.887,203.7) rotate(90)">
				<title>Sheet.25</title>
				<path d="M0 244.2 L40.5 244.2" class="st6"/>
			</g>
			<g id="shape26-31" v:mID="26" v:groupContext="shape" transform="translate(298.2,203.7) rotate(90)">
				<title>Sheet.26</title>
				<path d="M0 244.2 L40.5 244.2" class="st6"/>
			</g>
			<g id="shape27-34" v:mID="27" v:groupContext="shape" transform="translate(271.2,203.7) rotate(90)">
				<title>Sheet.27</title>
				<path d="M0 244.2 L40.5 244.2" class="st6"/>
			</g>
			<g id="shape28-37" v:mID="28" v:groupContext="shape" transform="translate(325.2,203.7) rotate(90)">
				<title>Sheet.28</title>
				<path d="M0 244.2 L40.5 244.2" class="st6"/>
			</g>
			<g id="shape29-40" v:mID="29" v:groupContext="shape" transform="translate(379.2,203.7) rotate(90)">
				<title>Sheet.29</title>
				<path d="M0 244.2 L40.5 244.2" class="st6"/>
			</g>
			<g id="shape30-43" v:mID="30" v:groupContext="shape" transform="translate(244.2,203.7) rotate(90)">
				<title>Sheet.30</title>
				<path d="M0 244.2 L40.5 244.2" class="st6"/>
			</g>
			<g id="shape31-46" v:mID="31" v:groupContext="shape" transform="translate(406.2,203.7) rotate(90)">
				<title>Sheet.31</title>
				<path d="M0 244.2 L40.5 244.2" class="st6"/>
			</g>
		</g>
		<g id="shape32-49" v:mID="32" v:groupContext="shape" transform="translate(299.85,-86.0999)">
			<title>Sheet.32</title>
			<desc>Parallel Output Register</desc>
			<v:textBlock v:margins="rect(4,4,4,4)"/>
			<v:textRect cx="90" cy="236.325" width="180" height="15.75"/>
			<rect x="0" y="228.45" width="180" height="15.75" class="st7"/>
			<text x="31.9" y="239.93" class="st8" v:langID="1033"><v:paragraph v:horizAlign="1"/><v:tabList/>Parallel Output Register</text>		</g>
		<g id="group33-52" transform="translate(302.1,-189.6)" v:mID="33" v:groupContext="group">
			<title>Sheet.33</title>
			<g id="group34-53" v:mID="34" v:groupContext="group">
				<title>Sheet.34</title>
				<g id="shape35-54" v:mID="35" v:groupContext="shape" transform="translate(298.2,208.2) rotate(90)">
					<title>Sheet.35</title>
					<path d="M0 244.2 L24.84 244.2" class="st4"/>
				</g>
				<g id="shape36-59" v:mID="36" v:groupContext="shape" transform="translate(244.2,208.2) rotate(90)">
					<title>Sheet.36</title>
					<path d="M0 244.2 L24.84 244.2" class="st4"/>
				</g>
				<g id="shape37-64" v:mID="37" v:groupContext="shape" transform="translate(353.887,208.2) rotate(90)">
					<title>Sheet.37</title>
					<path d="M0 244.2 L24.84 244.2" class="st4"/>
				</g>
				<g id="shape38-69" v:mID="38" v:groupContext="shape" transform="translate(406.2,208.2) rotate(90)">
					<title>Sheet.38</title>
					<path d="M0 244.2 L24.84 244.2" class="st4"/>
				</g>
			</g>
			<g id="group39-74" transform="translate(27,0)" v:mID="39" v:groupContext="group">
				<title>Sheet.39</title>
				<g id="shape40-75" v:mID="40" v:groupContext="shape" transform="translate(298.2,208.2) rotate(90)">
					<title>Sheet.40</title>
					<path d="M0 244.2 L24.84 244.2" class="st4"/>
				</g>
				<g id="shape41-80" v:mID="41" v:groupContext="shape" transform="translate(244.2,208.2) rotate(90)">
					<title>Sheet.41</title>
					<path d="M0 244.2 L24.84 244.2" class="st4"/>
				</g>
				<g id="shape42-85" v:mID="42" v:groupContext="shape" transform="translate(353.887,208.2) rotate(90)">
					<title>Sheet.42</title>
					<path d="M0 244.2 L24.84 244.2" class="st4"/>
				</g>
				<g id="shape43-90" v:mID="43" v:groupContext="shape" transform="translate(406.2,208.2) rotate(90)">
					<title>Sheet.43</title>
					<path d="M0 244.2 L24.84 244.2" class="st4"/>
				</g>
			</g>
		</g>
		<g id="group44-95" transform="translate(302.1,-36.5999)" v:mID="44" v:groupContext="group">
			<title>Sheet.44</title>
			<g id="group45-96" v:mID="45" v:groupContext="group">
				<title>Sheet.45</title>
				<g id="shape46-97" v:mID="46" v:groupContext="shape" transform="translate(298.2,208.2) rotate(90)">
					<title>Sheet.46</title>
					<path d="M0 244.2 L24.84 244.2" class="st4"/>
				</g>
				<g id="shape47-102" v:mID="47" v:groupContext="shape" transform="translate(244.2,208.2) rotate(90)">
					<title>Sheet.47</title>
					<path d="M0 244.2 L24.84 244.2" class="st4"/>
				</g>
				<g id="shape48-107" v:mID="48" v:groupContext="shape" transform="translate(353.887,208.2) rotate(90)">
					<title>Sheet.48</title>
					<path d="M0 244.2 L24.84 244.2" class="st4"/>
				</g>
				<g id="shape49-112" v:mID="49" v:groupContext="shape" transform="translate(406.2,208.2) rotate(90)">
					<title>Sheet.49</title>
					<path d="M0 244.2 L24.84 244.2" class="st4"/>
				</g>
			</g>
			<g id="group50-117" transform="translate(27,0)" v:mID="50" v:groupContext="group">
				<title>Sheet.50</title>
				<g id="shape51-118" v:mID="51" v:groupContext="shape" transform="translate(298.2,208.2) rotate(90)">
					<title>Sheet.51</title>
					<path d="M0 244.2 L24.84 244.2" class="st4"/>
				</g>
				<g id="shape52-123" v:mID="52" v:groupContext="shape" transform="translate(244.2,208.2) rotate(90)">
					<title>Sheet.52</title>
					<path d="M0 244.2 L24.84 244.2" class="st4"/>
				</g>
				<g id="shape53-128" v:mID="53" v:groupContext="shape" transform="translate(353.887,208.2) rotate(90)">
					<title>Sheet.53</title>
					<path d="M0 244.2 L24.84 244.2" class="st4"/>
				</g>
				<g id="shape54-133" v:mID="54" v:groupContext="shape" transform="translate(406.2,208.2) rotate(90)">
					<title>Sheet.54</title>
					<path d="M0 244.2 L24.84 244.2" class="st4"/>
				</g>
			</g>
		</g>
		<g id="group55-138" transform="translate(302.1,-113.1)" v:mID="55" v:groupContext="group">
			<title>Sheet.55</title>
			<g id="group56-139" v:mID="56" v:groupContext="group">
				<title>Sheet.56</title>
				<g id="shape57-140" v:mID="57" v:groupContext="shape" transform="translate(298.2,208.2) rotate(90)">
					<title>Sheet.57</title>
					<path d="M0 244.2 L24.84 244.2" class="st4"/>
				</g>
				<g id="shape58-145" v:mID="58" v:groupContext="shape" transform="translate(244.2,208.2) rotate(90)">
					<title>Sheet.58</title>
					<path d="M0 244.2 L24.84 244.2" class="st4"/>
				</g>
				<g id="shape59-150" v:mID="59" v:groupContext="shape" transform="translate(353.887,208.2) rotate(90)">
					<title>Sheet.59</title>
					<path d="M0 244.2 L24.84 244.2" class="st4"/>
				</g>
				<g id="shape60-155" v:mID="60" v:groupContext="shape" transform="translate(406.2,208.2) rotate(90)">
					<title>Sheet.60</title>
					<path d="M0 244.2 L24.84 244.2" class="st4"/>
				</g>
			</g>
			<g id="group61-160" transform="translate(27,0)" v:mID="61" v:groupContext="group">
				<title>Sheet.61</title>
				<g id="shape62-161" v:mID="62" v:groupContext="shape" transform="translate(298.2,208.2) rotate(90)">
					<title>Sheet.62</title>
					<path d="M0 244.2 L24.84 244.2" class="st4"/>
				</g>
				<g id="shape63-166" v:mID="63" v:groupContext="shape" transform="translate(244.2,208.2) rotate(90)">
					<title>Sheet.63</title>
					<path d="M0 244.2 L24.84 244.2" class="st4"/>
				</g>
				<g id="shape64-171" v:mID="64" v:groupContext="shape" transform="translate(353.887,208.2) rotate(90)">
					<title>Sheet.64</title>
					<path d="M0 244.2 L24.84 244.2" class="st4"/>
				</g>
				<g id="shape65-176" v:mID="65" v:groupContext="shape" transform="translate(406.2,208.2) rotate(90)">
					<title>Sheet.65</title>
					<path d="M0 244.2 L24.84 244.2" class="st4"/>
				</g>
			</g>
		</g>
		<g id="shape1000-181" v:mID="1000" v:groupContext="shape" transform="translate(164.85,-162.6)">
			<title>Sheet.1000</title>
			<path d="M0 244.2 L9 244.2 A9 9 -180 0 0 9 226.2 L0 226.2 L0 244.2 Z" class="st9"/>
		</g>
		<g id="shape1001-183" v:mID="1001" v:groupContext="shape" transform="translate(124.35,-149.1)">
			<title>Sheet.1001</title>
			<path d="M0 244.2 L9 244.2 A9 9 -180 0 0 9 226.2 L0 226.2 L0 244.2 Z" class="st9"/>
		</g>
		<g id="shape1002-185" v:mID="1002" v:groupContext="shape" transform="translate(164.85,312.3) rotate(180)">
			<title>Sheet.1002</title>
			<path d="M0 244.2 L90 244.2" class="st10"/>
		</g>
		<g id="shape1003-188" v:mID="1003" v:groupContext="shape" transform="translate(142.35,-158.1)">
			<title>Sheet.1003</title>
			<path d="M22.5 235.2 L9 235.2 L9 244.2 L0 244.2" class="st10"/>
		</g>
		<g id="shape1004-191" v:mID="1004" v:groupContext="shape" transform="translate(124.35,325.8) rotate(180)">
			<title>Sheet.1004</title>
			<path d="M0 244.2 L49.5 244.2" class="st10"/>
		</g>
		<g id="shape1005-194" v:mID="1005" v:groupContext="shape" transform="translate(124.35,334.8) rotate(180)">
			<title>Sheet.1005</title>
			<path d="M0 244.2 L49.5 244.2" class="st10"/>
		</g>
		<g id="shape1006-197" v:mID="1006" v:groupContext="shape" transform="translate(0.6,-146.85)">
			<title>Sheet.1006</title>
			<desc>Shift</desc>
			<v:textBlock v:margins="rect(4,4,4,4)"/>
			<v:textRect cx="38.25" cy="226.2" width="76.5" height="36"/>
			<rect x="0" y="208.2" width="76.5" height="36" class="st2"/>
			<text x="50.25" y="229.8" class="st3" v:langID="1033"><v:paragraph v:horizAlign="2"/><v:tabList/>Shift</text>		</g>
		<g id="shape1007-200" v:mID="1007" v:groupContext="shape" transform="translate(0.6,-135.6)">
			<title>Sheet.1007</title>
			<desc>Select</desc>
			<v:textBlock v:margins="rect(4,4,4,4)"/>
			<v:textRect cx="38.25" cy="226.2" width="76.5" height="36"/>
			<rect x="0" y="208.2" width="76.5" height="36" class="st2"/>
			<text x="43.2" y="229.8" class="st3" v:langID="1033"><v:paragraph v:horizAlign="2"/><v:tabList/>Select</text>		</g>
		<g id="shape1008-203" v:mID="1008" v:groupContext="shape" transform="translate(142.35,-122.1)">
			<title>Sheet.1008</title>
			<path d="M0 244.2 L63 244.2 L63 210.45 L78.84 210.45" class="st4"/>
		</g>
		<g id="shape1010-208" v:mID="1010" v:groupContext="shape" transform="translate(124.35,-113.1)">
			<title>Sheet.1010</title>
			<path d="M0 244.2 L9 244.2 A9 9 -180 0 0 9 226.2 L0 226.2 L0 244.2 Z" class="st9"/>
		</g>
		<g id="shape1011-210" v:mID="1011" v:groupContext="shape" transform="translate(110.85,-126.6)">
			<title>Sheet.1011</title>
			<path d="M0 217.2 L0 244.2 L13.5 244.2" class="st10"/>
		</g>
		<g id="shape1012-213" v:mID="1012" v:groupContext="shape" transform="translate(124.35,370.8) rotate(180)">
			<title>Sheet.1012</title>
			<path d="M0 244.2 L49.5 244.2" class="st10"/>
		</g>
		<g id="shape1013-216" v:mID="1013" v:groupContext="shape" transform="translate(0.6,-99.5999)">
			<title>Sheet.1013</title>
			<desc>Capture</desc>
			<v:textBlock v:margins="rect(4,4,4,4)"/>
			<v:textRect cx="38.25" cy="226.2" width="76.5" height="36"/>
			<rect x="0" y="208.2" width="76.5" height="36" class="st2"/>
			<text x="33.57" y="229.8" class="st3" v:langID="1033"><v:paragraph v:horizAlign="2"/><v:tabList/>Capture</text>		</g>
		<g id="shape1027-219" v:mID="1027" v:groupContext="shape" transform="translate(232.35,-149.1)">
			<title>Sheet.1027</title>
			<rect x="0" y="203.7" width="270" height="40.5" class="st11"/>
		</g>
		<g id="group1028-221" transform="translate(313.35,-149.1)" v:mID="1028" v:groupContext="group">
			<title>Sheet.1028</title>
			<g id="shape1029-222" v:mID="1029" v:groupContext="shape" transform="translate(353.887,203.7) rotate(90)">
				<title>Sheet.1029</title>
				<path d="M0 244.2 L40.5 244.2" class="st12"/>
			</g>
			<g id="shape1030-225" v:mID="1030" v:groupContext="shape" transform="translate(298.2,203.7) rotate(90)">
				<title>Sheet.1030</title>
				<path d="M0 244.2 L40.5 244.2" class="st12"/>
			</g>
			<g id="shape1031-228" v:mID="1031" v:groupContext="shape" transform="translate(271.2,203.7) rotate(90)">
				<title>Sheet.1031</title>
				<path d="M0 244.2 L40.5 244.2" class="st12"/>
			</g>
			<g id="shape1032-231" v:mID="1032" v:groupContext="shape" transform="translate(325.2,203.7) rotate(90)">
				<title>Sheet.1032</title>
				<path d="M0 244.2 L40.5 244.2" class="st12"/>
			</g>
			<g id="shape1033-234" v:mID="1033" v:groupContext="shape" transform="translate(379.2,203.7) rotate(90)">
				<title>Sheet.1033</title>
				<path d="M0 244.2 L40.5 244.2" class="st12"/>
			</g>
			<g id="shape1034-237" v:mID="1034" v:groupContext="shape" transform="translate(244.2,203.7) rotate(90)">
				<title>Sheet.1034</title>
				<path d="M0 244.2 L40.5 244.2" class="st12"/>
			</g>
			<g id="shape1035-240" v:mID="1035" v:groupContext="shape" transform="translate(406.2,203.7) rotate(90)">
				<title>Sheet.1035</title>
				<path d="M0 244.2 L40.5 244.2" class="st12"/>
			</g>
		</g>
		<g id="shape1037-243" v:mID="1037" v:groupContext="shape" transform="translate(226.162,-162.6)">
			<title>Sheet.1037</title>
			<desc>Serial in</desc>
			<v:textBlock v:margins="rect(4,4,4,4)"/>
			<v:textRect cx="28.6875" cy="235.2" width="57.38" height="18"/>
			<rect x="0" y="226.2" width="57.375" height="18" class="st2"/>
			<text x="9.34" y="238.8" class="st3" v:langID="1033"><v:paragraph v:horizAlign="1"/><v:tabList/>Serial in</text>		</g>
		<g id="shape1038-246" v:mID="1038" v:groupContext="shape" transform="translate(226.162,-149.1)">
			<title>Sheet.1038</title>
			<desc>Capture</desc>
			<v:textBlock v:margins="rect(4,4,4,4)"/>
			<v:textRect cx="28.6875" cy="235.2" width="57.38" height="18"/>
			<rect x="0" y="226.2" width="57.375" height="18" class="st2"/>
			<text x="9.22" y="238.8" class="st3" v:langID="1033"><v:paragraph v:horizAlign="1"/><v:tabList/>Capture</text>		</g>
		<g id="shape1045-249" v:mID="1045" v:groupContext="shape" transform="translate(535.05,54.6) rotate(90)">
			<title>Sheet.1045</title>
			<path d="M0 244.2 L40.5 244.2" class="st12"/>
		</g>
		<g id="shape1036-252" v:mID="1036" v:groupContext="shape" transform="translate(286.35,-158.1)">
			<title>Sheet.1036</title>
			<desc>Serial shift Register</desc>
			<v:textBlock v:margins="rect(4,4,4,4)"/>
			<v:textRect cx="96.75" cy="235.2" width="193.5" height="18"/>
			<rect x="0" y="226.2" width="193.5" height="18" class="st7"/>
			<text x="49.98" y="238.8" class="st13" v:langID="1033"><v:paragraph v:horizAlign="1"/><v:tabList/>Serial shift Register</text>		</g>
		<g id="shape1046-255" v:mID="1046" v:groupContext="shape" transform="translate(226.162,-72.5999)">
			<title>Sheet.1046</title>
			<desc>Update</desc>
			<v:textBlock v:margins="rect(4,4,4,4)"/>
			<v:textRect cx="28.6875" cy="235.2" width="57.38" height="18"/>
			<rect x="0" y="226.2" width="57.375" height="18" class="st2"/>
			<text x="10.66" y="238.8" class="st3" v:langID="1033"><v:paragraph v:horizAlign="1"/><v:tabList/>Update</text>		</g>
		<g id="shape1047-258" v:mID="1047" v:groupContext="shape" transform="translate(124.35,-72.5999)">
			<title>Sheet.1047</title>
			<path d="M0 244.2 L9 244.2 A9 9 -180 0 0 9 226.2 L0 226.2 L0 244.2 Z" class="st9"/>
		</g>
		<g id="shape1048-260" v:mID="1048" v:groupContext="shape" transform="translate(142.35,-81.6)">
			<title>Sheet.1048</title>
			<path d="M0 244.2 L78.84 244.2" class="st4"/>
		</g>
		<g id="shape1049-265" v:mID="1049" v:groupContext="shape" transform="translate(124.35,411.3) rotate(180)">
			<title>Sheet.1049</title>
			<path d="M0 244.2 L49.5 244.2" class="st10"/>
		</g>
		<g id="shape1050-268" v:mID="1050" v:groupContext="shape" transform="translate(110.85,-86.0999)">
			<title>Sheet.1050</title>
			<path d="M0 203.7 L0 244.2 L13.5 244.2" class="st10"/>
		</g>
		<g id="shape1051-271" v:mID="1051" v:groupContext="shape" transform="translate(0.6,-59.0999)">
			<title>Sheet.1051</title>
			<desc>Update</desc>
			<v:textBlock v:margins="rect(4,4,4,4)"/>
			<v:textRect cx="38.25" cy="226.2" width="76.5" height="36"/>
			<rect x="0" y="208.2" width="76.5" height="36" class="st2"/>
			<text x="36.45" y="229.8" class="st3" v:langID="1033"><v:paragraph v:horizAlign="2"/><v:tabList/>Update</text>		</g>
	</g>
</svg>
