<?xml version="1.0" encoding="UTF-8" standalone="no"?>
<!DOCTYPE svg PUBLIC "-//W3C//DTD SVG 1.1//EN" "http://www.w3.org/Graphics/SVG/1.1/DTD/svg11.dtd">
<!-- Generated by Microsoft Visio, SVG Export rTDR.vsdx_RW_1c4c4.svg Page-1 -->
<svg xmlns="http://www.w3.org/2000/svg" xmlns:xlink="http://www.w3.org/1999/xlink" xmlns:ev="http://www.w3.org/2001/xml-events"
		xmlns:v="http://schemas.microsoft.com/visio/2003/SVGExtensions/" width="8.11042in" height="3.76667in"
		viewBox="0 0 583.95 271.2" xml:space="preserve" color-interpolation-filters="sRGB" class="st17">
	<v:documentProperties v:langID="1033" v:viewMarkup="false">
		<v:userDefs>
			<v:ud v:nameU="msvConvertTheme"/>
		</v:userDefs>
	</v:documentProperties>

	<style type="text/css">
	<![CDATA[
		.st1 {fill:none;stroke:#008000;stroke-linecap:round;stroke-linejoin:round;stroke-width:1.2}
		.st2 {fill:none;stroke:none;stroke-linecap:round;stroke-linejoin:round;stroke-width:1.2}
		.st3 {fill:#000000;font-family:Calibri;font-size:1.00001em}
		.st4 {marker-end:url(#mrkr13-15);stroke:#000000;stroke-linecap:round;stroke-linejoin:round;stroke-width:1.2}
		.st5 {fill:#000000;fill-opacity:1;stroke:#000000;stroke-opacity:1;stroke-width:0.32258064516129}
		.st6 {stroke:#008000;stroke-linecap:round;stroke-linejoin:round;stroke-width:1.2}
		.st7 {fill:#ffffff;stroke:none;stroke-linecap:round;stroke-linejoin:round;stroke-width:1.2}
		.st8 {fill:#008000;font-family:Calibri;font-size:1.00001em}
		.st9 {stroke:#000000;stroke-linecap:round;stroke-linejoin:round;stroke-width:1.2}
		.st10 {fill:#ffffff;stroke:#000000;stroke-linecap:round;stroke-linejoin:round;stroke-width:1}
		.st11 {stroke:#000000;stroke-linecap:round;stroke-linejoin:round;stroke-width:1}
		.st12 {fill:none;stroke:#0000ff;stroke-linecap:round;stroke-linejoin:round;stroke-width:1.2}
		.st13 {stroke:#0000ff;stroke-linecap:round;stroke-linejoin:round;stroke-width:1.2}
		.st14 {fill:#0000ff;font-family:Calibri;font-size:1.00001em}
		.st15 {stroke:#000000;stroke-linecap:round;stroke-linejoin:round;stroke-width:3}
		.st16 {stroke:#000000;stroke-linecap:round;stroke-linejoin:round;stroke-width:0.75}
		.st17 {fill:none;fill-rule:evenodd;font-size:12px;overflow:visible;stroke-linecap:square;stroke-miterlimit:3}
	]]>
	</style>

	<defs id="Markers">
		<g id="lend13">
			<path d="M 3 1 L 0 0 L 3 -1 L 3 1 " style="stroke:none"/>
		</g>
		<marker id="mrkr13-15" class="st5" v:arrowType="13" v:arrowSize="2" v:setback="9.3" refX="-9.3" orient="auto"
				markerUnits="strokeWidth" overflow="visible">
			<use xlink:href="#lend13" transform="scale(-3.1,-3.1) "/>
		</marker>
	</defs>
	<g v:mID="0" v:index="1" v:groupContext="foregroundPage">
		<title>Page-1</title>
		<v:pageProperties v:drawingScale="1" v:pageScale="1" v:drawingUnits="19" v:shadowOffsetX="9" v:shadowOffsetY="-9"/>
		<g id="group1-1" transform="translate(232.35,-90.6)" v:mID="1" v:groupContext="group">
			<title>Sheet.1</title>
			<g id="shape2-2" v:mID="2" v:groupContext="shape">
				<title>Sheet.2</title>
				<rect x="0" y="230.7" width="271.125" height="40.5" class="st1"/>
			</g>
		</g>
		<g id="shape4-4" v:mID="4" v:groupContext="shape" transform="translate(0.6,-176.1)">
			<title>Sheet.4</title>
			<desc>TDI</desc>
			<v:textBlock v:margins="rect(4,4,4,4)"/>
			<v:textRect cx="38.25" cy="253.2" width="76.5" height="36"/>
			<rect x="0" y="235.2" width="76.5" height="36" class="st2"/>
			<text x="56.25" y="256.8" class="st3" v:langID="1033"><v:paragraph v:horizAlign="2"/><v:tabList/>TDI</text>		</g>
		<g id="shape5-7" v:mID="5" v:groupContext="shape" transform="translate(551.85,-169.35)">
			<title>Sheet.5</title>
			<desc>TDO</desc>
			<v:textBlock v:margins="rect(4,4,4,4)"/>
			<v:textRect cx="15.75" cy="253.2" width="31.5" height="36"/>
			<rect x="0" y="235.2" width="31.5" height="36" class="st2"/>
			<text x="4" y="256.8" class="st3" v:langID="1033"><v:paragraph/><v:tabList/>TDO</text>		</g>
		<g id="shape9-10" v:mID="9" v:groupContext="shape" transform="translate(182.85,-189.6)">
			<title>Sheet.9</title>
			<path d="M0 271.2 L38.34 271.2" class="st4"/>
		</g>
		<g id="shape10-16" v:mID="10" v:groupContext="shape" transform="translate(503.475,-187.35)">
			<title>Sheet.10</title>
			<path d="M0 271.2 L38.34 271.2" class="st4"/>
		</g>
		<g id="shape11-21" v:mID="11" v:groupContext="shape" transform="translate(340.35,-0.6)">
			<title>Sheet.11</title>
			<desc>Parallel-Update data</desc>
			<v:textBlock v:margins="rect(4,4,4,4)"/>
			<v:textRect cx="67.5" cy="259.95" width="135" height="22.5"/>
			<rect x="0" y="248.7" width="135" height="22.5" class="st2"/>
			<text x="17.32" y="263.55" class="st3" v:langID="1033"><v:paragraph v:horizAlign="1"/><v:tabList/>Parallel-Update data</text>		</g>
		<g id="shape12-24" v:mID="12" v:groupContext="shape" transform="translate(340.35,-252.6)">
			<title>Sheet.12</title>
			<desc>Parallel Capture data</desc>
			<v:textBlock v:margins="rect(4,4,4,4)"/>
			<v:textRect cx="64.125" cy="262.2" width="128.26" height="18"/>
			<rect x="0" y="253.2" width="128.25" height="18" class="st2"/>
			<text x="12.98" y="265.8" class="st3" v:langID="1033"><v:paragraph v:horizAlign="1"/><v:tabList/>Parallel Capture data</text>		</g>
		<g id="group24-27" transform="translate(314.475,-90.6)" v:mID="24" v:groupContext="group">
			<title>Sheet.24</title>
			<g id="shape25-28" v:mID="25" v:groupContext="shape" transform="translate(380.887,230.7) rotate(90)">
				<title>Sheet.25</title>
				<path d="M0 271.2 L40.5 271.2" class="st6"/>
			</g>
			<g id="shape26-31" v:mID="26" v:groupContext="shape" transform="translate(325.2,230.7) rotate(90)">
				<title>Sheet.26</title>
				<path d="M0 271.2 L40.5 271.2" class="st6"/>
			</g>
			<g id="shape27-34" v:mID="27" v:groupContext="shape" transform="translate(298.2,230.7) rotate(90)">
				<title>Sheet.27</title>
				<path d="M0 271.2 L40.5 271.2" class="st6"/>
			</g>
			<g id="shape28-37" v:mID="28" v:groupContext="shape" transform="translate(352.2,230.7) rotate(90)">
				<title>Sheet.28</title>
				<path d="M0 271.2 L40.5 271.2" class="st6"/>
			</g>
			<g id="shape29-40" v:mID="29" v:groupContext="shape" transform="translate(406.2,230.7) rotate(90)">
				<title>Sheet.29</title>
				<path d="M0 271.2 L40.5 271.2" class="st6"/>
			</g>
			<g id="shape30-43" v:mID="30" v:groupContext="shape" transform="translate(271.2,230.7) rotate(90)">
				<title>Sheet.30</title>
				<path d="M0 271.2 L40.5 271.2" class="st6"/>
			</g>
			<g id="shape31-46" v:mID="31" v:groupContext="shape" transform="translate(433.2,230.7) rotate(90)">
				<title>Sheet.31</title>
				<path d="M0 271.2 L40.5 271.2" class="st6"/>
			</g>
		</g>
		<g id="shape32-49" v:mID="32" v:groupContext="shape" transform="translate(299.85,-104.1)">
			<title>Sheet.32</title>
			<desc>Parallel Output Register</desc>
			<v:textBlock v:margins="rect(4,4,4,4)"/>
			<v:textRect cx="90" cy="263.325" width="180" height="15.75"/>
			<rect x="0" y="255.45" width="180" height="15.75" class="st7"/>
			<text x="31.9" y="266.93" class="st8" v:langID="1033"><v:paragraph v:horizAlign="1"/><v:tabList/>Parallel Output Register</text>		</g>
		<g id="shape35-52" v:mID="35" v:groupContext="shape" transform="translate(625.05,27.6) rotate(90)">
			<title>Sheet.35</title>
			<path d="M0 271.2 L24.84 271.2" class="st4"/>
		</g>
		<g id="shape36-57" v:mID="36" v:groupContext="shape" transform="translate(573.3,27.6) rotate(90)">
			<title>Sheet.36</title>
			<path d="M0 271.2 L24.84 271.2" class="st4"/>
		</g>
		<g id="shape37-62" v:mID="37" v:groupContext="shape" transform="translate(681.3,27.6) rotate(90)">
			<title>Sheet.37</title>
			<path d="M0 271.2 L24.84 271.2" class="st4"/>
		</g>
		<g id="shape38-67" v:mID="38" v:groupContext="shape" transform="translate(735.3,27.6) rotate(90)">
			<title>Sheet.38</title>
			<path d="M0 271.2 L24.84 271.2" class="st4"/>
		</g>
		<g id="shape40-72" v:mID="40" v:groupContext="shape" transform="translate(654.3,27.6) rotate(90)">
			<title>Sheet.40</title>
			<path d="M0 271.2 L24.84 271.2" class="st4"/>
		</g>
		<g id="shape41-77" v:mID="41" v:groupContext="shape" transform="translate(598.05,27.6) rotate(90)">
			<title>Sheet.41</title>
			<path d="M0 271.2 L24.84 271.2" class="st4"/>
		</g>
		<g id="shape42-82" v:mID="42" v:groupContext="shape" transform="translate(708.3,27.6) rotate(90)">
			<title>Sheet.42</title>
			<path d="M0 271.2 L24.84 271.2" class="st4"/>
		</g>
		<g id="shape43-87" v:mID="43" v:groupContext="shape" transform="translate(760.05,27.6) rotate(90)">
			<title>Sheet.43</title>
			<path d="M0 271.2 L24.84 271.2" class="st4"/>
		</g>
		<g id="shape46-92" v:mID="46" v:groupContext="shape" transform="translate(625.05,180.6) rotate(90)">
			<title>Sheet.46</title>
			<path d="M0 271.2 L36 271.2" class="st9"/>
		</g>
		<g id="shape47-95" v:mID="47" v:groupContext="shape" transform="translate(573.3,180.6) rotate(90)">
			<title>Sheet.47</title>
			<path d="M0 271.2 L36 271.2" class="st9"/>
		</g>
		<g id="shape48-98" v:mID="48" v:groupContext="shape" transform="translate(681.3,180.6) rotate(90)">
			<title>Sheet.48</title>
			<path d="M0 271.2 L36 271.2" class="st9"/>
		</g>
		<g id="shape49-101" v:mID="49" v:groupContext="shape" transform="translate(735.3,180.6) rotate(90)">
			<title>Sheet.49</title>
			<path d="M0 271.2 L36 271.2" class="st9"/>
		</g>
		<g id="shape51-104" v:mID="51" v:groupContext="shape" transform="translate(654.3,180.6) rotate(90)">
			<title>Sheet.51</title>
			<path d="M0 271.2 L36 271.2" class="st9"/>
		</g>
		<g id="shape52-107" v:mID="52" v:groupContext="shape" transform="translate(598.05,180.6) rotate(90)">
			<title>Sheet.52</title>
			<path d="M0 271.2 L36 271.2" class="st9"/>
		</g>
		<g id="shape53-110" v:mID="53" v:groupContext="shape" transform="translate(708.3,180.6) rotate(90)">
			<title>Sheet.53</title>
			<path d="M0 271.2 L36 271.2" class="st9"/>
		</g>
		<g id="shape54-113" v:mID="54" v:groupContext="shape" transform="translate(760.05,180.6) rotate(90)">
			<title>Sheet.54</title>
			<path d="M0 271.2 L36 271.2" class="st9"/>
		</g>
		<g id="group55-116" transform="translate(302.1,-131.1)" v:mID="55" v:groupContext="group">
			<title>Sheet.55</title>
			<g id="group56-117" v:mID="56" v:groupContext="group">
				<title>Sheet.56</title>
				<g id="shape57-118" v:mID="57" v:groupContext="shape" transform="translate(325.2,235.2) rotate(90)">
					<title>Sheet.57</title>
					<path d="M0 271.2 L24.84 271.2" class="st4"/>
				</g>
				<g id="shape58-123" v:mID="58" v:groupContext="shape" transform="translate(271.2,235.2) rotate(90)">
					<title>Sheet.58</title>
					<path d="M0 271.2 L24.84 271.2" class="st4"/>
				</g>
				<g id="shape59-128" v:mID="59" v:groupContext="shape" transform="translate(380.887,235.2) rotate(90)">
					<title>Sheet.59</title>
					<path d="M0 271.2 L24.84 271.2" class="st4"/>
				</g>
				<g id="shape60-133" v:mID="60" v:groupContext="shape" transform="translate(433.2,235.2) rotate(90)">
					<title>Sheet.60</title>
					<path d="M0 271.2 L24.84 271.2" class="st4"/>
				</g>
			</g>
			<g id="group61-138" transform="translate(27,0)" v:mID="61" v:groupContext="group">
				<title>Sheet.61</title>
				<g id="shape62-139" v:mID="62" v:groupContext="shape" transform="translate(325.2,235.2) rotate(90)">
					<title>Sheet.62</title>
					<path d="M0 271.2 L24.84 271.2" class="st4"/>
				</g>
				<g id="shape63-144" v:mID="63" v:groupContext="shape" transform="translate(271.2,235.2) rotate(90)">
					<title>Sheet.63</title>
					<path d="M0 271.2 L24.84 271.2" class="st4"/>
				</g>
				<g id="shape64-149" v:mID="64" v:groupContext="shape" transform="translate(380.887,235.2) rotate(90)">
					<title>Sheet.64</title>
					<path d="M0 271.2 L24.84 271.2" class="st4"/>
				</g>
				<g id="shape65-154" v:mID="65" v:groupContext="shape" transform="translate(433.2,235.2) rotate(90)">
					<title>Sheet.65</title>
					<path d="M0 271.2 L24.84 271.2" class="st4"/>
				</g>
			</g>
		</g>
		<g id="shape1000-159" v:mID="1000" v:groupContext="shape" transform="translate(164.85,-180.6)">
			<title>Sheet.1000</title>
			<path d="M0 271.2 L9 271.2 A9 9 -180 0 0 9 253.2 L0 253.2 L0 271.2 Z" class="st10"/>
		</g>
		<g id="shape1001-161" v:mID="1001" v:groupContext="shape" transform="translate(124.35,-167.1)">
			<title>Sheet.1001</title>
			<path d="M0 271.2 L9 271.2 A9 9 -180 0 0 9 253.2 L0 253.2 L0 271.2 Z" class="st10"/>
		</g>
		<g id="shape1002-163" v:mID="1002" v:groupContext="shape" transform="translate(164.85,348.3) rotate(180)">
			<title>Sheet.1002</title>
			<path d="M0 271.2 L90 271.2" class="st11"/>
		</g>
		<g id="shape1003-166" v:mID="1003" v:groupContext="shape" transform="translate(142.35,-176.1)">
			<title>Sheet.1003</title>
			<path d="M22.5 262.2 L9 262.2 L9 271.2 L0 271.2" class="st11"/>
		</g>
		<g id="shape1004-169" v:mID="1004" v:groupContext="shape" transform="translate(124.35,361.8) rotate(180)">
			<title>Sheet.1004</title>
			<path d="M0 271.2 L49.5 271.2" class="st11"/>
		</g>
		<g id="shape1005-172" v:mID="1005" v:groupContext="shape" transform="translate(124.35,370.8) rotate(180)">
			<title>Sheet.1005</title>
			<path d="M0 271.2 L49.5 271.2" class="st11"/>
		</g>
		<g id="shape1006-175" v:mID="1006" v:groupContext="shape" transform="translate(0.6,-164.85)">
			<title>Sheet.1006</title>
			<desc>Shift</desc>
			<v:textBlock v:margins="rect(4,4,4,4)"/>
			<v:textRect cx="38.25" cy="253.2" width="76.5" height="36"/>
			<rect x="0" y="235.2" width="76.5" height="36" class="st2"/>
			<text x="50.25" y="256.8" class="st3" v:langID="1033"><v:paragraph v:horizAlign="2"/><v:tabList/>Shift</text>		</g>
		<g id="shape1007-178" v:mID="1007" v:groupContext="shape" transform="translate(0.6,-153.6)">
			<title>Sheet.1007</title>
			<desc>Select</desc>
			<v:textBlock v:margins="rect(4,4,4,4)"/>
			<v:textRect cx="38.25" cy="253.2" width="76.5" height="36"/>
			<rect x="0" y="235.2" width="76.5" height="36" class="st2"/>
			<text x="43.2" y="256.8" class="st3" v:langID="1033"><v:paragraph v:horizAlign="2"/><v:tabList/>Select</text>		</g>
		<g id="shape1008-181" v:mID="1008" v:groupContext="shape" transform="translate(142.35,-140.1)">
			<title>Sheet.1008</title>
			<path d="M0 271.2 L63 271.2 L63 237.45 L78.84 237.45" class="st4"/>
		</g>
		<g id="shape1010-186" v:mID="1010" v:groupContext="shape" transform="translate(124.35,-131.1)">
			<title>Sheet.1010</title>
			<path d="M0 271.2 L9 271.2 A9 9 -180 0 0 9 253.2 L0 253.2 L0 271.2 Z" class="st10"/>
		</g>
		<g id="shape1011-188" v:mID="1011" v:groupContext="shape" transform="translate(110.85,-144.6)">
			<title>Sheet.1011</title>
			<path d="M0 244.2 L0 271.2 L13.5 271.2" class="st11"/>
		</g>
		<g id="shape1012-191" v:mID="1012" v:groupContext="shape" transform="translate(124.35,406.8) rotate(180)">
			<title>Sheet.1012</title>
			<path d="M0 271.2 L49.5 271.2" class="st11"/>
		</g>
		<g id="shape1013-194" v:mID="1013" v:groupContext="shape" transform="translate(0.6,-117.6)">
			<title>Sheet.1013</title>
			<desc>Capture</desc>
			<v:textBlock v:margins="rect(4,4,4,4)"/>
			<v:textRect cx="38.25" cy="253.2" width="76.5" height="36"/>
			<rect x="0" y="235.2" width="76.5" height="36" class="st2"/>
			<text x="33.57" y="256.8" class="st3" v:langID="1033"><v:paragraph v:horizAlign="2"/><v:tabList/>Capture</text>		</g>
		<g id="shape1027-197" v:mID="1027" v:groupContext="shape" transform="translate(232.35,-167.1)">
			<title>Sheet.1027</title>
			<rect x="0" y="230.7" width="270" height="40.5" class="st12"/>
		</g>
		<g id="group1028-199" transform="translate(313.35,-167.1)" v:mID="1028" v:groupContext="group">
			<title>Sheet.1028</title>
			<g id="shape1029-200" v:mID="1029" v:groupContext="shape" transform="translate(380.887,230.7) rotate(90)">
				<title>Sheet.1029</title>
				<path d="M0 271.2 L40.5 271.2" class="st13"/>
			</g>
			<g id="shape1030-203" v:mID="1030" v:groupContext="shape" transform="translate(325.2,230.7) rotate(90)">
				<title>Sheet.1030</title>
				<path d="M0 271.2 L40.5 271.2" class="st13"/>
			</g>
			<g id="shape1031-206" v:mID="1031" v:groupContext="shape" transform="translate(298.2,230.7) rotate(90)">
				<title>Sheet.1031</title>
				<path d="M0 271.2 L40.5 271.2" class="st13"/>
			</g>
			<g id="shape1032-209" v:mID="1032" v:groupContext="shape" transform="translate(352.2,230.7) rotate(90)">
				<title>Sheet.1032</title>
				<path d="M0 271.2 L40.5 271.2" class="st13"/>
			</g>
			<g id="shape1033-212" v:mID="1033" v:groupContext="shape" transform="translate(406.2,230.7) rotate(90)">
				<title>Sheet.1033</title>
				<path d="M0 271.2 L40.5 271.2" class="st13"/>
			</g>
			<g id="shape1034-215" v:mID="1034" v:groupContext="shape" transform="translate(271.2,230.7) rotate(90)">
				<title>Sheet.1034</title>
				<path d="M0 271.2 L40.5 271.2" class="st13"/>
			</g>
			<g id="shape1035-218" v:mID="1035" v:groupContext="shape" transform="translate(433.2,230.7) rotate(90)">
				<title>Sheet.1035</title>
				<path d="M0 271.2 L40.5 271.2" class="st13"/>
			</g>
		</g>
		<g id="shape1037-221" v:mID="1037" v:groupContext="shape" transform="translate(226.162,-180.6)">
			<title>Sheet.1037</title>
			<desc>Serial in</desc>
			<v:textBlock v:margins="rect(4,4,4,4)"/>
			<v:textRect cx="28.6875" cy="262.2" width="57.38" height="18"/>
			<rect x="0" y="253.2" width="57.375" height="18" class="st2"/>
			<text x="9.34" y="265.8" class="st3" v:langID="1033"><v:paragraph v:horizAlign="1"/><v:tabList/>Serial in</text>		</g>
		<g id="shape1038-224" v:mID="1038" v:groupContext="shape" transform="translate(226.162,-167.1)">
			<title>Sheet.1038</title>
			<desc>Capture</desc>
			<v:textBlock v:margins="rect(4,4,4,4)"/>
			<v:textRect cx="28.6875" cy="262.2" width="57.38" height="18"/>
			<rect x="0" y="253.2" width="57.375" height="18" class="st2"/>
			<text x="9.22" y="265.8" class="st3" v:langID="1033"><v:paragraph v:horizAlign="1"/><v:tabList/>Capture</text>		</g>
		<g id="shape1045-227" v:mID="1045" v:groupContext="shape" transform="translate(562.05,63.6) rotate(90)">
			<title>Sheet.1045</title>
			<path d="M0 271.2 L40.5 271.2" class="st13"/>
		</g>
		<g id="shape1036-230" v:mID="1036" v:groupContext="shape" transform="translate(286.35,-176.1)">
			<title>Sheet.1036</title>
			<desc>Serial shift Register</desc>
			<v:textBlock v:margins="rect(4,4,4,4)"/>
			<v:textRect cx="96.75" cy="262.2" width="193.5" height="18"/>
			<rect x="0" y="253.2" width="193.5" height="18" class="st7"/>
			<text x="49.98" y="265.8" class="st14" v:langID="1033"><v:paragraph v:horizAlign="1"/><v:tabList/>Serial shift Register</text>		</g>
		<g id="shape1046-233" v:mID="1046" v:groupContext="shape" transform="translate(226.162,-90.6)">
			<title>Sheet.1046</title>
			<desc>Update</desc>
			<v:textBlock v:margins="rect(4,4,4,4)"/>
			<v:textRect cx="28.6875" cy="262.2" width="57.38" height="18"/>
			<rect x="0" y="253.2" width="57.375" height="18" class="st2"/>
			<text x="10.66" y="265.8" class="st3" v:langID="1033"><v:paragraph v:horizAlign="1"/><v:tabList/>Update</text>		</g>
		<g id="shape1047-236" v:mID="1047" v:groupContext="shape" transform="translate(124.35,-90.6)">
			<title>Sheet.1047</title>
			<path d="M0 271.2 L9 271.2 A9 9 -180 0 0 9 253.2 L0 253.2 L0 271.2 Z" class="st10"/>
		</g>
		<g id="shape1048-238" v:mID="1048" v:groupContext="shape" transform="translate(142.35,-99.6)">
			<title>Sheet.1048</title>
			<path d="M0 271.2 L78.84 271.2" class="st4"/>
		</g>
		<g id="shape1049-243" v:mID="1049" v:groupContext="shape" transform="translate(124.35,447.3) rotate(180)">
			<title>Sheet.1049</title>
			<path d="M0 271.2 L49.5 271.2" class="st11"/>
		</g>
		<g id="shape1050-246" v:mID="1050" v:groupContext="shape" transform="translate(110.85,-104.1)">
			<title>Sheet.1050</title>
			<path d="M0 230.7 L0 271.2 L13.5 271.2" class="st11"/>
		</g>
		<g id="shape1051-249" v:mID="1051" v:groupContext="shape" transform="translate(0.6,-77.1)">
			<title>Sheet.1051</title>
			<desc>Update</desc>
			<v:textBlock v:margins="rect(4,4,4,4)"/>
			<v:textRect cx="38.25" cy="253.2" width="76.5" height="36"/>
			<rect x="0" y="235.2" width="76.5" height="36" class="st2"/>
			<text x="36.45" y="256.8" class="st3" v:langID="1033"><v:paragraph v:horizAlign="2"/><v:tabList/>Update</text>		</g>
		<g id="shape1052-252" v:mID="1052" v:groupContext="shape" transform="translate(308.85,-45.6)">
			<title>Sheet.1052</title>
			<path d="M0 271.2 L211.5 271.2 L211.5 64.2 L0 64.2" class="st15"/>
		</g>
		<g id="shape1053-255" v:mID="1053" v:groupContext="shape" transform="translate(705.81,53.88) rotate(53.1301)">
			<title>Sheet.1053</title>
			<path d="M0 271.2 L11.25 271.2" class="st16"/>
		</g>
		<g id="shape1054-258" v:mID="1054" v:groupContext="shape" transform="translate(681.06,53.88) rotate(53.1301)">
			<title>Sheet.1054</title>
			<path d="M0 271.2 L11.25 271.2" class="st16"/>
		</g>
		<g id="shape1055-261" v:mID="1055" v:groupContext="shape" transform="translate(654.06,53.88) rotate(53.1301)">
			<title>Sheet.1055</title>
			<path d="M0 271.2 L11.25 271.2" class="st16"/>
		</g>
		<g id="shape1056-264" v:mID="1056" v:groupContext="shape" transform="translate(627.06,53.88) rotate(53.1301)">
			<title>Sheet.1056</title>
			<path d="M0 271.2 L11.25 271.2" class="st16"/>
		</g>
		<g id="shape1058-267" v:mID="1058" v:groupContext="shape" transform="translate(600.06,53.88) rotate(53.1301)">
			<title>Sheet.1058</title>
			<path d="M0 271.2 L11.25 271.2" class="st16"/>
		</g>
		<g id="shape1059-270" v:mID="1059" v:groupContext="shape" transform="translate(570.81,53.88) rotate(53.1301)">
			<title>Sheet.1059</title>
			<path d="M0 271.2 L11.25 271.2" class="st16"/>
		</g>
		<g id="shape1060-273" v:mID="1060" v:groupContext="shape" transform="translate(543.81,53.88) rotate(53.1301)">
			<title>Sheet.1060</title>
			<path d="M0 271.2 L11.25 271.2" class="st16"/>
		</g>
		<g id="shape1061-276" v:mID="1061" v:groupContext="shape" transform="translate(519.06,53.88) rotate(53.1301)">
			<title>Sheet.1061</title>
			<path d="M0 271.2 L11.25 271.2" class="st16"/>
		</g>
		<g id="shape1063-279" v:mID="1063" v:groupContext="shape" transform="translate(705.81,190.32) rotate(-53.1301) scale(1,-1)">
			<title>Sheet.1063</title>
			<path d="M0 271.2 L11.25 271.2" class="st16"/>
		</g>
		<g id="shape1064-282" v:mID="1064" v:groupContext="shape" transform="translate(681.06,190.32) rotate(-53.1301) scale(1,-1)">
			<title>Sheet.1064</title>
			<path d="M0 271.2 L11.25 271.2" class="st16"/>
		</g>
		<g id="shape1065-285" v:mID="1065" v:groupContext="shape" transform="translate(654.06,190.32) rotate(-53.1301) scale(1,-1)">
			<title>Sheet.1065</title>
			<path d="M0 271.2 L11.25 271.2" class="st16"/>
		</g>
		<g id="shape1066-288" v:mID="1066" v:groupContext="shape" transform="translate(627.06,190.32) rotate(-53.1301) scale(1,-1)">
			<title>Sheet.1066</title>
			<path d="M0 271.2 L11.25 271.2" class="st16"/>
		</g>
		<g id="shape1067-291" v:mID="1067" v:groupContext="shape" transform="translate(600.06,190.32) rotate(-53.1301) scale(1,-1)">
			<title>Sheet.1067</title>
			<path d="M0 271.2 L11.25 271.2" class="st16"/>
		</g>
		<g id="shape1068-294" v:mID="1068" v:groupContext="shape" transform="translate(570.81,190.32) rotate(-53.1301) scale(1,-1)">
			<title>Sheet.1068</title>
			<path d="M0 271.2 L11.25 271.2" class="st16"/>
		</g>
		<g id="shape1069-297" v:mID="1069" v:groupContext="shape" transform="translate(543.81,190.32) rotate(-53.1301) scale(1,-1)">
			<title>Sheet.1069</title>
			<path d="M0 271.2 L11.25 271.2" class="st16"/>
		</g>
		<g id="shape1070-300" v:mID="1070" v:groupContext="shape" transform="translate(519.06,190.32) rotate(-53.1301) scale(1,-1)">
			<title>Sheet.1070</title>
			<path d="M0 271.2 L11.25 271.2" class="st16"/>
		</g>
		<g id="shape1071-303" v:mID="1071" v:groupContext="shape" transform="translate(625.05,216.6) rotate(90)">
			<title>Sheet.1071</title>
			<path d="M0 271.2 L24.84 271.2" class="st4"/>
		</g>
		<g id="shape1072-308" v:mID="1072" v:groupContext="shape" transform="translate(573.3,216.6) rotate(90)">
			<title>Sheet.1072</title>
			<path d="M0 271.2 L24.84 271.2" class="st4"/>
		</g>
		<g id="shape1073-313" v:mID="1073" v:groupContext="shape" transform="translate(681.3,216.6) rotate(90)">
			<title>Sheet.1073</title>
			<path d="M0 271.2 L24.84 271.2" class="st4"/>
		</g>
		<g id="shape1074-318" v:mID="1074" v:groupContext="shape" transform="translate(735.3,216.6) rotate(90)">
			<title>Sheet.1074</title>
			<path d="M0 271.2 L24.84 271.2" class="st4"/>
		</g>
		<g id="shape1075-323" v:mID="1075" v:groupContext="shape" transform="translate(654.3,216.6) rotate(90)">
			<title>Sheet.1075</title>
			<path d="M0 271.2 L24.84 271.2" class="st4"/>
		</g>
		<g id="shape1076-328" v:mID="1076" v:groupContext="shape" transform="translate(598.05,216.6) rotate(90)">
			<title>Sheet.1076</title>
			<path d="M0 271.2 L24.84 271.2" class="st4"/>
		</g>
		<g id="shape1077-333" v:mID="1077" v:groupContext="shape" transform="translate(708.3,216.6) rotate(90)">
			<title>Sheet.1077</title>
			<path d="M0 271.2 L24.84 271.2" class="st4"/>
		</g>
		<g id="shape1078-338" v:mID="1078" v:groupContext="shape" transform="translate(760.05,216.6) rotate(90)">
			<title>Sheet.1078</title>
			<path d="M0 271.2 L24.84 271.2" class="st4"/>
		</g>
	</g>
</svg>
