<?xml version="1.0" encoding="UTF-8" standalone="no"?>
<!DOCTYPE svg PUBLIC "-//W3C//DTD SVG 1.1//EN" "http://www.w3.org/Graphics/SVG/1.1/DTD/svg11.dtd">
<!-- Generated by Microsoft Visio, SVG Export rTDR.vsdx_RO_1c4c4.svg Page-1 -->
<svg xmlns="http://www.w3.org/2000/svg" xmlns:xlink="http://www.w3.org/1999/xlink" xmlns:ev="http://www.w3.org/2001/xml-events"
		xmlns:v="http://schemas.microsoft.com/visio/2003/SVGExtensions/" width="8.11042in" height="2.01667in"
		viewBox="0 0 583.95 145.2" xml:space="preserve" color-interpolation-filters="sRGB" class="st11">
	<v:documentProperties v:langID="1033" v:viewMarkup="false">
		<v:userDefs>
			<v:ud v:nameU="msvConvertTheme"/>
		</v:userDefs>
	</v:documentProperties>

	<style type="text/css">
	<![CDATA[
		.st1 {fill:none;stroke:none;stroke-linecap:round;stroke-linejoin:round;stroke-width:1.2}
		.st2 {fill:#000000;font-family:Calibri;font-size:1.00001em}
		.st3 {marker-end:url(#mrkr13-12);stroke:#000000;stroke-linecap:round;stroke-linejoin:round;stroke-width:1.2}
		.st4 {fill:#000000;fill-opacity:1;stroke:#000000;stroke-opacity:1;stroke-width:0.32258064516129}
		.st5 {fill:#ffffff;stroke:#000000;stroke-linecap:round;stroke-linejoin:round;stroke-width:1}
		.st6 {stroke:#000000;stroke-linecap:round;stroke-linejoin:round;stroke-width:1}
		.st7 {fill:none;stroke:#0000ff;stroke-linecap:round;stroke-linejoin:round;stroke-width:1.2}
		.st8 {stroke:#0000ff;stroke-linecap:round;stroke-linejoin:round;stroke-width:1.2}
		.st9 {fill:#ffffff;stroke:none;stroke-linecap:round;stroke-linejoin:round;stroke-width:1.2}
		.st10 {fill:#0000ff;font-family:Calibri;font-size:1.00001em}
		.st11 {fill:none;fill-rule:evenodd;font-size:12px;overflow:visible;stroke-linecap:square;stroke-miterlimit:3}
	]]>
	</style>

	<defs id="Markers">
		<g id="lend13">
			<path d="M 3 1 L 0 0 L 3 -1 L 3 1 " style="stroke:none"/>
		</g>
		<marker id="mrkr13-12" class="st4" v:arrowType="13" v:arrowSize="2" v:setback="9.3" refX="-9.3" orient="auto"
				markerUnits="strokeWidth" overflow="visible">
			<use xlink:href="#lend13" transform="scale(-3.1,-3.1) "/>
		</marker>
	</defs>
	<g v:mID="0" v:index="1" v:groupContext="foregroundPage">
		<title>Page-1</title>
		<v:pageProperties v:drawingScale="1" v:pageScale="1" v:drawingUnits="19" v:shadowOffsetX="9" v:shadowOffsetY="-9"/>
		<g id="shape4-1" v:mID="4" v:groupContext="shape" transform="translate(0.6,-59.1)">
			<title>Sheet.4</title>
			<desc>TDI</desc>
			<v:textBlock v:margins="rect(4,4,4,4)"/>
			<v:textRect cx="38.25" cy="127.2" width="76.5" height="36"/>
			<rect x="0" y="109.2" width="76.5" height="36" class="st1"/>
			<text x="56.25" y="130.8" class="st2" v:langID="1033"><v:paragraph v:horizAlign="2"/><v:tabList/>TDI</text>		</g>
		<g id="shape5-4" v:mID="5" v:groupContext="shape" transform="translate(551.85,-52.35)">
			<title>Sheet.5</title>
			<desc>TDO</desc>
			<v:textBlock v:margins="rect(4,4,4,4)"/>
			<v:textRect cx="15.75" cy="127.2" width="31.5" height="36"/>
			<rect x="0" y="109.2" width="31.5" height="36" class="st1"/>
			<text x="4" y="130.8" class="st2" v:langID="1033"><v:paragraph/><v:tabList/>TDO</text>		</g>
		<g id="shape9-7" v:mID="9" v:groupContext="shape" transform="translate(182.85,-72.6)">
			<title>Sheet.9</title>
			<path d="M0 145.2 L38.34 145.2" class="st3"/>
		</g>
		<g id="shape10-13" v:mID="10" v:groupContext="shape" transform="translate(503.475,-70.35)">
			<title>Sheet.10</title>
			<path d="M0 145.2 L38.34 145.2" class="st3"/>
		</g>
		<g id="shape12-18" v:mID="12" v:groupContext="shape" transform="translate(309.975,-126.6)">
			<title>Sheet.12</title>
			<desc>Parallel Capture data</desc>
			<v:textBlock v:margins="rect(4,4,4,4)"/>
			<v:textRect cx="84.375" cy="136.2" width="168.75" height="18"/>
			<rect x="0" y="127.2" width="168.75" height="18" class="st1"/>
			<text x="33.23" y="139.8" class="st2" v:langID="1033"><v:paragraph v:horizAlign="1"/><v:tabList/>Parallel Capture data</text>		</g>
		<g id="group33-21" transform="translate(302.1,-90.6)" v:mID="33" v:groupContext="group">
			<title>Sheet.33</title>
			<g id="group34-22" v:mID="34" v:groupContext="group">
				<title>Sheet.34</title>
				<g id="shape35-23" v:mID="35" v:groupContext="shape" transform="translate(199.2,109.2) rotate(90)">
					<title>Sheet.35</title>
					<path d="M0 145.2 L24.84 145.2" class="st3"/>
				</g>
				<g id="shape36-28" v:mID="36" v:groupContext="shape" transform="translate(145.2,109.2) rotate(90)">
					<title>Sheet.36</title>
					<path d="M0 145.2 L24.84 145.2" class="st3"/>
				</g>
				<g id="shape37-33" v:mID="37" v:groupContext="shape" transform="translate(254.887,109.2) rotate(90)">
					<title>Sheet.37</title>
					<path d="M0 145.2 L24.84 145.2" class="st3"/>
				</g>
				<g id="shape38-38" v:mID="38" v:groupContext="shape" transform="translate(307.2,109.2) rotate(90)">
					<title>Sheet.38</title>
					<path d="M0 145.2 L24.84 145.2" class="st3"/>
				</g>
			</g>
			<g id="group39-43" transform="translate(27,0)" v:mID="39" v:groupContext="group">
				<title>Sheet.39</title>
				<g id="shape40-44" v:mID="40" v:groupContext="shape" transform="translate(199.2,109.2) rotate(90)">
					<title>Sheet.40</title>
					<path d="M0 145.2 L24.84 145.2" class="st3"/>
				</g>
				<g id="shape41-49" v:mID="41" v:groupContext="shape" transform="translate(145.2,109.2) rotate(90)">
					<title>Sheet.41</title>
					<path d="M0 145.2 L24.84 145.2" class="st3"/>
				</g>
				<g id="shape42-54" v:mID="42" v:groupContext="shape" transform="translate(254.887,109.2) rotate(90)">
					<title>Sheet.42</title>
					<path d="M0 145.2 L24.84 145.2" class="st3"/>
				</g>
				<g id="shape43-59" v:mID="43" v:groupContext="shape" transform="translate(307.2,109.2) rotate(90)">
					<title>Sheet.43</title>
					<path d="M0 145.2 L24.84 145.2" class="st3"/>
				</g>
			</g>
		</g>
		<g id="shape1000-64" v:mID="1000" v:groupContext="shape" transform="translate(164.85,-63.6)">
			<title>Sheet.1000</title>
			<path d="M0 145.2 L9 145.2 A9 9 -180 0 0 9 127.2 L0 127.2 L0 145.2 Z" class="st5"/>
		</g>
		<g id="shape1001-66" v:mID="1001" v:groupContext="shape" transform="translate(124.35,-50.1)">
			<title>Sheet.1001</title>
			<path d="M0 145.2 L9 145.2 A9 9 -180 0 0 9 127.2 L0 127.2 L0 145.2 Z" class="st5"/>
		</g>
		<g id="shape1002-68" v:mID="1002" v:groupContext="shape" transform="translate(164.85,213.3) rotate(180)">
			<title>Sheet.1002</title>
			<path d="M0 145.2 L90 145.2" class="st6"/>
		</g>
		<g id="shape1003-71" v:mID="1003" v:groupContext="shape" transform="translate(142.35,-59.1)">
			<title>Sheet.1003</title>
			<path d="M22.5 136.2 L9 136.2 L9 145.2 L0 145.2" class="st6"/>
		</g>
		<g id="shape1004-74" v:mID="1004" v:groupContext="shape" transform="translate(124.35,226.8) rotate(180)">
			<title>Sheet.1004</title>
			<path d="M0 145.2 L49.5 145.2" class="st6"/>
		</g>
		<g id="shape1005-77" v:mID="1005" v:groupContext="shape" transform="translate(124.35,235.8) rotate(180)">
			<title>Sheet.1005</title>
			<path d="M0 145.2 L49.5 145.2" class="st6"/>
		</g>
		<g id="shape1006-80" v:mID="1006" v:groupContext="shape" transform="translate(0.6,-47.85)">
			<title>Sheet.1006</title>
			<desc>Shift</desc>
			<v:textBlock v:margins="rect(4,4,4,4)"/>
			<v:textRect cx="38.25" cy="127.2" width="76.5" height="36"/>
			<rect x="0" y="109.2" width="76.5" height="36" class="st1"/>
			<text x="50.25" y="130.8" class="st2" v:langID="1033"><v:paragraph v:horizAlign="2"/><v:tabList/>Shift</text>		</g>
		<g id="shape1007-83" v:mID="1007" v:groupContext="shape" transform="translate(0.6,-36.6)">
			<title>Sheet.1007</title>
			<desc>Select</desc>
			<v:textBlock v:margins="rect(4,4,4,4)"/>
			<v:textRect cx="38.25" cy="127.2" width="76.5" height="36"/>
			<rect x="0" y="109.2" width="76.5" height="36" class="st1"/>
			<text x="43.2" y="130.8" class="st2" v:langID="1033"><v:paragraph v:horizAlign="2"/><v:tabList/>Select</text>		</g>
		<g id="shape1008-86" v:mID="1008" v:groupContext="shape" transform="translate(142.35,-23.1)">
			<title>Sheet.1008</title>
			<path d="M0 145.2 L63 145.2 L63 111.45 L78.84 111.45" class="st3"/>
		</g>
		<g id="shape1010-91" v:mID="1010" v:groupContext="shape" transform="translate(124.35,-14.1)">
			<title>Sheet.1010</title>
			<path d="M0 145.2 L9 145.2 A9 9 -180 0 0 9 127.2 L0 127.2 L0 145.2 Z" class="st5"/>
		</g>
		<g id="shape1011-93" v:mID="1011" v:groupContext="shape" transform="translate(110.85,-27.6)">
			<title>Sheet.1011</title>
			<path d="M0 118.2 L0 145.2 L13.5 145.2" class="st6"/>
		</g>
		<g id="shape1012-96" v:mID="1012" v:groupContext="shape" transform="translate(124.35,271.8) rotate(180)">
			<title>Sheet.1012</title>
			<path d="M0 145.2 L49.5 145.2" class="st6"/>
		</g>
		<g id="shape1013-99" v:mID="1013" v:groupContext="shape" transform="translate(0.6,-0.6)">
			<title>Sheet.1013</title>
			<desc>Capture</desc>
			<v:textBlock v:margins="rect(4,4,4,4)"/>
			<v:textRect cx="38.25" cy="127.2" width="76.5" height="36"/>
			<rect x="0" y="109.2" width="76.5" height="36" class="st1"/>
			<text x="33.57" y="130.8" class="st2" v:langID="1033"><v:paragraph v:horizAlign="2"/><v:tabList/>Capture</text>		</g>
		<g id="shape1027-102" v:mID="1027" v:groupContext="shape" transform="translate(232.35,-50.0999)">
			<title>Sheet.1027</title>
			<rect x="0" y="104.7" width="270" height="40.5" class="st7"/>
		</g>
		<g id="group1028-104" transform="translate(313.35,-50.0999)" v:mID="1028" v:groupContext="group">
			<title>Sheet.1028</title>
			<g id="shape1029-105" v:mID="1029" v:groupContext="shape" transform="translate(254.887,104.7) rotate(90)">
				<title>Sheet.1029</title>
				<path d="M0 145.2 L40.5 145.2" class="st8"/>
			</g>
			<g id="shape1030-108" v:mID="1030" v:groupContext="shape" transform="translate(199.2,104.7) rotate(90)">
				<title>Sheet.1030</title>
				<path d="M0 145.2 L40.5 145.2" class="st8"/>
			</g>
			<g id="shape1031-111" v:mID="1031" v:groupContext="shape" transform="translate(172.2,104.7) rotate(90)">
				<title>Sheet.1031</title>
				<path d="M0 145.2 L40.5 145.2" class="st8"/>
			</g>
			<g id="shape1032-114" v:mID="1032" v:groupContext="shape" transform="translate(226.2,104.7) rotate(90)">
				<title>Sheet.1032</title>
				<path d="M0 145.2 L40.5 145.2" class="st8"/>
			</g>
			<g id="shape1033-117" v:mID="1033" v:groupContext="shape" transform="translate(280.2,104.7) rotate(90)">
				<title>Sheet.1033</title>
				<path d="M0 145.2 L40.5 145.2" class="st8"/>
			</g>
			<g id="shape1034-120" v:mID="1034" v:groupContext="shape" transform="translate(145.2,104.7) rotate(90)">
				<title>Sheet.1034</title>
				<path d="M0 145.2 L40.5 145.2" class="st8"/>
			</g>
			<g id="shape1035-123" v:mID="1035" v:groupContext="shape" transform="translate(307.2,104.7) rotate(90)">
				<title>Sheet.1035</title>
				<path d="M0 145.2 L40.5 145.2" class="st8"/>
			</g>
		</g>
		<g id="shape1037-126" v:mID="1037" v:groupContext="shape" transform="translate(226.162,-63.6)">
			<title>Sheet.1037</title>
			<desc>Serial in</desc>
			<v:textBlock v:margins="rect(4,4,4,4)"/>
			<v:textRect cx="28.6875" cy="136.2" width="57.38" height="18"/>
			<rect x="0" y="127.2" width="57.375" height="18" class="st1"/>
			<text x="9.34" y="139.8" class="st2" v:langID="1033"><v:paragraph v:horizAlign="1"/><v:tabList/>Serial in</text>		</g>
		<g id="shape1038-129" v:mID="1038" v:groupContext="shape" transform="translate(226.162,-50.0999)">
			<title>Sheet.1038</title>
			<desc>Capture</desc>
			<v:textBlock v:margins="rect(4,4,4,4)"/>
			<v:textRect cx="28.6875" cy="136.2" width="57.38" height="18"/>
			<rect x="0" y="127.2" width="57.375" height="18" class="st1"/>
			<text x="9.22" y="139.8" class="st2" v:langID="1033"><v:paragraph v:horizAlign="1"/><v:tabList/>Capture</text>		</g>
		<g id="shape1045-132" v:mID="1045" v:groupContext="shape" transform="translate(436.05,54.6) rotate(90)">
			<title>Sheet.1045</title>
			<path d="M0 145.2 L40.5 145.2" class="st8"/>
		</g>
		<g id="shape1036-135" v:mID="1036" v:groupContext="shape" transform="translate(286.35,-59.0999)">
			<title>Sheet.1036</title>
			<desc>Serial shift Register</desc>
			<v:textBlock v:margins="rect(4,4,4,4)"/>
			<v:textRect cx="96.75" cy="136.2" width="193.5" height="18"/>
			<rect x="0" y="127.2" width="193.5" height="18" class="st9"/>
			<text x="49.98" y="139.8" class="st10" v:langID="1033"><v:paragraph v:horizAlign="1"/><v:tabList/>Serial shift Register</text>		</g>
	</g>
</svg>
