<?xml version="1.0" encoding="UTF-8" standalone="no"?>
<!DOCTYPE svg PUBLIC "-//W3C//DTD SVG 1.1//EN" "http://www.w3.org/Graphics/SVG/1.1/DTD/svg11.dtd">
<!-- Generated by Microsoft Visio, SVG Export TAP3p0_Endebug3.vsdx_High_High_Level_102e0.svg Page-1 -->
<svg xmlns="http://www.w3.org/2000/svg" xmlns:xlink="http://www.w3.org/1999/xlink" xmlns:ev="http://www.w3.org/2001/xml-events"
		xmlns:v="http://schemas.microsoft.com/visio/2003/SVGExtensions/" width="15.4656in" height="8.28125in"
		viewBox="0 0 1113.52 596.25" xml:space="preserve" color-interpolation-filters="sRGB" class="st11">
	<v:documentProperties v:langID="1033" v:viewMarkup="false">
		<v:userDefs>
			<v:ud v:nameU="msvConvertTheme"/>
		</v:userDefs>
	</v:documentProperties>

	<style type="text/css">
	<![CDATA[
		.st1 {fill:#ffffff;stroke:#000000;stroke-linecap:round;stroke-linejoin:round;stroke-width:1.5}
		.st2 {fill:none;stroke:none;stroke-linecap:round;stroke-linejoin:round;stroke-width:0.75}
		.st3 {fill:#000000;font-family:Calibri;font-size:1.99999em}
		.st4 {font-size:1em}
		.st5 {marker-end:url(#mrkr13-19);stroke:#000000;stroke-linecap:round;stroke-linejoin:round;stroke-width:2.25}
		.st6 {fill:#000000;fill-opacity:1;stroke:#000000;stroke-opacity:1;stroke-width:0.47169811320755}
		.st7 {fill:#dbeef3;stroke:#00b0f0;stroke-linecap:round;stroke-linejoin:round;stroke-width:2.25}
		.st8 {fill:#000000;font-family:Calibri;font-size:4.99999em}
		.st9 {fill:#ffffd0;stroke:#00b0f0;stroke-linecap:round;stroke-linejoin:round;stroke-width:2.25}
		.st10 {fill:#fcebdd;stroke:#00b0f0;stroke-linecap:round;stroke-linejoin:round;stroke-width:2.25}
		.st11 {fill:none;fill-rule:evenodd;font-size:12px;overflow:visible;stroke-linecap:square;stroke-miterlimit:3}
	]]>
	</style>

	<defs id="Markers">
		<g id="lend13">
			<path d="M 3 1 L 0 0 L 3 -1 L 3 1 " style="stroke:none"/>
		</g>
		<marker id="mrkr13-19" class="st6" v:arrowType="13" v:arrowSize="2" v:setback="6.36" refX="-6.36" orient="auto"
				markerUnits="strokeWidth" overflow="visible">
			<use xlink:href="#lend13" transform="scale(-2.12,-2.12) "/>
		</marker>
	</defs>
	<g v:mID="0" v:index="1" v:groupContext="foregroundPage">
		<title>Page-1</title>
		<v:pageProperties v:drawingScale="1" v:pageScale="1" v:drawingUnits="19" v:shadowOffsetX="9" v:shadowOffsetY="-9"/>
		<g id="shape1276-1" v:mID="1276" v:groupContext="shape" transform="translate(176.4,-217.125)">
			<title>Sheet.1276</title>
			<path d="M27 416.25 L27 560.25 L0 560.25 L54 596.25 L108 560.25 L81 560.25 L81 416.25 L27 416.25 Z" class="st1"/>
		</g>
		<g id="shape1271-3" v:mID="1271" v:groupContext="shape" transform="translate(-355.85,361.125) rotate(-90)">
			<title>Sheet.1271</title>
			<desc>rTDR Interface</desc>
			<v:textBlock v:margins="rect(4,4,4,4)"/>
			<v:textRect cx="76" cy="586.25" width="152" height="20"/>
			<rect x="0" y="576.25" width="152" height="20" class="st2"/>
			<text x="5.4" y="593.45" class="st3" v:langID="1033"><v:paragraph v:horizAlign="1"/><v:tabList/>rTDR Interface</text>		</g>
		<g id="shape1273-6" v:mID="1273" v:groupContext="shape" transform="translate(518.4,795.375) rotate(180)">
			<title>Sheet.1273</title>
			<path d="M27 416.25 L27 560.25 L0 560.25 L54 596.25 L108 560.25 L81 560.25 L81 416.25 L27 416.25 Z" class="st1"/>
		</g>
		<g id="shape1274-8" v:mID="1274" v:groupContext="shape" transform="translate(-121.85,369.125) rotate(-90)">
			<title>Sheet.1274</title>
			<desc>Secondary TAP Interface</desc>
			<v:textBlock v:margins="rect(4,4,4,4)"/>
			<v:textRect cx="76" cy="586.25" width="152" height="20"/>
			<rect x="0" y="576.25" width="152" height="20" class="st2"/>
			<text x="4" y="580.25" class="st3" v:langID="1033"><v:paragraph v:spLine="-1"/><v:tabList/>Secondary <tspan x="4"
						dy="1em" class="st4">TAP Interface</tspan></text>		</g>
		<g id="shape1277-12" v:mID="1277" v:groupContext="shape" transform="translate(156.15,77.6251) rotate(-90)">
			<title>Sheet.1277</title>
			<path d="M11.25 416.25 L11.25 560.25 L0 560.25 L22.5 596.25 L45 560.25 L33.75 560.25 L33.75 416.25 L11.25 416.25 Z"
					class="st1"/>
		</g>
		<g id="shape1278-14" v:mID="1278" v:groupContext="shape" transform="translate(-248.85,379.125) rotate(-90)">
			<title>Sheet.1278</title>
			<path d="M0 596.25 L165.69 596.25" class="st5"/>
		</g>
		<g id="shape1279-20" v:mID="1279" v:groupContext="shape" transform="translate(-255.85,369.125) rotate(-90)">
			<title>Sheet.1279</title>
			<desc>Endebug_en</desc>
			<v:textBlock v:margins="rect(4,4,4,4)"/>
			<v:textRect cx="76" cy="586.25" width="152" height="20"/>
			<rect x="0" y="576.25" width="152" height="20" class="st2"/>
			<text x="15.05" y="593.45" class="st3" v:langID="1033"><v:paragraph v:horizAlign="1"/><v:tabList/>Endebug_en</text>		</g>
		<g id="shape1092-23" v:mID="1092" v:groupContext="shape" transform="translate(122.4,-397.125)">
			<title>Sheet.1092</title>
			<rect x="0" y="398.25" width="450" height="198" class="st7"/>
		</g>
		<g id="shape1093-25" v:mID="1093" v:groupContext="shape" transform="translate(258.4,-485.125)">
			<title>Sheet.1093</title>
			<desc>CLTAP</desc>
			<v:textBlock v:margins="rect(4,4,4,4)"/>
			<v:textRect cx="94" cy="586.25" width="188" height="20"/>
			<rect x="0" y="576.25" width="188" height="20" class="st2"/>
			<text x="17.92" y="604.25" class="st8" v:langID="1033"><v:paragraph v:horizAlign="1"/><v:tabList/>CLTAP</text>		</g>
		<g id="shape1096-28" v:mID="1096" v:groupContext="shape" transform="translate(752.4,-397.125)">
			<title>Sheet.1096</title>
			<rect x="0" y="398.25" width="360" height="198" class="st9"/>
		</g>
		<g id="shape1097-30" v:mID="1097" v:groupContext="shape" transform="translate(801.587,-487.125)">
			<title>Sheet.1097</title>
			<desc>TAP Network</desc>
			<v:textBlock v:margins="rect(4,4,4,4)"/>
			<v:textRect cx="130.813" cy="586.25" width="261.63" height="20"/>
			<rect x="0" y="576.25" width="261.625" height="20" class="st2"/>
			<text x="83.34" y="571.25" class="st8" v:langID="1033"><v:paragraph v:spLine="-1" v:horizAlign="1"/><v:tabList/>TAP <tspan
						x="25.11" dy="1em" class="st4">Network</tspan></text>		</g>
		<g id="shape1261-34" v:mID="1261" v:groupContext="shape" transform="translate(122.4,-1.125)">
			<title>Sheet.1261</title>
			<rect x="0" y="380.25" width="450" height="216" class="st10"/>
		</g>
		<g id="shape1166-36" v:mID="1166" v:groupContext="shape" transform="translate(230.4,-99.125)">
			<title>Sheet.1166</title>
			<desc>EndebugIP</desc>
			<v:textBlock v:margins="rect(4,4,4,4)"/>
			<v:textRect cx="117" cy="586.25" width="234" height="20"/>
			<rect x="0" y="576.25" width="234" height="20" class="st2"/>
			<text x="10.26" y="568.25" class="st8" v:langID="1033"><v:paragraph v:horizAlign="1"/><v:tabList/>Endebug<tspan
						x="93.94" dy="1.2em" class="st4">IP</tspan></text>		</g>
		<g id="shape1280-40" v:mID="1280" v:groupContext="shape" transform="translate(1168.65,122.625) rotate(90)">
			<title>Sheet.1280</title>
			<path d="M11.25 416.25 L11.25 560.25 L0 560.25 L22.5 596.25 L45 560.25 L33.75 560.25 L33.75 416.25 L11.25 416.25 Z"
					class="st1"/>
		</g>
		<g id="shape1281-42" v:mID="1281" v:groupContext="shape" transform="translate(-473.85,122.625) rotate(-90)">
			<title>Sheet.1281</title>
			<path d="M11.25 506.25 L11.25 578.25 L0 578.25 L22.5 596.25 L45 578.25 L33.75 578.25 L33.75 506.25 L11.25 506.25 Z"
					class="st1"/>
		</g>
		<g id="shape1282-44" v:mID="1282" v:groupContext="shape" transform="translate(-571.85,171.125) rotate(-90)">
			<title>Sheet.1282</title>
			<desc>JTAG Port</desc>
			<v:textBlock v:margins="rect(4,4,4,4)"/>
			<v:textRect cx="76" cy="586.25" width="152" height="20"/>
			<rect x="0" y="576.25" width="152" height="20" class="st2"/>
			<text x="28.37" y="593.45" class="st3" v:langID="1033"><v:paragraph v:horizAlign="1"/><v:tabList/>JTAG Port</text>		</g>
	</g>
</svg>
